<?xml version="1.0" encoding="UTF-8"?>
<svg id="Layer_1" xmlns="http://www.w3.org/2000/svg" version="1.1" viewBox="0 0 666.9574468 75.2553191">
  <!-- Generator: Adobe Illustrator 29.7.1, SVG Export Plug-In . SVG Version: 2.1.1 Build 8)  -->
  <defs>
    <style>
      .st0 {
        fill: #fff;
      }
    </style>
  </defs>
  <path class="st0" d="M17.7450126,43.0195306h18.5964661c5.6975555,0,8.7475281,3.6642303,8.7475281,7.9215088,0,4.8927002-3.2617798,8.0274048-8.7475281,8.0274048h-18.5964661v-15.9489136ZM17.7450126,15.760238h18.0881348c4.8926849,0,7.9426727,3.2618103,7.9426727,7.4343567,0,4.3631897-3.0499878,7.5190735-7.9426727,7.5190735h-18.0881348v-14.9534302ZM40.1116051,71.2743219c12.8989258,0,19.7190399-8.133316,19.7190399-18.2999573,0-8.5357361-5.8034515-15.5464783-13.0048218-16.6690369,6.3964996-1.3132019,11.6916351-7.0107422,11.6916351-15.5464935,0-9.0652466-6.6083221-17.2832794-19.5284119-17.2832794H3.2999138v67.7987671h36.8116913Z"/>
  <rect class="st0" x="96.7269768" y="3.4755548" width="14.4450836" height="67.7987671"/>
  <polygon class="st0" points="211.3135551 71.2743219 211.3135551 3.4755548 196.8684563 3.4755548 196.8684563 47.3827203 165.4577812 3.4755548 150.6102775 3.4755548 150.6102775 71.2743219 165.0553459 71.2743219 165.0553459 25.7362512 197.3767876 71.2743219 211.3135551 71.2743219"/>
  <path class="st0" d="M303.5332817,37.4279016c0,12.6023865-8.1333008,22.2606812-20.6509705,22.2606812-12.4964905,0-20.5238953-9.6582947-20.5238953-22.2606812,0-12.7082977,8.0274048-22.2606964,20.5238953-22.2606964,12.5176697,0,20.6509705,9.5523987,20.6509705,22.2606964ZM247.5109123,37.4279016c0,20.4391632,14.9322205,35.0748901,35.3713989,35.0748901,20.5450745,0,35.4773254-14.6357269,35.4773254-35.0748901,0-20.4391785-14.932251-35.0749054-35.4773254-35.0749054-20.4391785,0-35.3713989,14.6357269-35.3713989,35.0749054Z"/>
  <polygon class="st0" points="428.074633 71.2743219 428.074633 3.4755548 407.7413811 3.4755548 391.2629265 45.7518304 374.7845329 3.4755548 354.557177 3.4755548 354.557177 71.2743219 369.0022453 71.2743219 369.0022453 22.4744561 388.1070427 71.2743219 394.4188103 71.2743219 413.5236076 22.4744561 413.5236076 71.2743219 428.074633 71.2743219"/>
  <rect class="st0" x="467.5126823" y="3.4755548" width="14.4450684" height="67.7987671"/>
  <path class="st0" d="M560.6432976,47.0861963h-22.4725342l11.2892456-31.114151,11.1832886,31.114151ZM584.6407951,71.2743219l-26.1367188-67.7987671h-18.0881348l-26.2426147,67.7987671h15.8641357l4.2785034-11.6916351h30.2880859l4.2784424,11.6916351h15.7583008Z"/>
  <polygon class="st0" points="660.0645622 71.2743219 660.0645622 58.5660241 631.4073356 58.5660241 631.4073356 3.4755548 616.9622673 3.4755548 616.9622673 71.2743219 660.0645622 71.2743219"/>
</svg>