<?xml version="1.0" encoding="UTF-8"?>
<svg id="Layer_1" xmlns="http://www.w3.org/2000/svg" version="1.1" viewBox="0 0 101.4000015 33.5">
  <!-- Generator: Adobe Illustrator 29.7.1, SVG Export Plug-In . SVG Version: 2.1.1 Build 8)  -->
  <defs>
    <style>
      .st0 {
        fill: #fff;
      }
    </style>
  </defs>
  <path class="st0" d="M84.1999969,20.3999996c.3264542-.864172.2146759-1.8328838-.3000031-2.6000004-.5262146-.630909-1.2817307-1.0266552-2.0999985-1.1000004l-17.4000015-.2000008c-.0999985,0-.1999969-.1000004-.3000031-.1000004-.08284-.0621319-.0996323-.179657-.0374985-.2625008.0106583-.0142117.0232849-.0268383.0374985-.0374985.0999985-.1999998.1999969-.3000002.4000015-.3000002l17.5000076-.1999979c2.2621536-.251049,4.2123871-1.7041674,5.0999985-3.8000002l1-2.5999994c0-.1000004.0999985-.1999998,0-.3000002-1.378746-6.1412237-7.4748917-10.0019722-13.6161194-8.6232228-3.8633423.8673484-6.9996109,3.6777766-8.2838821,7.4232221-1.0450363-.7463665-2.3197327-1.1004491-3.5999985-1-2.4199562.2698302-4.3301697,2.1800432-4.5999985,4.6000004-.0665855.6013975-.032795,1.2096796.0999985,1.8000002-3.9529572.1092749-7.1005478,3.3455315-7.0999985,7.2999992-.0164108.3694973.0172272.7395191.0999985,1.1000004.0095062.1615849.1384163.2904949.2999992.2999992h32.1000023c.1999969,0,.4000015-.1000004.4000015-.2999992l.2999954-1.1000004Z"/>
  <path class="st0" d="M89.6999969,9.1999998h-.5c-.0999985,0-.1999969.1000004-.3000031.1999998l-.6999969,2.3999996c-.3264542.864172-.2146759,1.8328829.3000031,2.6000004.5262146.630909,1.2817307,1.0266542,2.0999985,1.1000004l3.6999969.1999998c.0999985,0,.1999969.1000004.3000031.1000004.08284.0621319.0996323.179657.0374985.2624998-.0106583.0142136-.0232849.0268402-.0374985.0375004-.0999985.2000008-.1999969.2999992-.4000015.2999992l-3.8000031.2000008c-2.2621536.251049-4.2123871,1.7041664-5.0999985,3.7999992l-.1999969.8999996c-.0999985.1000004,0,.2999992.1999969.2999992h13.2000046c.1449814.02071.2792969-.0800304.3000031-.225008.0035553-.0248718.0035553-.0501213,0-.0749912.2380829-.8472824.3723984-1.7203369.4000015-2.6000004-.0329819-5.2329817-4.2670212-9.4670153-9.5-9.5"/>
  <path class="st0" d="M100.5,27.2000008c-.4970551,0-.9000015-.4029446-.9000015-.9000015.0000076-.497057.4029465-.8999996.9000015-.8999977.4970627,0,.9000015.4029446.9000015.8999996.0020676.4949856-.397522.8979301-.8925018.8999996-.0025024.0000095-.0049973.0000095-.0074997,0M100.5,25.6000004c-.3865967-.0000019-.7000046.3133984-.7000046.6999969s.3134003.7000008.6999969.7000027c.3866043.0000019.7000046-.3133965.7000046-.6999969v-.0000019c.009201-.3773956-.2892761-.6907978-.6666718-.7000008-.0111084-.0002708-.0222168-.0002708-.0333252,0M100.9000015,26.8000011h-.1999969l-.1999969-.2999992h-.1999969v.2999992h-.1999969v-.8999996h.5c.1449814-.02071.2792969.0800304.3000031.225008.0035553.0248718.0035553.0501213,0,.0749912,0,.1000004-.0999985.2000008-.1999969.2999992l.1999969.2999992-.0000153.0000019ZM100.5999985,26.3000011q.0999985,0,.0999985-.1000004c.001152-.0540791-.0417557-.0988503-.0958328-.1000004-.0013885-.0000286-.0027771-.0000286-.0041656,0h-.3000031v.2999992h.3000031v-.0999985ZM10.9000015,25.4000015h2.1999998v6h3.8000002v1.9000015h-6v-7.9000015ZM19.2000008,29.3000011c.0001488-2.2670784,1.8381023-4.1047878,4.1051807-4.1046391.0649662.0000038.1299248.0015507.1948185.0046387,2.2179356-.0998974,4.0969105,1.6171131,4.1968079,3.8350487.0039749.0882587.0050411.1766243.0031929.2649517-.0001488,2.2670784-1.8381023,4.1047878-4.1051807,4.1046391-.0649662-.0000038-.1299248-.0015526-.1948185-.0046387-2.251709.0669289-4.1313362-1.7041855-4.1982651-3.9558945-.0014267-.0480213-.0020065-.0960636-.0017357-.1441059M25.5,29.3000011c.0800667-1.1324768-.7730827-2.1154385-1.9055595-2.1955032-.0314407-.002224-.0629292-.0037231-.0944405-.0044975-1.1597977.0566158-2.0541039,1.0427132-1.997488,2.2025108.0527477,1.0805798.9169083,1.9447403,1.997488,1.997488,1.2000008.2000008,2-.7999992,2-2M30.3999996,29.7999992v-4.3999996h2.1999989v4.3999996c0,1.1000004.5999985,1.7000008,1.5,1.7000008.770134.0640202,1.4463501-.5083961,1.5103683-1.2785301.0089149-.1071987.0054321-.2150688-.0103683-.3214703v-4.5h2.2000008v4.3999996c0,2.5999985-1.5,3.7000008-3.7000008,3.7000008-2.2999992-.0999985-3.7000008-1.2000008-3.7000008-3.7000008M41.0999985,25.3999996h3.0999985c2.7999992,0,4.5,1.6000004,4.5,3.8999996s-1.7000008,4-4.5,4h-3v-7.8999996h-.0999985ZM44.1999969,31.2999992c1.1045685.1054306,2.0854683-.7045326,2.1908989-1.8091011.1054306-1.1045704-.7045326-2.0854683-1.8091011-2.1908989-.126976-.0121193-.2548218-.0121193-.3817978,0h-.9000015v4h.9000015ZM51.7999954,25.3999996h6.2999992v1.8999996h-4.0999947v1.2999992h3.7000008v1.7999992h-3.7000008v2.9000015h-2.2000008l-.0000038-7.8999996ZM61.1999969,25.3999996h2.2000008v6h3.7999992v1.8999996h-6v-7.8999996ZM72.8999939,25.2999992h2.1999969l3.4000015,8h-2.3999939l-.5999985-1.3999996h-3.0999985l-.5999985,1.3999996h-2.3000031l3.3999939-8ZM74.8999939,30.1999989l-.8999939-2.1999989-.9000015,2.2000008,1.7999954-.0000019ZM81.2999954,25.3999977h3.7000046c.9544754-.0774422,1.8976593.2490463,2.5999985.8999996.9853897,1.0624199.9229507,2.7224998-.139473,3.7078915-.2230606.2068901-.4804077.3734055-.7605286.4921074l1.9000015,2.7999992h-2.5l-1.5999985-2.3999996h-1v2.3999996h-2.1999969l-.0000076-7.8999977ZM84.8999939,29.1999969c.6999969,0,1.1999969-.3999996,1.1999969-.8999996,0-.6000004-.5-.8999996-1.1999969-.8999996h-1.3999939v1.8999996h1.4000015l-.0000076-.1000004ZM91.3999939,25.3999977h6.4000015v1.7999992h-4.1999969v1.2000008h3.8000031v1.7999992h-3.8000031v1.2000008h4.3000031v1.9000015h-6.5l-.0000076-7.9000015ZM6.0999999,30.2999992c-.3081999.7221756-1.0148373,1.1932678-1.7999997,1.2000008-1.1597981-.0566044-2.0541136-1.0426941-1.9975095-2.2024918.0527387-1.080595.916914-1.9447708,1.9975095-1.997509.8357859.0160465,1.5822678.5267963,1.9000001,1.2999992h2.2999997c-.4062881-1.9780502-2.1819835-3.3732395-4.1999998-3.2999992C2.0008943,25.2252331.0764912,27.0284176.0017256,29.3275242c-.0007854.0241528-.0013607.0483131-.0017256.0724754-.012659,2.2526684,1.8032267,4.0890789,4.0558944,4.1017361.0480413.0002708.0960841-.000309.1441054-.0017357,1.9650369.0132561,3.6912131-1.3019295,4.1999998-3.2000008h-2.2999997Z"/>
</svg>