<?xml version="1.0" encoding="UTF-8"?>
<svg id="Layer_1" xmlns="http://www.w3.org/2000/svg" version="1.1" viewBox="0 0 192 192">
  <!-- Generator: Adobe Illustrator 29.5.1, SVG Export Plug-In . SVG Version: 2.1.0 Build 141)  -->
  <defs>
    <style>
      .st0 {
        fill: #fff;
      }
    </style>
  </defs>
  <rect width="192" height="192"/>
  <path class="st0" d="M59,41c.6-.3,2.9-.5,6.8-.5h10.1c1.3,0,3.7,0,7.3-.1,3.6,0,7.1-.1,10.5-.1s6.7,0,9.8-.1c3.1,0,4.9-.3,5.4-.8,1.3-.5,1.7-.6,1.4-.3-.3.2.2.7,1.4,1.3,1.6.2,3.3.8,5.1,1.8,1.8,1,3.9,2.7,6.3,5.1,2.7,2.1,5.4,5.3,8,9.8,2.6,4.5,4,10,4.2,16.7.3,3.5-.5,7-2.5,10.4-2,3.4-4.2,6.7-6.7,9.8-2.5,3.1-4.8,5.5-7.1,7.1-2.3,1.7-3.5,2.7-3.7,3.2-.6.5-.8.8-.6,1.1s.4.8.4,1.8,1.6,6.3,4.8,15c.8,2.4,2,4.8,3.7,7.3s3.4,4.9,5.1,7.4c1.7,2.5,3.3,4.7,4.6,6.7,1.3,2,2.2,3.4,2.5,4.2.6,2.4.7,4.3.2,5.8-.5,1.5-2.2,3-5.2,4.4-1.4.8-2.9.4-4.4-1.1-1.5-1.5-3-3.5-4.4-5.8-1.4-2.4-2.7-5-3.8-7.8-1.1-2.8-2.1-5.2-2.9-7.3-.8-1.9-1.9-4.5-3.3-7.9-1.4-3.3-2.9-6.8-4.4-10.3-1.5-3.5-3-6.6-4.4-9.4-1.4-2.8-2.7-4.5-3.8-5.1-2.4-1.1-4.6-1.2-6.6-.2-2,1-4.2,1.6-6.6,1.9-1.9.6-5,1-9.2,1s-6.8.2-7.8.7c-1,.8-1.3,2.4-1.2,4.8.2,2.4.4,4.4.7,6,0,.8,0,2.1-.2,3.8-.2,1.7-.3,3.7-.5,5.8s-.4,4.2-.6,6.1c-.2,1.9-.4,3.3-.4,4.3s.6,3.3,1.8,6c1.2,2.7,1.7,5,1.6,6.9-.3,2.1-1.4,3.9-3.2,5.4-1.8,1.5-3.7,2-5.6,1.6-1.9-.6-2.9-1-2.9-1.2s-.6-1.3-1.7-3.3c-.6-1.3-1-3.7-1.2-7.1-.2-3.5-.2-7.2-.2-11s0-7.4.2-10.7c.2-3.3.2-5.4.2-6.2v-10.6c0-6.1,0-12.8-.2-19.9-.2-7.2-.2-13.9-.2-20.1v-11.1c0-2.4.2-5.2.7-8.6.5-3.3,1.3-5.4,2.6-6.2ZM71.9,114.9c0-.8,0-2-.1-3.7s.5-2.3,1.8-1.8c1.6.6,3.1,1.4,4.7,2.3,1.5.9,3.1,1.3,4.9,1.3s2.5.7,3.7,2.2c1.2,1.4,1,2.2-.6,2.4-1.3.2-3.1-.3-5.5-1.4l-2.1-1.2c-.5,1.1-.7,2.4-.7,3.8s0,2.7-.2,4.4,0,3.5.2,5.6c0,2.2-.2,4.9-.7,7.9-.5,3-1,6-1.4,9.1-.5,3-1.1,5.7-1.8,8.1-.7,2.4-1.4,4.1-2,5-1,1.3-2.8,1-5.5-1-1.1-1.1-2.3-2.3-3.6-3.6.5.3,1.3.7,2.6,1.2,1.6.5,2.9.7,3.8.7s1.4,0,1.4-.2.6-1,1.9-2.4c1.1-1.3,1.7-2.5,1.8-3.6,0-1.1,0-2.9-.1-5.2,0-1.1-.2-3.2-.5-6.2s-.6-6.2-.8-9.7c-.2-3.4-.5-6.5-.7-9.2-.2-2.7-.4-4.3-.4-4.8ZM106,54.3c-1.6.2-2.7.3-3.3.4-.6,0-1.2.4-1.7,1.1-1.1.5-3.4.6-6.8.4s-5.8-.4-7-.4-2.9.1-4.4.4c-1.5.2-2.9.4-4.2.4s-2.7.1-3.2.4c-.6.2-1.4,0-2.5-.6-2.6-1-4.2-1-5,0-.3.8-.5,2.1-.5,3.8s0,1,.2,2.4c.2,1.4.3,3.1.5,4.9.2,1.8.4,3.6.6,5.2.2,1.7.4,2.9.4,3.7.2,1.6.3,2.6.6,3.1s0,1.2-.6,2.1c-.5.8-1,2.2-1.7,4.3-.6,2.1-.6,3.4,0,4.1.6,1,2.2.9,4.8-.2,2.5-1.1,4-1.7,4.3-1.7.5,0,1.5.2,3,.5,1.5.3,3.3.6,5.4,1,2.1.3,4.2.7,6.5,1.2,2.3.5,4.3.7,5.8.7,3.7.2,7.1,0,10.4-.6,3.2-.6,5.9-1.8,8-3.7,2.2-1.9,4.1-4.4,5.7-7.4,1.6-3,2.1-6,1.4-8.8-.3-2.9-1-5.5-2.1-8-1.1-2.5-2.6-4.2-4.5-5.4-3.5-2.1-6.8-3.1-10-3.1ZM72.8,63.4c0-.3.5-.5,1.5-.5s2.2.2,3.5.5l5.2,1h-3.3c-2.2,0-3.8.2-4.8.5-1.1.8-1.1,2.1,0,4.1.3,1.1.8,2.1,1.4,3.1l-.5-.5c-1-1-1.4-1.7-1.4-2.4s-.4-1.8-1.3-3c-.9-1.2-1-2.1-.4-2.7ZM75,77l1.4,2.2c.5.6,1.4,1.2,2.9,1.7,1.4.5,2.8,1,4.1,1.4,1.7.6,3.7,1,5.7,1.2l-12.6-.7-3.1-2.1c0-.3,0-.8.2-1.4.6-1,1-1.9,1-2.9l.5.7ZM113.6,33.3c7.2,3.8,12.6,7.3,16.5,10.5,3.8,3.2,6.6,6.4,8.2,9.7s2.6,6.6,2.9,9.9c.2,3.3.6,7,1.1,11,.2,3.8-.4,7.6-1.8,11.3-1.3,3.7-3,7-5,9.9-2,2.9-3.9,5.3-5.6,7.3-1.7,2-2.7,3.2-2.9,3.7-.2.8.2,2.7,1,5.6.8,2.9,1.9,6.2,3.3,9.7,1.3,3.8,2.9,8.1,5,12.9-2.7-4.9-5.1-9.4-7.1-13.3-2.1-3.5-3.7-6.7-5-9.5-1.3-2.9-1.9-4.6-1.9-5.2s1.1-2,3.2-4.1,4.7-4.3,7.7-6.7c3.2-2.7,5.2-7.8,6.2-15.4,1-7.5.7-14.9-.7-22.1-.8-3.6-2.5-6.9-5.1-9.9-2.6-2.9-5.4-5.6-8.5-8-3.5-2.4-7.3-4.8-11.4-7.1ZM134.3,160.6c.5-.5.9-.7,1.3-.7s1.3-.4,2.7-1.2c.8-.6,1.4-1.5,1.8-2.6.4-1.1.8-2.3,1.1-3.6l1-5.2c.2.8.2,1.8.2,2.9,0,2.1-.6,4.1-1.7,6.2-1.4,2.6-2.9,4.1-4.5,4.6-1.6.6-2.2.4-1.9-.3Z"/>
</svg>