<?xml version="1.0" encoding="UTF-8"?>
<svg id="Layer_1" xmlns="http://www.w3.org/2000/svg" version="1.1" viewBox="0 0 246.4 233.8">
  <!-- Generator: Adobe Illustrator 29.7.1, SVG Export Plug-In . SVG Version: 2.1.1 Build 8)  -->
  <defs>
    <style>
      .st0 {
        fill: none;
        stroke: #231f20;
        stroke-miterlimit: 10;
      }
    </style>
  </defs>
  <path class="st0" d="M28.9,38.4s5.6-18.4,22.2-19.4,32.2,7.9,41.4,4.9,15.6-11.7,11.7-16.3-24.5-5.4-25,21.2-.5,83-3.8,94.2-15.3,24-29.4,24.3S5.9,133.4,6.7,107.8c0,0-3.8-34.7,40.6-52.1s66.6,7.9,71.2,9.7,16.3,3.8,19.4-3.3-16.7-12.7-23.7-3.1c-12.5,17,12.3,23.7,12.3,23.7,0,0-22,4.1-23,21.2s13.8,23.7,23.7,24,24.3-10.3,20.7-28.9-20.9-14-22-8.4,3.6,10.5,8.9,13.8,14.6,5.6,25,5.4,28.3-4.3,37-8.9c0,0,19.9-12.5,11.5-22.2s-20.2,3.8-18.4,31.4,12,74.3,6.6,90.6-17.4,34-48.5,25-18.9-59-4.6-73.3,34.2-17.6,38.3-18.1,35.5-8.2,41.9-12,13.3-12.1,15.3-17.5"/>
</svg>