<?xml version="1.0" encoding="UTF-8"?>
<svg id="Layer_1" xmlns="http://www.w3.org/2000/svg" version="1.1" viewBox="0 0 1926 348">
  <!-- Generator: Adobe Illustrator 29.7.1, SVG Export Plug-In . SVG Version: 2.1.1 Build 8)  -->
  <defs>
    <style>
      .st0 {
        fill: #fff;
      }
    </style>
  </defs>
  <path class="st0" d="M46.1000061,247.2999878H6.5V44.8000031h39.6000061v202.4999847ZM46.7000122,146.6999817l61.2999878-101.8999786h44.1999969l-65,100.5,65,101.9000092h-44.1999969l-61.3000031-100.5.0000153-.0000305ZM287.6000061,165.0999756v82.2000122h-39.6000061V44.8000031h39.6000061v82.1999969h65.3000183V44.8000031h39.6000061v202.4999847h-39.6000061v-82.1999969h-65.2999878l-.0000305-.0000153ZM548.5999756,247.2999878h-39.5999756V44.8000031h48.0999756c15.2999878,0,26.7000122.5,34.2000122,1.5999985s13.9000244,2.7999954,19.0999756,5.2000046c11.5,5.3999939,20.2999878,12.8999939,26.2999878,22.5,6,9.6999969,9.0999756,21,9.0999756,34,0,15.6999969-4.2999878,29-12.9000244,39.8999939-8.5999756,10.8999939-20.2999878,17.8000031-35.0999756,20.8000031l50.5999756,78.4999847h-47.2000122l-52.5-93.8999939-.0999756,93.8999939h.000061ZM548.5999756,143.4999847h8.7999878c16.0999756,0,28.2999878-2.8999939,36.7000122-8.6999969,8.2999878-5.8000031,12.5-14.3000031,12.5-25.3999939,0-10.8000031-3.5-18.6999969-10.5-23.8000031s-17.9000244-7.6999969-32.7000122-7.6999969h-14.7999878v65.6000061-.0000153ZM1207.6999512,247.2999878h-38.9000244V44.8000031h37.5999756l83.8000488,129.3000031V44.8000031h38.9000244v202.4999847h-36.8000488l-84.5999756-133.1999969v133.1999969ZM1437.0999756,145.5999908c0-11.1000061,1.5-21.6000061,4.5-31.5s7.4000244-19.1000061,13.1999512-27.6999969c10-14.6000061,22.5999756-25.8000031,37.6999512-33.6999969,15.0999756-7.9000015,31.5999756-11.9000015,49.5-11.9000015,13.5,0,26.4000244,2.5999985,38.9000244,7.8000031s23.5999756,12.7000046,33.5,22.4000015c10.0999756,10.1000061,17.8000488,21.5,23.0999756,34.1000061,5.3000488,12.6000061,7.9000244,25.8999939,7.9000244,39.8000031,0,14.5-2.5,28-7.5,40.6999969-5,12.7000122-12.3000488,24-21.9000244,33.7999878-9.6999512,10.2999878-21.0999756,18.2000122-34,23.7000122s-26.5,8.2999878-40.5999756,8.2999878c-15.0999756,0-29-2.7000122-41.8000488-8.1000061-12.6999512-5.3999939-24-13.3999939-33.8000488-23.8999939-9.5-10-16.5999756-21.2000122-21.5-33.7000122-4.8000488-12.6000061-7.1999512-25.8999939-7.1999512-40.1000061l.0001221.0000153ZM1478.5,144.1999969c0,8.6999969,1.4000244,16.8000031,4.3000488,24.3000031s7.0999756,14.3999939,12.8000488,20.6000061c6.1999512,6.7999878,13.3000488,12,21.1999512,15.6000061,7.9000244,3.6000061,16.0999756,5.5,24.5,5.5,17.6999512,0,32.5999756-6.2999878,44.5999756-18.8999939s18-28.3000031,18-47.1000061c0-17.1999969-6.0999756-31.8999939-18.1999512-44.1000061-12.0999756-12.1999969-26.6999512-18.3000031-43.6999512-18.3000031-17.6999512,0-32.8000488,6.1000061-45.0999756,18.1999969-12.1999512,12.1999969-18.4000244,26.8999939-18.4000244,44.1999969h-.0001221ZM1741,184.6000061l36.3000488-.1000061v2.8999939c0,8.5,2.1999512,15.2999878,6.5999756,20.3999939s10.3000488,7.7000122,17.5999756,7.7000122c7.9000244,0,14.0999756-2.3999939,18.6999512-7.1000061,4.5999756-4.7999878,6.9000244-11.2000122,6.9000244-19.3999939,0-13-9.3000488-22.3999939-27.9000244-28-2.4000244-.6999969-4.3000488-1.3000031-5.6999512-1.8000031-15.6999512-4.8999939-27.4000244-11.8999939-35-20.8999939s-11.4000244-20.5-11.4000244-34.3000031c0-19,5.3000488-34.3000031,15.8000488-45.8000031s24.5-17.3000031,42.0999756-17.3000031c16.4000244,0,29.5,5.0999985,39.1999512,15.3000031,9.6999512,10.1999969,15.1999512,24.6000061,16.3000488,43h-35.9000244v-1.6999969c0-6.3999939-2-11.6000061-5.9000244-15.5s-9-5.8999939-15.3000488-5.8999939c-6.5,0-11.5999756,2-15.4000244,6.1000061s-5.5999756,9.6000061-5.5999756,16.6000061c0,3,.4000244,5.6000061,1.1999512,7.8000031.8000488,2.3000031,2,4.3000031,3.6999512,6.1000061,3.8000488,4.1999969,12,8,24.5,11.6000061,5.5999756,1.5,9.8000488,2.6999969,12.8000488,3.8000031,13.9000244,4.6999969,24.1999512,11.5,30.8000488,20.3000031,6.5999756,8.8000031,9.9000244,20.1000061,9.9000244,33.8000031,0,20.8999939-5.8000488,37.6000061-17.4000244,50.2999878-11.5999756,12.7000122-27,19-46.0999756,19-18.0999756,0-32.5999756-6.1000061-43.8000488-18.2999878-11-12.3999939-16.6999512-28.6000061-17-48.6000061l.0001221-.0000305ZM1351.3000488,288.2000122l-5.4000244,6c-2.5999756-2.2999878-5.3000488-4-8-5-2.6999512-1.1000061-5.5-1.6000061-8.5999756-1.6000061-6.1999512,0-11.4000244,2.1000061-15.5,6.5-4.1999512,4.2999878-6.1999512,9.6000061-6.1999512,15.8999939s2.0999756,11.6000061,6.1999512,15.8999939c4.1999512,4.2999878,9.3000488,6.5,15.5,6.5,2.6999512,0,5.3000488-.3999939,7.8000488-1.2999878,2.4000244-.8999939,4.6999512-2.2000122,6.8000488-3.8999939v-13.3999939h-12v-7.8999939h20.5999756v26c-3.8000488,2.8999939-7.5999756,5.1000061-11.4000244,6.6000061-3.8000488,1.3999939-7.6999512,2.2000122-11.8000488,2.2000122-8.8000488,0-16.0999756-2.8999939-21.9000244-8.7000122-5.8000488-5.7999878-8.6999512-13.1000061-8.6999512-21.8999939,0-3.8999939.6999512-7.6000061,2.0999756-11.2000122s3.4000244-6.7999878,5.9000244-9.6000061c2.9000244-3.2000122,6.3000488-5.6000061,10.0999756-7.2999878,3.8000488-1.7000122,8-2.5,12.5-2.5,4.3000488,0,8.4000244.7999878,12.3000488,2.2999878s7.1999512,3.6000061,9.6999512,6.3999939ZM1435.8000488,280.9000244h11.0999756c3.0999756,0,5.6999512.2000122,7.6999512.5,2,.3999939,3.8000488.8999939,5.3000488,1.7000122,2.5,1.2999878,4.5,3.2999878,5.9000244,5.8999939s2.1999512,5.6000061,2.1999512,8.7999878c0,3.7999878-1.1999512,7.1000061-3.6999512,9.8999939s-5.8000488,4.5-9.9000244,5.2000122l17.6999512,24-8.1999512,3.5-19.5-28.2999878v26.8999634l-8.6999512.7000122.0999756-58.7999878ZM1444.5,288.6000366v18.3999634h3.0999756c3.6999512,0,6.5999756-.7999878,8.6999512-2.5,2-1.7000122,3.0999756-4,3.0999756-7s-1-5.2000122-2.9000244-6.7000122-4.8000488-2.2999878-8.5999756-2.2999878h-3.4000244l.0001221.1000366ZM1579.0999756,279.4000244c3.8000488,0,7.4000244.6000061,10.8000488,1.8999939,3.4000244,1.2000122,6.5,3,9.0999756,5.3999939,3.4000244,3.1000061,6.0999756,6.6000061,7.9000244,10.6000061s2.6999512,8.2999878,2.6999512,12.7000122c0,3.7999878-.6999512,7.6000061-2.0999756,11.2000122s-3.4000244,6.7999878-6,9.7000122c-2.9000244,3.2000122-6.1999512,5.6000061-10.0999756,7.2999878-3.8000488,1.7000122-8,2.5-12.5,2.5-3.8000488,0-7.4000244-.6000061-10.9000244-1.8999939-3.4000244-1.2000122-6.4000244-3-9-5.3999939-3.5-3.1000061-6.0999756-6.6000061-7.9000244-10.7000122-1.8000488-4-2.8000488-8.2999878-2.8000488-12.7000122,0-4.3999939.9000244-8.7000122,2.8000488-12.7000122,1.8000488-4,4.5-7.6000061,7.9000244-10.6000061,2.5999756-2.2999878,5.5999756-4.1000061,9-5.3999939,3.5999756-1.2999878,7.1999512-1.8999939,11.0999756-1.8999939ZM1579.0999756,287.5000305c-6.1999512,0-11.4000244,2.1000061-15.5,6.5-4.1999512,4.2999878-6.1999512,9.6000061-6.1999512,15.8999939s2.0999756,11.6000061,6.1999512,15.8999939c4.1999512,4.2999878,9.3000488,6.3999939,15.5999756,6.3999939,6.1999512,0,11.3000488-2.2000122,15.5-6.5s6.3000488-9.6000061,6.3000488-15.8999939-2.0999756-11.6000061-6.1999512-15.8999939c-4.3000488-4.2000122-9.5-6.3999939-15.6999512-6.3999939h-.0001221ZM1700.1999512,280.1000366v33c0,7,.9000244,11.8999939,2.6999512,14.7999878,1.8000488,2.7999878,4.8000488,4.2000122,9.0999756,4.2000122s7.4000244-1.2999878,9.3000488-4,2.9000244-7.1000061,2.9000244-13.2999878v-33.8000488l8.4000244-.7999878v36.6000061c0,4.7000122-.3000488,8.3999939-1,10.8999939s-1.9000244,4.7000122-3.5,6.6000061-3.9000244,3.3999939-6.6999512,4.6000061c-2.8000488,1.1000061-5.8000488,1.7000122-8.9000244,1.7000122-7,0-12.3000488-2-15.6999512-5.8999939-3.5-3.8999939-5.1999512-9.8999939-5.1999512-17.8999939v-35.7000122l8.5999756-1h-.0001221ZM1817.5,280.9000244h15.4000244c6.5999756,0,11.6999512,1.5,15.1999512,4.5s5.1999512,7.3999939,5.1999512,13.1000061c0,5.3999939-2,9.7000122-6,12.8999939-4,3.2000122-9.5,4.7000122-16.5,4.7000122-.9000244,0-2.4000244-.1000061-4.4000244-.2000122h-.1999512v23l-8.6999512.7000122v-58.7000122ZM1826.1999512,288.6000366v19.3999634l2.4000244.2999878c.9000244.1000061,1.8000488.1000061,2.9000244.1000061,4.1999512,0,7.4000244-.7999878,9.5999756-2.5s3.3000488-4.1000061,3.3000488-7.3999939c0-3.3999939-1-5.8999939-3-7.5s-5.1999512-2.3999939-9.5-2.3999939h-5.6999512l-.0001221.0000305ZM1921,60.6999969c0,3.6999969-.9000244,7.1000061-2.8000488,10.3000031-1.8000488,3.1999969-4.4000244,5.6999969-7.5,7.5-3.1999512,1.8000031-6.5999756,2.8000031-10.3000488,2.8000031-3.6999512,0-7.0999756-.8999939-10.3000488-2.8000031-3.1999512-1.8000031-5.6999512-4.3000031-7.5-7.5s-2.8000488-6.6000061-2.8000488-10.3000031.9000244-7.1000061,2.8000488-10.3000031c1.8000488-3.1999969,4.4000244-5.6999969,7.5-7.5,3.1999512-1.8000031,6.5999756-2.8000031,10.3000488-2.8000031,3.6999512,0,7.0999756.9000015,10.3000488,2.8000031,3.1999512,1.8000031,5.6999512,4.3000031,7.5,7.5,1.9000244,3.1999969,2.8000488,6.6999969,2.8000488,10.3000031ZM1917,60.6999969c0-4.6000061-1.5999756-8.5-4.9000244-11.6999969-3.1999512-3.1999969-7.1999512-4.9000015-11.6999512-4.9000015-4.5999756,0-8.5,1.5999985-11.6999512,4.9000015-3.1999512,3.1999969-4.9000244,7.1999969-4.9000244,11.6999969s1.5999756,8.5,4.9000244,11.6999969c3.1999512,3.1999969,7.1999512,4.8999939,11.6999512,4.8999939,4.5999756,0,8.5-1.6000061,11.6999512-4.8999939,3.3000488-3.1999969,4.9000244-7.1000061,4.9000244-11.6999969ZM1891.0999756,49.6999969h9.8000488c2.8000488,0,4.8000488.6000061,6.0999756,1.6999969,1.1999512,1.1000061,1.9000244,2.6000061,1.9000244,4.5,0,1.5-.5,2.8000031-1.4000244,3.8000031-1,1.1000061-2.5,1.8999939-4.5,2.3000031.8000488.3000031,1.5.6999969,1.9000244,1,.5999756.5,1.0999756,1.1999969,1.8000488,2.1999969,0,.1000061,1.1999512,2.1999969,3.5999756,6.3999939h-6.5c-2.0999756-4.1999969-3.5-6.6999969-4.1999512-7.5s-1.4000244-1.1999969-2.1999512-1.1999969c-.1999512,0-.4000244,0-.6999512.1000061v8.6999969h-5.5l-.0999756-22h-.0002441ZM1896.5,59.0999908h2.4000244c1.5999756,0,2.6999512-.3000031,3.3000488-.8000031.5999756-.5,1-1.1999969,1-2s-.3000488-1.5-.9000244-2-1.6999512-.8000031-3.1999512-.8000031h-2.5999756v5.6000061h-.0001221Z"/>
  <path class="st0" d="M894.5,234.1000061c-69.5-2.5-164.4000244-34.2000122-184.0999756-80-17-41.6999969-.0999756-90.1999969,80.0999756-124.6999969,47.5999756-19.8000031,119.5999756-25.4000015,175.0999756-20.3000031,78.6999512,7.1999969,153.6999512,47.8999939,153.8000488,48.1000061v57.1000061l-.0999756,3.8000031s-24.4000244-22.1000061-54.9000244-39.9000092c-28.6999512-16.8000031-55-28.6000061-107.1999512-33.4000015-12.1999512-1.0999985-33-3.9000015-66.7000122.8000031-13.5999756,1.9000015-32.7999878,3.3000031-76,22.2999954-14,6.6999969-26.9000244,13.8000031-36.9000244,22.1000061-5.2000122,4.3000031-12.2999878,10.3999939-17.2999878,15.6000061-12.2999878,15.3999939-18.7999878,27-15.7000122,48,3.5999756,15.8000031,10.5999756,25.6999969,30.9000244,40.8000031,8.7999878,6.6000061,9.7999878,6.5,13.7000122,8.5,36.2999878,18.7999878,65.2999878,25.7000122,106.7000122,30.8999939M898.2999878,56.1000061c69.7000122-.3000031,168.500061,27.6000061,194.2000122,72.6000061,22.5,40.8999939,12.0999756,90-63.3000488,127.5-44.8000488,21.7000122-115.9000244,30.1000061-171.9000244,27.2000122-79.5-4.1000061-159.7000122-41.7999878-159.7999878-41.8999939l-7.5999756-56.8999939-.5-3.7999878s27.2999878,21.1000061,60.0999756,37.7000122c30.9000244,15.6000061,58.7000122,26.3999939,111.4000244,29.1000061,12.2999878.7000122,33.4000244,2.5,66.4000244-3.3999939,13.2999878-2.3999939,32.2999878-4.6000061,72.7999878-25.2000122,13.0999756-7.2000122,25-14.7999878,33.8000488-23.5,4.5999756-4.5,10.9000244-10.8999939,15.1999512-16.2000122,10.1999512-15.8999939,15.1999512-27.6999969,9.3000488-48.5-5.6999512-15.6000061-14-25.1999969-36.1999512-39.5-9.5999756-6.1999969-10.5999756-6.1000061-14.8000488-8-38.6999512-17.3000031-68.5-23-110.5999756-26.6000061"/>
</svg>