<?xml version="1.0" encoding="UTF-8"?>
<svg id="Layer_1" xmlns="http://www.w3.org/2000/svg" version="1.1" viewBox="0 0 794 388">
  <!-- Generator: Adobe Illustrator 29.7.1, SVG Export Plug-In . SVG Version: 2.1.1 Build 8)  -->
  <defs>
    <style>
      .st0 {
        fill: #fff;
      }
    </style>
  </defs>
  <path class="st0" d="M85.8999939,292.7000122H8.8000031c13.1999969-65.1000061,26.5-130.1000061,39.6999969-195.3000031h77c-.1000061.5-.1000061,1.1000061-.1999969,1.6999969-1.8000031,8.6999969-3.5,17.3000031-5.3000031,26-.1999969.8000031-.6000061,1.8000031-1.1999969,2.5-18,22.8000031-34.3000031,46.5-49.6999969,70.6999969-7.1999969,11.4000092-14.1999969,22.8000031-21.1999969,34.3000031-.0999985.2000122-.3000031.5-.1999969.8999939l10.8000031-10.5c25.5-24.8000031,51.0999908-49.5,77.8000031-73.1000061,22.1999969-19.6000061,45.1000061-38.3000031,68.6999817-56.1999969,13.3999939-10.1000061,26.6000061-20.3999939,40.8999939-29,25-15.1999969,50.8999939-27.9000015,77.8000183-37.5,25.3999939-9.0999985,50.8999939-15.1999969,76.6000061-18.0999985,21.8999939-2.5,43.3999939-2.5999985,64.3000183-.0999985,42,5.0999985,78.5,19.6999969,108.7999878,45,11,9.1999969,20.5,19.6000061,29,31.1000061,1.9000244,2.5,3.5,5.1999969,5.0999756,8-2.9000244-2.6999969-5.7000122-5.5-8.7999878-8-12.5999756-10.5-27.5999756-17.5999985-43.7000122-23-19.5999756-6.5999985-40.4000244-10.3000031-61.9000244-12.0999985-17.2999878-1.4000015-34.9000244-1.5-52.7000122-.3000031-21.7000122,1.5-43.5,5-65.2999878,10.8000031-20.7000122,5.5999985-41,13.0999985-60.6000061,23.7000046-13.8999939,7.5-26.8999939,16.6000061-39.8999939,25.8000031-22.7999878,16.1999969-44.2999878,34.0999908-65.5,52.4000092-3.8999939,3.3999939-7.8999939,6.8000031-11.8999939,10.3000031,23.3999939,39.9000092,46.7999878,79.8000031,70.3000183,119.9000092h-100.5c-1.6000061,0-2.5-.5-3.1999969-1.7999878-12.1000061-23.8999939-24.1999969-47.8999939-36.4000092-71.7999878-.1999969-.3999939-.5-.8999939-.8999939-1.3999939-5.3000031,3.8999939-10.5,7.7999878-15.6999969,11.7000122-4.1999969,3.1000061-8.3000031,6.2999878-12.5,9.2999878-1.3000031.8999939-1.8999939,1.8999939-2.1999969,3.3999939-3.1999969,15.8999939-6.5,31.8999939-9.6999969,47.7999878-.1999969,1.1000061-.3000031,1.8999939-.5,2.8999939l-.0000153-.0000305ZM165.8000031,296.5c3.8000031,3.2000122,7.1000061,6.3999939,10.8000031,9.2000122,13.7000122,10.2999878,29.7999878,16.7999878,46.8999939,21.6000061,17.2000122,4.7999878,35.1000061,7.5,53.5,8.7999878,18.2999878,1.2999878,36.8999939,1.2000122,55.7999878-.5,20.2999878-1.7999878,40.6000061-5.2000122,60.8999939-11,18.7999878-5.3999939,35.2000122-11.8999939,52.6999817-22.3999939,10.9000244-6.5,22.7000122-15.1000061,32.5999756-23.2000122,31.5999756-25.7999878,61.7999878-53.2999878,91.2999878-81.3999939,2.7000122-2.5,5.2999878-5.1000061,8-7.6999969.2000122-.1999969.2999878-.3000031.5999756-.6999969-20.2000122-30.5-40.5-61-61-91.8999939h88.5c1.5999756,0,2.4000244.5,3.0999756,1.6999969,6.7000122,12.3000031,13.5,24.6000061,20.2000122,36.8000031.2999878.5.5999756.8999939,1.0999756,1.6000061,9.4000244-10.3000031,18.7000122-20.3999939,27.9000244-30.5,2.5-2.8000031,4.9000244-5.6000061,7.5-8.3999939.5999756-.6000061,1.5999756-1.1999969,2.2999878-1.1999969,29.4000244-.1000061,89.2000122,0,89.2000122,0,0,0-4.7000122,4.6000061-6.9000244,6.6999969-29.5999756,28.6999969-59.2000122,57.3999939-88.9000244,86-1.2000122,1.1000061-1.4000244,1.8999939-.7000122,3,3.2000122,4.6999969,6.2999878,9.5,9.5,14.2000122l23.0999756,33.6000061,27.2999878,39.6000061c2.7000122,4,8.4000244,12.2999878,8.4000244,12.2999878h-93.2999878c-1.4000244,0-2.2000122-.3999939-2.7999878-1.5l-25.2000122-48c-.0999756-.2000122-.2000122-.2999878-.4000244-.6000061-.5999756.5-1.0999756,1-1.7000122,1.5-18.5,17.2999878-22.5,21.5-55.4000244,51.8999939-29.2999878,27.1000061-59.9000244,46.2999878-95.5,60.2999878-21.6000061,8.5-45.3999939,14.2000122-67.2999878,17.8999939-22.7999878,3.7999878-45.2000122,5-67.2000122,3.5-23.7999878-1.5-46.5-6-67.7000122-13.7999878-26.5-9.7999878-49.6000061-24-68.5-43.7999878-6.5-6.7999878-12.3999939-14.1000061-17.6000061-21.8999939-.5-.3999939-.6999969-.8999939-1.1000061-1.7000122l.0002594-.0000305ZM517.2000122,97.3999939c-3.2999878,16.3999939-6.5999756,32.6000061-10,49.1999969h-71.3999939c-9.8999939,48.8000031-19.7999878,97.4000092-29.7000122,146.1000214h-77.1999817c9.8999939-48.6000061,19.7999878-97.1999969,29.7000122-146.1000061h-71.3999939c3.3999939-16.5,6.7000122-32.8000031,10-49.1999969h220.0000305l-.000061-.0000153ZM755.5,273.7000122h-7.2999878v19.1000061h-6.4000244v-19.1000061h-7.4000244v-5.5h21.0999756v5.5h.000061ZM758.4000244,268.2000122h9.4000244l4.2999878,16.3999939h.0999756l4.2000122-16.3999939h9.4000244v24.6000061h-6v-18.7000122h-.0999756l-5.0999756,18.7000122h-4.9000244l-5.2000122-18.7000122h-.0999756v18.7000122h-6v-24.6000061h-.000061Z"/>
</svg>