<?xml version="1.0" encoding="UTF-8"?>
<svg id="Layer_1" xmlns="http://www.w3.org/2000/svg" version="1.1" viewBox="0 0 909.492981 241.3280029">
  <!-- Generator: Adobe Illustrator 29.7.1, SVG Export Plug-In . SVG Version: 2.1.1 Build 8)  -->
  <defs>
    <style>
      .st0 {
        fill: #fff;
      }
    </style>
  </defs>
  <path class="st0" d="M138.1459961,154.6329956c-16.9729996,17.2599945-34.3399963,25.8899994-52.0999985,25.8899994-5.1559982,0-10.1159973-.6649933-14.8779984-1.9900055-4.7639999-1.322998-10.5639992-3.5599976-17.4020004-6.7120056-6.8400002-3.1499939-12.8740005-5.4400024-18.0999985-6.8699951-9.6700001,10.6000061-18.4069996,15.8999939-26.2119999,15.8999939-2.723,0-4.98-.8899994-6.7680001-2.6799927-1.7900003-1.8009949-2.6860003-3.9809875-2.6860003-6.5609894,0-5.4400024,2.6670001-10.2250061,8.0030003-14.3399963,5.3339996-4.1199951,12.8719997-6.9669952,22.6119995-8.5399933,4.0819988-5.5899963,6.6950016-11.0500031,7.842001-16.3860016,1.1450005-5.3300018,2.0400009-14.1200027,2.6860008-26.3700027,1.2169991-25.2029953,7.9659996-44.9519997,20.25-59.2400017,12.2800026-14.2859993,25.6199989-21.4300003,40.0139961-21.4300003,9.8830032,0,17.9929962,3.1340008,24.3300018,9.3999977,6.3399963,6.2669983,9.5079956,14.2700005,9.5079956,24.0100021,0,11.2419968-3.3300018,21.0899963-9.9899979,29.5400009s-14.3239975,12.6750031-22.987999,12.6750031c-4.512001,0-8.0569992-1.2399979-10.6350021-3.7099991s-3.8669968-5.8600006-3.8669968-10.1500015c0-2.2200012.4300003-4.8000031,1.2900009-7.7399979,1.9329987,2.2200012,4.3659973,3.3300018,7.3040009,3.3300018,4.8600006,0,9.1299973-2.9000015,12.7799988-8.6999969,3.6500015-5.8000031,5.4800034-12.7099991,5.4800034-20.7399979,0-6.1599998-1.4000015-11.0100021-4.1900024-14.5600014s-6.6200027-5.3199997-11.4799957-5.3199997c-5.8700027,0-10.4300003,2.1100006-13.6900024,6.3400002s-5.5299988,9.2719994-6.8199997,15.1500015c-1.2900009,5.8699989-2.6600037,15.3600006-4.1200027,28.4700012-1.4599991,13.0999985-3.8899994,24.7200012-7.3000031,34.8519974-3.4199982,10.1300049-9.7900009,20.0650024-19.1299973,29.8000031,6.0900002-.4299927,11.3699989-.0700073,15.8400002,1.0800018,4.4699974,1.1430054,10.8800011,3.3099976,19.2299995,6.4949951,8.3399963,3.1900024,15.5200043,4.7799988,21.5299988,4.7799988,11.7399979,0,22.9499969-6.0099945,33.6199951-18.0399933v12.3500061l.0370026.0169678ZM218.3899994,154.6329956c-9.095993,8.9530029-17.2599945,15.5599976-24.4920044,19.8179932-7.2339935,4.2599945-15.2200012,6.3999939-23.9550018,6.3999939-9.7400055,0-17.6000061-3.1100006-23.5800018-9.3399963s-8.9700012-14.4299927-8.9700012-24.6000061c0-15.1799927,5.2649994-28.9100037,15.7920074-41.1900024s22.1999969-18.4199982,35.0200043-18.4199982c6.6600037,0,11.9940033,1.7200012,16.0059967,5.1600037,4.0099945,3.4400024,6.0200043,7.9499969,6.0200043,13.5400009,0,14.8300018-15.75,26.8600082-47.2599945,36.0999985,2.8699951,13.9700012,10.3500061,20.9499969,22.4499969,20.9499969,4.7299957,0,9.2400055-1.2700043,13.5399933-3.8099976,4.3000031-2.5399933,10.7799988-8.1800079,19.4499969-16.9199982v12.3600006l-.0209961-.0479889ZM162.1000061,134.7599945c18.3330078-5.1560059,27.5-14.6800003,27.5-28.5749969,0-6.875-2.5070038-10.3130035-7.5200043-10.3130035-4.7259979,0-9.2369995,3.5999985-13.5339966,10.7959976-4.2969971,7.1969986-6.4450073,16.5620041-6.4450073,28.0920029h-.0009918ZM333.1170044,154.6329956c-11.4599915,10.8869934-19.6579895,17.977005-24.6000061,21.2700043-4.9419861,3.2929993-9.6679993,4.9400024-14.1799927,4.9400024-11.3160095,0-16.6499939-9.9900055-16.006012-29.9700012-7.1600037,10.2420044-13.7600098,17.7969971-19.8099976,22.6660004-6.0500031,4.8600006-12.3000031,7.3000031-18.7400055,7.3000031-6.3000031,0-11.6499939-2.9600067-16.0599976-8.8699951-4.3999939-5.9100037-6.6000061-13.1600037-6.6000061-21.75,0-10.75,2.9600067-20.9900055,8.8699951-30.7299957,5.9100037-9.7399979,13.4799957-17.6200027,22.7200012-23.6399994s17.4000092-9.0299988,24.4900055-9.0299988c8.9500122,0,15.2200012,4.1200027,18.7999878,12.3499985l21.9599915-12.1399994h6.0299988l-9.4700012,31.4800034c-4.8800049,15.8300018-7.3200073,26.6800079-7.3200073,32.5500031,0,6.1499939,2.1799927,9.2299957,6.5499878,9.2299957,2.7900085,0,5.8699951-1.4900055,9.230011-4.4600067,3.3599854-2.9700012,8.0899963-7.5,14.1700134-13.5899963v12.3600006l-.0339661.0339813ZM254.4840088,160.5410004c7.1600037,0,13.9100037-6.1000061,20.25-18.3099976,6.3370056-12.2100067,9.506012-23.4700012,9.506012-33.7799988,0-4.0100021-.8959961-7.1399994-2.6860046-9.4000015-1.7900085-2.25-4.1900024-3.3799973-7.196991-3.3799973-7.1619873,0-13.947998,6.0899963-20.3560028,18.2700043-6.4100037,12.1800003-9.6100006,23.3899994-9.6100006,33.6300049,0,3.8699951.9499969,7,2.8500061,9.3999939,1.8999939,2.3999939,4.3099976,3.6000061,7.25,3.6000061l-.007019-.030014ZM420.2360229,154.6410065c-7.4400024,8.3800049-14.8080139,14.8399963-22.1040039,19.3899994s-13.8059998,6.8200073-19.5299988,6.8200073c-2.7179871,0-6.4370117-1.0299988-11.1570129-3.1000061-3.019989,15.75-5.6820068,32.7599945-7.9830017,51.0099945-7.4559937,1.0099945-16.4169922,2.5500031-26.8819885,4.6300049,2.2900085-19.6199951,6.2659912-45.0800018,11.9219971-76.3700104-.7900085-1.3600006-2.1860046-4.7899933-4.1900024-10.3099976l-7.1950073,7.9499969h-2.4700012v-9.6699982l20.4779968-21.2299957c3.8919983-19.2099991,7.0559998-33.1199951,9.4920044-41.7099991,2.4339905-8.590004,5.8359985-18.0999985,10.2049866-28.5200005,4.3670044-10.420002,7.125-16.3999977,8.269989-17.9399986,1.1459961-1.5400009,3.9219971-3.0099983,8.3259888-4.3999996,4.4039917-1.3899994,9.1119995-2.7199993,14.1260071-3.9699993,5.0119934-1.25,7.696991-1.8799992,8.0570068-1.8799992,2.730011,0,4.9500122,1.7700005,6.6600037,5.3199997,1.7200012,3.539999,2.5799866,8.210001,2.5799866,14.0070019,0,10.0200005-2.6400146,19.677002-7.9299927,28.9769974s-15.2900085,20.7399979-30,34.3339996l-9.0299988,44.8999939c3.5,7.5099945,8.7600098,11.2669983,15.7600098,11.2669983,10.0100098,0,20.8800049-7.2700043,32.6000061-21.8099976v12.3569946l-.0049744-.0519867ZM384.1600037,93.4100037c8.3720093-7.3050003,14.9370117-15.1640015,19.697998-23.5800018,4.7600098-8.4150009,7.1400146-16.1679993,7.1400146-23.2600021,0-3.007-.5539856-5.4780006-1.6600037-7.4099998-1.1069946-1.9350014-2.480011-2.9000015-4.1220093-2.9000015-3.1419983,0-6.3380127,4.1199989-9.5859985,12.3600006-3.25,8.2400017-7.072998,23.170002-11.4700012,44.7900047ZM491.2420044,154.6399994c-9.7399902,8.9499969-18.2799988,15.5599976-25.6199951,19.8159943-7.3420105,4.2599945-14.3399963,6.3950043-21,6.3950043-7.6650085,0-13.8420105-2.9700012-18.5299988-8.9100037-4.6919861-5.9400024-7.0369873-13.9300079-7.0369873-23.9499969,0-15.0399933,3.2579956-33.0800018,9.7749939-54.1399994,6.5159912-21.0500031,14.4299927-40.4599991,23.7399902-58.2200012l27.2850037-10.1000004c.8599854-.2800007,1.5039978-.4300003,1.9339905-.4300003,2.0700073,0,3.769989,1.5300007,5.1000061,4.5699997,1.3200073,3.0500011,1.980011,7.1499996,1.980011,12.3000011,0,14.6100006-3.3699951,28.7599983-10.1000061,42.4399986s-17.2600098,28.2900009-31.5799866,43.8300018c-.5799866,7.4499969-.8599854,12.5700073-.8599854,15.3600006,0,6.2299957,1.1400146,11.1699982,3.4400024,14.8300018,2.2900085,3.6499939,5.3299866,5.4799957,9.1300049,5.4799957,3.8699951,0,7.980011-1.3999939,12.3500061-4.1900024,4.3599854-2.7899933,11.019989-8.5899963,19.980011-17.3999939v12.3560028l.0129395-.0370026ZM450.1000061,112.6299973c9.0929871-10.1100006,16.4700012-21.4420013,22.1279907-33.9939957,5.6560059-12.5500031,8.4859924-23.3419991,8.4859924-32.3800011,0-2.6529999-.394989-4.7859993-1.1820068-6.4000015-.7900085-1.6139984-1.7900085-2.420002-3.0079956-2.420002-2.6499939,0-6.5,6.5970001-11.5480042,19.7929993-5.0480042,13.1900024-10.0079956,31.659996-14.8770142,55.4000015l.0010376.0009995ZM571.5930176,154.6329956c-9.0960083,8.9530029-17.2600098,15.5599976-24.4920044,19.8179932-7.2299805,4.2599945-15.210022,6.3999939-23.9500122,6.3999939-9.7399902,0-17.6000061-3.1100006-23.5799866-9.3399963-5.980011-6.2299957-8.9700012-14.4299927-8.9700012-24.6000061,0-15.1799927,5.269989-28.9100037,15.7900085-41.1900024,10.5299988-12.2799988,22.1999817-18.4199982,35.019989-18.4199982,6.6599731,0,12,1.7200012,16.0100098,5.1600037s6.0200195,7.9499969,6.0200195,13.5400009c0,14.8300018-15.75,26.8600082-47.2600098,36.0999985,2.8699951,13.9700012,10.3499756,20.9499969,22.4500122,20.9499969,4.7299805,0,9.2399902-1.2700043,13.539978-3.8099976s10.7800293-8.1800079,19.4500122-16.9199982v12.3600006l-.0280151-.0479889ZM515.3030396,134.7599945c18.3330078-5.1560059,27.5-14.6800003,27.5-28.5749969,0-6.875-2.507019-10.3130035-7.5200195-10.3130035-4.7260132,0-9.2369995,3.5999985-13.5339966,10.7959976-4.2999878,7.1969986-6.4500122,16.5620041-6.4500122,28.0920029h.0040283ZM633.4680176,154.6329956c-9.0230103,8.9530029-16.8300171,15.5599976-23.4179688,19.8179932-6.5900269,4.2599945-12.8549805,6.3999939-18.7999878,6.3999939-6.1599731,0-11.1539917-2.5899963-14.9840088-7.7899933-3.8319702-5.1900024-5.7470093-12.0099945-5.7470093-20.4600067,0-7.4400024,1.8300171-17.2799988,5.5100098-29.5l4.5599976-16.2600021-8.25.4300003,3.4400024-16.8600006,10.210022-.4300003,10.0800171-33.5200005,28.6900024-5.8899994-11.0999756,37.3600044,15.1699829-.8600006-3.5499878,16.5500031-16.6699829,1.2900009-7.1599731,24.0699997c-2.4899902,8.3699951-3.7299805,15.0200043-3.7299805,19.9700012,0,3.3699951.8400269,6.1100006,2.5200195,8.2299957,1.6820068,2.1199951,3.8499756,3.1699982,6.5100098,3.1699982,3.6530151,0,7.2800293-1.1600037,10.8599854-3.4900055,3.5900269-2.3200073,8.8599854-7.1799927,15.8200073-14.5500031v12.3500061l.0388184-.0279846Z"/>
  <g>
    <path class="st0" d="M734.3460083,201.9090576l-61.6981812-99.7487793c-.5290527,3.765564-1.0618896,8.3630371-1.3887939,13.336731-.8399658,12.782959-1.6500244,35.822937,8.8800049,60.3499756,10.5300293,24.526001,25.1099854,31.59198,39.25,32.539978,7.0994263.4785767,11.9523315-2.3186646,15.6061401-5.8638916l-.6491699-.6140137Z"/>
    <path class="st0" d="M735.664978,127.3649902c-15.25-17.7520142-59.1129761-32.3619995-61.3469849-34.9699707l-.0189819-.000061s-.8115234,3.8116455-1.6370239,9.664978l64.7119751,96.4691162.46521.8568726c.7248535-.8954468,1.4043579-1.7928467,2.039856-2.6589355,4.0700073-5.5480347,13.3899536-5.2960205,15.539978-20.5300293,2.1529541-15.2339478-4.5040283-31.0779419-19.7540283-48.8319702Z"/>
  </g>
  <path class="st0" d="M419.9219971,236.7129974l.6180115-4.3370056c17.519989-9.3350067,39.3439941-12.9340057,57.105011-21.9449921,5.3280029,2.3999939,7.696991-1.0599976,13.3800049-.7400055,2.0620117,1.8600006-2.5939941,4.3500061,2.973999,3.9700012,12.6499939,1.6799927,24.9699707-.6799927,37.4099731-1.7400055,13.1199951-1.1199951,26.1500244.1300049,39.0200195-.6300049,4.1099854-.2400055,10.4400024-5.9299927,15.4799805-3.1000061,2.2800293,4.1300049-7.4400024,4.4900055-4.8300171,9.0500031,25.7600098,6.0599976,90.1900024,31.6800079,101.210022,3.8099976.1500244,1.6999969-1.9299927,5.0599976,1.1099854,4.5899963,21.7199707-9.7200012,58.6300049-30.7100067,65.1300049-36.2100067,7.1400146-6.0399933,16.6599731-5.8500061,26-8,16.8200073-3.8699951,34.7700195-7.8099976,49.3300171-16.2900085,9,6.25,27.8400269,9.3600006,37.9099731,7.1799927,10.5100098-2.2799988,26.8200073-19.7299957,35.5499878-25.8999939,3.4299927-2.4199982,8.4500122-7.1300049,12.1400146-4.4600067-2.4799805,1.6999969.4400024,6.6799927-2.5999756,5.8200073-1.5900269-3.0399933-4.7600098.4700012-7.0700073-.1199951-8.789978,7.2100067-17.9199829,13.9600067-26.8800049,20.9400024-4.1799927,2.5700073,4.0300293,5.2299957-.8699951,6.0700073-23.1400146,4.6000061-58.3800049-6.9199982-72.9680176,9.0699921-23.1149902,7.9100037-44.9799805,9.9199982-67.7600098,22.1999969-13.0900269,7.0599976-29.1079712,19.8999939-42.7340088,26.6499939-2.3099976,1.1499939-5.6929932,1.5500031-8.4229736,3.2299957-3.3200073,2.0399933-4.1359863,4.6000061-6.9370117,5.2039948-6.9799805,1.503006-21.4000244-2.1399994-30.4799805-3.4600067-30.2800293-4.3999939-62.6099854-16.7460022-91.184021-18.3099976-11.2999878-.6199951-24.6400146,1.1699982-37.4119873,1.7440033-27.1499939,1.2259979-44.1300049,1.8699951-65.8999939,9.1900024-8.8999939,2.996994-22.5899963,10.9300079-28.3640137,6.5800018l.0450134-.055954Z"/>
  <path class="st0" d="M850.5750732,37.8439941c-4.7370605-21.1569824-11.1130981-37.8439941-11.1130981-37.8439941h-.0019531c-3.0499878,4.9439697-72.5999756,40.8070068-93.4749756,74.4719849-20.8729858,33.6650391-26.8280029,60.1719971-19.2600098,85.0900269,6.6126099,21.7747192,18.4940186,23.6617432,26.8878784,29.2766113L838.2770386,7.3900146l-79.5419312,185.8856201c8.0730591,7.8126831,18.918457,16.2120361,35.5649414,12.4603271,23.3950195-5.2749634,45.9400024-20.8899536,57.1550293-64.6499634,11.2139893-43.7620239,3.8599854-82.0830078-.8800049-103.2420044Z"/>
</svg>