<?xml version="1.0" encoding="UTF-8"?>
<svg id="Layer_1" xmlns="http://www.w3.org/2000/svg" version="1.1" viewBox="0 0 506.4769897 145.5355309">
  <!-- Generator: Adobe Illustrator 29.7.1, SVG Export Plug-In . SVG Version: 2.1.1 Build 8)  -->
  <defs>
    <style>
      .st0 {
        fill: #fff;
      }
    </style>
  </defs>
  <path class="st0" d="M52.1279678,140.0974434c1.712307-10.6535263-14.5320358-21.7082748-7.8114052-34.3734016,2.9737396-5.6096535,7.6531715-10.6711006,8.5595207-17.2056866,2.0340347-10.9141216-6.0866508-23.301096-16.666748-25.4790993-3.9511261-.8342247-7.5830345-.7258644-11.7253456-.7192769-4.4478245.1107845-9.3905888-.0944819-13.4774752.3956819C.0992803,63.4507507.0443535,74.2007912,0,82.8293923c.0412637,11.0550232.4172752,22.3693924.1971724,33.2924614-.0421084,4.321312-.1711785,8.6639061-.0124134,12.9601402.1043901,3.4070587.6324407,7.7528534,2.4218367,10.2520905,4.7819407,5.7132797,6.2775986-5.8503265,6.0772889-9.7629242-.3480129-8.7992477-.7218671-18.3666916,9.6174898-20.879261,7.6403961-1.7499504,14.0761395,2.2132721,17.4892368,9.5103188,3.4627991,6.5114594,5.6717262,15.2793427,10.4689636,20.6920547,2.4640923,2.5951614,4.8719482,3.4035263,5.8341599,1.2885056l.0342331-.0853348ZM35.3056297,97.624997c-6.5143108,1.7335548-13.769413.5510292-20.4398251-.0213585-5.1819153-.6535873-6.8710771-3.807663-6.9594188-9.4252014.0074029-3.8015461-.3249502-8.1861992,2.4171205-11.02314,3.4083376-3.0431919,8.6926985-2.2810459,13.0174093-2.625968,5.8819427-.2460289,12.3435173-.83319,17.0576897,2.3719664,8.3230591,5.8775597,4.4901276,18.2090378-4.9072075,20.6668472l-.1857681.0568542Z"/>
  <path class="st0" d="M234.2926025,63.7560516c.387619,3.8141701-1.3643951,8.6455033-2.9092407,12.3761933-4.5415497,10.8260174-7.9136658,22.5255165-11.3966217,33.8118515-1.4994202,4.9489861-3.1702728,9.7675018-4.5270691,14.2860756-1.2081299,4.0620804-2.418045,9.1092072-4.4852142,12.0750885-2.7968597,4.2132568-6.756012,3.9889374-10.1432953.4235001-4.0153809-4.2131882-6.0686951-10.2273254-8.2672882-15.611042-2.7751923-7.0611076-5.4060059-13.8727303-8.1003265-21.1459503-2.252121-6.0832863-4.5101166-12.2880478-6.7019196-18.4676208-1.8305664-5.6413441-6.1149902-16.2586136-1.937149-20.9518757,4.6754608-2.4190168,7.2217255,8.9619675,8.1363373,12.3215179,1.3068085,5.374794,2.6790009,10.7473507,4.4835358,16.0384731,3.4173431,10.053936,7.4638214,19.8076782,11.0628662,29.6847305,4.0467377,10.1356888,8.3569794,2.255661,10.7907562-3.8058777,4.8986053-12.2749062,9.1771698-25.8390694,12.6113892-38.6982193,1.2413788-4.4455833,2.2401733-9.6191931,4.7557983-13.4132738,2.2585449-3.4984906,6.0549774-4.0318518,6.6121979.9331863l.0152283.1432402.0000153.0000026Z"/>
  <path class="st0" d="M399.9404297,66.0341509c12.8943787,12.7322111,16.9039612,33.65697,11.9231567,50.9247389-1.8282166,7.004673-4.3923645,13.7204781-9.3298645,18.6910057-10.866272,11.18396-29.5877075,5.8842545-38.2897339-5.4554977-8.5815125-10.9552193-9.4217224-25.7918701-7.0948792-39.1792374,2.1378784-12.4604607,8.2337646-23.7281551,21.2900391-27.1046734,7.2889099-2.3106468,15.5218811-3.7944336,21.3782959,2.0112133,0,0,.1229858.112452.1229858.1124506ZM388.6252136,71.7939194c-4.4074707-.5478811-8.7111816,1.0296278-12.295166,3.5519762-9.5335693,6.4426146-13.008606,18.7258177-11.9763794,30.0914183,1.1899719,22.8755913,28.8360291,38.915905,39.6441345,12.5210457,4.4373474-10.7222824,4.3470459-23.2764587-.6682739-33.750103-2.9006958-5.9488716-7.8284912-11.3867388-14.3596191-12.3676414l-.3446655-.0466909-.0000305-.0000048Z"/>
  <path class="st0" d="M134.8152771,65.8025344v-.0999756l.187439.1124878c-.0620117-.0036011-.1274414-.0125122-.187439-.0125122Z"/>
  <path class="st0" d="M502.1267395,145.5026711c6.7480774-2.5717545,3.5404663-16.7210236,3.7331848-22.7477112-.4751892-17.5658875.5289612-35.4247475.6170654-52.952774.0073242-4.0928922-2.3825073-8.5662346-5.2146606-3.6822996-3.5079041,6.5830812-1.9349365,17.3425131-2.1254883,25.2133284-.2368469,8.3702583-.2987061,16.862381-1.2130737,25.1829147-.7503052,5.6859627-2.9824219,11.6288528-6.9562378,7.47229-3.5414124-5.0545464-4.7992554-11.942215-7.8692627-17.3963165-3.7807312-6.9176407-8.1711731-15.0233955-11.3522949-22.5962944-2.6474304-5.5709343-4.8672485-11.4605484-7.9616089-16.6858597-2.2674866-3.7408493-6.5833435-6.0450678-8.2806396-.6651554-1.6210632,4.7059765-1.4807129,10.8290825-1.488678,15.9255009-.0335693,7.049057-1.2078857,14.1685486-1.4708862,21.1654472-.3249512,9.4351463-.7447815,19.7752457.0715637,29.4099274,1.2219543,12.2494507,7.7124939,13.8813858,7.4849243.1336975-.7162476-10.7045021-.8037415-21.7883034-.7041016-32.7041588-.0358276-5.1194534-1.1430054-8.2209511-.8321838-12.5042801.1917725-2.9904423,2.8737183-2.7396393,5.0240173-.9632549,2.4732056,2.1237297,4.2046204,5.1191463,5.8705444,7.9914951,5.6743164,10.0835648,11.124939,20.5598412,16.8893127,30.4225616,3.678894,5.289444,8.5495605,20.5118561,15.6811829,20.0012741,0,0,.0973206-.0203247.0973206-.0203323Z"/>
  <path class="st0" d="M125.3109512,131.1039818c-7.6731796-1.7853394-12.2707062-.3160477-11.9834518-10.5762596-.0683289-11.4431458-.0352554-29.035759-.0178909-40.7392387.051918-2.4774895.2805634-5.2511387,2.9600296-6.0609789,3.7647552-1.2687998,11.4731674-.7705107,12.5859222-5.7357512.3222961-8.5383511-14.8746414-4.5154433-20.4192352-4.8465919-3.6581879.1208754-7.646904-.2462881-11.1336746.7606773-3.2298813.8514786-5.1795044,3.2846355-2.4460907,5.3502235,3.1365738,2.3454151,7.9195862,3.4505577,9.3674927,7.6056309,2.3991547,7.5033493,1.4033356,15.7486439,1.9713821,23.5847111.1584473,4.8746071.3218002,9.7757759.3854752,14.4209404-.0316315,4.297081.398056,9.0463638-1.3068848,13.0143929-1.7760468,4.539856-7.6699753,5.6182404-10.4313126,9.3033981-1.4106674,3.4590454,4.447525,3.6609497,6.9026108,3.7144241,3.4407425.0257034,6.9882431-.033989,10.434906.1994171,4.5421143.2747726,9.508606.8276443,13.0400543-.7335815,4.556572-1.7571182,5.6337814-7.1175766.2506714-9.2038116,0,0-.1600113-.0576019-.1600037-.0576019Z"/>
  <path class="st0" d="M325.2642212,64.2597402c.6172485,10.1896224-6.2892151,31.634212-9.9620361,43.5316882-10.1629028,37.9657059-21.7351685,49.513649-38.238678,5.7570038-4.413269-11.9424133-9.4046631-26.8719158-11.154541-38.4964218-.9637146-6.0448494-1.0912781-10.2428188-.3733826-11.6317835,2.8901367-4.0107789,10.9859924,19.8354158,12.4285583,24.7137461,2.8792114,9.195488,5.8937073,20.7278442,10.8487549,28.3888321,9.4283142,13.9736328,16.2518616-6.7774658,20.0200195-17.5910759,2.6575928-8.2493248,5.0221863-16.8032703,8.3563232-24.7894382,1.0309143-2.5476017,7.0694275-17.0336914,8.066864-9.9697065l.0081482.0871582-.0000305-.0000024Z"/>
  <g>
    <path class="st0" d="M3.266934,8.0185547l.0883789,2.1196289c1.4008789-1.6484375,3.2910156-2.4731445,5.6694336-2.4731445,2.6728516,0,4.4921875,1.0244141,5.4575195,3.0732422.6357422-.918457,1.4628906-1.6601562,2.4814453-2.2250977,1.0185547-.5654297,2.2226562-.8481445,3.6123047-.8481445,4.1914062,0,6.3227539,2.2197266,6.3935547,6.6586914v12.8051758h-3.2675781v-12.6108398c0-1.3657227-.3120117-2.387207-.9360352-3.0644531-.6245117-.6767578-1.6723633-1.015625-3.144043-1.015625-1.2128906,0-2.2197266.3623047-3.0200195,1.0864258-.8007812.7241211-1.2661133,1.6987305-1.3955078,2.9233398v12.6811523h-3.2851562v-12.5224609c0-2.7788086-1.3598633-4.168457-4.0795898-4.168457-2.1435547,0-3.609375.9130859-4.3979492,2.737793v13.953125H.1761137V8.0185547h3.0908203Z"/>
    <path class="st0" d="M43.6956449,27.1289062c-.1884766-.3764648-.3417969-1.0478516-.4589844-2.0136719-1.519043,1.578125-3.3325195,2.3666992-5.4399414,2.3666992-1.8842773,0-3.4296875-.5322266-4.6367188-1.5981445-1.2070312-1.0654297-1.8100586-2.4165039-1.8100586-4.0537109,0-1.9897461.7563477-3.5351562,2.2695312-4.6362305,1.5126953-1.1005859,3.6411133-1.6513672,6.3847656-1.6513672h3.1791992v-1.5009766c0-1.1420898-.3417969-2.0517578-1.0244141-2.7290039-.6831055-.6767578-1.6899414-1.015625-3.0200195-1.015625-1.1660156,0-2.1435547.2944336-2.9321289.8833008-.7890625.5888672-1.1831055,1.3012695-1.1831055,2.1367188h-3.2851562c0-.9536133.3378906-1.8745117,1.0151367-2.7636719s1.5957031-1.5927734,2.7553711-2.1108398,2.4345703-.7773438,3.8237305-.7773438c2.2021484,0,3.9272461.5507812,5.175293,1.6518555s1.8955078,2.6166992,1.9428711,4.5478516v8.7954102c0,1.7548828.2236328,3.1503906.6708984,4.1860352v.2827148h-3.4262695ZM38.2732817,24.6386719c1.0244141,0,1.9960938-.2651367,2.9145508-.7949219.9179688-.5297852,1.5834961-1.21875,1.9956055-2.0664062v-3.9208984h-2.5610352c-4.003418,0-6.0048828,1.1713867-6.0048828,3.5146484,0,1.0244141.3413086,1.8251953,1.0244141,2.4018555.6826172.5771484,1.5600586.8657227,2.6313477.8657227Z"/>
    <path class="st0" d="M50.7776762,17.4145508c0-2.9316406.6948242-5.2895508,2.0844727-7.0732422,1.3891602-1.7841797,3.2084961-2.6762695,5.4575195-2.6762695,2.2368164,0,4.0092773.765625,5.3164062,2.2963867V0h3.2670898v27.1289062h-3.0024414l-.1586914-2.0488281c-1.3071289,1.6015625-3.1264648,2.4018555-5.4580078,2.4018555-2.2133789,0-4.0180664-.90625-5.4130859-2.7197266-1.3955078-1.8129883-2.0932617-4.1796875-2.0932617-7.1000977v-.2475586ZM54.0452543,17.7856445c0,2.1665039.4472656,3.8623047,1.3422852,5.0869141s2.1313477,1.8364258,3.7089844,1.8364258c2.0722656,0,3.5854492-.9296875,4.5395508-2.7905273v-8.777832c-.9775391-1.8017578-2.4790039-2.7026367-4.5039062-2.7026367-1.6015625,0-2.8496094.6181641-3.7446289,1.8549805-.8950195,1.2363281-1.3422852,3.0673828-1.3422852,5.4926758Z"/>
    <path class="st0" d="M79.9026762,27.4819336c-2.590332,0-4.6977539-.8500977-6.3227539-2.5517578s-2.4375-3.9770508-2.4375-6.8266602v-.6005859c0-1.8955078.3623047-3.5878906,1.0864258-5.0776367s1.7363281-2.6552734,3.0375977-3.4970703c1.3007812-.8417969,2.7114258-1.2631836,4.2299805-1.2631836,2.484375,0,4.4155273.8188477,5.793457,2.4550781,1.3774414,1.6367188,2.0664062,3.9799805,2.0664062,7.0297852v1.3598633h-12.9462891c.046875,1.8842773.597168,3.40625,1.6513672,4.565918,1.0537109,1.159668,2.3930664,1.7392578,4.0180664,1.7392578,1.1538086,0,2.1308594-.2353516,2.9321289-.7060547.800293-.4711914,1.5009766-1.0952148,2.1015625-1.8725586l1.9956055,1.5541992c-1.6010742,2.4614258-4.003418,3.6914062-7.2060547,3.6914062ZM79.4964262,10.3500977c-1.3188477,0-2.4257812.4794922-3.3203125,1.4394531-.8950195.9594727-1.4482422,2.3046875-1.6601562,4.0356445h9.5727539v-.2470703c-.0942383-1.6606445-.5415039-2.9467773-1.3422852-3.859375s-1.8842773-1.3686523-3.25-1.3686523Z"/>
    <path class="st0" d="M117.0110746,22.625l3.6738281-14.6064453h3.2670898l-5.5634766,19.1103516h-2.6494141l-4.6450195-14.4829102-4.5214844,14.4829102h-2.6494141l-5.5458984-19.1103516h3.25l3.762207,14.3061523,4.4506836-14.3061523h2.6318359l4.5390625,14.6064453Z"/>
    <path class="st0" d="M127.2898832,2.949707c0-.5302734.1616211-.9775391.4858398-1.3427734.3237305-.3647461.8037109-.5473633,1.4394531-.5473633s1.1186523.1826172,1.4482422.5473633c.3295898.3652344.4946289.8125.4946289,1.3427734,0,.5297852-.1650391.9711914-.4946289,1.3242188-.3295898.3535156-.8125.5302734-1.4482422.5302734s-1.1157227-.1767578-1.4394531-.5302734c-.3242188-.3530273-.4858398-.7944336-.4858398-1.3242188ZM130.8225981,27.1289062h-3.2675781V8.0185547h3.2675781v19.1103516Z"/>
    <path class="st0" d="M140.4837309,3.3911133v4.6274414h3.5678711v2.5253906h-3.5678711v11.8662109c0,.7666016.1591797,1.3413086.4770508,1.7246094.3178711.3828125.859375.5742188,1.625.5742188.3764648,0,.8945312-.0703125,1.5541992-.2119141v2.6342773c-.8598633.2338867-1.6958008.3505859-2.5083008.3505859-1.4599609,0-2.5610352-.4414062-3.3027344-1.3242188-.7416992-.8833008-1.112793-2.137207-1.112793-3.762207v-11.8515625h-3.4790039v-2.5253906h3.4790039V3.3911133h3.2675781Z"/>
    <path class="st0" d="M151.1341215,10.3320312c1.4482422-1.777832,3.3320312-2.6669922,5.6518555-2.6669922,4.0385742,0,6.0756836,2.2788086,6.1108398,6.8354492v12.628418h-3.2670898v-12.6459961c-.012207-1.3779297-.3271484-2.3959961-.9453125-3.0556641-.6181641-.6591797-1.5805664-.9892578-2.8876953-.9892578-1.0595703,0-1.9897461.2827148-2.7905273.8481445-.8007812.5649414-1.4248047,1.3066406-1.8720703,2.2250977v13.6176758h-3.2675781V0h3.2675781v10.3320312Z"/>
  </g>
</svg>