<?xml version="1.0" encoding="UTF-8"?>
<svg id="Layer_1" xmlns="http://www.w3.org/2000/svg" version="1.1" viewBox="0 0 186.9196396 32.3475594">
  <!-- Generator: Adobe Illustrator 29.7.1, SVG Export Plug-In . SVG Version: 2.1.1 Build 8)  -->
  <defs>
    <style>
      .st0 {
        fill: #fff;
      }
    </style>
  </defs>
  <path class="st0" d="M2.1819999,0C1.0033298-.0005403.0376843.9358701.0019999,2.1140001l-.0019999.0679998v6.5450003c0,1.2050858.9769146,2.1820002,2.1819999,2.1820002s2.1819999-.9769144,2.1819999-2.1820002V2.1819999C4.3651047.9780197,3.3899817.001105,2.1860013,0c-.0013337-.0000012-.0026677-.0000012-.0040014,0M8.7270002,0c-1.1786704-.0005404-2.1443157.9358701-2.1800003,2.1140001l-.0019999.0680001v13.0900002c0,1.2050848.9769149,2.1820002,2.1820002,2.1820002s2.1820002-.9769154,2.1820002-2.1820002V2.1830001C10.9106579.9790204,9.9359827.0016585,8.7320032.0000012c-.001668-.0000023-.003335-.0000027-.005003-.0000012M15.2730007,0c-1.2039804-.0011051-2.1808949.9740179-2.1820002,2.1779983-.000001.0013337-.000001.0026677,0,.0040016-.0011053,1.2039802.9740181,2.1808951,2.1779985,2.1819999.0013342.0000014.0026674.0000014.0040016,0,1.2039795.0011044,2.1808949-.9740188,2.1819992-2.1779993.0000019-.0013335.0000019-.0026672,0-.0040007C17.4561043.9780197,16.4809818.001105,15.2770014,0c-.0013342-.0000012-.0026674-.0000012-.0040016,0M21.8180008,0c-1.1786709-.0005404-2.1443157.9358701-2.1800003,2.1140001l-.0020008.0680001v19.6360006c0,1.2050858.9769154,2.1819992,2.1820011,2.1819992,1.2050838,0,2.1819992-.9769135,2.1819992-2.1819992V2.1819999C24.0011044.9780197,23.0259819.001105,21.8220024,0c-.0013351-.0000012-.0026684-.0000012-.0040016,0M15.2730007,6.5450001c-1.1829996,0-2.1450005.9400001-2.1809998,2.1140003l-.0010004.0679998v13.0910006c.0005627,1.2050858.9779339,2.1815434,2.1830187,2.1809807,1.2042885-.0005627,2.180418-.9766922,2.1809807-2.1809807v-13.0900011c.0016575-1.2039795-.9730167-2.1813416-2.1769972-2.1829991-.001668-.0000019-.003335-.0000024-.005003-.000001M2.1819999,13.0909996c-1.1786702-.0005407-2.1443158.9358702-2.1800001,2.1140003l-.0019999.0679998v6.545001c0,1.2050858.9769146,2.1819992,2.1819999,2.1819992s2.1819999-.9769135,2.1819999-2.1819992v-6.5450001c.0011053-1.2039804-.9740179-2.1808949-2.1779983-2.1820002-.0013337-.000001-.0026677-.000001-.0040016,0M8.7270002,19.6360016c-1.2039804-.0011044-2.1808949.9740181-2.1820002,2.1779976-.0000014.0013351-.0000014.0026684,0,.0040016-.0011044,1.2039795.9740191,2.1808949,2.1779995,2.1819992.0013332.0000019.0026674.0000019.0040007,0,1.2039804.0011044,2.1808949-.9740181,2.1820002-2.1779976.000001-.0013351.000001-.0026684,0-.0040016.0011044-1.2039795-.9740191-2.1808949-2.1779995-2.1819992-.0013332-.0000019-.0026674-.0000019-.0040007,0"/>
  <g>
    <path class="st0" d="M36.1298828,23.6547997V.3665956h4.0013107l7.4160984,19.0925851h.1295388L55.0929291.3665956h4.0013107v23.2882041h-2.7323099v-14.7986126l.1295388-4.4235114h-.1295388l-7.6116061,19.222124h-2.2765251l-7.6116061-19.222124h-.1295388l.1295388,4.4235114v14.7986126h-2.7323099Z"/>
    <path class="st0" d="M71.0633884,24.1753539c-1.6048422,0-3.0309689-.3802205-4.2771805-1.1382626-1.247411-.7592415-2.2225506-1.8003499-2.9278176-3.1233253-.7040676-1.3217759-1.0567011-2.829464-1.0567011-4.5206655,0-1.582053.3310437-3.0453621.9919316-4.3905269.660888-1.3439654,1.5940473-2.422856,2.7970793-3.236072,1.2042314-.813216,2.6183637-1.219824,4.2447957-1.219824,1.6480219,0,3.0633536.3634284,4.2447957,1.0896855,1.1814422.7268568,2.0930117,1.7295833,2.7323099,3.0087794.6392981,1.2797957.9595469,2.7425051.9595469,4.3905269,0,.1523281-.0059972.3034567-.0167921.4557848-.0107949.1511286-.0263875.2806675-.0479773.3898159h-14.2792578v-2.2765251h11.4162096c-.0215898-.4557848-.1247411-.948752-.3082545-1.4801011-.1847128-.5307494-.4773746-1.0291141-.8779854-1.4956938-.4018103-.4665797-.9115696-.8462005-1.5292779-1.1388623s-1.3817476-.4389927-2.2933172-.4389927c-1.084288,0-2.0222452.2764695-2.812672.8294084-.7928257.5529389-1.3997391,1.306783-1.8219397,2.2609325-.4234001.9535498-.6345004,2.0378378-.6345004,3.2516647,0,1.4093346.271072,2.5811813.813216,3.5131412s1.2414138,1.6264321,2.0978095,2.0810174c.8563956.4557848,1.7511732.6836772,2.6831331.6836772,1.2150263,0,2.2177529-.2878641,3.0093791-.8623928s1.4249272-1.2845935,1.9023018-2.1301942l2.342494,1.1382626c-.6512925,1.2582059-1.5832524,2.2993143-2.7970793,3.1221258-1.2150263.8240109-2.7323099,1.2366161-4.5542496,1.2366161Z"/>
    <path class="st0" d="M88.9853262,24.1753539c-1.4968932,0-2.8462561-.3802205-4.0492881-1.1382626-1.2042314-.7592415-2.1529834-1.8003499-2.8462561-3.1233253-.6944721-1.3217759-1.0411084-2.8402589-1.0411084-4.5530502s.3466363-3.2300749,1.0411084-4.5530502c.6932727-1.3223756,1.6420247-2.363484,2.8462561-3.1227256,1.203032-.7586418,2.5523948-1.1382626,4.0492881-1.1382626.8887803,0,1.7019964.1415332,2.4396481.4228004.7364523.2818669,1.3817476.6506928,1.9346865,1.1058778s.9811367.9433546,1.2845935,1.4639088h.1307383l-.1307383-2.3095095V.3665956h2.7646946v23.2882041h-2.6339563v-2.4396481h-.1307383c-.3034567.4989644-.7316545.976339-1.2845935,1.4309244-.5529389.4557848-1.1982342.8252104-1.9346865,1.1058778-.7376517.2818669-1.5508677.4234001-2.4396481.4234001ZM89.2779881,21.6709364c.9535498,0,1.8483273-.2542799,2.6831331-.7640392s1.5124859-1.2366161,2.0330401-2.179371c.5205542-.9439543.7808313-2.0654248.7808313-3.3668103s-.2602771-2.422856-.7808313-3.3662106c-.5205542-.9427549-1.1982342-1.6690119-2.0330401-2.1787713-.8348058-.5091596-1.7295833-.764639-2.6831331-.764639-.9547492,0-1.8495267.2554794-2.6831331.764639-.8348058.5097593-1.5124859,1.2360164-2.0330401,2.1787713-.5205542.9433546-.7808313,2.0648251-.7808313,3.3662106,0,1.2797957.2602771,2.3964685.7808313,3.3500182.5205542.9547492,1.1982342,1.6864037,2.0330401,2.196163.8336064.5097593,1.7283839.7640392,2.6831331.7640392Z"/>
    <path class="st0" d="M102.8075998,4.0098753c-.542144,0-1.0075243-.1955077-1.3985397-.5859233-.3898159-.3898159-.5853236-.8563956-.5853236-1.3985397,0-.5637338.1955077-1.0351113.5853236-1.414732.3910154-.379021.8563956-.5691313,1.3985397-.5691313.5637338,0,1.0351113.1901102,1.4153317.5691313.379021.3796208.5685316.8509982.5685316,1.414732,0,.542144-.1895105,1.0087237-.5685316,1.3985397-.3802205.3904157-.8515979.5859233-1.4153317.5859233ZM101.4414449,23.6547997V7.0672317h2.7646946v16.5875679h-2.7646946Z"/>
    <path class="st0" d="M113.6073006,24.1753539c-1.2366161,0-2.3209041-.2386873-3.2528641-.7160619-.9331594-.4761752-1.6648139-1.1322654-2.1949636-1.9670712-.5325485-.8348058-.7976234-1.7835579-.7976234-2.8462561,0-1.2138269.3142516-2.2393427.9439543-3.0741485.6285032-.8336064,1.474104-1.4633091,2.5368022-1.8855097,1.0614988-.4234001,2.2333455-.6345004,3.5119418-.6345004.7376517,0,1.4201295.0599717,2.0498321.1787156.6285032.1199434,1.175445.2602771,1.6420247.4234001.4665797.1619235.8192132.3190494,1.0579005.4713774v-1.0087237c0-1.2570065-.4449899-2.2543356-1.3337702-2.9919873-.8899798-.737052-1.9730684-1.1058778-3.2528641-1.1058778-.9103702,0-1.7619681.2009051-2.5535943.601516-.7916262.4018103-1.4141323.9595469-1.8699171,1.6750091l-2.0822168-1.5610629c.434195-.6506928.976339-1.2138269,1.6264321-1.6912015.6512925-.4767749,1.3937419-.8456007,2.2285478-1.1058778s1.7187884-.3904157,2.6507484-.3904157c2.2549353,0,4.0217011.5967182,5.3014968,1.7889553,1.2797957,1.1928368,1.9190939,2.7970793,1.9190939,4.8133273v10.5058395h-2.6339563v-2.3748787h-.1307383c-.2818669.4773746-.6824778.9391566-1.203032,1.382947-.5205542.4449899-1.1334648.8084183-1.8375324,1.0890858-.705267.2818669-1.4801011.4234001-2.3257019.4234001ZM113.8675777,21.7357058c.9535498,0,1.8267375-.2386873,2.6183637-.7160619.7904268-.4761752,1.4249272-1.1154733,1.9023018-1.9190939.4773746-.8012217.7160619-1.6792071.7160619-2.6339563-.4989644-.3466363-1.1226699-.6285032-1.8711165-.8456007-.7472472-.2158981-1.5664604-.3250465-2.4552407-.3250465-1.5832524,0-2.7431048.3250465-3.4807565.9751396-.7364523.6512925-1.1058778,1.4537136-1.1058778,2.4072634,0,.9103702.3466363,1.6480219,1.0411084,2.2117557s1.5724575.8456007,2.6351558.8456007Z"/>
    <path class="st0" d="M126.0634192,23.6547997V.3665956h7.8394985c1.3001861,0,2.5044175.2926618,3.6102953.8785852,1.1058778.5853236,1.988661,1.3931422,2.6507484,2.422856.660888,1.0303135.9919316,2.227948.9919316,3.594103,0,1.3445651-.3310437,2.5374019-.9919316,3.5779106-.6620874,1.0411084-1.5448706,1.8543245-2.6507484,2.4396481s-2.3101092.8779854-3.6102953.8779854h-6.3749899v-2.6345561h6.4397594c.9103702,0,1.6912015-.2111003,2.3412945-.6345004.6512925-.4228004,1.1550546-.9589472,1.5124859-1.60964.3586307-.6506928.5373463-1.3223756.5373463-2.0168477,0-.6938724-.1787156-1.3661549-.5373463-2.016248-.3574312-.6506928-.8611934-1.1874393-1.5124859-1.6102397-.650093-.4228004-1.4309244-.6345004-2.3412945-.6345004h-5.1395733v20.653648h-2.7646946Z"/>
    <path class="st0" d="M145.5458203,4.0098753c-.542144,0-1.0075243-.1955077-1.3985397-.5859233-.3898159-.3898159-.5853236-.8563956-.5853236-1.3985397,0-.5637338.1955077-1.0351113.5853236-1.414732.3910154-.379021.8563956-.5691313,1.3985397-.5691313.5637338,0,1.0351113.1901102,1.4153317.5691313.379021.3796208.5685316.8509982.5685316,1.414732,0,.542144-.1895105,1.0087237-.5685316,1.3985397-.3802205.3904157-.8515979.5859233-1.4153317.5859233ZM144.1796653,23.6547997V7.0672317h2.7646946v16.5875679h-2.7646946Z"/>
    <path class="st0" d="M150.9780553,30.6798826V7.0672317h2.6351558v2.4720328h.1295388c.3034567-.5205542.7316545-1.0087237,1.2845935-1.4639088s1.1982342-.8240109,1.9358859-1.1058778c.7364523-.2812672,1.5496683-.4228004,2.4396481-.4228004,1.5172836,0,2.8726436.3796208,4.0660801,1.1382626,1.1922371.7592415,2.1349919,1.8003499,2.829464,3.1227256.6932727,1.3229753,1.0411084,2.8402589,1.0411084,4.5530502s-.3478358,3.2312743-1.0411084,4.5530502c-.6944721,1.3229753-1.637227,2.3640838-2.829464,3.1233253-1.1934365.7580421-2.5487965,1.1382626-4.0660801,1.1382626-1.3229753,0-2.4828277-.3034567-3.4807565-.9103702s-1.7235862-1.2905906-2.179371-2.0498321h-.1295388l.1295388,2.2765251v7.188206h-2.7646946ZM159.1102156,21.6709364c.9535498,0,1.8483273-.2542799,2.6831331-.7640392s1.5064887-1.2414138,2.016248-2.196163c.5097593-.9535498.7652387-2.0702225.7652387-3.3500182,0-1.3013855-.2554794-2.422856-.7652387-3.3662106-.5097593-.9427549-1.1814422-1.6690119-2.016248-2.1787713-.8348058-.5091596-1.7295833-.764639-2.6831331-.764639-.9547492,0-1.8495267.2554794-2.6831331.764639-.8360053.5097593-1.5124859,1.2360164-2.0330401,2.1787713-.5205542.9433546-.7808313,2.0648251-.7808313,3.3662106s.2602771,2.422856.7808313,3.3668103c.5205542.9427549,1.1970348,1.6696117,2.0330401,2.179371.8336064.5097593,1.7283839.7640392,2.6831331.7640392Z"/>
    <path class="st0" d="M177.8777542,24.1753539c-1.6048422,0-3.0309689-.3802205-4.2771805-1.1382626-1.247411-.7592415-2.2225506-1.8003499-2.9278176-3.1233253-.7040676-1.3217759-1.0567011-2.829464-1.0567011-4.5206655,0-1.582053.3310437-3.0453621.9919316-4.3905269.660888-1.3439654,1.5940473-2.422856,2.7970793-3.236072,1.2042314-.813216,2.6183637-1.219824,4.2447957-1.219824,1.6480219,0,3.0633536.3634284,4.2447957,1.0896855,1.1814422.7268568,2.0930117,1.7295833,2.7323099,3.0087794.6392981,1.2797957.9595469,2.7425051.9595469,4.3905269,0,.1523281-.0059972.3034567-.0167921.4557848-.0107949.1511286-.0263875.2806675-.0479773.3898159h-14.2792578v-2.2765251h11.4162096c-.0215898-.4557848-.1247411-.948752-.3082545-1.4801011-.1847128-.5307494-.4773746-1.0291141-.8779854-1.4956938-.4018103-.4665797-.9115696-.8462005-1.5292779-1.1388623s-1.3817476-.4389927-2.2933172-.4389927c-1.084288,0-2.0222452.2764695-2.812672.8294084-.7928257.5529389-1.3997391,1.306783-1.8219397,2.2609325-.4234001.9535498-.6345004,2.0378378-.6345004,3.2516647,0,1.4093346.271072,2.5811813.813216,3.5131412s1.2414138,1.6264321,2.0978095,2.0810174c.8563956.4557848,1.7511732.6836772,2.6831331.6836772,1.2150263,0,2.2177529-.2878641,3.0093791-.8623928s1.4249272-1.2845935,1.9023018-2.1301942l2.342494,1.1382626c-.6512925,1.2582059-1.5832524,2.2993143-2.7970793,3.1221258-1.2150263.8240109-2.7323099,1.2366161-4.5542496,1.2366161Z"/>
  </g>
</svg>