<?xml version="1.0" encoding="UTF-8"?>
<svg id="Layer_1" xmlns="http://www.w3.org/2000/svg" version="1.1" viewBox="0 0 870.2000122 865.039978">
  <!-- Generator: Adobe Illustrator 29.7.1, SVG Export Plug-In . SVG Version: 2.1.1 Build 8)  -->
  <defs>
    <style>
      .st0 {
        opacity: .5;
      }

      .st0, .st1, .st2, .st3, .st4, .st5, .st6, .st7 {
        fill: #fff;
      }

      .st1 {
        opacity: .9;
      }

      .st2 {
        opacity: .6;
      }

      .st3 {
        opacity: .8;
      }

      .st4 {
        opacity: .75;
      }

      .st5 {
        opacity: .15;
      }

      .st6 {
        opacity: .3;
      }

      .st7 {
        opacity: .7;
      }
    </style>
  </defs>
  <path class="st5" d="M713.039146,469.0200195c.5599976,6,3.1099854,11.0599976-1.7199707,16.3599854-5.25,5.7600098-11.7800293,3.4199829-17.5900269-.210022-8.4400024-5.289978-18.1199951-11.5199585-25.5-18.2399902-.107605-.0950317-.2719116-.0848999-.3670044.0227661-.0725708.0822144-.0858154.2011108-.03302.2972412,11.4200439,18.5999756,14.6800537,45.2600098.6200562,63.2700195-.9333496,1.1932983-1.5133667,2.8566284-1.7400513,4.9899902-2.873291,26.8800049-10.1799316,53.0033569-21.9199829,78.3699951-22.039978,47.5999756-61.5499878,83.5200195-111.1300049,101.3599854-4.0999756,1.4733887-8.4533081,2.7367554-13.0599976,3.7900391-.3599854.0855713-.5825195.4467163-.4969482.8067627.0109253.0458984.0266113.0905762.046936.1331787.8800049,1.8733521,1.6000366,3.2700195,2.1600342,4.1900024,11.4533081,18.6400146,20.3466187,37.3300171,26.6799927,56.0700073,2.8466797,8.4199829,4.710022,15.0800171,5.5899658,19.9800415,2.5,13.8499756-5.0099487,22.4499512-16.75,27.7399902-25.9400024,11.6799316-52.6199951,20.3966675-80.039978,26.1499634-37.5700073,7.8900146-75.1699829,11.4500122-113.3699951,10.8800049-37.6700134-.5599976-74.75-5.1999512-114.230011-12.7600098-45.6600037-8.7399902-89.176651-23.2199707-130.5499878-43.4399414-15.9133301-7.7800293-30.9366608-16.4234009-45.0700073-25.9300537-13.3899918-9-19.8099976-20.75-12.2399902-36.6999512,11.5999908-24.4400635,26.0766602-47.4633179,43.4299927-69.0700073,5.1000061-6.3533936,10.6900177-12.3966675,16.7700043-18.1300049.2895966-.276062.307312-.7323608.0399933-1.0300293-21.593338-24.1399536-31.3899994-52.5266113-29.3899994-85.1599731.3200073-5.2399902.9633484-10.2866821,1.9300079-15.1400146.0590515-.2700195-.1163483-.5357056-.3917542-.5934448-.0753479-.0157471-.1533813-.0145264-.228241.003479-1.5.3699951-3.980011,1.2199707-5.9100037,1.289978-9.4300079.3499756-13.6500092-7.5599976-11.9499969-16.1199951,4.8933258-24.6333618,12.2833252-50.0766602,22.1699982-76.3300171,13.4799957-35.8099976,32.9599915-70.5,58.3600006-99.519989.2813721-.3188782.2509766-.8054504-.0678864-1.0868225-.0259247-.0228882-.05336-.0439758-.0821228-.0631714-23.3466644-15.6200256-44.1866608-34.3100281-62.519989-56.0700073C40.2824932,268.543335,17.5624843,222.0100098,6.3291546,169.5299988c-3.9200058-18.3199921-5.6300049-36.2466736-5.1300049-53.7799988.7399979-26.1900024,9.8700027-56.7100067,35.0299988-69.4400024,6.1800003-3.1333313,13.0833282-4.6900024,20.7100067-4.6699982,8.6599884.0266647,16.4199982.9233322,23.2799988,2.6900024,16.9100037,4.3499985,33.8099976,11.6799927,49.1799927,21.1799927.2032776.1219635.4670258.0605316.5890808-.1372375.0431213-.0698242.0642853-.1507416.0609283-.2327576-.2666779-10.4199982,1.5599976-20.3100052,5.4799957-29.6699982C143.8291546,15.6299973,158.8091503,3.6399994,180.2091594.7900009c17.5466614-2.3333359,34.4233398.5266724,50.6300049,8.5800018,24.3399963,12.0999985,45.9399719,30.3699951,64.1199951,50.5699997,50.3800049,55.9799957,82.0099792,129.75,83.2799988,205.6000061.0121155.7759705.5858154,1.4262085,1.3500061,1.5299988.9066467.1200256,5.956665.8066711,15.1499939,2.0599976,46.4099731,6.3500061,90.3699951,24.9100037,125.6400146,55.7200012,12.4399414,10.8599854,23.9366455,23.1733398,34.4899902,36.9400024,9.25,12.0599976,16.6199951,22.6699829,24.3900146,34.3199768,13.4199829,20.1100159,36.4299927,35.3200073,58.4699707,44.2600098.1712036.0770874.3724976.0007324.449585-.1704712.0558472-.1240234.0324097-.2693481-.0595703-.3695068-3.8133545-4.3800049-7.2033691-8.9200134-10.1699829-13.6200256-11.6200562-18.3999939-19.960022-38.7099915-22.9800415-60.0299988-.1057739-.7355042-.6952515-1.3044128-1.4299927-1.3800049-19.2600098-2.1199951-33.9299927-17.539978-33.6500244-37.3399963.1500244-10.6000061,4.3300171-18.9499817,10.6300049-27.3199768.5751343-.7649536.6681519-1.7878113.2400513-2.6400146-9.8900146-19.9100037-20.3200073-38.6900024-34.6000366-54.9700012-6.4533081-7.3533325-13.7466431-13.3899841-21.8800049-18.1099854-7.9400024-4.6100159-24.8200073-9.5200195-31.7600098-.8100281-2.5899658,3.2400208-2.6099854,6.9000244.4400024,9.8200073.6220703.5908203,1.5419922.7415161,2.3200073.3800049,3.8900146-1.8200073,7.4100342-2.8800049,11.1199951-.0100098,2.960022,2.2866821,4.1466675,5.5366821,3.5599976,9.75-.4933472,3.519989-2.7033081,6.5599976-6.6300049,9.1200256-4.4699707,2.9099731-11.4699707,2.7599792-16.4699707.6699829-16.2700195-6.7999878-21.3400269-24.5899963-12.7200317-39.6999817,8.3800049-14.6800232,27.5-17.4000244,42.7600098-14.0400085,16.8900146,3.7099915,33.2700195,16.0299988,44.6900024,29.3299866,10.1000366,11.7600098,18.7800293,24.4733582,26.0400391,38.1400146,3.9399414,7.4199829,7.75,14.0966492,11.4299927,20.0299988.7133179,1.1533203,1.6766968,1.7466736,2.8900146,1.7799988.3864136.0110779.7086792-.2932434.7197266-.6796875.0001221-.003418.0001831-.0068665.0002441-.0103149.1733398-25.313324-3.25-49.8700256-10.2700195-73.6700134-6.5700073-22.2599792-22.5899658-51.8499908-48.5100098-53.8099823-.1817627-.013504-.3400269.122879-.3535767.3046265-.0073853.0995636.0307007.1971283.1035767.2653656.8733521.8133392,1.7233887,1.8100128,2.5500488,2.9900055,9.539978,13.6100006-7.4200439,28.3000031-20.2399902,16.6699982-4.8200073-4.3699951-7.6100464-12.1699982-7.1600342-18.7700043.5933228-8.6666565,4.9233398-15.0266724,12.9899902-19.0800018,12.4100342-6.2399902,27.4700317-2.2099915,39.4500122,5.3700104,16.1699829,10.219986,27.5499878,26.1199951,35.0900269,43.6299896,5.4933472,12.7799988,9.5266724,26.1500244,12.0999756,40.1100159,3.5400391,19.2200012,5.1300659,38.7333374,4.7700195,58.539978-.0192261,1.0298157.4072876,2.0177612,1.1699829,2.710022l8.2199707,7.519989c.0542603.0462952.1351929.0442505.180603-.0045776.0168457-.0180359.0270996-.040863.0294189-.0654297,1.9400024-16.6300049,4.8800049-33.2900085,9.2800293-49.2599792,8.8932495-32.2666931,22.3433228-62.9900208,40.3499756-92.1700134,16.3300171-26.4600067,36.4400024-51.25,61.3400269-70.1199951,13.789978-10.4500122,31.9400024-19.1700134,49.7099609-17.4300079,23.0700073,2.2599945,35.7399902,24.75,38.2000122,45.5899963,1.0200195,8.6266632,1.3533325,16.1233521,1,22.4900055-.6300049,11.2599945-2.7299805,26.6399994.3300171,39.9200134,2,8.7099915,8.7600098,18.9199829,11.8299561,25.539978,8.9000244,19.1800232,13.0500488,37.6400146,10.9000244,58.0599976-3.2999878,31.2400208-24,56.5500183-49.5999756,72.9000244-.2387085.1506653-.3058472.4677429-.1499634.7081909.0639038.0985107.1590576.1731873.2699585.211792,18.2866821,6.0133057,33.6499634,16.1533203,46.0899658,30.4200134,10.1100464,11.5899963,16.5800171,26.3099976,18.5300293,41.3199768.6733398,5.1800232.5800171,11.1100464-.2800293,17.7900085-1.7266235,13.4533081-6.0899658,26.1233521-13.0899658,38.0100098-.5513916.9404297-.7797241,2.0362549-.6500244,3.1199951.75,6.4500122,1.0499878,14.5100098-1.6099854,20.5499878-6.9799805,15.8800049-21.0599976,23.0900269-38.0900269,23.7600098-38.4099731,1.539978-74.9199829-18.8099976-103.5599976-43.5700073-.1348877-.1225586-.3435669-.1126099-.4661865.0222778-.0635376.0699463-.0940552.1638184-.0838013.2577515ZM159.2091442,39c-7.6333313,13.8600006-9.8266602,28.0933228-6.5799866,42.6999969.1685791.7319489.5768585,1.3865967,1.1599884,1.8600006,53.0200195,42.8399963,92.1400146,103.769989,109.0299988,169.0400085,2.293335,8.8733521,4.1066895,17.6799927,5.4400024,26.4199829.038269.2791138.2997742.4728699.5841064.4327698.0326233-.0045776.0646973-.0122375.0958862-.0227661,8.0866699-2.813324,16.6900024-5.210022,25.8099976-7.1900024,12.5333252-2.6933289,25.6000366-4.3999939,39.2000122-5.1199951,6.3266602-.3333435,13.3099976-.6099854,20.9500122-.8299866.4977722-.0152893.8992615-.4124146.9199829-.9100037.3600159-8.206665-.0866699-17.0133362-1.3399963-26.4200134-7.3400269-55.1133423-28.1200256-104.5099945-62.3399963-148.1899872-14.7333374-18.7999878-31.6033325-35.0033264-50.6100159-48.6100006-12.7799988-9.1500015-29.9299927-18.4200058-45.9099731-19.3300018-2.3333435-.1266708-4.8999939-.1433334-7.7000122-.0500031-13.0599976.4533386-22.6300049,5.859993-28.7100067,16.2200012ZM179.0991436,386.8599854c-6.9099884-1.1899719-14.0599976-5.25-20.269989-8.6299744-.7872009-.4256287-1.7592468-.278595-2.3800049.3599854-17.9400024,18.5100098-31.6600037,38.7000122-43.4700012,62.6100159-10.926651,22.1199951-19.793335,44.8699951-26.5999908,68.25-2.1600037,7.4133301-4.456665,15.9733276-6.8899994,25.6799927-.0381622.1612549.061615.322876.2228394.3610229.0737.0174561.1512756.0063477.2171478-.0310059l27.3400116-15.7900391c.057724-.0325928.1309204-.012146.1634827.0455322.0180359.0319824.0204468.0704956.0065155.1044922-2.4666595,7.3399658-5.3733368,16.9866943-8.7200012,28.9400024-6.6800079,23.8499756-6.7799988,50.6400146,5.2700043,73.1900024,11.1999969,20.9699707,28.7999878,36.0199585,49.9899902,47.9899902,4.8533325,2.7467041,10.2400055,5.6799316,16.1600037,8.7999878.1739044.086792.2400818.2990112.1479034.4740601-.0489502.0928345-.13591.1608276-.2378998.1859741-5.9466553,1.2999878-9.613327,2.0966187-11,2.3899536-8.3200073,1.7466431-16.4900055,1.1033325-24.5100098-1.9299927-4.9666748-1.8800049-9.6599884-4.0333252-14.0800018-6.4599609-.7603912-.4134521-1.6893311-.3428955-2.3699951.1799927-.8066559.6199951-1.6566467,1.3833618-2.5500031,2.289978-6.0800018,6.2000122-11.9433136,13.0033569-17.5899963,20.4100342-14.6333313,19.2133179-27.1066589,39.7832642-37.4199982,61.7099609-.4142303.8774414-.1512909,1.9291382.6300049,2.5200195,7.2133179,5.3599243,14.7166595,10.3066406,22.5099945,14.8399658,20.8666534,11.9866943,42.5833282,22.2333374,65.1499939,30.7400513,45.0333557,16.9732666,91.4633484,28.0432739,139.2900085,33.2099609,21.3799744,2.3133545,42.7366638,3.5333252,64.0700073,3.6600342,48.6133118.293335,96.373291-7.0266724,143.2799683-21.960022,9.9067383-3.1533203,19.6066895-6.8533325,29.1000366-11.0999756,3.0733032-1.3733521,5.833313-2.8466187,8.2799683-4.4200439.7055664-.4570312,1.0269165-1.3234253.7900391-2.1300049-6.4067383-22.000061-14.9967041-42.6466675-25.7700195-61.9400024-4.5999756-7.3799438-9-14.6733398-13.2000122-21.8799438-2.5999756-4.4500122-3.5499878-8.9200439-.75-13.6500244,1.9933472-1.4866333,3.9500122-2.5032959,5.8699951-3.0499878,20.1400146-5.710022,39.3200073-12.2900391,57.5599976-22.6600342,23.6300049-13.4299927,45.1799927-35.3999634,59.6199951-58.6399536.1113892-.1713257.0628662-.4005127-.1084595-.5119019-.1048584-.0681763-.2371216-.0787964-.3515015-.0281372-31.1199951,13.210022-67.4200439,7.7900391-95.2800293-10.5499878-7.7666016-5.1133423-14.1932983-11.6066895-19.2799683-19.4799805-.3366699-.5189209-1.0302734-.666626-1.5491943-.3299561-.024231.015686-.0478516.0323486-.0708008.0499268-3.6300049,2.7700195-8.1600342,3.9799805-12.1900024,1.4100342-10.3800049-6.6000366,1.7399902-22.4900513,6.8200073-28.2900391,4.9599609-5.6900024,14.9299927-11.6300049,21.5599976-4.3499756,4.5099487,4.9400024,3.2699585,9.7600098.2299805,15.1300049-.5162354.9015503-.4815063,2.0183105.0899658,2.8899536,16.960022,25.9000244,59.6800537,35.9800415,87.8500366,26,13.9400024-4.9499512,22.6099854-14.7199707,29.2799683-28.4699707,5.1467285-10.6266479,8.6467285-21.9700317,10.5-34.0300293.0996094-.6309814-.237793-1.2481079-.8200073-1.5-5.4866333-2.4066772-10.6132812-4.8466187-15.3799438-7.3199463-11.9666748-6.206665-22.293335-14.210022-30.9800415-24.0100098-8.8499756-9.9800415-13.25-22.5100098-5.8399658-34.6099854,6.3499756-10.3700562,17.4499512-14.8900146,29.1999512-16.7800293.190979-.0299072.3215332-.2089844.291626-.3999634-.0177002-.1127319-.0891724-.2097168-.1915894-.2600098-23.6699829-11.6200562-43.3699951-26.2300415-58.5-47.6500244-7.8533936-11.1066589-14.8233643-20.8000183-20.9100342-29.0800171-8.4799805-11.5333252-17.9266357-22.3399658-28.3399658-32.4199829-9.5666504-9.2599792-20.9333496-17.9733582-34.1000366-26.1400146-18.2199707-11.313324-37.0232544-19.4333191-56.4099731-24.3599854-15.3600159-3.9066772-30.9933472-6.5433655-46.8999939-7.9100037-11.0400085-.9400024-24.0100098-.8500061-34.6600037-.4100037-20.6666565.853302-40.9533386,4.5366516-60.8599854,11.0500183-6.9200134,2.2599792-12.4200134,4.7200012-20.4100037,7.9099731-2.8399963,1.1300049-5.2000122,1.5100098-7.8700256,2.3500061-.243042.0739746-.5000305-.0630798-.5740051-.3061218-.0073547-.0241699-.0126953-.0488586-.0159912-.0738831-1.4599915-10.7399902-3-22.1399841-4.9799805-31.6699829-13.1066589-63.1533508-43.0066833-117.1400146-89.7000122-161.9600067-21.1199951-20.2799988-45.8199921-37.8199921-73.2899933-47.2099915-8.5533447-2.9200134-17.1666565-4.2733459-25.8399963-4.0600128-23.0000076.5500031-32.2400055,27.6700134-33.3500061,46.3899994-.9333344,15.6600037-.0300064,31.0599976,2.7099991,46.2000122,15.5599976,85.8799896,69.4899979,162.6299896,146.6299973,204.5699921,4.2400055,2.3066711,7.9866791,4.2900085,11.2400055,5.9500122,2.8666687,1.4599915,4.6900024,2.7166748,5.4700012,3.769989,1.5133362,2.039978,2.1066589,4.1133118,1.7799988,6.2200012-1.0466614,6.8199768-5.3000183,10.0233459-12.7600098,9.6099854ZM664.8991314,355.6700134c1.0266724.1799927,2.2800293.2299805,3.7600098.1499939,32.2600098-1.6266479,63.6133423-8.5400085,94.0599976-20.7400208,15.0266724-6.0266418,28.6367188-13.6699829,40.8300171-22.9299927,14.289978-10.8500061,26.8099976-27.1099854,30.1799927-44.8200073,4.3099976-22.6599731-2.3099976-43.0599976-13.5-62.8799744-5.3400269-9.4599915-8.3933105-19.6366882-9.1599731-30.530014-.166626-2.4199982-.1932983-7.8600006-.0800171-16.3199921.2199707-16.6100006,2.4899902-33.9200134-3.6900024-49.2100067-2.7200317-6.7200012-9.2999878-14.9400024-17.1500244-15-7.8600464-.0666809-15.2333374,1.9333191-22.1199951,6-11.7600708,6.9533386-22.460022,15.5899963-32.0999756,25.9100037-11.9133301,12.7599945-22,25.4166718-30.2600098,37.9700012-26.2600098,39.8899994-43.8300171,83.8899994-51.3200073,130.5599823-2.1799927,13.6000366-3.7166748,27.7833862-4.6099854,42.5500183-.0578613.8760681.2090454,1.7443542.75,2.4400024l12.0100098,15.4100037c.5916748.7594299,1.4468994,1.2725525,2.3999634,1.4400024ZM610.6820293,310.2591858c-8.6221313-2.2619934-17.5874023,3.4352112-20.0245972,12.7250671v.000061c-2.4371948,9.289856,2.5767212,18.65448,11.1987915,20.9164734,8.6221313,2.2619934,17.5874023-3.4352112,20.0245361-12.7250671q0-.0000305.000061-.0000305c2.4371948-9.289856-2.5766602-18.65448-11.1987305-20.9165039h-.000061ZM678.3791729,375.980011c.6600342,1.3200073,3.2133179,5.5733032,7.6599731,12.7599792,6.4799805,10.4700012,12.1699829,21.9700012,17.1099854,33.6900024,2.9800415,7.0899963,5.6600342,10.1600037,11.1500244,16.4500122,24.8099976,28.4199829,61.2799683,51.25,99.8499756,51.6599731,8.4500122.0800171,22.0100098-1.9899902,22.3400269-13.2799683.0999756-3.2800293-.9100342-8.2700195-.25-11.7700195.4866333-2.5266724.9966431-4.3066406,1.5299683-5.3399658,4.7266846-9.1400146,8.1967163-18.2533569,10.4100342-27.3400269,4.0866699-16.7466736,1.4099731-31.916687-8.0300293-45.5100098-11.1499634-16.039978-29.0299683-26.9599915-47.6599731-32.0899963-6.5300293-1.7999878-15.0700073-3.5799866-21.4500122-1.1099854-20.2000122,7.7866821-40.8299561,13.6433105-61.8900146,17.5700073-10.1333008,1.8866577-20.2299805,3.0566406-30.289978,3.5099792-.3087158.0138855-.5498047.2713623-.5383911.5751343.0029907.0783386.0228271.1550293.0584106.224884ZM632.1791607,354.3999939c-1.9066772,2.2666626-3.9367065,3.5966797-6.0900269,3.9900208-1.0654907.1933289-1.7835693,1.1995239-1.6199951,2.269989,2.7333984,18.4000244,8.9666748,35.1799927,18.7000122,50.3399963,11.5800171,18.0400085,28.7399902,35.8400269,47.0499878,47.5100098.5986328.3862915,1.3970947.2141724,1.7833862-.3844604.0839233-.130127.1437378-.274231.1766357-.4255371.0199585-.0799561-.043396-.4333496-.1900024-1.0599976-3.7533569-15.6066284-9.5299683-30.7366943-17.3300171-45.3900146-10.0133667-18.8066406-21.5200195-35.3800049-34.5200195-49.7200012-2.3933105-2.6399841-4.6965942-5.0366821-6.9099731-7.1900024-.2796631-.2749023-.7320557-.2675781-1.010437.0163269-.0137939.0140381-.0269775.0285645-.0395508.0436707ZM649.2691265,520.3200073c.9406128.3226318,1.9858398.0142822,2.6100464-.7700195,3.706665-4.6400146,5.7299805-9.9133301,6.0700073-15.8200073.4399414-7.6499634-1.8500366-19.4599609-7.7200317-24.2399902-2.9533081-2.3999634-6.6333008-3.8966675-11.039978-4.4899902-10.6300049-1.4299927-22.6199951.5300293-29.5599976,8.9199829-.666626.8066406-1.1900024,2.083374-1.5700073,3.8300171-.0775757.3283081-.03125.6737061.1300049.9699707,1.1066284,2.0466919,1.9666138,3.3666992,2.5799561,3.960022,10.0466919,9.706665,20.539978,17.7866211,31.4800415,24.2399902,2.7000122,1.5933838,5.039917,2.7266846,7.0199585,3.4000244Z"/>
  <path class="st0" d="M820.2291484,204.4500427c-5.3400879-9.460022-8.3933105-19.6367188-9.1599121-30.5300293-.166748-2.4199829-.1933594-7.8599854-.0800781-16.3200073.2199707-16.6099854,2.4899902-33.9199829-3.6899414-49.2099609-2.7200928-6.7200317-9.3000488-14.9400024-17.1501465-15-7.8599854-.0667114-15.2332764,1.9332886-22.119873,6-11.7601318,6.9533081-22.460083,15.5899658-32.1000977,25.9099731-11.9133301,12.7600098-22,25.416687-30.2600098,37.9700317-26.2600098,39.8899536-43.8299561,83.8899536-51.3199463,130.5599365-2.1800537,13.6000366-3.7166748,27.7833862-4.6099854,42.5500488-.0578613.8760376.2089844,1.7443237.75,2.4400024l12.0100098,15.4099731c.5916748.7594604,1.4468994,1.272583,2.3999023,1.4400024,1.0267334.1799927,2.2800293.2299805,3.7600098.1500244,32.2600098-1.6266479,63.6134033-8.5400391,94.0600586-20.7400513,15.0266113-6.0266113,28.6367188-13.6699829,40.8300781-22.9299927,14.289917-10.8499756,26.8099365-27.1099854,30.1799316-44.8200073,4.3100586-22.6599731-2.3100586-43.0599976-13.5-62.8799438ZM786.3791729,290.0299988c-5.5933838,5.3266602-12.2667236,10.293335-20.0200195,14.9000244-24.4700928,14.5700073-51.25,26.7399902-79.9000244,25.9500122-2.9733887-.0800171-5.6833496-.456665-8.1300049-1.1300049-5.8499756-1.6000366-5.0799561-13.2900391-4.75-18.0700073.539917-7.9333496,1.7332764-16.0100098,3.5799561-24.2299805,7.3200684-32.6200562,20.2567139-62.9266968,38.8100586-90.9200439,5.8933105-8.8933105,12.3366699-16.7766724,19.3300781-23.6499634,9.8598633-9.6900024,22.8299561-14.75,36.539917-9.960022,7.5599365,2.6400146,11.4801025,13.4299927,12.7900391,20.5999756,1.1533203,6.3533325,1.5765381,12.3500366,1.2698975,17.9900513-.5,9.2466431-1.6433105,17.9533081-3.4299316,26.1199951-.0927734.4360962.1843262.8651733.6199951.9599609,11.1199951,2.4066772,17.2733154,9.4200439,18.460083,21.0400391,1.6065674,15.7666016-3.4500732,29.2332764-15.1700439,40.3999634Z"/>
  <path class="st2" d="M783.0891274,228.5900269c-.4356689-.0948181-.7127686-.5238953-.6199951-.9599915,1.7866821-8.1666565,2.9299927-16.8733215,3.4299927-26.1199951.3066406-5.6400146-.1166382-11.6366882-1.2699585-17.9900208-1.3099976-7.1699829-5.2300415-17.9599915-12.7900391-20.5999908-13.7099609-4.7899933-26.6799927.2700043-36.539978,9.9600067-6.9932861,6.8733215-13.4366455,14.7566833-19.3300171,23.6499939-18.5533447,27.9933167-31.4899902,58.2999878-38.8099976,90.9200134-1.8466797,8.2200012-3.0400391,16.2966614-3.5800171,24.2299805-.3299561,4.7799988-1.0999756,16.4700012,4.75,18.0700073,2.4467163.6733398,5.1566772,1.0500183,8.1300049,1.1300049,28.6500244.7900085,55.4299927-11.3800049,79.9000244-25.9500122,7.7533569-4.6066589,14.4266968-9.5733337,20.0200195-14.8999939,11.7199707-11.166687,16.7766113-24.6333618,15.1699829-40.3999939-1.1866455-11.6199951-7.3400269-18.6333313-18.460022-21.0400085" vector-effect="non-scaling-stroke"/>
  <path class="st1" d="M294.7491311,272.2400208c-6.1333313-22.7266541-13.289978-43.8366699-21.4700012-63.3299866-14.1733093-33.7533417-33.103302-65.2533417-56.789978-94.5-14.6733398-18.1066589-23.9100037-29.5333405-27.710022-34.2799988-9.9266663-12.3933411-19.7833252-26.1033478-29.5699921-41.1300049,6.0800018-10.3600082,15.6500092-15.7666626,28.7100067-16.2200012,2.8000183-.0933304,5.3666687-.0766678,7.7000122.0500031,15.9799805.909996,33.1299744,10.1800003,45.9099731,19.3300018,19.0066833,13.6066742,35.8766785,29.8100128,50.6100159,48.6100006,34.2199707,43.6799927,54.9999695,93.0766449,62.3399963,148.1899872,1.2533264,9.4066772,1.7000122,18.2133484,1.3399963,26.4200134-.0207214.4975891-.4222107.8947144-.9199829.9100037-7.6400146.2200012-14.6233521.4966431-20.9500122.8299866-13.5999756.7200012-26.666687,2.4266663-39.2000122,5.1199951Z"/>
  <path class="st3" d="M159.2091378,39.0000305c9.7866669,15.0266571,19.6433258,28.7366638,29.5699921,41.1300049,3.8000183,4.7466583,13.0366821,16.1733398,27.710022,34.2799988,23.686676,29.2466583,42.6166687,60.7466583,56.789978,94.5,8.1800232,19.4933167,15.3366699,40.6033325,21.4700012,63.3299866-9.1199951,1.9799805-17.7233276,4.3766785-25.8099976,7.1900024-.2720032.092041-.5664368-.049408-.6576843-.3159485-.010437-.0305786-.0179138-.0620422-.0223083-.0940552-1.333313-8.7399902-3.1466675-17.5466309-5.4400024-26.4199829-16.8899841-65.2700195-56.0099792-126.2000122-109.0299988-169.0400085-.5831299-.4734039-.9914093-1.1280518-1.1599884-1.8600006-3.2466736-14.6066742-1.0533447-28.8399963,6.5799866-42.6999969Z"/>
  <path class="st0" d="M840.1490703,387.3000183c-11.1499023-16.039978-29.0299072-26.960022-47.6599121-32.0900269-6.5300293-1.7999878-15.0700684-3.5799561-21.4499512-1.1099854-20.2000732,7.7866821-40.8300781,13.6433105-61.8901367,17.5700073-10.1333008,1.8866577-20.2299805,3.0566406-30.289917,3.5100098-.3087158.013855-.5498047.2713623-.5384521.5751343.0030518.0783081.0229492.1550293.0584717.2248535.6600342,1.3200073,3.2132568,5.5733032,7.6600342,12.7600098,6.4799805,10.4699707,12.1699219,21.9699707,17.1098633,33.6900024,2.9801025,7.0899658,5.6601562,10.1599731,11.1501465,16.4500122,24.8099365,28.4199829,61.2799072,51.25,99.8498535,51.6599731,8.4500732.0800171,22.0100098-1.9899902,22.3400879-13.2799683.0999756-3.2800293-.9100342-8.2700195-.25-11.7700195.4865723-2.5266724.996582-4.3066406,1.5300293-5.3399658,4.7265625-9.1400146,8.1965332-18.2533569,10.4099121-27.3400269,4.0866699-16.7467041,1.4101562-31.916687-8.0300293-45.5100098ZM814.6390606,441.7100525c-14.1298828,18.2799683-41.079834,11.6099854-57.6398926,1.2199707-17.5400391-11.0133667-30.6199951-25.7466431-39.2399902-44.2000122-1.0334473-2.206665-1.5267334-4.1600342-1.4799805-5.8599854.0899658-3.0900269,3.7099609-4.9500122,6.3399658-5.9500122,15.2266846-5.7600098,31.0766602-8.1466675,47.5499268-7.1599731,19.460083,1.1599731,40.0200195,8.9299927,49.0100098,27.4499512,5.5200195,11.3800049,3.0300293,24.710022-4.5400391,34.500061Z"/>
  <path class="st3" d="M179.0991372,386.8600159l.7700195.0300293c.1428223.01474.2467041.1424561.2319641.2853088-.0099182.0960999-.0722961.178772-.1619873.2146912-.519989.1666565-.7799988.4433289-.7799988.8299866.0064392.5656128-.2301025,1.1078186-.6499939,1.4899902-17.4666595,15.793335-31.4300079,33.2900085-41.8899994,52.4900208-13.0800018,24.0100098-22.0200043,49.3999634-28.4499969,75.5499878-.0550232.2260132.0875702.4517822.3184967.5043335.0980988.0223389.2012634.0101318.2915039-.0343628,4.3666687-2.2532959,8.4266663-5.1066284,12.1799927-8.5599976.1215973-.1125488.3114166-.1051636.4239502.0164185.0730591.0789185.0982513.190979.0660553.2935791-5.5266571,17.1200562-9.1433258,34.4633789-10.8500061,52.0300293-.6199951,6.4000244-.2799988,12,.3900146,18.9099731,1.7399902,18.0700073,9.8799896,33.4400024,20.3399963,47.9200439,15.7599945,21.8499756,38.3499908,36.5,63.1399841,48.8800049,6.980011,3.4866943,16.3099976,8.2399902,27.9900208,14.2599487.8800049.4533691,1.5632935.9867554,2.0499878,1.6000366.2449036.3062744.1951599.7530518-.111084.9979248-.059845.0478516-.1270142.0856934-.1989136.1120605-6.0400085,2.2333374-12.5933228,3.8566895-19.6600037,4.8699951-14.4400024,2.0600586-28.7900085,2.0700684-43.0499878.0300293-5.2400055-.7533569-10.2600098-1.5466309-15.0600128-2.3800049-1.4842529-.2532349-3.0018463.156311-4.1499939,1.1199951-10.1800079,8.5333252-19.4400024,17.8800049-27.7799988,28.039978-9.5066528,11.5933228-17.7599945,24.0599976-24.7599945,37.4000244-1.9933319,3.8000488-4.0166779,7.6633301-6.0700073,11.5899658-7.793335-4.5333252-15.2966766-9.4800415-22.5099945-14.8399658-.7812958-.5908813-1.0442352-1.6425781-.6300049-2.5200195,10.3133392-21.9266968,22.7866669-42.4966431,37.4199982-61.7099609,5.6466827-7.4066772,11.5099945-14.210022,17.5899963-20.4100342.8933563-.9066162,1.7433472-1.6699829,2.5500031-2.289978.6806641-.5228882,1.6096039-.5934448,2.3699951-.1799927,4.4200134,2.4266357,9.113327,4.5799561,14.0800018,6.4599609,8.0200043,3.0333252,16.1900024,3.6766357,24.5100098,1.9299927,1.386673-.293335,5.0533447-1.0899658,11-2.3899536.1921844-.0473633.3135223-.2393799.2710114-.428894-.0225525-.1005859-.0887146-.1850586-.181015-.2311401-5.9199982-3.1200562-11.3066711-6.0532837-16.1600037-8.7999878-21.1900024-11.9700317-38.7899933-27.0200195-49.9899902-47.9899902-12.0500031-22.5499878-11.9500122-49.3400269-5.2700043-73.1900024,3.3466644-11.9533081,6.2533417-21.6000366,8.7200012-28.9400024.0251312-.0613403-.0041962-.1314087-.0655212-.1565552-.0339966-.013916-.0724792-.0115356-.1044769.0065308l-27.3400116,15.7900391c-.144104.0817871-.3272095.03125-.4089813-.112854-.0373688-.065918-.0484467-.1434326-.0310059-.2171631,2.4333344-9.706665,4.7299957-18.2666626,6.8899994-25.6799927,6.8066559-23.3800049,15.6733398-46.1300049,26.5999908-68.25,11.8099976-23.9100037,25.5299988-44.1000061,43.4700012-62.6100159.6207581-.6385803,1.592804-.785614,2.3800049-.3599854,6.2099915,3.3799744,13.3600006,7.4400024,20.269989,8.6299744Z"/>
  <path class="st3" d="M493.9091347,705.8800354c-2.7999878,4.7299805-1.8499756,9.2000122.75,13.6500244,4.2000122,7.206604,8.6000366,14.5,13.2000122,21.8799438-2.7800293,1.0733643-5.7199707,1.7867432-8.8200073,2.1400146-14.7299805,1.6699829-28.4199829.9299927-43.3599854-2.1799927-11.0266724-2.2999878-22.2167358-5.4933472-33.5700073-9.5800171-8.7000122-3.1300049-16.1900024-5.6799927-23.1799927-9.289978-1.7466736-.8999634-2.8566895-2.123291-3.3300171-3.6699829-.3931885-1.2660522.3583069-2.6193848,1.6785889-3.0228271.0892334-.0272217.1798096-.0496216.2714233-.0671997,2.0932922-.3999634,5.0500183-.6499634,8.8699951-.75,7.0799866-.1900024,13.5799866,0,21.3099976-.6300049,17.1333618-1.3933716,34.1633301-3.4766846,51.0900269-6.25.0199585.000061,2.2399292-.4700317,6.6599731-1.4099731,2.8067017-.5933228,5.6166992-.8666992,8.4299927-.8200073Z"/>
  <path class="st1" d="M643.6390606,539.4700012c-5.4865723-2.4066772-10.6132812-4.8466187-15.3798828-7.3199463-11.9666748-6.206665-22.293335-14.210022-30.9799805-24.0100098-8.8500977-9.9800415-13.25-22.5100098-5.8400879-34.6099854,6.3500977-10.3700562,17.4499512-14.8900146,29.1999512-16.7800293.112793-.0176392.2097168-.0891724.2600098-.1915894.0852051-.1735229.0136719-.3832397-.1599121-.4683838-23.6699219-11.6200562-43.3699951-26.2300415-58.5-47.6500244-7.8533936-11.1066895-14.8233643-20.8000488-20.9100342-29.0800171-8.4799805-11.5333252-17.9266357-22.3399658-28.3399658-32.4199829-9.5666504-9.2600098-20.9333496-17.9733887-34.1000977-26.1400146-18.2199707-11.3133545-37.0231934-19.4333496-56.4099121-24.3599854-15.3601074-3.9066772-30.9934082-6.543396-46.9000244-7.9100342-11.039917-.9400024-24.0100098-.8499756-34.6600342-.4099731-20.666626.8532715-40.9533691,4.5366211-60.8598633,11.0499878-6.920166,2.2600098-12.420166,4.7200317-20.4101562,7.9099731-2.8398438,1.1300049-5.1999512,1.5100098-7.869873,2.3500366-.0241699.0073242-.0489502.0126953-.0739746.0159912-.2518311.0331421-.4829102-.144165-.5161133-.3959961-1.4599609-10.7399902-3-22.1400146-4.9799805-31.6699829-13.1066895-63.1533813-43.0065918-117.1400146-89.6999512-161.960022-21.1201172-20.2799683-45.8200684-37.8200073-73.2900391-47.2099609-8.5533447-2.9200439-17.166626-4.2733765-25.8399658-4.0600586-23,.5500488-32.2401123,27.6700439-33.3499756,46.3900146-.9333496,15.6600342-.0300293,31.0599976,2.7099609,46.2000122,15.5600586,85.8800049,69.4899902,162.6300049,146.6300049,204.5700073,4.2399902,2.3066406,7.9866943,4.289978,11.2399902,5.9500122,2.8665771,1.4599609,4.6900635,2.7166748,5.4699707,3.7699585,1.5133057,2.039978,2.1066895,4.1133423,1.7800293,6.2200317-1.0467529,6.8199463-5.3000488,10.0233154-12.7600098,9.6099854l.7700195.0300293c.0960693.0098877.178833.0722656.2147217.1619873.0533447.1333008-.0114746.2846069-.1447754.3380127-.5200195.166626-.7800293.4432983-.7800293.8299561.0064697.5656128-.2299805,1.1078491-.6499023,1.4899902-17.4666748,15.793335-31.4300537,33.2900391-41.8900146,52.4900513-13.0799561,24.0100098-22.0200195,49.3999634-28.4500732,75.5499878-.0233154.0959473-.0114746.1967773.0334473.284729.1060791.2070923.3642578.289978.5766602.1852417,4.3666992-2.2532959,8.4266357-5.1066284,12.1799316-8.5599976.0789795-.0730591.190918-.0982666.2935791-.06604.1580811.0495605.2459717.2179565.1964111.3760376-5.5266113,17.1200562-9.1433105,34.4633789-10.8499756,52.0300293-.6199951,6.4000244-.2800293,12,.3900146,18.9099731,1.7399902,18.0700073,9.8800049,33.4400024,20.3399658,47.9200439,15.7600098,21.8499756,38.3499756,36.5,63.1400146,48.8800049,6.9799805,3.4866943,16.3100586,8.2399902,27.9899902,14.2599487.8800049.4533691,1.5632324.9867554,2.0500488,1.6000366.0478516.0598145.0856934.1270142.1120605.1989136.1350098.368103-.0539551.776001-.4221191.9110718-6.0400391,2.2333374-12.5932617,3.8566895-19.6599121,4.8699951-14.4400635,2.0600586-28.7900391,2.0700684-43.0500488.0300293-5.2399902-.7533569-10.2600098-1.5466309-15.0600586-2.3800049-1.4841309-.2532349-3.0018311.156311-4.1499023,1.1199951-10.1800537,8.5333252-19.4400635,17.8800049-27.7800293,28.039978-9.5065918,11.5933228-17.7600098,24.0599976-24.7600098,37.4000244-1.9934082,3.8000488-4.0166016,7.6633301-6.0700684,11.5899658,20.8666992,11.9866943,42.583374,22.2333374,65.1500244,30.7400513,45.0333252,16.9732666,91.4633789,28.0432739,139.2900391,33.2099609,21.3800049,2.3133545,42.7366943,3.5333252,64.0699463,3.6600342,48.6132812.293335,96.373291-7.0266724,143.2800293-21.960022,9.9067383-3.1533203,19.6066895-6.8533325,29.1000977-11.0999756,3.0732422-1.3733521,5.833252-2.8466187,8.2799072-4.4200439.7055664-.4570312,1.0269775-1.3234253.7900391-2.1300049-6.4067383-22.000061-14.9967041-42.6466675-25.7700195-61.9400024-2.7800293,1.0733643-5.7199707,1.7867432-8.8199463,2.1400146-14.7299805,1.6699829-28.4200439.9299927-43.3601074-2.1799927-11.0266113-2.2999878-22.2166748-5.4933472-33.5699463-9.5800171-8.7000732-3.1300049-16.1900635-5.6799927-23.1800537-9.289978-1.746582-.8999634-2.8566895-2.123291-3.3299561-3.6699829-.0264893-.0855103-.0480957-.1724854-.0645752-.2605591-.2434082-1.3031006.6586914-2.5699463,2.0146484-2.8294678,2.0932617-.3999634,5.0499268-.6499634,8.869873-.75,7.0800781-.1900024,13.5800781,0,21.3100586-.6300049,17.1333008-1.3933716,34.1633301-3.4766846,51.0900879-6.25.0198975.000061,2.2398682-.4700317,6.6599121-1.4099731,2.8066406-.5933228,5.6166992-.8666992,8.4299316-.8200073,1.9934082-1.4866333,3.9500732-2.5032959,5.8701172-3.0499878,20.1398926-5.710022,39.3199463-12.2900391,57.5599365-22.6600342,23.6300049-13.4299927,45.1800537-35.3999634,59.6199951-58.6399536.0681152-.1048584.0788574-.2371216.0280762-.3515015-.0826416-.1868286-.3012695-.2712402-.4880371-.1885376-31.1199951,13.210022-67.4200439,7.7900391-95.2800293-10.5499878-7.7666016-5.1133423-14.1933594-11.6066895-19.2800293-19.4799805-.015625-.024231-.0323486-.0478516-.0498047-.0708008-.3758545-.491333-1.0788574-.585022-1.5700684-.2092285-3.630127,2.7700195-8.1601562,3.9799805-12.1900635,1.4100342-10.3800049-6.6000366,1.7399902-22.4900513,6.8199463-28.2900391,4.9599609-5.6900024,14.9300537-11.6300049,21.5600586-4.3499756,4.5100098,4.9400024,3.2700195,9.7600098.2299805,15.1300049-.5162354.9015503-.4814453,2.0183105.0899658,2.8899536,16.960083,25.9000244,59.6800537,35.9800415,87.8499756,26,13.9400635-4.9499512,22.6101074-14.7199707,29.2800293-28.4699707,5.1467285-10.6266479,8.6467285-21.9700317,10.5-34.0300293.0996094-.6309814-.237793-1.2481079-.8200684-1.5ZM221.0492168,349.7799988c-.1066895,1.0066528-.3601074,1.7866821-.7600098,2.3400269-.1657715.227478-.4581299.3208618-.7200928.2299805-22.5799561-7.4699707-43.7999268-21.4199829-61.5599365-36.7199707-48.1600342-41.4800415-82.5200195-95.5599976-95.5600586-157.8800049-2.2265625-10.6333618-2.9433594-21.1932983-2.1499023-31.6799927.9599609-12.6600342,12.8598633-18.8500366,24.3798828-17.0499878,9.1134033,1.4266357,17.8601074,4.8566284,26.2399902,10.289978,23.8000488,15.4099731,43.8400879,37.0899658,60.4200439,60.7699585,15.9000244,22.7000122,28.4066162,47.3800049,37.5200195,74.0400391,7.2698975,21.2600098,11.4799805,43.4899902,13.0100098,65.6300049.6132812,8.873291.3399658,18.8833008-.8199463,30.0299683ZM361.2044902,586.297821c-37.6184082,1.7740479-69.1060791-17.8204346-70.3295898-43.765564v-.000061c-1.2236328-25.9450684,28.2802734-48.4158936,65.8989258-50.1899414,37.6184082-1.7740479,69.105957,17.8204956,70.3295898,43.765564,1.2236328,25.9451294-28.2803955,48.4159546-65.8989258,50.1900024ZM485.7291484,464.0800476c-1.8200684,7.4099731-10.3599854,10.539978-16.3400879,5.4500122-1-.8533325-2.0766602-2.5266724-3.2299805-5.0200195-3.3798828-7.2800293-7.8999023-14.2200317-13.6398926-18.3099976-8.3601074-5.960022-17.2800293-6.956665-26.7600098-2.9899902-9.4799805,3.9699707-14.5800781,13.6499634-17.0300293,23-1.4799805,5.6699829-3.9899902,9.7199707-9.8699951,10.5-2.6866455.3532715-5.0367432-.2300415-7.0499268-1.75-4.6201172-3.4900513-4.7700195-8.460022-3.7600098-13.8400269,2.5198975-13.5200195,9.4499512-26.3399658,19.7799072-35.7000122,16.960083-15.3699951,40.2200928-13.5,57.1099854.8099976,9.8000488,8.2999878,16.6600342,18.8700562,20.5800781,31.710022.6333008,2.0666504.7032471,4.1132812.2099609,6.1400146Z"/>
  <path class="st7" d="M427.1034402,536.1078186c-1.2235718-25.9450684-32.7112427-45.5396118-70.3296814-43.765564-37.6184998,1.7740479-67.122467,24.244873-65.8989258,50.1899414v.000061c1.2235718,25.9451294,32.7112427,45.5396118,70.3297119,43.765564,37.6184998-1.7740479,67.1224365-24.244873,65.8988953-50.1900024h0" vector-effect="non-scaling-stroke"/>
  <path class="st0" d="M649.2691201,520.3200378c.9406128.3226318,1.9858398.0142822,2.6100464-.7700195,3.706665-4.6400146,5.7299805-9.9133301,6.0700073-15.8200073.4399414-7.6499634-1.8500366-19.4599609-7.7200317-24.2399902-2.9533081-2.3999634-6.6333008-3.8966675-11.039978-4.4899902-10.6300049-1.4299927-22.6199951.5300293-29.5599976,8.9199829-.666626.8066406-1.1900024,2.083374-1.5700073,3.8300171-.0775757.3283081-.03125.6737061.1300049.9699707,1.1066284,2.0466919,1.9666138,3.3666992,2.5799561,3.960022,10.0466919,9.706665,20.539978,17.7866211,31.4800415,24.2399902,2.7000122,1.5933838,5.039917,2.7266846,7.0199585,3.4000244Z"/>
  <path class="st6" d="M610.6820229,310.2592163c-8.6221313-2.2619934-17.5874023,3.4352112-20.0245972,12.7250671v.000061c-2.4371948,9.289856,2.5767212,18.65448,11.1987915,20.9164734,8.6221313,2.2619934,17.5874023-3.4352112,20.0245361-12.7250671q0-.0000305.000061-.0000305c2.4371948-9.289856-2.5766602-18.65448-11.1987305-20.9165039h-.000061Z"/>
  <path class="st6" d="M632.1791543,354.4000244c-1.9066772,2.2666626-3.9367065,3.5966797-6.0900269,3.9900208-1.0654907.1933289-1.7835693,1.1995239-1.6199951,2.269989,2.7333984,18.4000244,8.9666748,35.1799927,18.7000122,50.3399963,11.5800171,18.0400085,28.7399902,35.8400269,47.0499878,47.5100098.5986328.3862915,1.3970947.2141724,1.7833862-.3844604.0839233-.130127.1437378-.274231.1766357-.4255371.0199585-.0799561-.043396-.4333496-.1900024-1.0599976-3.7533569-15.6066284-9.5299683-30.7366943-17.3300171-45.3900146-10.0133667-18.8066406-21.5200195-35.3800049-34.5200195-49.7200012-2.3933105-2.6399841-4.6965942-5.0366821-6.9099731-7.1900024-.2796631-.2749023-.7320557-.2675781-1.010437.0163269-.0137939.0140381-.0269775.0285645-.0395508.0436707Z"/>
  <path class="st2" d="M716.2791299,392.8700256c.0900269-3.0899963,3.710022-4.9499817,6.3400269-5.9499817,15.2266846-5.7600098,31.0766602-8.1466675,47.5499878-7.1600037,19.460022,1.1600037,40.0200195,8.9299927,49.0100098,27.4499817,5.5200195,11.3800049,3.0299683,24.710022-4.5400391,34.5000305-14.1299438,18.2799683-41.0799561,11.6099854-57.6399536,1.2199707-17.539978-11.0133362-30.6199951-25.7466431-39.2399902-44.1999817-1.0333862-2.206665-1.5267334-4.1600342-1.4800415-5.8600159Z"/>
  <path class="st4" d="M220.2891396,352.1200256c.3999939-.5533447.6533508-1.3333435.7600098-2.3399963,1.1600037-11.1466675,1.4333191-21.1566772.8200073-30.0299988-1.5299988-22.1400146-5.7400208-44.3699951-13.0100098-65.6300049-9.1133423-26.6600037-21.6200256-51.3399963-37.5200043-74.0400085-16.5800018-23.6799927-36.6199951-45.3599854-60.4199982-60.769989-8.3800049-5.4333344-17.1266632-8.863327-26.2400055-10.2899933-11.519989-1.8000031-23.4199982,4.3899994-24.3799896,17.0500031-.793335,10.4866791-.0766754,21.0466461,2.1499939,31.6799927,13.0400085,62.3200073,47.3999939,116.3999939,95.5599976,157.8800049,17.7600098,15.2999878,38.980011,29.25,61.5599976,36.7200012.2619629.0908508.5542297-.002533.7200012-.230011Z"/>
  <path class="st5" d="M485.7291484,464.0800476c-1.8200684,7.4099731-10.3599854,10.539978-16.3400879,5.4500122-1-.8533325-2.0766602-2.5266724-3.2299805-5.0200195-3.3798828-7.2800293-7.8999023-14.2200317-13.6398926-18.3099976-8.3601074-5.960022-17.2800293-6.956665-26.7600098-2.9899902-9.4799805,3.9699707-14.5800781,13.6499634-17.0300293,23-1.4799805,5.6699829-3.9899902,9.7199707-9.8699951,10.5-2.6866455.3532715-5.0367432-.2300415-7.0499268-1.75-4.6201172-3.4900513-4.7700195-8.460022-3.7600098-13.8400269,2.5198975-13.5200195,9.4499512-26.3399658,19.7799072-35.7000122,16.960083-15.3699951,40.2200928-13.5,57.1099854.8099976,9.8000488,8.2999878,16.6600342,18.8700562,20.5800781,31.710022.6333008,2.0666504.7032471,4.1132812.2099609,6.1400146Z"/>
</svg>