<?xml version="1.0" encoding="UTF-8"?>
<svg id="Layer_1" xmlns="http://www.w3.org/2000/svg" version="1.1" xmlns:svg="http://www.w3.org/2000/svg" viewBox="0 0 208 52">
  <!-- Generator: Adobe Illustrator 29.7.1, SVG Export Plug-In . SVG Version: 2.1.1 Build 8)  -->
  <defs>
    <style>
      .st0 {
        opacity: .95;
      }

      .st0, .st1, .st2, .st3, .st4 {
        fill: #fff;
      }

      .st2 {
        opacity: .5;
      }

      .st3 {
        opacity: .9;
      }

      .st4 {
        opacity: .75;
      }
    </style>
  </defs>
  <path id="path4" class="st1" d="M50.5999992,24.1000252h-.2999992l-8.9000015-16.2000008c.2000008-.3000002.2000008-.5999999.2000008-1,0-1.1999998-1-2.0999999-2.0999985-2.0999999-.5999985,0-1.2000008.3000002-1.5.6999998L20.4000004,1.9000244C20.3.8000244,19.4000004.0000244,18.3.0000244,17.0999992.0000244,16.1999996,1.0000244,16.1999996,2.1000242c0,.4000001.1000004.7.2000008,1L2.7000001,22.800024c-.2,0-.4000001-.1000004-.5999999-.1000004C.9000001,22.7000237.0000003,23.7000237.0000003,24.800024.0000003,26.0000248,1.0000003,26.9000244,2.1000002,26.9000244h.0999999l7.4000001,18.2999992c-.1000004.2999992-.1999998.5999985-.1999998.9000015,0,1.2000008,1,2.0999985,2.1000004,2.0999985.6000004,0,1.1999998-.2999992,1.5-.7000008l22.2000008,2.2000008c.2000008.9000015,1.0999985,1.5999985,2.0999985,1.5999985,1.2000008,0,2.0999985-1,2.0999985-2.0999985,0-.5-.2000008-1-.5-1.4000015l11.2000008-19.4999981h.4000015c1.2000008,0,2.0999985-1,2.0999985-2.1000004.0999985-1.1000004-.7999992-2.1000004-2-2.0999985ZM37.8,8.2000246c.2999992.3000002.5999985.6000004,1,.6999998l-3.4000015,25.4000015c-.2000008,0-.4000015.0999985-.5999985.2000008l-18.5-16c0-.2000008.1000004-.3999996.1000004-.6000004v-.3999996l21.3999996-9.3000021ZM48.5000008,26.9000244l-11.4000015,7.7999992c-.0999985-.0999985-.2000008-.0999985-.2999992-.2000008l3.5-25.5999985h0l8.7000008,16c-.2999992.3999996-.5.8999996-.5,1.3999996-.0999985.2000008,0,.3999996,0,.6000004ZM13.9999998,15.800024c-1,.2000008-1.8000002,1-1.8000002,2.1000004v.1000004l-7.5999994,4.5L16.4000004,5.6000242l-2.4000006,10.1999998ZM14.8,20.0000229c.3000002-.1000004.6000004-.2000008.8000002-.2999992l18.2999983,15.9000015c-.0999985.2000008-.0999985.5-.0999985.7999992v.0999985l-20.5,8.4000015c-.3000002-.4000015-.8000002-.7999992-1.3000002-.9000015l2.8000002-24ZM34.3,37.8000221c.2999992.2999992.7000008.5,1.0999985.5999985l1,8.8999977c-.4000015.2000008-.7999992.5999985-1,1l-21.4999981-2.0999947,20.3999996-8.4000015ZM36.8999985,38.3000221c.7000008-.2999992,1.2000008-1.0999985,1.2000008-1.9000015,0-.2000008,0-.4000015-.0999985-.5l10.3999977-7.0999966-10.5,18.1999989-1-8.7000008ZM37.3999985,6.8000245l-21.6999989,9.4999995c-.0999994-.1000004-.1999998-.1000004-.1999998-.1999989l2.8000002-11.8000007h.1000004c.7999992,0,1.3999996-.4000001,1.7999992-1l17.1999989,3.5ZM4.3,24.800024v-.3999996l8.6000004-5.1000004c.1999998.2000008.3999996.2999992.6000004.3999996l-2.8000002,24L3.7000006,26.4000244c.3000002-.3999996.5999999-.8999996.5999994-1.6000004Z"/>
  <path id="path6" class="st1" d="M76.8,34.1000252v-15.3000011c0-7.3999996,5.5999985-10.1999998,12.9000015-10.1999998,7.1999969,0,12.9000015,2.8000002,12.9000015,10.1999998v15.3000011c0,7.4000015-5.6999969,10.2000008-12.9000015,10.2000008-7.3000031,0-12.9000015-2.8000031-12.9000015-10.2000008ZM99.3999985,18.800024c0-5.3999996-3.5999985-7.8000002-9.6999969-7.8000002s-9.6999969,2.5-9.6999969,7.8000002v15.3000011c0,5.4000015,3.5999985,7.7999992,9.6999969,7.7999992s9.6999969-2.5,9.6999969-7.7999992v-15.3000011Z"/>
  <path id="path8" class="st1" d="M134.3,42.2000237l-18.8000031-27.7999992v28.5c0,.7000008-.8000031,1.0999985-1.5999985,1.0999985-.8000031,0-1.5999985-.2999992-1.5999985-1.0999985V9.7000246c0-.8000002.8000031-1,1.5999985-1,1.1999969,0,2,1.1999998,2.5999985,2l18.5,27.6000013V9.7000246c0-.6999998.8000031-1,1.6000061-1s1.6000061.3000002,1.6000061,1v33.1999998c0,.7000008-.8000031,1.0999985-1.6000061,1.0999985-1,0-1.6999969-1-2.3000031-1.7999992Z"/>
  <path id="path10" class="st1" d="M170.3,42.2000237l-18.8000031-27.7999992v28.5c0,.7000008-.8000031,1.0999985-1.6000061,1.0999985s-1.6000061-.2999992-1.6000061-1.0999985V9.7000246c0-.8000002.8000031-1,1.6000061-1,1.1999969,0,2,1.1999998,2.6000061,2l18.5,27.6000013V9.7000246c0-.6999998.8000031-1,1.6000061-1s1.6000061.3000002,1.6000061,1v33.1999998c0,.7000008-.8000031,1.0999985-1.6000061,1.0999985-.8999939,0-1.6999969-1-2.3000031-1.7999992Z"/>
  <path id="path12" class="st1" d="M194.100003,28.6000252l-9.5,13.7999992c-.3999939.7000008-1,1.5999985-1.8999939,1.5999985-.8000031,0-1.8000031-.5-1.8000031-1.2000008,0-.2000008.1000061-.4000015.3000031-.5999985l11-15.8999996-10.8000031-15.8000002c-.3000031-.3000002-.3999939-.6000004-.3999939-.8999996,0-.6000004.8000031-1,1.8000031-1,.8999939,0,1.5.8999996,2,1.6999998l9.3000031,13.6999989,9.3000031-13.6999998c.5-.6999998,1.1000061-1.6999998,2-1.6999998,1,0,1.8000031.3999996,1.8000031,1,0,.3000002-.1000061.6000004-.3999939.8999996l-10.8999939,15.7999992,11.1000061,15.8999977c.1000061.2000008.3000031.4000015.3000031.5999985,0,.7000008-.8999939,1.2000008-1.8000031,1.2000008-1,0-1.5-1-1.8999939-1.5999985l-9.5000458-13.7999954Z"/>
  <path id="path16" class="st4" d="M40.3,8.9000244l8.7000008,16c-.2999992.3999996-.5.8999996-.5,1.3999996,0,.2000008,0,.3999996.0999985.6000004l-11.3999977,7.7999992c-.1000023-.0999985-.2000008-.0999985-.3000031-.2000008l3.4000015-25.5999985h0"/>
  <path id="path18" class="st2" d="M36.8999985,38.3000259c.7000008-.2999992,1.2000008-1.0999985,1.2000008-1.9000015,0-.2000008,0-.4000015-.0999985-.5l10.3999977-7.1000004-10.5,18.1999989-1-8.6999969Z"/>
  <path id="path20" class="st4" d="M34.3,37.8000259c.2999992.2999992.7000008.5,1.0999985.5999985l1,8.9000015c-.4000015.2000008-.7999992.5999985-1,1l-21.4999981-2.1000023,20.3999996-8.3999977Z"/>
  <path id="path22" class="st3" d="M14.8,20.0000248c.3000002-.1000004.6000004-.2000008.8000002-.2999992l18.2999983,15.8999996c-.0999985.2000008-.0999985.5-.0999985.7999992v.0999985l-20.5,8.4000015c-.3000002-.4000015-.8000002-.7999992-1.3000002-.9000015l2.8000002-23.9999981Z"/>
  <path id="path24" class="st4" d="M4.3,24.800024v-.3999996l8.6000004-5.1000004c.1999998.2000008.3999996.2999992.6000004.3999996l-2.8000002,24L3.7000006,26.4000244c.3000002-.3999996.5999999-.8999996.5999994-1.6000004Z"/>
  <path id="path26" class="st2" d="M13.9999998,15.800024c-1,.2000008-1.8000002,1-1.8000002,2.1000004v.1000004l-7.5999994,4.5L16.4000004,5.6000242l-2.4000006,10.1999998Z"/>
  <path id="path28" class="st4" d="M37.3999985,6.8000245l-21.6999989,9.4999995c-.0999994-.1000004-.1999998-.1000004-.1999998-.1999989l2.8000002-11.8000007h.1000004c.7999992,0,1.3999996-.4000001,1.7999992-1l17.1999989,3.5Z"/>
  <path id="path30" class="st0" d="M37.8,8.2000246c.2999992.3000002.5999985.6000004,1,.6999998l-3.4000015,25.4000015c-.2000008,0-.4000015.0999985-.5999985.2000008l-18.5-16c0-.2000008.1000004-.3999996.1000004-.6000004v-.3999996l21.3999996-9.3000021Z"/>
</svg>