<?xml version="1.0" encoding="UTF-8"?>
<svg id="emoji" xmlns="http://www.w3.org/2000/svg" version="1.1" viewBox="0 0 229.0212766 63.8297872">
  <!-- Generator: Adobe Illustrator 29.7.1, SVG Export Plug-In . SVG Version: 2.1.1 Build 8)  -->
  <defs>
    <style>
      .st0 {
        fill: #fff;
      }
    </style>
  </defs>
  <path class="st0" d="M45.3075133,40.2027718c-.5527344,0-1-.4472656-1-1s.4472656-1,1-1c2.7978516,0,3-4.5336914,3-12.0004883,0-6.284668-3.4150391-13-13-13s-13,6.715332-13,13c0,7.4667969.2021484,12.0004883,3,12.0004883.5527344,0,1,.4472656,1,1s-.4472656,1-1,1c-5,0-5-6.487793-5-14.0004883,0-6.9194336,3.9287109-15,15-15s15,8.0805664,15,15c0,7.5126953,0,14.0004883-5,14.0004883Z"/>
  <path class="st0" d="M41.180756,30.2024208c0,1.1045685-.8954315,2-2,2s-2-.8954315-2-2c0-1.1045704.8954315-2,2-2s2,.8954296,2,2"/>
  <path class="st0" d="M33.180756,30.2024208c0,1.1045685-.8954315,2-2,2s-2-.8954315-2-2c0-1.1045704.8954315-2,2-2s2,.8954296,2,2"/>
  <path class="st0" d="M35.2440367,46.2027718c-5.9726562,0-12-4.6386719-12-15.0004883,0-5.0410156,1.0556641-6.4248047,1.3789062-6.7285156.1435547-.1357422.3251953-.2255859.5205078-.2578125,4.8349609-.8061523,7.5888672-2.9526367,10.7763672-5.4384766.5820312-.4536133,1.1728516-.9145508,1.7880859-1.375.4326172-.3251953,1.0429688-.2470703,1.3808594.175293.0390625.0493164,4,4.9916992,6.9257812,7.9174805.0888672.0888672.1601562.1938477.2109375.3095703.7441406,1.7182617,1.1083984,3.5390625,1.0820312,5.4116211,0,10.2919922-6.2529297,14.9863281-12.0634766,14.9863281ZM25.9071227,26.1119515c-.1982422.4560547-.6630859,1.8491211-.6630859,5.090332,0,7.7758789,4.0185547,13.0004883,10,13.0004883,5.9248047,0,10.0634766-5.3457031,10.0634766-13.0004883.0214844-1.5395508-.2626953-3.0249023-.8447266-4.4316406-2.3105469-2.3325195-5.1025391-5.6923828-6.3222656-7.1850586-.3349609.2578125-.6640625.5146484-.9902344.769043-3.171875,2.4731445-6.1728516,4.8125-11.2431641,5.7573242Z"/>
  <path class="st0" d="M35.3075133,39.9273812c-1.1875,0-2.375-.2783203-3.4570312-.8349609-.4912109-.2529297-.6845703-.8564453-.4326172-1.3466797.2529297-.4912109.8583984-.6845703,1.3466797-.4326172,1.5947266.8203125,3.4941406.8193359,5.0849609.0009766.4912109-.2539062,1.0957031-.0605469,1.3466797.4306641.2529297.4912109.0605469,1.0947266-.4306641,1.3466797-1.0830078.5576172-2.2705078.8359375-3.4580078.8359375Z"/>
  <path class="st0" d="M15.3163024,62.2076546c-.0625,0-.1269531-.0058594-.1904297-.0185547-.5429688-.1044922-.8974609-.6289062-.7919922-1.1708984.1230469-.6396484-.0722656-1.2919922-.5234375-1.7568359-3.1015625-2.4033203-4.1035156-3.2587891-4.1455078-3.2939453-.3291016-.2822266-.4394531-.7441406-.2724609-1.1445312l5-12c.2138672-.5097656.7998047-.75,1.3076172-.5380859.5097656.2119141.7509766.7978516.5380859,1.3076172l-4.7148438,11.3154297c.5917969.4814453,1.7021484,1.3701172,3.5625,2.8105469.0302734.0244141.0595703.0488281.0869141.0761719.9589844.9384766,1.3789062,2.2851562,1.1240234,3.6025391-.0917969.4785156-.5107422.8105469-.9804688.8105469Z"/>
  <path class="st0" d="M11.3163024,16.2071663c-.0419922,0-.0849609-.0024414-.1279297-.0078125-.5478516-.0703125-.9345703-.5708008-.8652344-1.1186523.578125-4.5258789.9951172-7.2617188,1.7167969-11.2592773.0986328-.5429688.6132812-.9077148,1.1621094-.8061523.5439453.0981445.9042969.6181641.8066406,1.1616211-.7158203,3.9589844-1.1289062,6.6699219-1.7011719,11.1567383-.0644531.5048828-.4951172.8735352-.9912109.8735352Z"/>
  <path class="st0" d="M14.3846617,19.5826546c-.0449219,0-.0898438-.0029297-.1347656-.0092773-.5478516-.0737305-.9316406-.5776367-.8574219-1.125.0839844-.6176758.2089844-1.4316406.3554688-2.3867188.3681641-2.3911133.8710938-5.6655273,1.1972656-8.9526367.0546875-.5493164.5527344-.9506836,1.09375-.8964844.5498047.0546875.9511719.5444336.8964844,1.09375-.3310547,3.340332-.8398438,6.6455078-1.2099609,9.059082-.1455078.9414062-.2685547,1.7431641-.3505859,2.3515625-.0683594.5014648-.4970703.8657227-.9902344.8657227Z"/>
  <path class="st0" d="M54.3163024,62.2076546c-.0136719,0-.0273438,0-.0400391-.0009766-.5517578-.0214844-.9814453-.4863281-.9599609-1.0380859.0244141-.6367188.0898438-2.3916016.0898438-2.9609375,0-5.5410156-6.6767578-8.3945312-8.1289062-8.9501953-7.2666016,2.0400391-11.3027344,1.9023438-16.1582031.9306641-3.390625-.6787109-10.1621094-4.5849609-15.3691406-8.15625-.1601562-.109375-.2851562-.2636719-.359375-.4433594-.1630859-.3955078-3.984375-9.730957-3.984375-13.8818359,0-.7714844.6210938-1.0947266,1.6503906-1.6298828,1.5673828-.815918,4.484375-2.3339844,5.3974609-5.1762695.5527344-1.71875,1.4609375-4.5742188,1.8095703-5.6699219.1679688-.5263672.7314453-.8164062,1.2558594-.6503906.5263672.1674805.8173828.7299805.6503906,1.2558594-.3486328,1.0976562-1.2587891,3.9560547-1.8115234,5.6767578-1.1650391,3.6245117-4.5566406,5.3896484-6.3789062,6.3378906-.1835938.0957031-.3945312.2050781-.5576172.2958984.234375,3.5888672,3.1025391,10.8989258,3.7070312,12.4057617,4.8515625,3.3046875,11.3378906,7.0654297,14.3828125,7.6748047,4.6142578.9238281,8.4570312,1.0390625,15.5292969-.9814453.1914062-.0546875.3974609-.0527344.5878906.0126953.3994141.1308594,9.7773438,3.3134766,9.7773438,10.9492188,0,.5849609-.0654297,2.3867188-.0917969,3.0390625-.0214844.5390625-.4638672.9609375-.9980469.9609375Z"/>
  <path class="st0" d="M7.3163024,16.2076546c-.0556641,0-.1113281-.0043945-.1679688-.0141602-.5449219-.0922852-.9111328-.6083984-.8193359-1.152832.6181641-3.6420898,1.4716797-8.3569336,2.0332031-10.1342773.1650391-.5263672.7294922-.8188477,1.2539062-.6523438.5273438.1665039.8193359.7280273.6523438,1.2548828-.4111328,1.3017578-1.109375,4.8051758-1.9667969,9.8657227-.0830078.4882812-.5058594.8330078-.9853516.8330078Z"/>
  <path class="st0" d="M11.4686461,53.4381233c-.21875,0-.4394531-.0712891-.6240234-.21875l-.7597656-.6074219c-4.4755859-3.5732422-6.1494141-4.9101562-6.7529297-8.2265625-1.5791016-8.6826172-1.3125-12.8344727-1.1181641-15.8662109.0546875-.8510742.1015625-1.5864258.1015625-2.3120117l.0029297-.5957031c.0048828-.4228516.0126953-1.1523438.0126953-5.4042969.0009766-.9516602.5488281-4.7055664,1.0009766-7.1796875.2275391-1.3876953.578125-2.7871094,1.0361328-4.1411133.1777344-.5229492.7490234-.8041992,1.2675781-.6264648.5234375.1772461.8037109.7446289.6269531,1.2680664-.4238281,1.2509766-.7470703,2.543457-.9609375,3.8417969-.5,2.7397461-.9697266,6.1679688-.9707031,6.8383789,0,4.2680664-.0078125,5.0004883-.0126953,5.425293l-.0029297.5737305c0,.7895508-.0517578,1.5913086-.1054688,2.4399414-.1884766,2.9287109-.4453125,6.9394531,1.0888672,15.3808594.4697266,2.5791016,1.7597656,3.6083984,6.0341797,7.0205078l.7617188.6083984c.4306641.3457031.5009766.9746094.15625,1.40625-.1982422.2460938-.4882812.375-.7822266.375Z"/>
  <g>
    <path class="st0" d="M82.100482,49.5748421c-2.2138672,0-4.1669922-.5400391-5.859375-1.6210938-1.6933594-1.0800781-3.0146484-2.6171875-3.9658203-4.6103516-.9511719-1.9921875-1.4257812-4.3681641-1.4257812-7.1289062s.4746094-5.1181641,1.4257812-7.0712891,2.2724609-3.4506836,3.9658203-4.4926758c1.6923828-1.0415039,3.6455078-1.5625,5.859375-1.5625,2.2402344,0,4.2060547.5209961,5.8994141,1.5625,1.6923828,1.0419922,3.0136719,2.5395508,3.9648438,4.4926758s1.4257812,4.3105469,1.4257812,7.0712891-.4746094,5.1367188-1.4257812,7.1289062c-.9511719,1.9931641-2.2724609,3.5302734-3.9648438,4.6103516-1.6933594,1.0810547-3.6591797,1.6210938-5.8994141,1.6210938ZM82.100482,45.6295296c1.3544922,0,2.5205078-.3847656,3.4970703-1.1523438.9765625-.7685547,1.7382812-1.8623047,2.2851562-3.2822266.546875-1.4189453.8203125-3.0791016.8203125-4.9804688s-.2734375-3.5356445-.8203125-4.9033203c-.546875-1.3671875-1.3085938-2.421875-2.2851562-3.1640625s-2.1425781-1.1132812-3.4970703-1.1132812c-1.328125,0-2.4873047.3710938-3.4765625,1.1132812-.9902344.7421875-1.7578125,1.796875-2.3046875,3.1640625-.546875,1.3676758-.8203125,3.0019531-.8203125,4.9033203s.2734375,3.5615234.8203125,4.9804688c.546875,1.4199219,1.3144531,2.5136719,2.3046875,3.2822266.9892578.7675781,2.1484375,1.1523438,3.4765625,1.1523438Z"/>
    <path class="st0" d="M98.1170836,56.6851937v-26.7607422h3.7119141l.3125,2.0317383h.15625c.8066406-.7036133,1.7050781-1.2954102,2.6953125-1.777832.9892578-.4814453,2.0175781-.7226562,3.0859375-.7226562,1.5888672,0,2.9433594.4042969,4.0634766,1.2109375,1.1191406.8076172,1.9785156,1.9404297,2.578125,3.3989258.5986328,1.4584961.8984375,3.1782227.8984375,5.1567383,0,2.1875-.390625,4.0498047-1.171875,5.5869141-.78125,1.5361328-1.7910156,2.7148438-3.0273438,3.5351562-1.2373047.8203125-2.5722656,1.2304688-4.0048828,1.2304688-.8339844,0-1.6669922-.1826172-2.5-.546875-.8339844-.3642578-1.640625-.8847656-2.421875-1.5625l.1171875,3.203125v6.0166016h-4.4931641ZM106.4774352,45.8639046c.859375,0,1.6279297-.2470703,2.3046875-.7421875.6777344-.4951172,1.2109375-1.2314453,1.6025391-2.2080078.390625-.9765625.5859375-2.1933594.5859375-3.6523438,0-1.2753906-.1435547-2.3691406-.4296875-3.28125-.2871094-.9111328-.7363281-1.6083984-1.3486328-2.090332-.6123047-.4814453-1.4003906-.7226562-2.3632812-.7226562-.703125,0-1.3935547.1757812-2.0703125.5273438-.6777344.3515625-1.3935547.8920898-2.1484375,1.621582v8.9462891c.703125.5722656,1.3867188.9824219,2.0507812,1.2304688.6640625.2470703,1.2695312.3710938,1.8164062.3710938Z"/>
    <path class="st0" d="M128.3934508,49.5748421c-1.796875,0-3.4179688-.3974609-4.8632812-1.1914062-1.4462891-.7939453-2.5859375-1.9404297-3.4189453-3.4375-.8339844-1.4980469-1.25-3.3144531-1.25-5.4501953,0-2.0830078.4296875-3.8740234,1.2890625-5.371582s1.9667969-2.6499023,3.3212891-3.4575195c1.3535156-.8066406,2.7861328-1.2109375,4.296875-1.2109375,1.7441406,0,3.203125.390625,4.375,1.171875,1.1728516.78125,2.0517578,1.855957,2.6376953,3.2231445.5859375,1.3676758.8789062,2.9370117.8789062,4.7075195,0,.4169922-.0195312.8203125-.0585938,1.2109375s-.0976562.7685547-.1757812,1.1328125h-13.2050781v-3.4375h9.4541016c0-1.3798828-.3125-2.4677734-.9375-3.262207-.625-.7939453-1.5888672-1.1914062-2.890625-1.1914062-.7294922,0-1.4394531.1953125-2.1289062.5859375-.6904297.390625-1.2636719,1.0541992-1.71875,1.9926758-.4560547.9375-.6835938,2.2402344-.6835938,3.90625,0,1.5107422.2597656,2.7412109.78125,3.6914062.5205078.9511719,1.2109375,1.6542969,2.0703125,2.1103516s1.7832031.6835938,2.7734375.6835938c.8330078,0,1.6210938-.1171875,2.3632812-.3515625s1.4394531-.5605469,2.0908203-.9765625l1.5625,2.890625c-.8857422.625-1.8945312,1.1201172-3.0283203,1.484375-1.1328125.3642578-2.3115234.546875-3.5351562.546875Z"/>
    <path class="st0" d="M139.9569274,49.1060921v-19.1816406h3.7119141l.3125,2.5786133h.15625c.859375-.8334961,1.796875-1.5493164,2.8125-2.1489258,1.015625-.5986328,2.1738281-.8984375,3.4765625-.8984375,2.0576172,0,3.5556641.6640625,4.4931641,1.9921875.9375,1.3286133,1.40625,3.203125,1.40625,5.6259766v12.0322266h-4.4931641v-11.4462891c0-1.5888672-.234375-2.7080078-.703125-3.3603516-.46875-.6503906-1.2373047-.9760742-2.3046875-.9760742-.8339844,0-1.5693359.2021484-2.2070312.6054688-.6386719.4038086-1.3613281.9956055-2.1679688,1.777832v13.3994141h-4.4931641Z"/>
    <path class="st0" d="M162.2245055,49.1060921v-25.5493164h5.4306641l4.375,12.5014648c.2861328.8076172.546875,1.6083984.78125,2.4023438.234375.7949219.46875,1.6601562.703125,2.5976562h.15625c.234375-.9375.4628906-1.8027344.6845703-2.5976562.2207031-.7939453.4619141-1.5947266.7226562-2.4023438l4.375-12.5014648h5.3916016v25.5493164h-4.1806641v-11.6416016c0-.8066406.0322266-1.7314453.0976562-2.7744141.0644531-1.0410156.1494141-2.0761719.2539062-3.1049805.1035156-1.0288086.2080078-1.934082.3125-2.715332h-.15625l-2.03125,6.4853516-4.140625,11.4072266h-3.0478516l-4.140625-11.4072266-1.953125-6.4853516h-.15625c.1035156.78125.2011719,1.6865234.2929688,2.715332.0908203,1.0288086.1689453,2.0639648.234375,3.1049805.0644531,1.0429688.0976562,1.9677734.0976562,2.7744141v11.6416016h-4.1025391Z"/>
    <path class="st0" d="M198.7909117,49.5748421c-1.5888672,0-3.0732422-.3974609-4.453125-1.1914062-1.3808594-.7939453-2.5009766-1.9404297-3.3603516-3.4375-.859375-1.4980469-1.2890625-3.3017578-1.2890625-5.4111328,0-2.1347656.4296875-3.9521484,1.2890625-5.449707s1.9794922-2.6430664,3.3603516-3.4379883c1.3798828-.7939453,2.8642578-1.1914062,4.453125-1.1914062,1.6142578,0,3.1123047.3974609,4.4931641,1.1914062,1.3798828.7949219,2.5,1.9404297,3.359375,3.4379883s1.2890625,3.3149414,1.2890625,5.449707c0,2.109375-.4296875,3.9130859-1.2890625,5.4111328-.859375,1.4970703-1.9794922,2.6435547-3.359375,3.4375-1.3808594.7939453-2.8789062,1.1914062-4.4931641,1.1914062ZM198.7909117,45.9029671c.9375,0,1.7441406-.2607422,2.421875-.78125.6767578-.5214844,1.1982422-1.2636719,1.5625-2.2275391.3652344-.9628906.5478516-2.0830078.5478516-3.359375,0-1.2753906-.1826172-2.3955078-.5478516-3.359375-.3642578-.9638672-.8857422-1.7119141-1.5625-2.246582-.6777344-.5336914-1.484375-.8007812-2.421875-.8007812s-1.7382812.2670898-2.4023438.8007812c-.6640625.534668-1.1787109,1.2827148-1.5429688,2.246582-.3652344.9638672-.546875,2.0839844-.546875,3.359375,0,1.2763672.1816406,2.3964844.546875,3.359375.3642578.9638672.8789062,1.7060547,1.5429688,2.2275391.6640625.5205078,1.4648438.78125,2.4023438.78125Z"/>
    <path class="st0" d="M210.8622008,57.1539437c-.6777344,0-1.2763672-.0527344-1.796875-.15625-.5205078-.1044922-.9628906-.234375-1.328125-.390625l.859375-3.3212891c.2607422.078125.5341797.1503906.8203125.2148438.2861328.0654297.5595703.0976562.8203125.0976562.859375,0,1.4384766-.2929688,1.7382812-.8789062s.4492188-1.4394531.4492188-2.5585938v-20.2363281h4.5322266v20.1582031c0,1.3535156-.1953125,2.5654297-.5859375,3.6328125-.390625,1.0683594-1.0292969,1.9082031-1.9150391,2.5205078-.8847656.6113281-2.0830078.9179688-3.59375.9179688ZM214.6913024,26.5650765c-.7822266,0-1.4267578-.2348633-1.9345703-.7036133s-.7617188-1.09375-.7617188-1.875.2539062-1.3999023.7617188-1.8554688,1.1523438-.6835938,1.9345703-.6835938c.8066406,0,1.4580078.2280273,1.953125.6835938.4941406.4555664.7421875,1.0742188.7421875,1.8554688s-.2480469,1.40625-.7421875,1.875c-.4951172.46875-1.1464844.7036133-1.953125.7036133Z"/>
    <path class="st0" d="M224.8866149,26.5650765c-.7822266,0-1.4267578-.2348633-1.9345703-.7036133s-.7617188-1.09375-.7617188-1.875.2539062-1.3999023.7617188-1.8554688,1.1523438-.6835938,1.9345703-.6835938c.8066406,0,1.4580078.2280273,1.953125.6835938.4941406.4555664.7421875,1.0742188.7421875,1.8554688s-.2480469,1.40625-.7421875,1.875c-.4951172.46875-1.1464844.7036133-1.953125.7036133ZM222.6590758,49.1060921v-19.1816406h4.4931641v19.1816406h-4.4931641Z"/>
  </g>
</svg>