<?xml version="1.0" encoding="UTF-8"?>
<svg xmlns="http://www.w3.org/2000/svg" version="1.1" xmlns:cc="http://creativecommons.org/ns#" xmlns:dc="http://purl.org/dc/elements/1.1/" xmlns:inkscape="http://www.inkscape.org/namespaces/inkscape" xmlns:rdf="http://www.w3.org/1999/02/22-rdf-syntax-ns#" xmlns:sodipodi="http://sodipodi.sourceforge.net/DTD/sodipodi-0.dtd" xmlns:svg="http://www.w3.org/2000/svg" viewBox="0 0 489.4468085 244.3404255">
  <!-- Generator: Adobe Illustrator 29.7.1, SVG Export Plug-In . SVG Version: 2.1.1 Build 8)  -->
  <defs>
    <style>
      .st0 {
        fill: #fff;
      }
    </style>
  </defs>
  <g id="svg3038" inkscape:export-ydpi="180" inkscape:output_extension="org.inkscape.output.svg.inkscape" sodipodi:version="0.32">
    <sodipodi:namedview id="base" bordercolor="#666666" borderopacity="1.0" inkscape:current-layer="layer2" inkscape:cx="256.51714" inkscape:cy="155.3892" inkscape:document-units="px" inkscape:grid-bbox="true" inkscape:pagecheckerboard="false" inkscape:pageopacity="0" inkscape:pageshadow="2" inkscape:window-height="739" inkscape:window-maximized="1" inkscape:window-width="1306" inkscape:window-x="60" inkscape:window-y="0" inkscape:zoom="1.1103093" pagecolor="#ffffff" showgrid="true"/>
    <g>
      <path id="path1087" class="st0" d="M306.752215,38.342529c0,5.8806707-1.1627915,11.0529887-3.4883075,15.5169539-2.3255495,4.4639653-5.6534638,7.8854465-9.9837766,10.2644436-4.3303127,2.3522733-9.3823442,3.5284058-15.1560946,3.5284058-8.8744494,0-15.8377067-2.6062123-20.8897382-7.8186202-5.0252825-5.2391443-7.5379406-12.4028678-7.5379406-21.4911789,0-9.0615789,2.5126581-16.1317503,7.5379406-21.2105119s12.0152888-7.6181414,20.9699515-7.6181414c8.9546292,0,15.9446354,2.5661119,20.969918,7.6983337,5.0520315,5.1322218,7.5780473,12.1756609,7.5780473,21.1303153ZM294.6834618,38.342529c0-6.0945156-1.4434376-10.8658801-4.3303127-14.3140893-2.8868752-3.4749393-6.9365083-5.2124121-12.1489329-5.2124121-5.2926044,0-9.3823442,1.7241067-12.2692194,5.172318-2.8868752,3.4214812-4.3303127,8.2062076-4.3303127,14.3541834,0,6.201436,1.470153,11.0930869,4.4104925,14.6749487,2.9670885,3.5551338,7.0033304,5.3326985,12.1088263,5.3326985,5.2926044,0,9.3689865-1.7374749,12.2291127-5.2124163,2.8868752-3.4749414,4.3303127-8.4066864,4.3303127-14.7952352l.0000336.0000042Z"/>
      <path id="path1089" class="st0" d="M356.9918505,44.9582845c0,7.2439201-1.4568288,12.8439237-4.3704194,16.800011-2.8868752,3.929355-6.976615,5.8940368-12.2692194,5.8940368-3.0472347,0-5.7069282-.6548967-7.9790133-1.9646817-2.2453362-1.3365172-3.9694533-3.2477345-5.172318-5.733652h-.2405729c.1603931.801907.2405729,3.2343685.2405729,7.2973761v16.6396304h-11.2668546v-50.440127c0-4.0897398-.1068952-7.4176667-.3207527-9.9837766h10.9460683c.1336442.4811459.2405729,1.4300715.3207527,2.8467769.1069288,1.4167096.1603931,2.8200489.1603931,4.2100263h.1603931c2.5393735-5.3193345,7.1637235-7.9789987,13.8730501-7.9790008,5.0520315.0000021,8.9680205,1.9513135,11.7479669,5.8539427,2.7799464,3.8758949,4.1699196,9.3957061,4.1699196,16.5594338l.0000336.0000042ZM345.2438501,44.9582845c.0000336-9.7298375-2.9804126-14.5947563-8.9412715-14.5947563-2.9938375,0-5.2926044,1.309785-6.8964352,3.929355-1.5770817,2.6195742-2.3656226,6.2816284-2.3656226,10.9861624,0,4.677806.7885409,8.2997661,2.3656226,10.8658759,1.6038307,2.5393819,3.8758823,3.8090728,6.8162218,3.8090728,6.0143568,0,9.0215184-4.9985713,9.0214849-14.9957098Z"/>
      <path id="path1091" class="st0" d="M383.8558388,67.6523322c-6.5221845,0-11.5341429-1.9245834-15.0358081-5.7737503-3.5016652-3.8758949-5.2525313-9.5159926-5.2524978-16.9202932-.0000336-7.1637277,1.777548-12.6701729,5.3327111-16.5193398,3.5551296-3.849169,8.5937698-5.7737524,15.1159879-5.7737503,6.2281472-.0000021,10.9861414,2.0716,14.2739826,6.2148021,3.2878077,4.1164678,4.9317451,10.157519,4.9317451,18.1231579v.3207611h-27.82628c0,4.2233924.7751832,7.4176667,2.3255495,9.5828231,1.5770817,2.1384242,3.8090602,3.2076405,6.6959353,3.2076405,3.9827775,0,6.4954691-1.7241046,7.5379406-5.172318l10.625282.9221976c-3.0739837,7.8587227-9.3154886,11.7880777-18.7245818,11.7880777l.0000336-.0000084ZM383.8558388,29.7620959c-2.6463022,0-4.6911721.9221976-6.1346097,2.7665887-1.4166886,1.8443911-2.1651564,4.4238712-2.2453362,7.7384278h16.8401051c-.213824-3.5016736-1.0558292-6.1212436-2.5260158-7.8587143-1.4701865-1.7642029-3.4482344-2.6463022-5.9341434-2.6463022Z"/>
      <path id="path1093" class="st0" d="M439.8692247,66.8504169v-24.3379558c0-7.6181414-2.5794801-11.4272141-7.7384404-11.4272141-2.726482,0-4.9317451,1.1761367-6.6157556,3.5284016-1.6572951,2.3255369-2.4859091,5.3193366-2.4859091,8.9813908v23.255386h-11.2668546v-33.6802143c.0000336-2.3255411-.0400731-4.2233924-.1202865-5.6935579-.0534644-1.4968978-.1202529-2.8334129-.2004663-4.0095474h10.745602c.0801798.5078739.1871085,1.8711212.3207527,4.0897398.1336442,2.1918844.2004998,3.7021482.2004663,4.5307916h.1603931c1.5236509-3.3145608,3.4348431-5.7202901,5.7336436-7.2171879,2.2988005-1.4968957,5.0386738-2.2453466,8.2195863-2.2453466,4.5976011,0,8.1260152,1.4167075,10.5852089,4.2501225,2.4591601,2.833415,3.6888073,6.976615,3.6887737,12.4296v27.5456004l-11.2267143-.0000084Z"/>
      <path id="path1096" class="st0" d="M301.1141579,123.8866567c0,5.5331732-2.0582276,9.7699316-6.1747164,12.710267-4.0897398,2.9136073-10.104063,4.370411-18.0429697,4.370411-7.2439033,0-12.9241161-1.2830612-17.0405713-3.8491669-4.1164888-2.566114-6.762791-6.455375-7.9389067-11.6677871l11.4272141-1.8844851c.7751496,2.9937997,2.2854428,5.172318,4.530779,6.5355632,2.2453362,1.3365172,5.3594265,2.0047758,9.3422376,2.0047758,8.2596594,0,12.3895059-2.5126539,12.3895059-7.537949,0-1.6038181-.4811459-2.9269692-1.4434376-3.9694533-.9355763-1.0424799-2.2720851-1.9112173-4.00956-2.6062081-1.7107595-.6949866-5.0119248-1.5369919-9.9035968-2.5260158-4.223384-.9890197-7.1637235-1.7775648-8.8210186-2.3656352-1.6572615-.6147942-3.1541971-1.3231511-4.4907059-2.1250623-1.3365088-.8286392-2.4725514-1.8176631-3.4081277-2.9670675-.9355427-1.1494045-1.6706192-2.4992878-2.205263-4.0496457-.5078948-1.5503579-.7618255-3.3279227-.7618255-5.3326985,0-5.1054938,1.9112257-9.0081188,5.7336436-11.7078812,3.8491669-2.7264925,9.4358086-4.0897398,16.7599253-4.0897398,7.0033639,0,12.2558617,1.0959422,15.7575269,3.2878286,3.5284142,2.1918865,5.8004993,5.8138465,6.8162218,10.8658759l-11.4673208,1.563724c-.5880746-2.4324573-1.7909393-4.2634864-3.6085939-5.4930812-1.7909393-1.2295968-4.3704194-1.8443953-7.7384404-1.8443932-7.1637571-.0000021-10.745602,2.2453466-10.745602,6.736042,0,1.4701698.3742171,2.6730344,1.1226849,3.6085939.7751496.9355637,1.9112257,1.7374749,3.4081277,2.4057293,1.496902.6415264,4.530779,1.4568037,9.1016646,2.4458234,5.4262486,1.1494045,9.3021309,2.2186207,11.6276804,3.2076405,2.3522649.9622917,4.2100598,2.0983343,5.5732841,3.4081151,1.3632578,1.283057,2.4057293,2.833415,3.1274481,4.651078.7217188,1.7909309,1.0825782,3.862533,1.0825782,6.2148021h.0001342Z"/>
      <path id="path1098" class="st0" d="M321.1619244,140.8871381c-3.3145566,0-5.8673214-.8954696-7.6582271-2.6864005-1.7909393-1.8176631-2.6864089-4.5575154-2.6864089-8.2195737v-25.5809145h-5.4930707v-7.6181414h6.0544299l3.5284142-10.1842554h7.0567947v10.1842554h8.2195863v7.6181414h-8.2195863v22.533663c0,2.1116962.4009661,3.6754202,1.2028646,4.6911721.8019321.9890239,2.0448699,1.4835317,3.7288804,1.4835317.8821119,0,2.138441-.1871127,3.7689871-.5613382v6.9766108c-2.7799464.9088357-5.9475011,1.3632494-9.5026307,1.3632494h-.0000336Z"/>
      <path id="path1100" class="st0" d="M337.4005972,140.1654193v-33.1990601c0-2.3789971-.0401067-4.3570449-.1202865-5.9341309-.0534308-1.6038181-.1202865-3.0205277-.2004663-4.2501204h10.745602c.0802134.481148.1871085,1.9513135.3207527,4.4105051.1336442,2.4324573.2004663,4.0496457.2004663,4.8515527h.1603931c1.0959694-3.0472557,2.0716189-5.1856841,2.9269818-6.4152767.855363-1.2563227,1.8711191-2.1785204,3.0472683-2.7665887,1.1761492-.6147963,2.6463022-.9221955,4.4104925-.9221955,1.4434376,0,2.6062291.2004767,3.4883075.6014323v9.4224404c-1.8176547-.4009577-3.4214854-.6014323-4.8114586-.6014323-2.8066618,0-4.9985336,1.1360384-6.5756489,3.4081151-1.5503328,2.2720809-2.3255495,5.6401019-2.3255495,10.104063v21.2907043l-11.2668546-.0000084Z"/>
      <path id="path1102" class="st0" d="M387.1189802,140.9673347c-6.5222181,0-11.5341429-1.9245834-15.0358081-5.7737503-3.5016652-3.8758949-5.2524978-9.5159926-5.2524978-16.9202932,0-7.1637277,1.7775816-12.6701729,5.3327111-16.5193398,3.5551631-3.849169,8.5938034-5.7737524,15.1159879-5.7737503,6.2281472-.0000021,10.986175,2.0716,14.2739826,6.2148021,3.2878412,4.1164678,4.9317451,10.157519,4.9317451,18.1231579v.3207611h-27.82628c.0000336,4.2233924.7751832,7.4176667,2.3255495,9.5828231,1.5770817,2.1384242,3.8090938,3.2076405,6.6959353,3.2076405,3.982811,0,6.4955027-1.7241046,7.5379406-5.172318l10.6253156.9221976c-3.0739837,7.8587227-9.3155222,11.7880777-18.7245818,11.7880693ZM387.1189802,103.0770983c-2.6463022,0-4.6911721.9221976-6.1346097,2.7665887-1.4167222,1.8443911-2.1651564,4.4238712-2.2453362,7.7384278h16.8401051c-.213824-3.5016736-1.0558292-6.1212436-2.5260158-7.8587143-1.4701865-1.7642029-3.4482008-2.6463022-5.9341434-2.6463022Z"/>
      <path id="path1104" class="st0" d="M432.7877637,140.9673347c-6.5221845,0-11.5341429-1.9245834-15.0358081-5.7737503-3.5016652-3.8758949-5.2525313-9.5159926-5.2524978-16.9202932-.0000336-7.1637277,1.777548-12.6701729,5.3327111-16.5193398,3.5551296-3.849169,8.5937698-5.7737524,15.1159879-5.7737503,6.2281472-.0000021,10.9861414,2.0716,14.2739826,6.2148021,3.2878077,4.1164678,4.9317451,10.157519,4.9317451,18.1231579v.3207611h-27.82628c0,4.2233924.7751832,7.4176667,2.3255495,9.5828231,1.5770817,2.1384242,3.8090602,3.2076405,6.6959353,3.2076405,3.9827775,0,6.4954691-1.7241046,7.5379406-5.172318l10.625282.9221976c-3.0739837,7.8587227-9.3154886,11.7880777-18.7245818,11.7880777l.0000336-.0000084ZM432.7877637,103.0770983c-2.6463022,0-4.6911721.9221976-6.1346097,2.7665887-1.4166886,1.8443911-2.1651564,4.4238712-2.2453362,7.7384278h16.8401051c-.213824-3.5016736-1.0558292-6.1212436-2.5260158-7.8587143-1.4701865-1.7642029-3.4482344-2.6463022-5.9341434-2.6463022Z"/>
      <path id="path1106" class="st0" d="M471.8006513,140.8871381c-3.3145902,0-5.8673214-.8954696-7.6582271-2.6864005-1.7909728-1.8176631-2.6864089-4.5575154-2.6864089-8.2195737v-25.5809145h-5.4930707v-7.6181414h6.0544299l3.5284142-10.1842554h7.0567947v10.1842554h8.2195863v7.6181414h-8.2195863v22.533663c0,2.1116962.4009325,3.6754202,1.2028646,4.6911721.8018986.9890239,2.0448699,1.4835317,3.7288804,1.4835317.8820784,0,2.138441-.1871127,3.7689871-.5613382v6.9766108c-2.7799464.9088357-5.9475011,1.3632494-9.5026307,1.3632494h-.0000336Z"/>
      <path id="path1109" class="st0" d="M297.8477762,210.9031513v-36.5670811c.0267825-.775179.1604267-4.1031059.4009661-9.9837766-1.8978345,7.1904599-3.3011989,12.2023973-4.2100263,15.0358081l-10.1842428,31.5150496h-8.4200525l-10.1842764-31.5150496-4.2902061-15.0358081c.3207527,6.201436.4811459,10.3045377.4811459,12.3093135v34.2415442h-10.5050291v-56.4945401h15.8377067l10.104063,31.5952419.8821119,3.0472557,1.9245834,7.5780473,2.5260158-9.0615789,10.3847426-33.1589681h15.7575269v56.4945422h-10.5050291Z"/>
      <path id="path1111" class="st0" d="M329.6034029,211.7050666c-4.1966686,0-7.4711185-1.1360426-9.8233834-3.4081193-2.3522649-2.2988089-3.5284142-5.5198071-3.5284142-9.6630113,0-4.4906975,1.4567953-7.9121745,4.3703858-10.2644436,2.9403395-2.3522691,7.1904725-3.5551338,12.7503653-3.6085939l9.3422376-.1603847v-2.2052505c0-2.8334108-.4945371-4.9317451-1.4835107-6.2949903-.9890407-1.3899774-2.6062291-2.084964-4.8515653-2.084964-2.0849766,0-3.6219852.4811459-4.6109923,1.4434376-.9622917.9355595-1.563724,2.4992836-1.804297,4.6911721l-11.7479669-.561334c.7217188-4.2233924,2.6463022-7.4176667,5.7737503-9.5828231,3.1541971-2.1918865,7.4444031-3.2878307,12.8706517-3.2878286,5.4797466-.0000021,9.7031305,1.3498812,12.6701855,4.0496457,2.9670885,2.6997624,4.4506328,6.5355632,4.4505992,11.5074023v15.797621c.0000336,2.4324573.2673219,4.1164678.8018986,5.0520315.5613256.9088273,1.4835107,1.363241,2.7665887,1.3632452.855363-.0000042,1.6840105-.0801924,2.4859091-.2405729v6.0945114c-.6682544.1603847-1.2696867.307395-1.804297.4410476-.5346102.1336442-1.0691869.2405729-1.6038307.3207611-.5346102.0801882-1.1092936.1470187-1.7241172.2004746-.5880746.0534644-1.283078.0801966-2.0849766.0801966-2.8334108,0-4.9317451-.6949866-6.2949693-2.0849682-1.3365088-1.3899816-2.138441-3.4348515-2.4057293-6.1346097h-.2405729c-3.1541971,5.6935621-7.9121913,8.540339-14.2739826,8.540339l.0000336.0000084ZM342.7146275,190.8153201l-5.7737503.0801966c-2.6195868.1069246-4.4773146.4009535-5.5732505.8821035-1.0959694.4544179-1.9379747,1.1627664-2.5260158,2.1250581-.5613592.9622917-.8420053,2.2453487-.8420053,3.8491669,0,2.0582402.4677882,3.595232,1.4033309,4.6109797.9622917.9890197,2.2319784,1.4835359,3.8090602,1.4835317,1.7642239.0000042,3.368021-.4811417,4.8114586-1.4434376,1.470153-.9622875,2.6195533-2.2854386,3.4482008-3.9694533.828614-1.7107385,1.2429378-3.5150355,1.2429378-5.4128909l.0000336-2.2052546Z"/>
      <path id="path1113" class="st0" d="M406.3060942,189.0110189c0,7.2439201-1.4567953,12.8439237-4.3704194,16.800011-2.8868752,3.929355-6.976615,5.8940368-12.2692194,5.8940368-3.0472683,0-5.7069282-.6548967-7.9790133-1.9646817-2.2453362-1.3365172-3.9694533-3.2477345-5.172318-5.733652h-.2405729c.1603931.801907.2405729,3.2343685.2405729,7.2973761v16.6396304h-11.266821v-50.440127c0-4.0897398-.1068952-7.4176667-.3207527-9.9837766h10.9460683c.1336442.4811459.2405729,1.4300715.3207527,2.8467769.1069623,1.4167096.1603931,2.8200489.1603931,4.2100263h.1603931c2.5393735-5.3193345,7.1637235-7.9789987,13.8730501-7.9790008,5.0520315.0000021,8.9680205,1.9513135,11.7479669,5.8539427,2.7799464,3.8758949,4.1699196,9.3957061,4.1699196,16.559438ZM394.5581274,189.0110189c-.0000336-9.7298375-2.9804126-14.5947563-8.9413051-14.5947563-2.9938039,0-5.2926044,1.309785-6.8964352,3.929355-1.5771153,2.6195742-2.3656226,6.2816284-2.3656562,10.9861624.0000336,4.677806.7885409,8.2997661,2.3656562,10.8658759,1.6038307,2.5393819,3.8758823,3.8090728,6.8162218,3.8090728,6.0143232,0,9.0214849-4.9985713,9.0214849-14.995714l.0000336.0000042Z"/>
      <path id="path6015" class="st0" d="M168.7231853,30.5683021c-29.3227788.0353423-51.4976014,23.1067382-51.6019489,50.7560182.253742,28.1091117,20.6175064,49.9809588,52.5203951,50.0551054,29.2749751.2973463,50.6605928-23.0224586,50.4418115-49.1850039.2022542-31.518569-22.8823582-51.321389-51.3602577-51.6261197Z" inkscape:connector-curvature="0"/>
      <path id="path5801" class="st0" d="M218.467891,6.73228l-20.0774023,4.9947038c8.496873,3.5145038,18.2619733,10.2675127,25.3035845,16.8239012l-5.2261822-21.818605ZM8.796649,7.1615411l12.5867939,47.6911481c26.1860643,7.712366,48.8094391,15.0372174,48.9421536,14.9010826.1405701-.1442404-4.5896266-23.8609079-10.5642704-50.4221426L8.796649,7.1615411ZM113.8733321,6.8206824c1.8846364,7.8934743,2.4845987,9.8259249,4.1463575,16.7692139,5.2537946-4.2244706,12.1616028-8.6821891,18.1250515-11.3725869l-22.2714091-5.396627ZM111.0064043,6.9294429l-48.5896931,12.326826c6.4390083,27.9567224,10.8611733,49.4300647,11.1535672,49.7337567.2798162.2905993,9.0229571-.5990429,18.291682-2.7250485,4.3601364-17.2569168,10.879172-27.7534213,23.8084635-40.860667-1.387599-5.9519412-3.0116464-11.5303384-4.6640196-18.4748751v.0000078ZM168.5302742,8.8785945c-19.1124697-.0054279-38.2269842,7.0908201-52.7993811,21.2723812-26.1395833,25.4411315-27.0448411,67.5407658-6.2958638,95.9164732l-20.1753769,18.9829696c.2250842.1787228,13.7364275,13.0686847,13.7364275,13.0686847l19.0783625-18.6967983c32.6842748,22.8655017,73.1156002,18.9544599,99.2551909-6.4866422,29.1447937-28.3660056,29.1445142-74.4186997,0-102.784698-14.5723895-14.1829927-33.6868893-21.2682442-52.799359-21.2723702ZM168.5302742,20.9933586c15.9264255.0054283,31.8319763,5.9222601,43.9756244,17.7428806,24.2872962,23.6382546,24.3352537,62.0235062.0475751,85.6618601-24.2873109,23.6383245-63.7593528,23.6382657-88.0466637,0-24.287333-23.6383539-24.287333-62.0235319,0-85.6618638,12.1436628-11.8191292,28.096921-17.7470125,44.0233466-17.7428806l.0001177.0000037ZM21.5565775,58.0955359l-12.1945644,48.9590215c18.0695657,5.1174245,30.5237739,9.2187887,48.7973321,13.4985521,3.8583731-11.9170928,8.8910665-28.7465988,12.0333384-47.6398687-12.1861957-3.7916775-21.6721308-6.7287175-48.636106-14.8177049ZM91.549052,70.2155399l-18.0468189,2.6531931c-3.4915603,14.6366909-9.2159716,36.9478782-12.0403334,47.789942,14.0380452-3.4269647,20.2908502-4.9847542,35.6065082-8.0574288-5.376057-12.8180623-7.57725-28.8746426-5.5193633-42.3857136l.0000074.0000074ZM9.3244948,110.2178291l5.3387519,21.2869625c24.7840008,9.3983721,26.6304918,28.2142846,39.9214803,25.6127048l9.1340723-8.8955974c-2.648857-10.9752931-5.0599453-23.297561-5.8049277-24.0425361-.1719963-.1719705-48.5893773-13.9615338-48.5893768-13.9615338ZM105.7672323,161.2964091c4.9317067-.966536,14.0307706-2.2116819,18.1281776-2.7011433-.8146606-3.6861856-1.6705265-8.6115887-2.7777944-12.7889568M105.2377794,125.8766926c-2.2851556-3.1251337-5.1630504-7.2281676-6.909522-10.5821294-13.4619587,2.9295522-36.5020973,8.2532309-37.1487446,8.8135768-.2731264.2366838,2.2118254,10.6863341,4.9470097,21.5457936,6.6899543-6.1680628,15.5680016-5.9937974,20.6639261-2.5725846M225.2407044,135.2250771c-18.493317,15.3616738-29.1125621,19.4037015-49.8988094,22.6879852,1.0147143,5.101728,1.2748619,11.7360383,1.6108738,12.7512968.2837587.8573517,19.6551698-4.1745289,54.113808-12.888682l-5.8258724-22.5506ZM16.5233803,139.3269194l5.2535372,20.6637202s11.05948,2.7786109,23.5332224,5.7845642l3.6464662-3.1726867c-18.5008104-6.5608735-18.7575341-20.2918284-32.4332184-23.2755977h-.0000074ZM123.7437919,143.9057334l-.0954002.0953855,3.0803684,14.4359458c.8631478-.0844259,8.8906251,2.2131236,16.9690758,4.2169552.0004855-3.1726426-.249041-6.535909-.2080711-8.8275448-6.9256157-2.3368718-13.5803153-5.6499152-19.7460979-9.9207417h.000125ZM69.1796831,147.81679l-59.8583787,57.9028376c-4.9206252,4.7622885-4.9072227,12.4898252,0,17.2659272l13.6887255,13.3071632c4.9072204,4.7760873,12.7745621,4.7622738,17.6951841,0l59.8583732-57.9028376c4.9206367-4.7622885,4.9072204-12.4898252,0-17.2659272l-13.6887347-13.3071485c-5.3173237-4.6917497-13.0884414-4.3250068-17.6951768,0l.0000074-.0000147ZM149.1657183,155.4958248l-.0602559,8.2564821c10.3436509,2.5668915,22.724939,6.9243064,24.9061546,6.9484911,0,0-1.380192-9.9927222-1.7538344-12.5309274-7.9151596-.0669641-14.6240395-.4419598-23.0920644-2.6740458ZM231.1619918,161.1265128c-28.0632036,7.1536789-54.6173918,13.3636678-54.6988608,13.4623338-.0718922.0870886-3.8573764,22.5889661-10.0734115,48.5194265l52.0781715-12.3805673,12.6941008-49.601193ZM21.4602192,162.3189349l-9.4679437,36.2463077,31.5924625-30.6112063c-6.7650241-1.6895036-13.7951902-3.5704696-22.1245188-5.6351013ZM106.9655093,163.6328248c1.7927227,3.3503797,3.4751797,13.2603236-6.635193,21.3047627,5.2956839,3.2274113,12.3504467,4.5644415,17.0170996,5.1275456,2.5736365-9.2351693,5.7222193-23.3256589,6.3796351-28.5820573-4.6007333.8672374-13.2077248,1.6268645-16.7615417,2.149749ZM126.6812439,161.5510402c-.059844.0506202-3.0590008,14.0615679-6.3549869,28.5345117,20.9139307-3.3035255,22.6292519-12.7328494,23.2614384-24.6275742-8.5816961-2.0890665-16.7282877-4.4118011-16.9064441-3.9069375h-.0000074ZM149.2259742,167.1784772c-1.8177238,21.2410497-12.3230917,25.2698377-30.1773375,28.058246-1.814333,6.6162306-2.3273685,8.8019772-4.4830902,15.8781296l49.2879243,11.7823041c6.1428336-25.7582987,9.6998869-48.2926284,9.5920118-48.4084915-.1610697-.1729708-12.4370424-4.4163762-24.219523-7.3101882h.0000147ZM96.1755589,188.6445008c-17.1094841,16.6159552-19.174204,18.5340074-35.1177384,34.3097197l50.3231676-11.7940581c1.9601769-6.8880882,4.2859346-14.4045822,4.7545285-16.3018626-7.742402-.2603978-14.5137665-2.4560007-19.9599577-6.213799Z" inkscape:connector-curvature="0" sodipodi:nodetypes="cccccccccccccccccccscccccsssccssssccccccccccccccccccccccccccccccccccccccccscccccccscccccccccccccccccccccccccccccccccccc"/>
    </g>
  </g>
</svg>