<?xml version="1.0" encoding="UTF-8"?>
<svg id="Layer_1" xmlns="http://www.w3.org/2000/svg" version="1.1" viewBox="0 0 280.3 120">
  <!-- Generator: Adobe Illustrator 29.7.1, SVG Export Plug-In . SVG Version: 2.1.1 Build 8)  -->
  <defs>
    <style>
      .st0 {
        fill: none;
        stroke: red;
        stroke-miterlimit: 10;
      }
    </style>
  </defs>
  <path class="st0" d="M46.5,47.7s-1.2-1.3.9-4,12.8-9.9,23.3-14.1,21.9-5.6,25.4-2.1c5.2,5.1-3.4,18.7-5.7,22.5-4,6.4-8.9,12.8-12.2,16.7-7.6,9-18.5,21.9-20.2,23.7s-12.1,12.3-14.2,14.4"/>
  <path class="st0" d="M144.4,25s-1.2.6-1.6,1.6-1,2.5-1.2,3.6c-.4,2.2-2.4,6.8-4.9,10.4s-5.7,7.8-7.7,10.6-11.6,15.3-14.4,19.2-9.3,12.8-10.6,14.6-5.7,7.5-5.7,7.5c0,0,12.1-15,15.8-22.6s6.7-13.1,3.6-15.5c-1.6-1.3-5.5-.7-11,1.7-5.4,2.4-16.6,11.7-21.1,16.7s-6.7,7.4-6.4,7.9,3.9,1.1,7.7-.2,12-4.5,13.4-5.1,13.3-5.7,18-6.8,10.7-2.4,15.5-1.4,7.4,2.3,11.1,12.7,15,9.7,17,9.6,13.1-.6,30-7.7,37.1-15.6,43-17.2,11.4-2.4,12.5-2.2,1.5.5,1.5.5"/>
  <path class="st0" d="M151.5,58.9s1.2-1.4,1.9-1.9c1.5-1.2,2.6-1.5,4.3-2.2"/>
</svg>