<?xml version="1.0" encoding="UTF-8"?>
<svg id="Layer_1" xmlns="http://www.w3.org/2000/svg" version="1.1" viewBox="0 0 53.7234043 79.8510638">
  <!-- Generator: Adobe Illustrator 29.7.1, SVG Export Plug-In . SVG Version: 2.1.1 Build 8)  -->
  <defs>
    <style>
      .st0 {
        fill: #fff;
      }
    </style>
  </defs>
  <path class="st0" d="M52.1279678,78.1481c1.712307-10.6535263-14.5320358-21.7082748-7.8114052-34.3734016,2.9737396-5.6096535,7.6531715-10.6711006,8.5595207-17.2056866,2.0340347-10.9141216-6.0866508-23.301096-16.666748-25.4790993-3.9511261-.8342247-7.5830345-.7258644-11.7253456-.7192769-4.4478245.1107845-9.3905888-.0944819-13.4774752.3956819C.0992803,1.5014073.0443535,12.2514478,0,20.8800489c.0412637,11.0550232.4172752,22.3693924.1971724,33.2924614-.0421084,4.321312-.1711785,8.6639061-.0124134,12.9601402.1043901,3.4070587.6324407,7.7528534,2.4218367,10.2520905,4.7819407,5.7132797,6.2775986-5.8503265,6.0772889-9.7629242-.3480129-8.7992477-.7218671-18.3666916,9.6174898-20.879261,7.6403961-1.7499504,14.0761395,2.2132721,17.4892368,9.5103188,3.4627991,6.5114594,5.6717262,15.2793427,10.4689636,20.6920547,2.4640923,2.5951614,4.8719482,3.4035263,5.8341599,1.2885056l.0342331-.0853348ZM35.3056297,35.6756536c-6.5143108,1.7335548-13.769413.5510292-20.4398251-.0213585-5.1819153-.6535873-6.8710771-3.807663-6.9594188-9.4252014.0074029-3.8015461-.3249502-8.1861992,2.4171205-11.02314,3.4083376-3.0431919,8.6926985-2.2810459,13.0174093-2.625968,5.8819427-.2460289,12.3435173-.83319,17.0576897,2.3719664,8.3230591,5.8775597,4.4901276,18.2090378-4.9072075,20.6668472l-.1857681.0568542Z"/>
</svg>