<?xml version="1.0" encoding="UTF-8"?>
<svg id="Layer_1" xmlns="http://www.w3.org/2000/svg" version="1.1" viewBox="0 0 53.1898602 79.0788769">
  <!-- Generator: Adobe Illustrator 29.7.1, SVG Export Plug-In . SVG Version: 2.1.1 Build 8)  -->
  <defs>
    <style>
      .st0 {
        fill: #fff;
      }
    </style>
  </defs>
  <path class="st0" d="M52.127968,77.7854734c1.7123052-10.6535267-14.5320353-21.7082759-7.8114051-34.3734003,2.9737408-5.6096528,7.6531712-10.6711012,8.5595207-17.2056873,2.0340342-10.914121-6.08665-23.3010957-16.6667467-25.4791002C32.2582093-.106939,28.6263032.0014212,24.4839901.0080087c-4.447824.1107846-9.3905889-.0944819-13.477475.3956819C.0992803,1.1387836.0443535,11.8888243,0,20.5174255c.0412637,11.0550226.4172752,22.3693939.1971724,33.2924599-.0421084,4.3213119-.1711785,8.6639087-.0124134,12.9601431.1043901,3.4070581.6324407,7.7528545,2.4218369,10.2520878,4.7819403,5.7132769,6.2775983-5.8503273,6.0772891-9.762927-.3480126-8.7992486-.7218669-18.3666925,9.6174901-20.8792613,7.6403965-1.7499509,14.0761383,2.2132706,17.4892383,9.5103179,3.4627979,6.5114572,5.6717277,15.2793422,10.4689613,20.692052,2.4640909,2.5951601,4.8719468,3.4035273,5.8341619,1.2885093l.0342314-.0853338ZM35.3056296,35.3130299c-6.5143111,1.7335543-13.7694125.5510299-20.4398242-.0213584-5.1819146-.6535857-6.8710771-3.8076637-6.9594186-9.4252004.0074027-3.8015465-.3249502-8.1861992,2.4171204-11.0231413,3.4083381-3.0431915,8.6926976-2.2810458,13.0174104-2.6259677,5.8819419-.2460292,12.3435193-.8331897,17.057688,2.371967,8.3230614,5.8775596,4.4901261,18.209037-4.9072069,20.6668476l-.1857691.0568533Z"/>
</svg>