<?xml version="1.0" encoding="UTF-8"?>
<svg id="Layer_1" xmlns="http://www.w3.org/2000/svg" version="1.1" viewBox="0 0 346.7008057 225.473877">
  <!-- Generator: Adobe Illustrator 29.7.1, SVG Export Plug-In . SVG Version: 2.1.1 Build 8)  -->
  <defs>
    <style>
      .st0 {
        fill: #fff;
      }

      .st1 {
        fill: #010101;
        isolation: isolate;
        opacity: .5;
      }
    </style>
  </defs>
  <polygon class="st1" points="346.7008057 117.7369385 284.388855 117.7369385 307.390686 107.7369385 307.390686 0 0 0 0 107.7369385 59.5760498 107.7369385 36.5742188 117.7369385 36.5742188 225.473877 346.7008057 225.473877 312.1328125 171.9511108 346.7008057 117.7369385"/>
  <path class="st0" d="M113.1973478,87.2737048c1.4421119-8.9724572-12.2389569-18.2828165-6.5788053-28.9494482,2.5045033-4.7244753,6.4455331-8.9872556,7.2088755-14.4907138,1.7130756-9.1919287-5.1262135-19.6242977-14.0368211-21.4586254-3.3276583-.7025867-6.386469-.6113274-9.8751393-.605778-3.7459728.0933035-7.9088063-.0795739-11.3507924.3332452-9.1861202.6190973-9.2323869,9.6728342-9.2697428,16.9398885.0347504,9.3105968.3514337,18.8396143.1660648,28.039079-.0354701,3.6394328-.1441694,7.2967879-.010451,10.9150955.0879124,2.8694399.5326424,6.529494,2.0396774,8.6343608,4.0273732,4.8117543,5.287024-4.9271762,5.1183249-8.2223874-.2931038-7.4107703-.6079589-15.468518,8.0999045-17.5846203,6.4347798-1.4738177,11.8549896,1.8640253,14.7295254,8.0096385,2.9163831,5.4839812,4.776752,12.868336,8.817009,17.4269553,2.0752771,2.1856607,4.1031791,2.8664672,4.9135654,1.0851864l.0288339-.0718688-.0000288-.0000072ZM99.0295002,51.5031918c-5.4863853,1.4600054-11.596665.4640773-17.214523-.017987-4.3642388-.5504567-5.7868594-3.2068309-5.8612546-7.9379496.0062332-3.2016846-.27367-6.8944594,2.0357043-9.2837423,2.8705195-2.5629916,7.3210296-1.9211101,10.9633272-2.2116011,4.9538004-.2072067,10.395776-.7017158,14.3660716,1.997679,7.0097158,4.950108,3.7816013,15.3357425-4.1328767,17.4057221,0,0-.1564487.0478861-.1564487.0478789Z"/>
  <path class="st0" d="M267.6173207,22.9786008c.3264578,3.2123119-1.1490946,7.2812877-2.4501752,10.4232927-3.8249025,9.1177279-6.6649327,18.9711014-9.5983023,28.4765106-1.2628178,4.1680589-2.6700211,8.2262382-3.8127241,12.0318005-1.0174923,3.4211057-2.0364816,7.6718228-3.7774555,10.169697-2.3555402,3.5484254-5.6899355,3.3595008-8.54272.3566736-3.3817848-3.5483678-5.1110984-8.6135019-6.9627437-13.1476994-2.3372869-5.9468998-4.5529619-11.6836849-6.8221299-17.8092238-1.8967603-5.1233705-3.7984439-10.3490559-5.6443886-15.5535226-1.5417134-4.7511715-5.150081-13.6930853-1.6314828-17.6457754,3.9377045-2.0373094,6.0821801,7.547814,6.8524753,10.3772456,1.100611,4.5266759,2.2562699,9.0514733,3.7760447,13.507684,2.8780915,8.4674755,6.2860758,16.6821254,9.3171899,25.0006305,3.4081859,8.5363284,7.0382905,1.8997258,9.0880159-3.2053266,4.1256214-10.3379859,7.7290659-21.7617915,10.62138-32.5918393,1.0455056-3.7440942,1.8866836-8.1013333,4.0053627-11.2967271,1.9021442-2.9464478,5.0995246-3.3956439,5.568813.7859358l.0128119.1206366v.0000036l.0000288.0000036Z"/>
  <path class="st0" d="M180.9755189,133.6524709c10.8597382,10.7231335,14.2365998,28.3460671,10.0417367,42.889072-1.5397268,5.8993735-3.6992599,11.5554584-7.857674,15.7416554-9.1516433,9.419181-24.9189297,4.955751-32.2478336-4.5946508-7.2273879-9.2265424-7.9350058-21.7220388-5.9753378-32.9969533,1.800513-10.4942618,6.9345288-19.9839728,17.9305622-22.8276918,6.1387538-1.9460392,13.0725917-3.1956925,18.0048998,1.6938543l.103589.094707.0000576.0000072ZM171.445796,138.5033734c-3.7119854-.4614286-7.3366198.867158-10.3550372,2.9914909-8.029209,5.4260039-10.9558991,15.7709788-10.0865926,25.3431391,1.0022044,19.2659398,24.2858221,32.7751713,33.3884637,10.5452861,3.7371485-9.0303625,3.6610834-19.6035468-.5628007-28.4245074-2.4430064-5.0101726-6.5931863-9.5899674-12.0937653-10.4160879l-.2902679-.0393245s0-.0000036,0,.0000036Z"/>
  <path class="st0" d="M267.0373232,200.5812549c5.6832849-2.1659462,2.9817956-14.0825264,3.1441176-19.1582338-.4001908-14.7940814.4455073-29.8348991.5196722-44.5970912.0061612-3.4470533-2.0065393-7.2145256-4.3917915-3.1012518-2.9543868,5.5443049-1.6296114,14.6059486-1.7900908,21.2347921-.199462,7.0494757-.2515732,14.2015831-1.0216669,21.2091756-.6318984,4.7887433-2.5118161,9.7938776-5.8585627,6.2932015-2.9826017-4.2569646-4.0419844-10.0577947-6.6275048-14.6512651-3.1841366-5.8260724-6.8817843-12.65278-9.560932-19.0307126-2.2296672-4.6918698-4.0992204-9.6521301-6.7052973-14.0529151-1.9096874-3.1505631-5.5445137-5.0911861-6.9739721-.5601987-1.3652552,3.9633966-1.2470405,9.1203083-1.2537776,13.4125343-.0282725,5.936751-1.0172907,11.9328253-1.2388064,17.8256417-.2736844,7.9463277-.6272343,16.6548102.0602877,24.7691892,1.0291525,10.316544,6.4955282,11.690969,6.3038397.1126004-.6032228-9.0153841-.676927-18.3502155-.5929733-27.5436054-.0301727-4.311631-.962646-6.9237251-.7008809-10.5311643.1615158-2.5185676,2.4202617-2.3073374,4.2312545-.8112572,2.0829498,1.7886153,3.5411414,4.3113719,4.9442275,6.7304747,4.7789113,8.4924298,9.3694738,17.3156,14.2242774,25.6220347,3.0983979,4.4547999,7.2004974,17.2751851,13.2067563,16.8451671,0,0,.0819383-.0171161.0819383-.0171305l-.0001152.0000144Z"/>
  <path class="st0" d="M175.8324427,79.6993673c-6.4623901-1.5036233-10.3344518-.2661773-10.0925235-8.9073758-.0575526-9.6374721-.0296832-24.4540606-.0150575-34.3107955.0437331-2.0865559.2362853-4.4225328,2.4929582-5.1045845,3.1706914-1.0685886,9.6627647-.6489281,10.5999309-4.830677.2714388-7.1910432-12.5274973-3.802928-17.1971766-4.0818236-3.0809508.1018003-6.44025-.2074262-9.3768442.6406471-2.720232.7171188-4.3621947,2.7663368-2.0601188,4.5059862,2.6416334,1.9753194,6.6699135,2.906076,7.8893437,6.4054997,2.0205892,6.3193579,1.1818872,13.2635892,1.6603023,19.8631598.1334449,4.1054176.2710357,8.2332055.324644,12.1453871-.0266314,3.6190202.335239,7.6188911-1.1006686,10.9607864-1.4957922,3.8234918-6.4596838,4.7317089-8.7853104,7.8353684-1.1880772,2.9132233,3.7457281,3.0832684,5.8134189,3.1283043,2.8978131.0216506,5.8855396-.0286252,8.7883335.1679506,3.825392.2314125,8.0081918.6970445,10.9823866-.6178269,3.8375705-1.4798566,4.7447943-5.994462.2111222-7.7514938l-.1347693-.0485123h.0000288Z"/>
  <path class="st0" d="M120.0828317,132.1580499c.5198449,8.5817494-5.2967985,26.642496-8.3900717,36.6626109-8.5592458,31.9749121-18.3054748,41.7006421-32.2047915,4.8485776-3.7168798-10.0579603-7.920668-22.6316595-9.3944066-32.4218806-.8116387-5.0910025-.9190856-8.6265513-.3144521-9.7963464,2.4340812-3.3778981,9.2524684,16.705489,10.4674073,20.8140448,2.424897,7.7444833,4.9637188,17.4570919,9.1368737,23.9092181,7.9405624,11.7686607,13.6873884-5.7080161,16.8609588-14.815293,2.2382469-6.9476214,4.2296998-14.1517968,7.0377435-20.8777874.8682412-2.145602,5.9539175-14.3458605,6.7939438-8.3965352l.0068522.0734055-.0000288-.0000036-.0000288-.0000108Z"/>
</svg>