<?xml version="1.0" encoding="UTF-8"?>
<svg id="Layer_1" xmlns="http://www.w3.org/2000/svg" version="1.1" viewBox="0 0 533.2000122 88.4000015">
  <!-- Generator: Adobe Illustrator 29.7.1, SVG Export Plug-In . SVG Version: 2.1.1 Build 8)  -->
  <path d="M2.0999982,5.2000046c.4000001-.1999998,1.8000019-.4000049,4.4000018-.4000049h24.8999996c2.0000019,0,3.1999989-.1999998,3.5000019-.5999999.7999992-.3,1.2000008-.4000001.9000015-.2-.2000008.2.0999985.3999999.9000015.8999999,1,0,2.2000008.5,3.4000015,1.1999998s2.5999985,1.8000002,4.2000008,3.4000006c1.7999992,1.3999996,3.5,3.5,5.2999992,6.5,1.7000008,2.8999996,2.7000008,6.6000004,2.7999992,11,.2000008,2.2999992-.2999992,4.6000004-1.7000008,6.9000015-1.2999992,2.2999992-2.7999992,4.4000015-4.4000015,6.5-1.5999985,2.0999985-3.2000008,3.5999985-4.7000008,4.7000008-1.5,1.0999985-2.2999992,1.7999992-2.4000015,2.0999985-.4000015.2999992-.5999985.5999985-.4000015.7000008s.2000008.5999985.2000008,1.2000008,1,4.2000008,3.2000008,9.8999977c.5,1.5999985,1.2999992,3.2000008,2.4000015,4.7999992,1.1000023,1.5999947,2.2000008,3.2999992,3.4000015,4.8999977s2.2000008,3.0999985,3.0999985,4.4000015c.9000015,1.3000031,1.4000015,2.1999969,1.7000008,2.8000031.4000015,1.5999985.5,2.9000015.2000008,3.9000015s-1.5,2-3.5,2.9000015c-.9000015.5-1.9000015.3000031-2.9000015-.6999969s-2-2.3000031-2.9000015-3.9000015-1.7999992-3.3000031-2.5-5.0999985-1.4000015-3.4000015-1.9000015-4.8000031c-.5-1.3000031-1.2999992-3-2.2000008-5.2000008s-1.9000015-4.5-2.9000015-6.7999992-2-4.4000015-2.8999996-6.2000008-1.7999992-3-2.5-3.4000015c-1.6000004-.7000008-3-.7999992-4.3000011-.2000008s-2.7999992,1.0999985-4.2999992,1.2999992c-1.2999992.4000015-3.2999992.5999985-6.1000004.5999985s-4.5.2000008-5.1000004.5c-.6000004.5-.8999996,1.5999985-.8000002,3.2000008.1000004,1.5999985.3000002,2.9000015.5,3.9000015,0,.5,0,1.4000015-.1999998,2.5-.1000004,1.2000008-.1999998,2.4000015-.3000002,3.9000015s-.1999998,2.8000031-.4000001,4c-.1999998,1.3000031-.1999998,2.1999969-.1999998,2.8000031s.4000001,2.1999969,1.2000003,3.9000015c.8000002,1.8000031,1.1000004,3.3000031,1,4.5999985-.1999998,1.4000015-.8999996,2.5999985-2.0999999,3.5-1.2000003,1-2.4000001,1.3000031-3.7,1-1.3-.4000015-1.8999999-.6999969-1.8999999-.8000031s-.4-.8000031-1.1-2.1999969-.7-2.4000015-.8-4.6999969C.1999965,72.1000061-.0000035,69.7000122-.0000035,67.1000061S-.0000035,62.2000046.1999965,60.0000076c0-2.2000008.2-3.5999985.2-4.0999985v-7c0-4.0999985,0-8.4000015-.2-13.2000008C.1999965,31.0000076-.0000035,26.5000076-.0000035,22.4000092v-7.3000002C-.0000035,13.5000086.1999965,11.600009.4999965,9.4000092c.3-2.1999998.8000018-3.7000046,1.6000017-4.2000046,0,0-.0000036.0000095,0,0ZM10.5,54v-2.4000015c0-1.0999985.3000002-1.5,1.1999998-1.2000008,1.1000004.4000015,2.0999994.9000015,3.0999994,1.5s2.1000004.9000015,3.2000008.9000015,1.7000008.5,2.3999996,1.4000015c.7999992.9000015.7000008,1.5-.3999996,1.5999985-.7999992.0999985-2-.2000008-3.6000004-.9000015l-1.3999996-.7999992c-.3000002.7000008-.5,1.5999985-.5,2.5s0,1.7999992-.1999998,2.9000015,0,2.2999992.1999998,3.7000008c0,1.4999962-.1999998,3.2000008-.5,5.2000008s-.6000004,4-.8999996,6c-.3000002,2-.6999998,3.8000031-1.1999998,5.4000015s-.8999996,2.6999969-1.3000002,3.3000031c-.6000004.8000031-1.8000002.5999985-3.5999999-.5999985-.6999998-.6999969-1.5-1.5-2.4000001-2.4000015.3000002.1999969.9000001.5,1.6999998.8000031,1,.3000031,1.8999996.5,2.5.5s.8999996,0,.8999996-.1999969.3999996-.5999985,1.3000002-1.5999985c.6999998-.8000031,1.1000004-1.5999985,1.1999998-2.4000015v-3.5c0-.6999969-.1000004-2.0999985-.3000002-4.0999985s-.3999996-4.0999985-.6000004-6.4000015-.3000002-4.2999992-.5-6.0999985-.1999998-2.7999992-.1999998-3.2000008h0l-.0999994.099987ZM33,13.8999977c-1.1000004,0-1.7999992.3000021-2.2000008.3000021s-.7999992.3000002-1.1000004.6999998c-.7000008.3000002-2.2000008.3999996-4.5.1999998s-3.7999992-.1999998-4.6999989-.1999998-1.8999996,0-2.8999996.1999998-1.8999996.1999998-2.8000002.1999998-1.8000002,0-2.0999994.1999998c-.3999996.1999998-.8999996,0-1.6999998-.3999996-1.6999998-.6000004-2.8000002-.6000004-3.3000002,0-.1999998.5-.3000002,1.4000006-.3000002,2.499999s0,.6000004.1999998,1.6000004c.0999999.8999996.1999998,2,.3000002,3.2000008s.1999998,2.3999996.3999996,3.5.1999998,1.8999996.1999998,2.3999996c.1000004,1.1000004.1999998,1.7000008.3999996,2s0,.7999992-.3999996,1.3999996c-.3000002.4999981-.6999998,1.4999981-1.0999999,2.8000011-.4000001,1.4000015-.4000001,2.2999992,0,2.7000008.4000001.5999985,1.4999995.5999985,3.2000003-.2000008,1.6999998-.7000008,2.6000004-1.0999985,2.8000002-1.0999985.3000002,0,1,0,2,.2999992,1.000001.2000008,2.1999998.4000015,3.500001.5999985,1.3999996.2000008,2.7999992.5,4.2999992.7999992s2.7999992.5,3.8999996.5c2.3999996,0,4.6999989,0,6.8999996-.4000015s3.9000015-1.2000008,5.2999992-2.4000015c1.5-1.2999992,2.7000008-2.9000015,3.7999992-4.8999996,1-2,1.4000015-3.8999996.9000015-5.8000011-.2000008-1.8999996-.7000008-3.7000008-1.4000015-5.2999992-.7000008-1.6000004-1.7000008-2.7999992-3-3.5-2.2999992-1.3999996-4.5-1.8999977-6.5999985-1.8999977,0,0,0-.0000048,0,0ZM11.4233026,19.7866549c.1363235-.0479665.3335552-.0866542.6766978-.0866542.6999998,0,1.5038259.033635,2.3000002.2999992s3.500001.6000004,3.500001.6000004h-2.1999998c-1.5,0-2.5598227-.1459336-3.1999998.2999992s-.3100297,1.9007065,0,2.7000008.5,1.3999996.8999996,2l-.3000002-.2999992c-.6000004-.6000004-.8999996-1.2000008-.8999996-1.6000004s-.3000002-1.2000008-.8999996-2c-.4849231-.6465631-.6536388-1.1470045-.4221852-1.517649.1387741-.2222297.4037136-.3458132.5454857-.3956968ZM12.5,29l.8999996,1.3999996c.3000002.3999996.8999996.7999992,1.8999996,1.1000004.8999996.2999992,1.7999992.5999985,2.7000008.9000015,1.2000008.4000015,2.3999996.7000008,3.7999992.7999992,0,0-8.0649875-.393937-8.3999996-.5s-1.9318214-1.2431227-2-1.3999996,0-.5.1999998-.8999996c.3999996-.6000004.6000004-1.2999992.6000004-1.8999996,0,0,.3000002.5.3000002.4999981ZM38.0999985.1c4.7000008,2.4999999,8.4000015,4.8000001,10.9000015,6.9,2.5,2.1000004,4.2999992,4.1999998,5.4000015,6.3999996s1.7000008,4.3000011,1.9000015,6.5.4000015,4.6000004.7000008,7.3000011c.0999985,2.5-.2999992,5-1.2000008,7.5s-2,4.7000008-3.2999992,6.5-2.5,3.5-3.7000008,4.7999992-1.7999992,2.0999985-1.9000015,2.4000015c-.0999985.5.0999985,1.7999992.5999985,3.7000008.5,2,1.2999992,4.0999985,2.2000008,6.4000015.7999992,2.5,1.9000015,5.4000015,3.2999992,8.4999962-1.7999992-3.2999992-3.4000015-6.2000008-4.7000008-8.7999992-1.4000015-2.2999992-2.5-4.4000015-3.2999992-6.2999992-.7999992-1.9000015-1.2999992-3-1.2999992-3.5s.7000008-1.2999992,2.0999985-2.7000008,3.0999985-2.7999992,5.0999985-4.4000015c2.0999985-1.7999992,3.5-5.2000008,4.0999985-10.2000008s.5-9.8999996-.5-14.6000004c-.5-2.3999996-1.7000008-4.6000004-3.4000015-6.5s-3.5999985-3.6999998-5.5999985-5.3000002c-2.2999954-1.599998-4.7999954-3.1999979-7.5999947-4.6999979h.2000008l-.0000038.1ZM51.7999992,84.3000031c.2999992-.3000031.5999985-.5.9000015-.5s.9000015-.3000031,1.7999992-.8000031c.5-.4000015.9000015-1,1.2000008-1.6999969s.5-1.5.7000008-2.4000015l.5999985-3.5c.0999985.5.2000008,1.1999969.2000008,1.9000015,0,1.4000015-.4000015,2.6999969-1.0999985,4.0999985-.9000015,1.6999969-1.9000015,2.6999969-3,3.0999985s-1.5.3000031-1.2999992-.1999969h-.0000038Z"/>
  <path d="M133.8000031,5.5c.6000061,0,1.3000031.1999998,2.1000061.1999998.5,0,1.1000061.1999998,1.6999969.1999998s1.1000061.1999998,1.3999939.5999999c.3999939.4000001.6999969,1.0999999.8999939,2.0999999.1999969.8999996.3000031,1.8000002.3000031,2.6999998s-.1999969,2.5-.5,3.8999996v-3.8999996c0-.6999998,0-1.6000004-.1999969-2.5-.3999939-1.5999999-1.6000061-2.3000002-3.5-2.3000002s-3,.3000002-3.1999969.6999998c-.5.3000002-.6000061.6999998,0,1,.5.3999996,1.1000061.6999998,2,1,1.8000031.6000004,2.8999939,2,3.5,4.1000004.3999939,1.1000004.1999969,2.1000004-.6999969,3.1000004s-1.8000031,1.8999996-2.6000061,2.6000004c-.8999939,1.1000004-2.3000031,1.3999996-4,1s-2.8999939-.7000008-3.4000015-1c-1.4000015-.5-2.6999969-.5-4.0999985,0-.5999985.3999996-.9000015,1-.9000015,1.7000008v46.7999992c0,1.3000031,0,2.5999985.1999969,3.9000015.0999985,1.3000031.1999969,2.5999985.1999969,3.6999969s.3000031,1.6999969.6999969,1.6999969c.5.0999985,1.3000031-.3000031,2.4000015-1.3000031,1.0999985-.9000015,2-1.4000015,2.8000031-1.4000015s1.3000031.4000015,2.1999969,1.0999985,1.6999969,1.0999985,2.1999969.9000015c1.8000031-.4000015,3.1999969-.0999985,4.3000031.9000015.6999969.6999969.8999939,1.9000015.6000061,3.5-.3999939,1.5999985-1,3-1.8000031,4.3000031-.8000031,1.5-2.1999969,2.1999969-4,2.3000031-1.8000031,0-3.5-.0999985-5-.5999985-1.5999985-.1999969-3.4000015-.4000015-5.4000015-.5999985s-3.8000031-.1999969-5.5-.1999969-4.3000031.0999985-7.3000031.4000015c-2.9000015.3000031-4.6999969.0999985-5.1999969-.4000015-.4000015-.1999969-.4000015-.6999969,0-1.5999985.4000015-.8000031.9000015-1.6999969,1.4000015-2.4000015s1.0999985-1.5999985,1.6999969-2.4000015,1.1999969-1.1999969,1.5999985-1.1999969c.9000015-.0999985,1.8000031,0,2.4000015.4000015.6999969.4000015,1.5.4000015,2.4000015,0,1.1999969-.4000015,1.9000015-1.1999969,2.3000031-2.3000031.4000015-1.0999985.6999969-2.3000031,1-3.5v-6.9000015c0-4.0999985,0-8.5999985-.1999969-13.5999985-.1999969-4.9000015-.3000031-9.5999985-.4000015-13.9000015-.0999985-4.2999992-.1999969-7.2000008-.1999969-8.5,0-5.6000004-.9000015-9.5-2.6999969-11.7999992-.4000015-.2999992-1.1999969-.5-2.4000015-.5h-3.6999969c-1.3000031,0-2.4000015-.2999992-3.3000031-.8999996-.9000015-.5-1.1999969-1.5-.9000015-2.8000002.0999985-1.3999996.5999985-2.4000006,1.4000015-3s1.6999969-1,2.6999969-1.1999998c.9000015-.1999998,2-.1999998,3.1999969,0s2,.1999998,2.6999969.1999998c1.5,0,3,.1999998,4.5999985.3000002s3.6999969,0,6.5-.3000002c2.8000031-.5,4.6000061-1.1999998,5.1999969-2.0999999.6000061-.9000001,1.3000031-1.5999999,1.8999939-2,.6000061-.1999998,1.3000031-.6999998,2-1.2999997.6999969-.7,1.5-.9000001,2.3999939-.5999999,1,.3000002,1.6000061.6999998,1.6000061,1s-.3999939.6999998-1.3000031.9000001c-.6999969.3000002-1.3000031.3000002-1.6000061,0l-.5-.3000002h0l.0000305.0999956ZM112.6999969,3.3c.8000031-.4000001,2.5-.6000001,5-.6000001s5,.2,7.6999969.5999999c3.1999969,0,6.6000061.3,10.3000031.5999999l-22.9000015-.5999999s-.0999985,0-.0999985.0000002ZM128.5,46.5c.1999969,5.0999985.3999939,9.7999992.5,14.2000008.1000061,4.4000053.3000031,6.8999977.5,7.3999977v1.3000031c0,.1999969.1999969.5.5.8000031l-1.3000031.3000031-.6000061-43.9000015.3000031,19.9000015s.1000061,0,.1000061-.0000076ZM130.5,71.4000015c.3999939-1.4000015,1.3000031-1.9000015,2.6000061-1.5s2.8999939,1.0999985,4.6999969,2.0999985c1.8000031.8000031,2.6999969,2.3000031,2.6000061,4.5s0,3.3000031,0,3.5c.1999969.5.1999969.3000031,0-.5999985s-.1999969-1.6999969-.1999969-2.4000015-.3999939-1.4000015-1.3000031-2.4000015c-.8000031-.9000015-1.5-1.5999985-1.8999939-1.9000015-.1999969,0-.6999969,0-1.3000031-.1999969-.6999969-.0999985-1.5-.1999969-2.3999939-.1999969s-1.6000061,0-2.1000061-.1999969-.8000031-.4000015-.8000031-.9000015v.1999969h.0999908Z"/>
  <path d="M246.1999969,6.9000001c-.1999969.6999998-.6999969,1.7999997-1.5,3.0999999s-1.3999939,2.3000002-2,2.8999996c-.3000031.5-.6999969,1.3999996-1.1999969,2.6999998s-1,2.6999998-1.6999969,4.3000002c-.6000061,1.6000004-1.1999969,3.2000008-1.6999969,4.6999989-.5,1.6000004-1,2.7999992-1.3999939,3.6000004-.3999939,1.1000004-1.3000031,3.7000008-2.6000061,7.8000011-1.3000031,4.2000008-2.6999969,8.5999985-4.1000061,13.4000015s-2.8000031,9.0999985-4.3000031,12.9000015c-1.3999939,3.8000031-2.1999969,6-2.3000031,6.4000015-.5.5999985-.6999969,1.3000031-.6000061,2.0999985.1999969.8000031.1999969,2,.1999969,3.6999969s-.3999939,2.9000015-1.1999969,3.5-1.8000031,1.0999985-3.1000061,1.3000031c-.6999969.1999969-1.6000061.0999985-2.5-.3000031s-1.8000031-1-2.6000061-1.6999969-1.3999939-1.4000015-2-2.0999985c-.5-.6999969-.8999939-1.1999969-1.1000061-1.6999969-.3999939-.9000015-1.1000061-2.4000015-1.8999939-4.5s-1.8000031-4.4000015-2.8000031-7-1.8000031-4.2999992-3.6999969-9.0999985-4-10.2000008-6.1999969-16.0999985-4.1999969-11.3999996-6.1000061-16.5c-1.8000031-5.1000004-3-8.3999996-3.5-9.8999996-.6000061-3.4000001-.3999939-6,.6000061-8s2.3000183-2.8000111,4.0000153-2.4000111c.6999969,0,1.3999939.6,2.1000061,1.7.6000061,1.1000001,1.1999969,2.4000003,1.6999969,3.8s.8000031,2.8000002.8999939,4.1999998c.1000061,1.3999996.1999969,2.4000006.1999969,3,0,1.6000004.6000061,3.9000006,1.6999969,7.0999994,1.1999969,3.2000008,2.3000031,6.7000008,3.3000031,10.7000008s1.3000031,4.2999992,2.3999939,6.7999992,2.1999969,5,3.1999969,7.4000015,1.8999939,4.5,2.6999969,6.2000008,1.3999939,2.9000015,1.8000031,3.4000015c.3999939.9000015.5,1.9000015.1999969,3s-.3000031,1.9000015,0,2.7000008c.3999939.7000008,1,2,1.8000031,3.7999992.8000031,1.8000031,1.3999939,2.6999969,2,2.6999969.6000061-.3000031,1.3999939-1.4000015,2.1999969-3.4000015.8000031-1.9000015,1.8999939-4.4000015,3.1999969-7.2999992.6999969-1.5,1.8999939-4.4000015,3.5-8.7999992s3.1999969-9,4.6999969-14c1.6000061-4.8999996,3-9.6000004,4.3000031-14s2-7.1999998,2-8.6000004c.3999939-2.9000001,1.1000061-5.3000002,1.8999939-7.0999999C237.4999695,1.4999998,238.4999695.3999996,239.4999695-.0000002,239.9999695-.0000002,240.6999664-.0000002,241.3999634.1999998c.6999969.3,1.3999939.8,2.1000061,1.5s1.3000031,1.5999999,1.8999939,2.5.8000031,1.6999998.6999969,2.4000001v.3000002h.1000366ZM214,46.5999985c-.1999969-.5-.5-1.2000008-.8999939-1.9000015-.5-1.2000008-.8999939-2.5-1.3000031-4.0999985-.1000061-.4000015-.8000031-2.5-2-6.2000008s-2.6000061-7.7999992-4.1999969-12.1000004l-5.3999939-16.3999996c.8999939,2.6000004,1.8999939,5.1000004,3,7.3999996.8000031,2,1.6000061,3.8999996,2.1999969,5.8000011s1.1000061,2.8999996,1.3999939,3.2000008c.1000061.6000004.6000061,2.2000008,1.3999939,4.7000008s1.6999969,5.2000008,2.6000061,8c.8999939,2.9000015,1.6999969,5.5,2.3000031,7.7000008.6000061,2.2999992.8999939,3.5.8000031,3.9000015h.1000061l-.0000153-.0000038ZM248.8000031,8.6000004c.1999969.6000004-.1999969,2.6999998-1.3000031,6.3000002-1.1000061,3.5999994-2.5,8.000001-4.1999969,13.3000002s-3.5,10.8999977-5.5,16.7999992-3.8999939,11.5999985-5.8000031,16.9000015c-1.8999939,5.3000031-3.5,9.8000031-4.8999939,13.5999985-1.3999939,3.6999969-2.3000031,5.8000031-2.6999969,6.0999985-.5.9000015-1.1999969,1.5999985-2,2s-1.6000061.6999969-2.3000031,1c-.8999939.4000015-1.8999939.6999969-2.8000031.8000031l2.8000031-1.3000031c.3999939-.0999985.6000061-.6999969.6000061-1.6999969s0-.6999969-.1999969-1.0999985h.8000031c.6000061,0,1.3000031-.1999969,2.1000061-.5999985.5-.3000031,1.1999969-1.1999969,2-2.5999985s1.5-2.8000031,1.8999939-4.1999969c.3000031-.4000015.8000031-1.6999969,1.3999939-3.6999969s1.3999939-4.6999969,2.3999939-7.9000015,2.1999969-6.7000008,3.5-10.5999985,2.6000061-7.7000008,3.8999939-11.5999985c3.1999969-9.3999996,6.6000061-19.7999992,10.3000031-31.3999996h0v-.1000137Z"/>
  <path d="M341.8999939,6.9000001c-.2000122.6999998-.7000122,1.7999997-1.5,3.0999999s-1.3999939,2.3000002-2,2.8999996c-.2999878.5-.7000122,1.3999996-1.2000122,2.6999998s-1,2.6999998-1.7000122,4.3000002c-.6000061,1.6000004-1.2000122,3.2000008-1.7000122,4.6999989-.5,1.6000004-1,2.7999992-1.3999939,3.6000004-.3999939,1.1000004-1.2999878,3.7000008-2.6000061,7.8000011-1.2999878,4.2000008-2.7000122,8.5999985-4.1000061,13.4000015s-2.7999878,9.0999985-4.2999878,12.9000015c-1.3999939,3.8000031-2.2000122,6-2.2999878,6.4000015-.5.5999985-.7000122,1.3000031-.6000061,2.0999985.2000122.8000031.2000122,2,.2000122,3.6999969s-.3999939,2.9000015-1.2000122,3.5-1.7999878,1.0999985-3.1000061,1.3000031c-.7000122.1999969-1.6000061.0999985-2.5-.3000031s-1.7999878-1-2.6000061-1.6999969c-.7999878-.6999969-1.3999939-1.4000015-2-2.0999985-.5-.6999969-.8999939-1.1999969-1.1000061-1.6999969-.3999939-.9000015-1.1000061-2.4000015-1.8999939-4.5s-1.7999878-4.4000015-2.7999878-7-1.7999878-4.2999992-3.7000122-9.0999985c-1.8999939-4.7999992-4-10.2000008-6.2000122-16.0999985s-4.2000122-11.3999996-6.1000061-16.5c-1.7999878-5.1000004-3-8.3999996-3.5-9.8999996-.6000061-3.4000001-.3999939-6,.6000061-8s2.3000488-2.8000111,4.000061-2.4000111c.7000122,0,1.3999939.6,2.1000061,1.7.6000061,1.1000001,1.2000122,2.4000003,1.7000122,3.8s.7999878,2.8000002.8999939,4.1999998.2000122,2.4000006.2000122,3c0,1.6000004.6000061,3.9000006,1.7000122,7.0999994,1.2000122,3.2000008,2.2999878,6.7000008,3.2999878,10.7000008s1.2999878,4.2999992,2.3999939,6.7999992,2.2000122,5,3.2000122,7.4000015,1.8999939,4.5,2.7000122,6.2000008c.7999878,1.7000008,1.3999939,2.9000015,1.7999878,3.4000015.3999939.9000015.5,1.9000015.2000122,3s-.2999878,1.9000015,0,2.7000008c.3999939.7000008,1,2,1.7999878,3.7999992.7999878,1.8000031,1.3999939,2.6999969,2,2.6999969.6000061-.3000031,1.3999939-1.4000015,2.2000122-3.4000015.7999878-1.9000015,1.8999939-4.4000015,3.2000122-7.2999992.7000122-1.5,1.8999939-4.4000015,3.5-8.7999992s3.2000122-9,4.7000122-14c1.6000061-4.8999996,3-9.6000004,4.2999878-14s2-7.1999998,2-8.6000004c.3999939-2.9000001,1.1000061-5.3000002,1.8999939-7.0999999C333.2000427,1.4999998,334.2000427.3999996,335.2000427-.0000002,335.7000427-.0000002,336.4000549-.0000002,337.1000366.1999998c.7000122.3,1.3999939.8,2.1000061,1.5s1.2999878,1.5999999,1.8999939,2.5.7999878,1.6999998.7000122,2.4000001v.3000002h.0999451ZM309.7000122,46.5999985c-.2000122-.5-.5-1.2000008-.8999939-1.9000015-.5-1.2000008-.8999939-2.5-1.2999878-4.0999985-.1000061-.4000015-.7999878-2.5-2-6.2000008s-2.6000061-7.7999992-4.2000122-12.1000004l-5.3999939-16.3999996c.8999939,2.6000004,1.8999939,5.1000004,3,7.3999996.7999878,2,1.6000061,3.8999996,2.2000122,5.8000011s1.1000061,2.8999996,1.3999939,3.2000008c.1000061.6000004.6000061,2.2000008,1.3999939,4.7000008s1.7000122,5.2000008,2.6000061,8c.8999939,2.9000015,1.7000122,5.5,2.2999878,7.7000008.6000061,2.2999992.8999939,3.5.7999878,3.9000015,0,0,.1000061,0,.1000061-.0000038ZM344.6000061,8.6000004c.2000122.6000004-.2000122,2.6999998-1.2999878,6.3000002-1.0999756,3.5999994-2.5,8.000001-4.2000122,13.3000002s-3.5,10.8999977-5.5,16.7999992-3.8999939,11.5999985-5.7999878,16.9000015-3.5,9.8000031-4.8999939,13.5999985c-1.3999939,3.6999969-2.2999878,5.8000031-2.7000122,6.0999985-.5.9000015-1.2000122,1.5999985-2,2s-1.6000061.6999969-2.2999878,1c-.8999939.4000015-1.8999939.6999969-2.7999878.8000031l2.7999878-1.3000031c.3999939-.0999985.6000061-.6999969.6000061-1.6999969s0-.6999969-.2000122-1.0999985h.7999878c.6000061,0,1.2999878-.1999969,2.1000061-.5999985.5-.3000031,1.2000122-1.1999969,2-2.5999985s1.5-2.8000031,1.8999939-4.1999969c.2999878-.4000015.7999878-1.6999969,1.3999939-3.6999969s1.3999939-4.6999969,2.3999939-7.9000015,2.2000122-6.7000008,3.5-10.5999985,2.6000061-7.7000008,3.8999939-11.5999985c3.2000122-9.3999996,6.6000061-19.7999992,10.2999878-31.3999996h0l.0000305-.1000137Z"/>
  <path d="M419.1000061,9.8999996c5.3999939,5.1999998,9.6000061,12.8999996,12.7999878,23.1999989.6000061,2.7000008,1,5.7999992,1.1000061,9.2000008s-.2000122,6.9000015-.7999878,10.6000023c-.6000061,3.5999985-1.5,7.2000008-2.7000122,10.7000008-1.2000122,3.5000038-2.3999939,6.6000023-3.6000061,9.3999977-1.5,2.5999985-3.5,5-6.1000061,7.0999985s-5.7000122,3.4000015-9.2000122,4-7.2999878.3000031-11.3999939-.9000015c-4.1000061-1.1999969-8.2999878-3.4000015-12.5-6.5999985-4-3.4000015-6.8999939-7.5999985-8.7000122-12.5999985-1.7999878-5-2.7999878-10.4000015-2.8999939-15.9000015-.2000122-5.5999985.3999939-11,1.6000061-16.2999992s2.8999939-9.7999992,5-13.2999992c1.7999878-3.6000004,4.3999939-6.1999998,7.7000122-7.8000002,3.3999939-1.6000004,6.7000122-2.8000002,10-3.4000001s6.1000061-.9000001,8.3999939-.9000001,3.3999939-.1999998,3.3999939-.5c-.7999878-1.6999998-.3999939-2,1.3999939-1s3.8999939,2.6999998,6.5,5.1000004h0l.0000305-.1000004ZM407.7000122,14.8000002c-.6000061-.1999998-2.2000122,0-4.7999878.5s-5.2999878,1.8000002-8,3.6999998-5.3999939,4.7000008-7.7000122,8.3999996c-2.3999939,3.6000004-3.6000061,8.5000019-3.8999939,14.6000004-.3999939,6.0999985.2000122,11.2000008,1.8999939,15.4000015s3.7999878,7.5,6.3999939,10.0999985,5.3999939,4.4000015,8.3999939,5.5,5.7999878,1.6999969,8.2999878,1.6999969,4.7000122-.9000015,6.8999939-2.8000031c2.2000122-1.9000015,4.2000122-4.3000031,5.7999878-7.1999969,1.7000122-2.9000015,3-6.0999985,3.8999939-9.7999992.8999939-3.5999985,1.2999878-7.0999985,1.2999878-10.2999992s-.3999939-6.5999985-1.2999878-9.9000015c-.7999878-3.3999996-2-6.3999996-3.6000061-9.2000008s-3.5-5.2000008-5.7999878-7.1000004-4.8999939-3.1000004-7.7999878-3.3999996v-.1999998l.0000305.0000038ZM400,20.6000004c-2,1.8999996-3.7999878,4.1000004-5.5,6.5-1.5,2-2.7000122,4.6000004-3.7000122,7.6999989-1,3.2000008-1.2000122,6.5999985-.7000122,10.3999977,0,4,.5,7.2000008,1.2000122,9.5.7000122,2.4000015,1.5,4.2000008,2.3999939,5.5999985s1.7999878,2.4000015,2.7000122,3.2000008c.8999939.7000008,1.7000122,1.3999977,2.2999878,1.8999977,1.2999878,1.1999969,2.5,2.1999969,3.6000061,3.1999969s1.5,1.8000031,1.2000122,2.3000031c-.2999878.1999969-1,.1999969-2.1000061-.1999969s-2.2000122-.8000031-3.5-1.4000015-2.6000061-1.5-3.8999939-2.6999969-2.2999878-2.5-3.2000122-4.0999985c-1.5-3.2000008-2.6000061-7.4000015-3.2999878-12.9000015-.7000122-5.4000015-.3999939-10.5,1.1000061-15.4000015.7000122-2.2999992,1.7000122-4.3999996,3-6.1000004,1.2999878-1.7999992,2.6000061-3.2999992,3.8999939-4.3999996,1.5-1.2999992,3-2.2999992,4.6000061-3.2000008h0l-.1000061.1000042ZM423.2000122,5.3000002c2.2000122,1.5999999,4.2000122,3.8000002,6.1000061,6.5s3.3999939,5.6999998,4.7000122,8.6999998,2.2999878,5.7999992,3,8.3999996,1.2999878,4.3999996,1.6000061,5.3999996c0,1.5.2000122,3.5999985.2000122,6.5s0,6-.6000061,9.6000023c-.3999939,3.5999985-1.1000061,7.2999992-2,11.0999985-.8999939,3.8000031-2.2000122,7.3000031-4,10.5s-4.1000061,5.8000031-7,8-5.7000122,3.9000015-8.3999939,5.0999985c-3.2999878,1.5-6.7000122,2.6999969-10.2000122,3.5999985,2-.5,4.1000061-1.3000031,6.5-2.4000015,1.8999939-.8000031,4-2,6.2000122-3.4000015s4.5-3.1999969,6.7000122-5.3000031c4.2000122-4.3000031,7-8.4000015,8.2999878-12.3000031s2.2999878-8.2999992,3.1000061-13.0999985c.3999939-2.2999992.5-5,.2999878-8s-.6000061-6.0999985-1-9.2000008c-.5-3.2000008-1.1000061-6.2000008-1.7000122-9.1000004s-1.3999939-5.3999996-2.2999878-7.6999989-2.2000122-4.3000002-4.2000122-6.3000002-4-3.8000002-6.2000122-5.4000001-4.1000061-2.9000001-6-4c-1.7999878-1.1-2.8999939-1.7-3.2000122-1.8l-5.7999878-1.9c1.5,0,3,.3,4.7000122.8,1.5.4,3.1000061,1.1,5,2.0000001,1.7999878.8999999,4,2.0999999,6.3999939,3.4999998l-.2000122.1999998v.0000114ZM444.6000061,59.9000015c-.5-.2000008-.7999878-.5-.8999939-.7999992,0-.2999992-.2000122-.7000008-.2000122-1.2999992s.2000122-.5.6000061-.9000015l.5,3h0Z"/>
  <path d="M484.7999878,78.3000031c-.2000122.5-.7999878,1.4000015-1.7999878,2.5999985s-1.8999939,2-2.7999878,2.4000015c-1.8999939.1999969-3.5-1.6999969-4.7000122-5.6999969-.2999878-1-.5-3.5999985-.5-7.5999985v-12.7999992c0-4.5,0-8.6000023.2000122-12.3999977.2000122-3.7000008.2000122-5.9000015.2000122-6.4000015,0-1.2000008.2000122-2.5.6000061-4.2000008.3999939-1.5999985.6000061-3.2000008.6000061-4.7000008s.2999878-3,.8999939-5.2000008.7999878-3.7999992.6000061-4.8999996c0-.2000008-.2000122-.7999992-.5-1.7000008-.2999878-.8999996-.7000122-1.8999996-1.2000122-3-.5-1-.7999878-2.1000004-1.1000061-3.1000004s-.3999939-1.8000002-.3999939-2.3999996c.2999878-.8999996,1.3999939-1.9000001,3.2999878-2.8000002s3.2000122-1.6999998,3.7999878-2.1999998c.5-.5999999.8999939-1.2,1-1.8.2000122-.6.2000122-.7.2000122-.2v1.7c0,.8.2999878,1.3999999.7999878,1.8.6000061.5,1.3999939,2,2.3999939,4.6000004,1,2.5,2,4.3999996,2.8999939,5.5.2999878.5,1.1000061,2,2.2999878,4.6000004,1.2000122,2.5,2.5,5.1999989,3.7999878,8s2.6000061,5.5000019,3.7999878,8.0000019,2.1000061,4.2000008,2.6000061,4.9000015c.7999878,1.5999985,2.6000061,3.9000015,5.3999939,7.0999985,1.2999878,1.5999985,2.6000061,3.2000008,4.1000061,4.9000015,0,.0999985-.3999939.2000008-.7999878.2000008-.5.2999992-.7999878.5-.8999939.5s-.3999939.0999985-.7999878.2999992c-.6000061.2000008-.8999939.7999992-.7000122,1.7000008s.3999939,2,.7000122,3.2000008c.2000122,1.2000008.6000061,2.2000008,1.1000061,3.2000008s1.2000122,2.2000008,2.1000061,3.4999962c.7000122,1.5,1.5999756,2.3000031,2.5999756,2.4000015,1,.1999969,1.9000244-.0999985,2.5999756-.9000015.9000244-.5999985,1.5-1.9000015,1.7000122-3.7999992.2000122-1.9000015.5-3.5999985.9000244-5.0999985,0-.7999992,0-2.9000015.2000122-6.2999992,0-3.4000015.2999878-7,.5-10.9000015s.2999878-7.5.4000244-11v-6.5c.2999878-2.2999992,0-4.7999992-.7000122-7.3999996-.7999878-2.6000004-1.2000122-4.5-1.2000122-5.5,0-.8000002.5999756-1.5,1.5-2s1.7000122-.8999996,2.2999878-1.0999999c.5999756-.4000001,1.5-1.5,2.7000122-3.2999997.5-.7,1.0999756-1.5,1.7000122-2.4000001,0,.7.4000244,1.5.7999878,2.2000003.2999878.6999998.5,1.4000001.5999756,2.0999999,0,.5999999.2000122,1.2000003.5999756,1.5999999.2000122.6999998,0,1.8000002-.4000244,3.3000002-.5,1.5-.9000244,3.5-1.2000122,6.1999998,0,1.2999992-.2000122,3.5-.2000122,6.7000008v11c0,4.0999985,0,8.2999992-.2000122,12.5s-.2000122,7.9000015-.2000122,11.2000008c0,6.8999977.4000244,11.8999977,1.2999878,14.7999992.7999878,2.9000015,1.0999756,5.3000031.5999756,7.3000031,0,1-.5999756,1.8000031-1.5999756,2.1999969-.9000244.4000015-1.9000244.6999969-3,.9000015s-2.0999756.1999969-3.2000122,0c-1.0999756-.1999969-1.9000244-.4000015-2.2999878-.6999969-.5-.1999969-1-.9000015-1.2999878-2s-.7000122-2.1999969-.9000244-3.4000015c-.2999878-1.1999969-.5-2.1999969-.7999878-3.1999969s-.4000244-1.5999985-.5999756-1.6999969l-5.5-7.4000015c-.2000122-.5-1-1.7999992-2.2999878-3.9000015-1.2999878-2.0999985-2.8999939-4.7000008-4.7000122-7.7999992s-3.7000122-6.5-5.7999878-10-4.1000061-6.7999992-5.8999939-9.7999992-3.3999939-5.6000004-4.7000122-7.7000008c-1.2999878-2.2000008-2-3.2999992-2.1000061-3.3999996-.7000122-.5-1.3999939-.5-2,0-.6000061.6000004-1.2999878,1.2000008-2.2999878,1.7999992-.2999878.2999992-.5,1.1000004-.6000061,2.2999992v3.7000008c.2000122,1.6000004.3999939,3.1999989.5,4.6999989.5-.5999985,1-1.2999992,1.3999939-2,.7000122-1.4000015,1.2000122-1.8999996,1.3999939-1.5999985.2000122.7999992.2000122,2.2000008,0,3.9000015-.2999878,1.7999992-.5,4.2000008-.7000122,7.2999992v7c0,2.9000015,0,5.9000015.2000122,9,0,3.0999985.2000122,5.9000015.2000122,8.3000031v4.4000015c.2000122.8000031.7000122,1.9000015,1.6000061,3.1999969.7999878,1.3000031,1.2000122,2.3000031.8999939,3.1999969h0l.0000916-.0000153ZM483.2999878,84.3000031c.5-.5999985,1.3999939-1.3000031,2.5-1.9000015l1.3999939-1.4000015c-.6000061.9000015-1.2999878,1.6999969-1.8999939,2.4000015-.2999878.5999985-.7000122,1.1999969-1.2000122,1.6999969s-.7000122.9000015-.7000122,1.1999969c0,.3000031-.2000122.0999985-.2999878-.5999985,0-.6999969,0-1.0999985.2000122-1.3000031h0v-.0999908ZM511.5,45.2000008s-.6000061-.5-1.6000061-1.4000015c-.3999939-.9000015-1.2000122-2.4000015-2.5-4.4000015-1.2000122-2-2.8999939-5.0999985-5.1000061-9.2999992-2.2000122-4-4.3999939-7.7999992-6.6000061-11.3999996s-4.2999878-6.6999998-6.2000122-9.3000002c-2-2.8000002-4-5.5-6.1000061-7.9000001.5,0,1.2000122.4,1.8999939.8.6000061.3,1.2000122.7,1.7000122,1s1.2000122.8,1.8999939,1.2c.7000122.4000001,1.6000061,1.4000001,2.5,3s2,3.4000001,3.1000061,5.4000001,2.2000122,4.0999994,3.2999878,6.1999998c1.1000061,2.2000008,2.1000061,4,3.1000061,5.6000004s2,3.5,3.2000122,5.8000011c1.2000122,2.3000031,2.3999939,4.5999985,3.6000061,6.9000015,1.2999878,2.5999985,2.5,5.2000008,3.7999878,7.7000008h0l.0000305.0999985ZM487.7999878,78.6999969v-2.0999985c0-1.1999969-.2000122-2.6999969-.3999939-4.5s-.2999878-4-.3999939-6.5c0-2.5-.2000122-4.9000015-.3999939-7.2999992-.3999939-5.7000008-.7999878-12-1.2999878-18.8999977.3999939,1.9000015.8999939,3.5999985,1.6000061,5.2000008.2000122,1.5.5,2.9000015.7999878,4.2999992s.5,2.2999992.5,2.7000008c-.2000122.4000015-.2999878,2-.2999878,4.9000015v22.2000008h0l-.1000366-.0000076ZM491.2999878,54l.2999878,1.2999992-1.6000061,1.2999992,1.2999878-2.5h0l.0000305-.0999985ZM529.5,85c-.5.5-1.2000122,1-1.9000244,1.4000015-.5999756.4000015-1.2000122.8000031-1.5999756,1s-.7999878.4000015-1.2999878.4000015c-1.2000122.4000015-1.7999878.5999985-2.0999756.5999985h-1.0999756l7.9000244-3.5h0l.0999146.0999985ZM531.4000244,42.7999992v-11.7000008c0-3.7999992,0-7.2000008.2999878-10.2000008s.4000244-5.5.5999756-7.6000004c.2000122-2.1000004.4000244-3.3999996.9000244-4,0,10.6999989-.2000122,20.3999996-.2000122,28.9999981v29.2999954c0,.5999985-.2000122,1.1999969-.5999756,1.6999969-.4000244.5-.5999756.9000015-.5999756,1.3000031s0,.8000031-.2000122,1.0999985-.2000122.5-.2000122.5999985v.5999985-30.2999992.2000122ZM532,76.3000031c.2000122.5.2999878.9000015.2999878,1.3000031v1.0999985c0,.5999985,0,1-.2999878,1.0999985v-3.5h0Z"/>
</svg>