<?xml version="1.0" encoding="UTF-8"?>
<svg id="Layer_1" xmlns="http://www.w3.org/2000/svg" version="1.1" viewBox="0 0 400 400">
  <!-- Generator: Adobe Illustrator 29.7.1, SVG Export Plug-In . SVG Version: 2.1.1 Build 8)  -->
  <defs>
    <style>
      .st0 {
        fill: #010101;
      }
    </style>
  </defs>
  <path class="st0" d="M329.1522473,393.457635c8.6612606-53.8880988-73.506533-109.8056762-39.5119665-173.8689343,15.0418904-28.3749767,38.7115827-53.9769939,43.2961149-87.0305016,10.288637-55.2062527-30.7877442-117.8625486-84.3044209-128.8794133C228.6462284-.5409234,210.275162.007189,189.322356.0405102c-22.4981662.5603748-47.4998569-.4779124-68.1723115,2.001454-55.1714147,3.7182609-55.4492476,58.0945519-55.6735983,101.7400918.2087217,55.9189667,2.1106783,113.1497678.9973454,168.4012785-.2129944,21.8582354-.8658621,43.8241212-.06279,65.5555069.5280302,17.2337226,3.1990372,39.2157975,12.2502329,51.8575397,24.1882064,28.8991432,31.7536039-29.592359,30.740389-49.3832191-1.7603331-44.5087118-3.6513774-92.9031443,48.647577-105.6123249,38.6469615-8.8516701,71.2004995,11.1952627,88.4647671,48.10548,17.5156707,32.9365278,28.6889556,77.2865907,52.9545364,104.6653905,12.4639714,13.1269508,24.6434862,17.2158548,29.510584,6.5175711l.1731592-.4316438ZM244.0608144,178.6217838c-32.9509513,8.7687374-69.6490033,2.7872383-103.3895521-.1080364-26.211374-3.306002-34.7555607-19.2600752-35.2024143-47.6749361.0374456-19.2291346-1.6436764-41.4077647,12.2263767-55.7576936,17.2401914-15.3931967,43.96976-11.538079,65.8451878-13.2827777,29.7522814-1.2444734,62.4364798-4.2144753,86.2818977,11.9979765,42.100035,29.7301107,22.7121453,92.1056934-24.8218359,104.5378848l-.9396599.2875825Z"/>
</svg>