<?xml version="1.0" encoding="UTF-8"?>
<svg id="Layer_1" xmlns="http://www.w3.org/2000/svg" version="1.1" viewBox="0 0 506.4769932 85.5649119">
  <!-- Generator: Adobe Illustrator 29.7.1, SVG Export Plug-In . SVG Version: 2.1.1 Build 8)  -->
  <path d="M52.127968,80.1268205c1.7123052-10.6535267-14.5320353-21.7082759-7.8114051-34.3734003,2.9737408-5.6096528,7.6531712-10.6711012,8.5595207-17.2056873,2.0340342-10.914121-6.08665-23.3010957-16.6667467-25.4791002-3.9511276-.8342246-7.5830336-.7258643-11.7253467-.7192768-4.447824.1107846-9.3905889-.0944819-13.477475.3956819C.0992803,3.4801307.0443535,14.2301714,0,22.8587726c.0412637,11.0550226.4172752,22.3693939.1971724,33.2924599-.0421084,4.3213119-.1711785,8.6639087-.0124134,12.9601431.1043901,3.4070581.6324407,7.7528545,2.4218369,10.2520878,4.7819403,5.7132769,6.2775983-5.8503273,6.0772891-9.762927-.3480126-8.7992486-.7218669-18.3666925,9.6174901-20.8792613,7.6403965-1.7499509,14.0761383,2.2132706,17.4892383,9.5103179,3.4627979,6.5114572,5.6717277,15.2793422,10.4689613,20.692052,2.4640909,2.5951601,4.8719468,3.4035273,5.8341619,1.2885093l.0342314-.0853338ZM35.3056296,37.654377c-6.5143111,1.7335543-13.7694125.5510299-20.4398242-.0213584-5.1819146-.6535857-6.8710771-3.8076637-6.9594186-9.4252004.0074027-3.8015465-.3249502-8.1861992,2.4171204-11.0231413,3.4083381-3.0431915,8.6926976-2.2810458,13.0174104-2.6259677,5.8819419-.2460292,12.3435193-.8331897,17.057688,2.371967,8.3230614,5.8775596,4.4901261,18.209037-4.9072069,20.6668476l-.1857691.0568533Z"/>
  <path d="M234.2926094,3.7854317c.3876143,3.8141698-1.3643997,8.6455033-2.909244,12.3761941-4.5415434,10.826017-7.9136621,22.5255192-11.396618,33.8118514-1.4994161,4.9489872-3.1702696,9.7675027-4.5270731,14.2860719-1.2081274,4.06208-2.4180526,9.1092038-4.4852072,12.075088-2.7968559,4.21326-6.7560071,3.9889385-10.1432888.423503-4.0153762-4.213187-6.0686946-10.2273275-8.2672846-15.6110408-2.7751918-7.0611072-5.4060104-13.8727317-8.1003275-21.1459499-2.2521189-6.0832852-4.5101139-12.2880492-6.7019149-18.4676209-1.8305688-5.641344-6.1149928-16.2586137-1.9371539-20.9518762,4.6754554-2.4190168,7.221722,8.9619675,8.1363359,12.3215176,1.3068033,5.3747943,2.6790042,10.7473504,4.4835335,16.0384722,3.4173363,10.0539353,7.4638277,19.807681,11.0628625,29.6847327,4.0467404,10.1356904,8.3569742,2.255662,10.79075-3.805876,4.8986124-12.2749054,9.1771678-25.839069,12.6113967-38.6982203,1.2413841-4.445584,2.2401721-9.6191933,4.7557985-13.4132734,2.2585517-3.4984905,6.0549839-4.0318519,6.6122011.9331863l.0152337.1432403Z"/>
  <path d="M399.9404273,6.0635309c12.89437,12.7322097,16.9039586,33.6569712,11.9231424,50.9247397-1.8282186,7.0046749-4.3923675,13.720478-9.3298696,18.6910046-10.8662672,11.1839607-29.5877162,5.8842515-38.2897464-5.4554995-8.5815149-10.9552201-9.4217104-25.7918722-7.094872-39.1792375,2.1378669-12.4604601,8.2337543-23.7281549,21.29004-27.1046728,7.2889104-2.3106468,15.5218781-3.7944337,21.3783073,2.0112135l.1229982.112452ZM388.6252077,11.8232991c-4.4074661-.5478808-8.7111777,1.0296274-12.2951623,3.5519765-9.5335551,6.4426155-13.0085958,18.7258181-11.9763731,30.0914168,1.189965,22.8755891,28.8360231,38.9159005,39.6441209,12.5210438,4.4373506-10.7222813,4.3470467-23.2764607-.6682839-33.7501047-2.9006991-5.9488728-7.8284772-11.386739-14.3596326-12.3676419l-.3446689-.0466906Z"/>
  <path d="M134.8152752,5.8319145v-.0999756l.187439.1124878c-.0620117-.0036011-.1274414-.0125122-.187439-.0125122Z"/>
  <path d="M502.1267462,85.5320483c6.7480693-2.5717551,3.5404584-16.7210242,3.733179-22.7477109-.4751882-17.5658903.528957-35.4247491.6170513-52.952774.0073141-4.0928921-2.3825011-8.5662342-5.2146726-3.6822994-3.5079108,6.5830816-1.9349362,17.3425113-2.1254823,25.213328-.236835,8.3702597-.298708,16.8623804-1.2130889,25.1829122-.7502956,5.6859613-2.9824144,11.6288516-6.9562276,7.4722875-3.5414163-5.054545-4.7992683-11.9422135-7.8692711-17.3963187-3.7807445-6.9176389-8.1711763-15.0233958-11.3522977-22.5962943-2.6474452-5.5709354-4.8672345-11.4605485-7.9615958-16.6858589-2.2674993-3.7408492-6.5833554-6.0450676-8.2806462-.6651554-1.6210732,4.7059768-1.4807043,10.8290824-1.4886665,15.9255007-.0335827,7.0490573-1.207894,14.1685498-1.4708865,21.1654481-.3249394,9.435145-.7447732,19.7752461.0715763,29.4099277,1.2219548,12.2494475,7.7125041,13.8813837,7.4849237.1336976-.7162458-10.7045008-.8037314-21.7883038-.7041087-32.7041605-.0358362-5.1194545-1.1430015-8.2209509-.8321808-12.5042814.1917713-2.9904428,2.8737239-2.7396393,5.0240262-.9632544,2.4731995,2.1237294,4.2046348,5.1191466,5.8705496,7.9914933,5.6743168,10.0835654,11.124953,20.5598406,16.8893116,30.4225599,3.6788799,5.2894413,8.5495607,20.5118583,15.6811743,20.0012771l.0973328-.0203243Z"/>
  <path d="M125.3109488,71.133364c-7.6731817-1.7853361-12.2707046-.3160472-11.9834506-10.5762583-.0683303-11.4431448-.0352558-29.0357585-.0178892-40.7392396.0519164-2.4774891.2805657-5.251138,2.9600315-6.0609789,3.7647564-1.2687994,11.473166-.7705102,12.5859225-5.7357508.3222924-8.5383514-14.8746409-4.5154435-20.419237-4.8465919-3.6581841.1208754-7.6469029-.2462881-11.1336744.7606772-3.2298812.8514785-5.1795017,3.2846352-2.4460926,5.3502236,3.1365754,2.3454156,7.9195833,3.4505582,9.367495,7.6056302,2.3991556,7.5033496,1.4033337,15.7486453,1.9713811,23.5847099.158445,4.874608.3217977,9.775776.3854776,14.4209413-.0316331,4.2970816.3980593,9.046365-1.3068825,13.0143961-1.7760433,4.5398556-7.6699736,5.6182404-10.4313092,9.3034-1.4106663,3.4590455,4.4475218,3.6609485,6.9026081,3.7144208,3.4407434.0257014,6.9882414-.0339857,10.4349038.1994181,4.542115.2747762,9.5086074.8276474,13.0400512-.7335829,4.5565774-1.7571208,5.6337846-7.1175738.2506744-9.2038099l-.1600097-.057605Z"/>
  <path d="M325.2642204,4.2891201c.6172443,10.1896228-6.2892239,31.6342131-9.9620416,43.5316885-10.1629126,37.9657093-21.7351685,49.513651-38.2386697,5.7570046-4.4132717-11.9424114-9.404661-26.8719165-11.1545476-38.4964227-.9637006-6.0448487-1.0912862-10.242819-.3733774-11.6317833,2.8901251-4.010779,10.985998,19.8354152,12.4285581,24.7137445,2.8791976,9.195486,5.8936921,20.7278468,10.8487477,28.3888309,9.4283266,13.9736301,16.2518486-6.7774669,20.0200065-17.5910756,2.6575861-8.2493241,5.0221751-16.8032702,8.3563251-24.7894389,1.0309267-2.5476014,7.0694317-17.0336915,8.0668631-9.9697061l.008136.0871581Z"/>
</svg>