<?xml version="1.0" encoding="UTF-8"?>
<svg id="Layer_1" xmlns="http://www.w3.org/2000/svg" version="1.1" viewBox="0 0 400 400">
  <!-- Generator: Adobe Illustrator 29.7.1, SVG Export Plug-In . SVG Version: 2.1.1 Build 8)  -->
  <defs>
    <style>
      .st0 {
        fill: #fff;
      }
    </style>
  </defs>
  <path class="st0" d="M63.5929995,239.2769892c-8.0712792,2.2342028-10.6232457,17.2696869-21.7324409,16.6196418-4.9195385-.2858227-10.0033905-1.9524621-14.9075855-.4804913-8.3591378,2.091374-14.4762774,11.824654-12.5944344,19.9945992.6880577,3.0577953,1.938127,5.5857419,3.2813071,8.5067555,1.5154322,3.1029381,2.9677669,6.6572725,4.634287,9.3829129,4.0432617,7.4594727,11.6470891,4.0245042,17.7504445,1.2675886,7.7879647-3.6013991,15.6507752-7.5228269,23.4300796-10.897146,3.0630662-1.3666581,6.1692512-2.6788262,9.1497109-4.1791329,2.3705578-1.1746105,5.2666618-2.9515292,6.4521021-5.0218629,2.4865229-5.220684-6.1569735-2.5395166-8.8532844-1.1338596-6.0969893,3.0889425-12.7277283,6.4443528-17.8418184-.0400124-3.7037933-4.826195-2.986653-10.6484257,1.0598242-15.4149184,3.4760442-4.5477142,8.9495712-8.93973,11.2190469-14.0740842,1.0351133-2.5774494.8274935-4.5378351-.9759579-4.5334075l-.0712809.0034172ZM39.0569925,264.8725538c3.3283442,4.0368382,4.8382481,9.538729,6.5897789,14.4308584,1.2132424,3.867967-.4666931,6.0791697-4.402326,7.9567417-2.6850637,1.2231938-5.6718262,2.8745694-8.5598587,1.8562662-3.2488747-1.4218265-4.4186135-5.3971665-6.0594892-8.3375675-2.0742871-4.071263-4.5766042-8.4413278-3.8381131-12.8037232,1.4581876-7.772662,11.3988133-9.0525916,16.1698588-3.2152966l.1001493.112721Z"/>
  <path class="st0" d="M53.3672162,189.2035066c-1.5598752,5.9122604-.5247132,9.5125372-8.4781448,9.0559602-8.8792635-.2076587-22.5270355-.6340679-31.6063166-.9141386-1.9208785-.0967144-4.0674949-.337282-4.6347401-2.4344865-.8985884-2.9496374-.3364171-8.9185499-4.1631524-9.8949418-6.6167965-.4445397-3.8419627,11.4370362-4.225174,15.7310442.0104447,2.8408122-.3652652,5.9269343.3365218,8.654944.5870106,2.5251705,2.4302667,4.0931336,4.0950363,2.0195769,1.891046-2.379958,2.8573812-6.0654923,6.1139111-7.0941423,5.875825-1.6903658,12.2499228-.7299759,18.3421619-.9921706,3.7853783-.011884,7.5914752-.0269688,11.1966908.029446,3.3329979.1224253,7.0273271-.1027444,10.0669261,1.3103553,3.4816083,1.4812904,4.1839691,6.0784241,6.9800495,8.3046432,2.6514278,1.1732051,2.9415137-3.3670399,3.0389253-5.2705019.0983193-2.6687769.1328196-5.4223232.3924115-8.0909619.3166384-3.5175585.8586958-7.3580183-.2720743-10.1333152-1.2593936-3.5750604-5.3935526-4.5328787-7.134699-.4041314,0,0-.0483331.1228262-.048333.1228203Z"/>
  <path class="st0" d="M31.4901875,91.654109c2.7793543,1.0627095,5.516941,3.9637108,7.5638594,6.3368974,5.9194603,6.9273215,12.8526476,13.3488782,19.4607316,19.7030476,2.9073187,2.766968,5.6643513,5.6072325,8.3230866,8.125087,2.3941813,2.2554481,5.4705905,4.8559842,6.8050028,7.3242825,1.944401,3.409554.4068763,6.0758028-3.247146,7.1793372-4.3223045,1.3128317-9.2081585.6368674-13.7077066.281674-5.863618-.5410124-11.5038904-1.0950228-17.4863184-1.766139-5.0031868-.562286-10.092633-1.162903-15.1415122-1.8006133-4.5496727-.7002459-13.4053109-1.4363838-15.2004001-5.9708134-.0448392-4.0855165,8.7334794-1.8778667,11.3816411-1.3391718,4.1820673.9702792,8.3854072,1.8944521,12.6832134,2.4904915,8.1624536,1.1405701,16.3364202,1.7402242,24.4396817,2.6930907,8.438829.7328005,4.4808364-5.0058168,1.1284334-8.8088559-6.7992172-7.6806027-14.7086074-15.3814238-22.4240061-22.2508313-2.648426-2.4123663-5.8862112-4.9107015-7.6382029-7.9789768-1.6368225-2.7868813-.6813357-5.6048138,2.9550229-4.2579411l.1046123.0394444.0000071-.0000097Z"/>
  <path class="st0" d="M93.8642326,29.2985534c5.3171498,5.8739823,11.5360372,22.2167312,15.0825456,31.2066208,12.2606816,27.9318935,10.8517159,40.5421941-20.374213,22.0382421-8.467297-5.0943927-18.7339492-11.7180649-25.4333974-17.911916-3.5163462-3.1947781-5.6301491-5.6762504-5.8690236-6.8660253-.1947078-3.8320083,16.2784583,6.6878403,19.5190169,8.9435781,6.2052944,4.1743592,13.6262125,9.6988898,20.3447439,11.936537,12.4910661,3.8921172,6.5583698-11.9902533,3.5954265-20.3697283-2.3917979-6.2871359-5.1088882-12.6166876-6.9631366-19.0725938-.6113086-2.0435912-3.980341-13.7494463.0508385-9.9535802l.0472188.0488523-.0000196.0000134Z"/>
  <path class="st0" d="M171.8260154,8.0723346c10.8778659,8.9154178,15.4766333,24.799188,12.8652283,38.5012427-.9107428,5.5444587-2.4109414,10.91843-5.870445,15.1137456-7.5959871,9.4222433-22.4443354,6.6685937-29.9824174-1.4712365-7.4173793-7.8512924-9.1303267-19.2572172-8.2917949-29.7701371.7589429-9.7830353,4.6622464-18.9280112,14.510426-22.4734533,5.4674174-2.3082571,11.7237064-4.0451727,16.6658949.0217503,0,0,.1031082.0780893.1031081.0780882ZM163.4942226,13.3348027c-3.445487-.107454-6.6584205,1.4202115-9.2473965,3.6264782-6.905937,5.6624668-8.7109785,15.4043711-7.0984685,24.1140108,2.5595489,17.5935577,25.0750552,28.0080458,31.5356497,6.8345853,2.6606402-8.6045695,1.6908682-18.3002969-2.9359395-26.0350687-2.6681979-4.3895007-6.8663592-8.2387647-11.9841074-8.5286284l-.2697139-.0113756-.0000239-.0000015Z"/>
  <path class="st0" d="M247.4833621,73.0758397c5.5666478-.6541244,5.8392892-11.9113537,7.1286273-16.4102126,2.9776798-13.3096302,7.1242807-26.5588534,10.5186845-39.7330368.7826419-3.078761-.1664853-6.8989894-3.2251816-3.7612792-3.8898621,4.2881148-4.749034,12.6839094-6.3868916,18.5709986-1.7675283,6.2541604-3.4265064,12.6332567-5.6944691,18.7213534-1.6442616,4.1365719-4.4524607,8.1851414-6.6537809,4.3025531-1.7054072-4.476274-1.3442283-9.8984964-2.6190097-14.585953-1.5317579-5.9238067-3.2967695-12.8575095-4.2528687-19.1605884-.934583-4.6951445-1.4868528-9.5489229-2.8234024-14.0688249-.9961358-3.2457524-3.8065731-5.7992827-6.1053927-2.0728405-2.1134874,3.2337389-3.170478,7.8683994-4.1441447,11.7022535-1.363689,5.2984726-3.5992335,10.4333543-5.12568,15.6490118-2.0360257,7.0388252-4.3152799,14.7406678-5.5302967,22.146357-1.4062453,9.450477,3.1684222,11.9109865,5.6074777,1.521801,1.4934764-8.1917886,3.5321471-16.5496396,5.6797591-24.7455695.9450838-3.8595045.7007557-6.4037944,1.7479566-9.5682448.7121249-2.2140783,2.6828324-1.5161044,3.9637764.2290173,1.4579994,2.0678316,2.192246,4.6508148,2.9005741,7.128747,2.3556729,8.6658989,4.4684371,17.584864,6.933816,26.1016636,1.7642699,4.6791529,2.5394184,17.0597573,8.0033461,18.0296161,0,0,.0770988.003183.0771002.0031772Z"/>
  <path class="st0" d="M336.4070005,160.7230108c8.0712792-2.2342028,10.6232457-17.2696869,21.7324409-16.6196418,4.9195385.2858227,10.0033905,1.9524621,14.9075855.4804913,8.3591378-2.091374,14.4762774-11.824654,12.5944344-19.9945992-.6880577-3.0577953-1.938127-5.5857419-3.2813071-8.5067555-1.5154322-3.1029381-2.9677669-6.6572725-4.634287-9.3829129-4.0432617-7.4594727-11.6470891-4.0245042-17.7504445-1.2675886-7.7879647,3.6013991-15.6507752,7.5228269-23.4300796,10.897146-3.0630662,1.3666581-6.1692512,2.6788262-9.1497109,4.1791329-2.3705578,1.1746105-5.2666618,2.9515292-6.4521021,5.0218629-2.4865229,5.220684,6.1569735,2.5395166,8.8532844,1.1338596,6.0969893-3.0889425,12.7277283-6.4443528,17.8418184.0400124,3.7037933,4.826195,2.986653,10.6484257-1.0598242,15.4149184-3.4760442,4.5477142-8.9495712,8.93973-11.2190469,14.0740842-1.0351133,2.5774494-.8274935,4.5378351.9759579,4.5334075l.0712809-.0034172ZM360.9430075,135.1274462c-3.3283442-4.0368382-4.8382481-9.538729-6.5897789-14.4308584-1.2132424-3.867967.4666931-6.0791697,4.402326-7.9567417,2.6850637-1.2231938,5.6718262-2.8745694,8.5598587-1.8562662,3.2488747,1.4218265,4.4186135,5.3971665,6.0594892,8.3375675,2.0742871,4.071263,4.5766042,8.4413278,3.8381131,12.8037232-1.4581876,7.772662-11.3988133,9.0525916-16.1698588,3.2152966l-.1001493-.112721Z"/>
  <path class="st0" d="M346.6327838,210.7964934c1.5598752-5.9122604.5247132-9.5125372,8.4781448-9.0559602,8.8792635.2076587,22.5270355.6340679,31.6063166.9141386,1.9208785.0967144,4.0674949.337282,4.6347401,2.4344865.8985884,2.9496374.3364171,8.9185499,4.1631524,9.8949418,6.6167965.4445397,3.8419627-11.4370362,4.225174-15.7310442-.0104447-2.8408122.3652652-5.9269343-.3365218-8.654944-.5870106-2.5251705-2.4302667-4.0931336-4.0950363-2.0195769-1.891046,2.379958-2.8573812,6.0654923-6.1139111,7.0941423-5.875825,1.6903658-12.2499228.7299759-18.3421619.9921706-3.7853783.011884-7.5914752.0269688-11.1966908-.029446-3.3329979-.1224253-7.0273271.1027444-10.0669261-1.3103553-3.4816083-1.4812904-4.1839691-6.0784241-6.9800495-8.3046432-2.6514278-1.1732051-2.9415137,3.3670399-3.0389253,5.2705019-.0983193,2.6687769-.1328196,5.4223232-.3924115,8.0909619-.3166384,3.5175585-.8586958,7.3580183.2720743,10.1333152,1.2593936,3.5750604,5.3935526,4.5328787,7.134699.4041314,0,0,.0483331-.1228262.048333-.1228203Z"/>
  <path class="st0" d="M368.5098125,308.345891c-2.7793543-1.0627095-5.516941-3.9637108-7.5638594-6.3368974-5.9194603-6.9273215-12.8526476-13.3488782-19.4607316-19.7030476-2.9073187-2.766968-5.6643513-5.6072325-8.3230866-8.125087-2.3941813-2.2554481-5.4705905-4.8559842-6.8050028-7.3242825-1.944401-3.409554-.4068763-6.0758028,3.247146-7.1793372,4.3223045-1.3128317,9.2081585-.6368674,13.7077066-.281674,5.863618.5410124,11.5038904,1.0950228,17.4863184,1.766139,5.0031868.562286,10.092633,1.162903,15.1415122,1.8006133,4.5496727.7002459,13.4053109,1.4363838,15.2004001,5.9708134.0448392,4.0855165-8.7334794,1.8778667-11.3816411,1.3391718-4.1820673-.9702792-8.3854072-1.8944521-12.6832134-2.4904915-8.1624536-1.1405701-16.3364202-1.7402242-24.4396817-2.6930907-8.438829-.7328005-4.4808364,5.0058168-1.1284334,8.8088559,6.7992172,7.6806027,14.7086074,15.3814238,22.4240061,22.2508313,2.648426,2.4123663,5.8862112,4.9107015,7.6382029,7.9789768,1.6368225,2.7868813.6813357,5.6048138-2.9550229,4.2579411l-.1046123-.0394444-.0000071.0000097Z"/>
  <path class="st0" d="M306.1357674,370.7014466c-5.3171498-5.8739823-11.5360372-22.2167312-15.0825456-31.2066208-12.2606816-27.9318935-10.8517159-40.5421941,20.374213-22.0382421,8.467297,5.0943927,18.7339492,11.7180649,25.4333974,17.911916,3.5163462,3.1947781,5.6301491,5.6762504,5.8690236,6.8660253.1947078,3.8320083-16.2784583-6.6878403-19.5190169-8.9435781-6.2052944-4.1743592-13.6262125-9.6988898-20.3447439-11.936537-12.4910661-3.8921172-6.5583698,11.9902533-3.5954265,20.3697283,2.3917979,6.2871359,5.1088882,12.6166876,6.9631366,19.0725938.6113086,2.0435912,3.980341,13.7494463-.0508385,9.9535802l-.0472188-.0488523.0000196-.0000134Z"/>
  <path class="st0" d="M228.1739846,391.9276654c-10.8778659-8.9154178-15.4766333-24.799188-12.8652283-38.5012427.9107428-5.5444587,2.4109414-10.91843,5.870445-15.1137456,7.5959871-9.4222433,22.4443354-6.6685937,29.9824174,1.4712365,7.4173793,7.8512924,9.1303267,19.2572172,8.2917949,29.7701371-.7589429,9.7830353-4.6622464,18.9280112-14.510426,22.4734533-5.4674174,2.3082571-11.7237064,4.0451727-16.6658949-.0217503,0,0-.1031082-.0780893-.1031081-.0780882ZM236.5057774,386.6651973c3.445487.107454,6.6584205-1.4202115,9.2473965-3.6264782,6.905937-5.6624668,8.7109785-15.4043711,7.0984685-24.1140108-2.5595489-17.5935577-25.0750552-28.0080458-31.5356497-6.8345853-2.6606402,8.6045695-1.6908682,18.3002969,2.9359395,26.0350687,2.6681979,4.3895007,6.8663592,8.2387647,11.9841074,8.5286284l.2697139.0113756.0000239.0000015Z"/>
  <path class="st0" d="M152.5166379,326.9241603c-5.5666478.6541244-5.8392892,11.9113537-7.1286273,16.4102126-2.9776798,13.3096302-7.1242807,26.5588534-10.5186845,39.7330368-.7826419,3.078761.1664853,6.8989894,3.2251816,3.7612792,3.8898621-4.2881148,4.749034-12.6839094,6.3868916-18.5709986,1.7675283-6.2541604,3.4265064-12.6332567,5.6944691-18.7213534,1.6442616-4.1365719,4.4524607-8.1851414,6.6537809-4.3025531,1.7054072,4.476274,1.3442283,9.8984964,2.6190097,14.585953,1.5317579,5.9238067,3.2967695,12.8575095,4.2528687,19.1605884.934583,4.6951445,1.4868528,9.5489229,2.8234024,14.0688249.9961358,3.2457524,3.8065731,5.7992827,6.1053927,2.0728405,2.1134874-3.2337389,3.170478-7.8683994,4.1441447-11.7022535,1.363689-5.2984726,3.5992335-10.4333543,5.12568-15.6490118,2.0360257-7.0388252,4.3152799-14.7406678,5.5302967-22.146357,1.4062453-9.450477-3.1684222-11.9109865-5.6074777-1.521801-1.4934764,8.1917886-3.5321471,16.5496396-5.6797591,24.7455695-.9450838,3.8595045-.7007557,6.4037944-1.7479566,9.5682448-.7121249,2.2140783-2.6828324,1.5161044-3.9637764-.2290173-1.4579994-2.0678316-2.192246-4.6508148-2.9005741-7.128747-2.3556729-8.6658989-4.4684371-17.584864-6.933816-26.1016636-1.7642699-4.6791529-2.5394184-17.0597573-8.0033461-18.0296161,0,0-.0770988-.003183-.0771002-.0031772Z"/>
  <circle class="st0" cx="293.7495441" cy="82.245569" r="5.7757653"/>
  <circle class="st0" cx="106.6143101" cy="323.2957422" r="5.7757653"/>
</svg>