<?xml version="1.0" encoding="UTF-8"?>
<svg id="Layer_1" xmlns="http://www.w3.org/2000/svg" version="1.1" viewBox="0 0 612 792">
  <!-- Generator: Adobe Illustrator 29.7.1, SVG Export Plug-In . SVG Version: 2.1.1 Build 8)  -->
  <defs>
    <style>
      .st0 {
        fill: none;
        stroke: #231f20;
        stroke-miterlimit: 10;
      }
    </style>
  </defs>
  <path class="st0" d="M318.4,390.6c2.1,15-16.4,27.2-30.8,22.2-14.3-4.9-22.1-21.7-20.7-36.8,2.6-28.8,34.8-49.8,63.2-44,28.4,5.8,49.2,34,50.5,62.9s-14.7,57-37.8,74.5c-45.4,34.3-117.6,25-152.8-19.7-21.4-27.2-28.8-62.8-31.8-97.3-1.7-19.9-2.1-40.5,4.6-59.4,14-38.9,55.1-61.5,95.2-71.6,26.2-6.6,53.1-9.4,80-11.5,26.5-2.1,55.5-2.9,76.8,13,14,10.4,22.5,26.6,29.4,42.7,27.5,63.2,39.1,133.2,33.5,201.9-1.6,19.4-4.6,38.9-11.9,56.9-13.4,32.8-40.9,58.8-72.9,74.1-32,15.3-68.2,20.3-103.6,18.6-22.1-1.1-44.2-4.7-64.6-13.2-23.4-9.7-43.9-25.4-61.9-43.3-45.6-45.4-75.4-104.5-95.7-165.5-10.8-32.3-19.2-66.3-16.1-100.2,6.3-69.8,59.1-126.1,114.3-169.2,29.5-23,60.8-44.2,95.7-57.7,34.9-13.5,73.7-18.9,110-10,47,11.6,84.8,45.3,120.5,77.9,32,29.2,65.2,60.1,80.3,100.7,20.6,55.6,3.6,117.5,8.3,176.6,1.5,18.1,5,36.4,1.2,54.1-4.4,20.7-18.3,37.9-28.5,56.5-21.2,38.3-27.7,83.6-50.9,120.7-23.8,38-63.6,64.2-106.2,78.1s-88.2,16.6-133,15.4c-20.7-.5-41.8-1.9-61.4-8.5-17-5.7-32.5-15.1-47.4-24.9-27.2-17.8-53.7-37.5-74.2-62.8-20.5-25.2-34.8-56.7-34.5-89.2"/>
</svg>