<?xml version="1.0" encoding="UTF-8"?>
<svg id="Layer_1" xmlns="http://www.w3.org/2000/svg" version="1.1" viewBox="0 0 360.2553191 181.5531915">
  <!-- Generator: Adobe Illustrator 29.7.1, SVG Export Plug-In . SVG Version: 2.1.1 Build 8)  -->
  <defs>
    <style>
      .st0 {
        fill: #fff;
      }
    </style>
  </defs>
  <g>
    <path class="st0" d="M47.888142,180.5644323c-.1855469,0-.3720703-.0253906-.5551758-.0791016-.6865234-.1982422-1.215332-.7470703-1.3862305-1.4414062L2.7338452,4.1044714c-.1713867-.6933594.0400391-1.425293.5541992-1.9204102.5151367-.4951172,1.2568359-.6777344,1.9404297-.480957l173.2304688,49.8740234c.6865234.1977539,1.2158203.7470703,1.3876953,1.440918s-.0400391,1.4267578-.5546875,1.9223633L49.2748608,180.0058386c-.3779297.3632812-.8769531.5585938-1.3867188.5585938ZM7.4467358,6.5038855l41.5522461,168.2167969,125.0205078-120.2592773L7.4467358,6.5038855Z"/>
    <path class="st0" d="M112.8495678,118.0624792c-.1845703,0-.3710938-.0253906-.5537109-.078125l-86.5673828-24.9443359c-.6865234-.1982422-1.2158203-.7470703-1.3876953-1.4404297-.171875-.6943359.0395508-1.4267578.5541992-1.921875L89.8705639,27.1259558c.5141602-.4960938,1.2573242-.6772461,1.9418945-.4804688.6875.1982422,1.2158203.7480469,1.3867188,1.4423828l21.5917969,87.4951172c.171875.6933594-.0400391,1.4257812-.5546875,1.9208984-.3779297.3632812-.8769531.5585938-1.3867188.5585938ZM30.1654858,90.1562292l79.9135742,23.0263672-19.9326172-80.7700195-59.980957,57.7436523Z"/>
    <path class="st0" d="M69.7782788,104.9843542c-.1850586,0-.371582-.0253906-.5546875-.078125-.6870117-.1982422-1.2158203-.7480469-1.387207-1.4423828l-10.7241211-43.4648438c-.1708984-.6928711.0405273-1.4243164.5546875-1.9194336.5131836-.4951172,1.2539062-.6796875,1.9389648-.4819336l43.0083008,12.3457031c.6875.1972656,1.2167969.7460938,1.3886719,1.4394531.1728516.6938477-.0380859,1.4267578-.5527344,1.9228516l-32.2836914,31.1191406c-.3779297.3632812-.8774414.5595703-1.3881836.5595703ZM61.8236889,62.3959753l9.0649414,36.7397461,27.2900391-26.3041992-36.3549805-10.4355469Z"/>
    <path class="st0" d="M59.0502514,61.5727331c-.184082,0-.3701172-.0253906-.5517578-.0776367l-43.0078125-12.3457031c-.6870117-.1972656-1.2167969-.7460938-1.3891602-1.4394531-.1723633-.6938477.0380859-1.4267578.5527344-1.9228516L46.9379467,14.667948c.5151367-.496582,1.2548828-.6801758,1.9428711-.4814453.6870117.1982422,1.2158203.7480469,1.387207,1.4423828l10.7241211,43.4648438c.1708984.6928711-.0405273,1.4243164-.5546875,1.9194336-.3774414.3637695-.8769531.5595703-1.387207.5595703ZM19.926228,46.2612097l36.3544922,10.4355469-9.0649414-36.7407227-27.2895508,26.3051758Z"/>
    <path class="st0" d="M145.0624584,86.3495886c-.1845703,0-.3701172-.0253906-.5517578-.0776367l-43.0078125-12.3457031c-.6875-.1972656-1.2167969-.7460938-1.3886719-1.4394531-.1728516-.6938477.0380859-1.4267578.5527344-1.9228516l32.2832031-31.1191406c.5146484-.4970703,1.2568359-.6791992,1.9423828-.4814453.6865234.1982422,1.2158203.7480469,1.3867188,1.4423828l10.7246094,43.4648438c.1708984.6928711-.0400391,1.4243164-.5537109,1.9194336-.3779297.3637695-.8769531.5595703-1.3876953.5595703ZM105.938435,71.0380652l36.3544922,10.4355469-9.0654297-36.7407227-27.2890625,26.3051758Z"/>
    <path class="st0" d="M80.5072827,148.4794714c-.184082,0-.3701172-.0253906-.5517578-.0771484l-43.0078125-12.3466797c-.6870117-.1962891-1.2167969-.7451172-1.3891602-1.4394531-.1723633-.6933594.0380859-1.4267578.5527344-1.921875l32.2836914-31.1201172c.5146484-.4960938,1.2539062-.6796875,1.9428711-.4814453.6870117.1982422,1.2158203.7480469,1.387207,1.4423828l10.7241211,43.4648438c.1708984.6933594-.0405273,1.4248047-.5546875,1.9199219-.3774414.3642578-.8769531.5595703-1.387207.5595703ZM41.3832592,133.167948l36.3544922,10.4355469-9.0649414-36.7402344-27.2895508,26.3046875Z"/>
  </g>
  <g>
    <path class="st0" d="M179.1698803,144.1200964c-.6738281,0-1.46875-.0664062-2.3857422-.1972656s-1.8144531-.4287109-2.6933594-.8974609c-.8789062-.4667969-1.6181641-1.2060547-2.2158203-2.2167969-.5996094-1.0097656-.8984375-2.375-.8984375-4.0957031v-17.3955078h-3.9833984c-.7119141,0-1.0664062-.3554688-1.0664062-1.0664062,0-.3730469.1679688-.6914062.5048828-.9541016l7.6318359-7.4628906c.0742188-.0742188.1962891-.1767578.3642578-.3085938.1679688-.1308594.3652344-.1962891.5888672-.1962891.2998047,0,.5517578.1123047.7578125.3369141.2050781.2236328.3085938.4863281.3085938.7851562v4.4892578h6.3408203c.6357422,0,1.1591797.2060547,1.5712891.6171875.4111328.4121094.6171875.9355469.6171875,1.5712891,0,.5986328-.2060547,1.1132812-.6171875,1.5429688-.4121094.4306641-.9355469.6455078-1.5712891.6455078h-6.3408203v16.9462891c0,1.0859375.2050781,1.8710938.6171875,2.3564453.4111328.4873047.9072266.7773438,1.4873047.8701172.5791016.09375,1.09375.140625,1.5429688.140625.8974609,0,1.5615234-.0839844,1.9921875-.2529297.4296875-.1679688.8876953-.2519531,1.375-.2519531.5234375,0,.9902344.1875,1.4023438.5605469.4111328.375.6171875.8613281.6171875,1.4589844,0,.8613281-.4296875,1.515625-1.2900391,1.9638672-.6738281.2998047-1.3945312.5419922-2.1601562.7294922-.7675781.1875-1.5996094.28125-2.4970703.28125Z"/>
    <path class="st0" d="M193.2528881,143.8388464c-.7109375,0-1.3095703-.2431641-1.7958984-.7294922-.4863281-.4853516-.7294922-1.0839844-.7294922-1.7949219v-36.4189453c0-.7470703.2431641-1.3642578.7294922-1.8515625.4863281-.4853516,1.0849609-.7294922,1.7958984-.7294922.7099609,0,1.3183594.2441406,1.8242188.7294922.5048828.4873047.7568359,1.1044922.7568359,1.8515625v14.6464844c1.1972656-1.3095703,2.609375-2.4970703,4.2373047-3.5634766,1.6269531-1.0664062,3.6933594-1.5996094,6.2001953-1.5996094,2.1328125,0,3.9462891.4970703,5.4433594,1.4873047,1.4951172.9921875,2.6367188,2.3203125,3.4228516,3.984375.7851562,1.6650391,1.1787109,3.5068359,1.1787109,5.5273438v15.9365234c0,.7109375-.2529297,1.3095703-.7578125,1.7949219-.5048828.4863281-1.1132812.7294922-1.8242188.7294922s-1.3095703-.2431641-1.7949219-.7294922c-.4873047-.4853516-.7294922-1.0839844-.7294922-1.7949219v-15.3759766c0-2.1318359-.4775391-3.8056641-1.4316406-5.0214844-.953125-1.2158203-2.5341797-1.8242188-4.7412109-1.8242188-2.0205078,0-3.7792969.5429688-5.2744141,1.6269531-1.4970703,1.0859375-2.8056641,2.3388672-3.9287109,3.7597656v16.8349609c0,.7109375-.2519531,1.3095703-.7568359,1.7949219-.5058594.4863281-1.1142578.7294922-1.8242188.7294922Z"/>
    <path class="st0" d="M227.4267163,143.8388464c-.7109375,0-1.3095703-.2431641-1.7958984-.7294922-.4863281-.4853516-.7294922-1.0839844-.7294922-1.7949219v-24.0732422c0-.7099609.2431641-1.3183594.7294922-1.8242188.4863281-.5048828,1.0849609-.7568359,1.7958984-.7568359.7099609,0,1.3183594.2519531,1.8242188.7568359.5048828.5058594.7568359,1.1142578.7568359,1.8242188v2.4130859c1.0107422-1.3466797,2.2451172-2.5625,3.7041016-3.6474609s3.1601562-1.6279297,5.1064453-1.6279297h.2802734c.7099609,0,1.2998047.2441406,1.7675781.7294922.4677734.4873047.7011719,1.0859375.7011719,1.7958984,0,.7109375-.2431641,1.2910156-.7294922,1.7392578-.4863281.4492188-1.1035156.6738281-1.8515625.6738281h-.2802734c-1.8339844,0-3.4990234.4580078-4.9941406,1.375-1.4970703.9169922-2.7314453,2.1035156-3.7041016,3.5625v17.0595703c0,.7109375-.2519531,1.3095703-.7568359,1.7949219-.5058594.4863281-1.1142578.7294922-1.8242188.7294922Z"/>
    <path class="st0" d="M258.344685,144.1200964c-4.5644531,0-8.1269531-1.2998047-10.6894531-3.9003906-2.5625-2.5996094-3.84375-6.2568359-3.84375-10.9707031,0-2.5429688.4677734-4.9462891,1.4033203-7.2099609.9345703-2.2636719,2.3935547-4.1054688,4.3769531-5.5273438,1.9824219-1.421875,4.5253906-2.1328125,7.6308594-2.1328125,2.8808594,0,5.3115234.6650391,7.2949219,1.9921875,1.9824219,1.328125,3.4882812,3.0585938,4.5175781,5.1904297,1.0283203,2.1328125,1.5429688,4.453125,1.5429688,6.9580078,0,.7119141-.234375,1.3105469-.7011719,1.7958984-.46875.4873047-1.0947266.7294922-1.8798828.7294922h-19.0224609c.2988281,2.5068359,1.2529297,4.5175781,2.8613281,6.0322266,1.6083984,1.515625,3.9277344,2.2724609,6.9580078,2.2724609,1.6835938,0,3.1044922-.1582031,4.2646484-.4765625,1.1591797-.3173828,2.2626953-.7382812,3.3105469-1.2626953.2998047-.1484375.6357422-.2246094,1.0107422-.2246094.5976562,0,1.1220703.2060547,1.5712891.6171875.4482422.4121094.6728516.9355469.6728516,1.5712891,0,.4492188-.140625.8515625-.4208984,1.2070312s-.6269531.6445312-1.0380859.8691406c-1.234375.7109375-2.5722656,1.3007812-4.0117188,1.7675781-1.4404297.4677734-3.3769531.7021484-5.8085938.7021484ZM248.9745678,126.8925573h16.5527344c-.1113281-1.9443359-.6083984-3.515625-1.4863281-4.7138672-.8798828-1.1962891-1.9365234-2.0761719-3.1708984-2.6367188-1.234375-.5615234-2.4501953-.8417969-3.6474609-.8417969s-2.4130859.2802734-3.6474609.8417969c-1.234375.5605469-2.2822266,1.4404297-3.1425781,2.6367188-.8603516,1.1982422-1.3466797,2.7695312-1.4580078,4.7138672Z"/>
    <path class="st0" d="M290.1054272,144.1200964c-4.5644531,0-8.1269531-1.2998047-10.6894531-3.9003906-2.5625-2.5996094-3.84375-6.2568359-3.84375-10.9707031,0-2.5429688.4677734-4.9462891,1.4033203-7.2099609.9345703-2.2636719,2.3935547-4.1054688,4.3769531-5.5273438,1.9824219-1.421875,4.5253906-2.1328125,7.6308594-2.1328125,2.8808594,0,5.3115234.6650391,7.2949219,1.9921875,1.9824219,1.328125,3.4882812,3.0585938,4.5175781,5.1904297,1.0283203,2.1328125,1.5429688,4.453125,1.5429688,6.9580078,0,.7119141-.234375,1.3105469-.7011719,1.7958984-.46875.4873047-1.0947266.7294922-1.8798828.7294922h-19.0224609c.2988281,2.5068359,1.2529297,4.5175781,2.8613281,6.0322266,1.6083984,1.515625,3.9277344,2.2724609,6.9580078,2.2724609,1.6835938,0,3.1044922-.1582031,4.2646484-.4765625,1.1591797-.3173828,2.2626953-.7382812,3.3105469-1.2626953.2998047-.1484375.6357422-.2246094,1.0107422-.2246094.5976562,0,1.1220703.2060547,1.5712891.6171875.4482422.4121094.6728516.9355469.6728516,1.5712891,0,.4492188-.140625.8515625-.4208984,1.2070312s-.6269531.6445312-1.0380859.8691406c-1.234375.7109375-2.5722656,1.3007812-4.0117188,1.7675781-1.4404297.4677734-3.3769531.7021484-5.8085938.7021484ZM280.73531,126.8925573h16.5527344c-.1113281-1.9443359-.6083984-3.515625-1.4863281-4.7138672-.8798828-1.1962891-1.9365234-2.0761719-3.1708984-2.6367188-1.234375-.5615234-2.4501953-.8417969-3.6474609-.8417969s-2.4130859.2802734-3.6474609.8417969c-1.234375.5605469-2.2822266,1.4404297-3.1425781,2.6367188-.8603516,1.1982422-1.3466797,2.7695312-1.4580078,4.7138672Z"/>
    <path class="st0" d="M311.6532788,143.7265417c-.8613281,0-1.5996094-.3085938-2.2167969-.9257812s-.9257812-1.3554688-.9257812-2.2158203v-.3369141c0-.8603516.3085938-1.5996094.9257812-2.2167969s1.3554688-.9257812,2.2167969-.9257812h.5605469c.8603516,0,1.5996094.3085938,2.2167969.9257812s.9257812,1.3564453.9257812,2.2167969v.3369141c0,.8603516-.3085938,1.5986328-.9257812,2.2158203s-1.3564453.9257812-2.2167969.9257812h-.5605469Z"/>
    <path class="st0" d="M321.6972241,157.0263464c-1.3466797,0-2.5244141-.1689453-3.5351562-.5058594-.9716797-.2998047-1.4589844-.9726562-1.4589844-2.0195312,0-.5615234.2060547-1.0576172.6171875-1.4873047.4121094-.4306641.9169922-.6455078,1.515625-.6455078.2617188,0,.5234375.0283203.7851562.0849609.2617188.0556641.5615234.0839844.8984375.0839844.9716797,0,1.7851562-.1787109,2.4404297-.5332031.6542969-.3564453.9824219-1.2822266.9824219-2.7773438v-31.9296875c0-.7480469.2421875-1.3652344.7294922-1.8515625.4853516-.4853516,1.0839844-.7294922,1.7949219-.7294922.7480469,0,1.3652344.2441406,1.8525391.7294922.4853516.4863281.7294922,1.1035156.7294922,1.8515625v32.0410156c0,2.1699219-.5527344,3.9931641-1.6552734,5.4716797-1.1044922,1.4775391-3.0029297,2.2167969-5.6962891,2.2167969ZM326.3554272,109.1044714c-.7861328,0-1.4589844-.2802734-2.0205078-.8417969-.5615234-.5605469-.8417969-1.234375-.8417969-2.0195312v-.2246094c0-.7861328.2802734-1.4589844.8417969-2.0205078s1.234375-.8417969,2.0205078-.8417969h.3359375c.7861328,0,1.4589844.2802734,2.0205078.8417969.5605469.5615234.8417969,1.234375.8417969,2.0205078v.2246094c0,.7851562-.28125,1.4589844-.8417969,2.0195312-.5615234.5615234-1.234375.8417969-2.0205078.8417969h-.3359375Z"/>
    <path class="st0" d="M347.1718334,144.1200964c-2.0576172,0-3.9189453-.2246094-5.5830078-.6738281-1.6650391-.4492188-3.2080078-1.0664062-4.6289062-1.8515625-.6367188-.4492188-.9541016-1.0664062-.9541016-1.8515625,0-.5615234.2050781-1.0751953.6171875-1.5439453.4111328-.4667969.9345703-.7011719,1.5712891-.7011719.3359375,0,.6728516.0751953,1.0097656.2246094,1.0097656.4492188,2.1230469.8417969,3.3388672,1.1787109,1.2148438.3369141,2.6464844.5048828,4.2929688.5048828,2.1689453,0,3.75-.3457031,4.7412109-1.0380859s1.4873047-1.6738281,1.4873047-2.9462891c0-.8222656-.4023438-1.4589844-1.2070312-1.9072266-.8046875-.4492188-1.8515625-.8330078-3.1416016-1.1503906-1.2910156-.3173828-2.6474609-.6542969-4.0683594-1.0107422-1.4228516-.3544922-2.7783203-.8417969-4.0683594-1.4589844-1.2910156-.6171875-2.3388672-1.4589844-3.1425781-2.5244141-.8046875-1.0664062-1.2060547-2.4414062-1.2060547-4.125,0-2.5429688.9160156-4.6572266,2.7490234-6.3408203s4.5634766-2.5253906,8.1923828-2.5253906c1.5341797,0,2.9833984.1318359,4.3496094.3935547,1.3652344.2617188,2.6269531.5986328,3.7871094,1.0097656.5234375.1494141.9257812.4404297,1.2070312.8701172.2802734.4296875.4208984.8505859.4208984,1.2617188,0,.5996094-.2158203,1.1230469-.6455078,1.5712891-.4306641.4492188-.9638672.6738281-1.5996094.6738281-.1494141,0-.2802734-.0087891-.3925781-.0283203-.1123047-.0185547-.2246094-.0458984-.3369141-.0839844-.8974609-.2988281-1.8798828-.5419922-2.9453125-.7294922-1.0664062-.1865234-2.2167969-.2802734-3.4511719-.2802734-2.0585938,0-3.6474609.3740234-4.7705078,1.1220703-1.1220703.7490234-1.6826172,1.6835938-1.6826172,2.8056641,0,.9726562.4013672,1.7207031,1.2060547,2.2441406.8037109.5244141,1.8515625.9453125,3.1425781,1.2626953,1.2900391.3183594,2.6552734.6455078,4.0966797.9824219,1.4394531.3369141,2.8056641.8134766,4.0957031,1.4306641,1.2910156.6171875,2.3378906,1.46875,3.1425781,2.5527344.8037109,1.0859375,1.2060547,2.5449219,1.2060547,4.3769531,0,2.2822266-.9072266,4.2373047-2.7207031,5.8642578-1.8154297,1.6269531-4.5175781,2.4414062-8.109375,2.4414062Z"/>
  </g>
</svg>