<?xml version="1.0" encoding="UTF-8"?>
<svg id="vlpa" xmlns="http://www.w3.org/2000/svg" version="1.1" xmlns:cc="http://creativecommons.org/ns#" xmlns:dc="http://purl.org/dc/elements/1.1/" xmlns:rdf="http://www.w3.org/1999/02/22-rdf-syntax-ns#" viewBox="0 0 1082 452.2999878">
  <!-- Generator: Adobe Illustrator 29.7.1, SVG Export Plug-In . SVG Version: 2.1.1 Build 8)  -->
  <defs>
    <style>
      .st0 {
        fill: #fff;
      }
    </style>
  </defs>
  <g>
    <polygon class="st0" points="1049.4000015 294.8000183 1049.4000015 300.3000183 1041.4000015 300.3000183 1041.4000015 319.4000244 1035.4000015 319.4000244 1035.4000015 300.3000183 1027.4000015 300.3000183 1027.4000015 294.8000183 1049.4000015 294.8000183"/>
    <polygon class="st0" points="1073.4000015 319.4000244 1073.4000015 300.7000122 1073.4000015 300.7000122 1068.4000015 319.4000244 1063.4000015 319.4000244 1057.4000015 300.7000122 1057.4000015 300.7000122 1057.4000015 319.4000244 1051.4000015 319.4000244 1051.4000015 294.8000183 1061.4000015 294.8000183 1065.4000015 311.2000122 1069.4000015 294.8000183 1079.4000015 294.8000183 1079.4000015 319.4000244 1073.4000015 319.4000244"/>
  </g>
  <g>
    <path class="st0" d="M798.660559,318c-8.9622002,3.7999878-17.9244003,5.7000122-26.9861562,5.7000122-14.3395446,0-27.2849448-2.5-38.736645-7.5s-21.1109725-11.8999939-28.9777562-20.7000122-13.9412003-19.1000061-18.1235725-31-6.273528-24.7000122-6.273528-38.3999939c0-14.1000061,2.0911557-27.1000061,6.273528-39.1999969s10.1571723-22.6000061,18.023956-31.5c7.8668445-9,17.526056-16,28.9777562-21.1000061s24.2975448-7.6999969,38.736645-7.6999969c9.6592723,0,18.9202003,1.5,27.8824005,4.3999939s17.1277725,7.1999969,24.3971004,12.8000031,13.2441281,12.6000061,17.9244003,20.8999939,7.5680558,17.8000031,8.6634723,28.5h-39.234545c-2.4895-10.5-7.1697723-18.3999939-14.1403724-23.6999969s-15.4349003-7.8999939-25.4924562-7.8999939c-9.260928,0-17.1277725,1.8000031-23.6004726,5.3999939s-11.7504281,8.3999939-15.7336281,14.5-6.9706001,13-8.763028,20.6999969-2.7882279,15.6999969-2.7882279,24c0,7.9000092.8962443,15.5999908,2.7882279,23.0999908,1.7924279,7.5,4.7798279,14.2000122,8.763028,20.2000122s9.260928,10.7999878,15.7336281,14.3999939,14.3395446,5.3999939,23.6004726,5.3999939c13.6424724,0,24.1979283-3.5,31.6664284-10.3999939s11.7504281-16.8999939,13.0449559-30.1000061h-41.4252565v-31.1000061h78.5686458v101.6999817h-26.1895283l-4.1823722-21.2999878c-7.269328,9.5-15.4349003,16.1000061-24.3971004,19.8999939v.0000305Z"/>
    <path class="st0" d="M920.2477169,131.3000183v153.1000061h91.3148131v34.8999939h-132.4414024v-188h41.1265894Z"/>
    <path class="st0" d="M725.8675412,342.7000122c-62.8349568,38.3999939-157.037675,60.2000122-262.094577,60.2000122-189.3015896,0-342.6547924-79.1000061-342.6547924-176.8000031,0-97.5999908,153.4527889-176.8000031,342.6547924-176.8000031,105.4552463,0,199.9566315,22.3000031,262.7916491,60.8999939C658.0535842,45.5000153,534.9726655.1000137,394.3657212.0000153,178.8746033.0000153,4.2112861,101.2000122,4.2112861,226.1000214s174.6633171,226.1999969,390.0548793,226.1999969c140.1090443,0,262.7916188-45.2999878,331.6014365-109.6000061h-.0000608Z"/>
  </g>
  <g>
    <polygon class="st0" points="220.9000015 273.6000061 184.5999985 116.6000061 150.2999954 116.6000061 204.1000137 321.3000183 236.2999954 321.3000183 281.6000137 160.5000153 326.2999954 321.3000183 358.6000137 321.3000183 414.2999954 116.6000061 378.0000076 116.6000061 341.6999893 273.6000061 297.9000015 116.6000061 264.6999893 116.6000061 220.9000015 273.6000061"/>
    <path class="st0" d="M504.9000015,202.8000183c-5-7.1000061-11.2999878-12.5-18.7000122-16.1999969-7.5999756-3.8000031-16.4000244-5.6999969-26.2000122-5.6999969-11,0-20.8999939,2-29.5,5.8999939-8.1000061,3.6999969-15,9.1999969-20.6000061,16.3000031-10.2999878,13.1000061-15.7000122,31.5999908-15.7000122,53.5000153,0,9.7000122,1.3999939,18.8999939,4.1000061,27.1000061,2.7000122,8.2999878,6.7999878,15.6000061,12,21.7000122,11,12.7999878,26.7000122,19.6000061,45.4000244,19.6000061,9.7999878,0,17.7999878-1,24.5-3.1000061,5.7999878-1.7999878,9.7000122-4.2000122,12.9000244-6.2999878,4.0999756-2.7000122,7.7999878-6,11.2000122-9.7999878,2.7999878-3.2999878,5.2999878-6.8999939,7.5-10.7999878,3.7999878-7,5.7000122-13.6000061,6.0999756-17l.2999878-2.2999878h-26.7000122l-.0999756,1.8999939c-.7000122,8.7000122-12.0999756,24.2000122-32.4000244,24.2000122-29,0-35.8999939-21-36.3999939-39.5h97.1999817v-2.1000061c0-11.8999939-1.2000122-22.7999878-3.5999756-32.3000031-2.7000122-9.8999939-6.4000244-18.3000031-11.2999878-25.1000061v-.0000763ZM456.9000015,204.9000244c21.5,0,33,11.6000061,35.0999756,35.3999939h-69.6000061c1.1000061-19.3000031,16.3999939-35.3999939,34.5000305-35.3999939Z"/>
    <path class="st0" d="M654.1000137,222.4000092c-2.5999756-8.3000031-6.4000244-15.6000061-11.2999878-21.6999969-5.0999756-6.3000031-11.2999878-11.1999969-18.4000244-14.6000061-7.4000244-3.5-15.7000122-5.3000031-24.7000122-5.3000031-8.2999878.1000061-15.7999878,1.8999939-22.4000244,5.3999939-5.5,2.8000031-10.4000244,6.8000031-14.5999756,11.8000031v-62.8000031h-26.5999756v186.0000153h25.2999878v-12.7000122c2.2000122,2.8999939,5.0999756,6,8.9000244,8.7000122,7.2000122,5.2000122,16.0999756,7.7999878,26.4000244,7.7999878,11.0999756,0,21.0999756-2.5,29.5-7.3999939,7.5-4.3999939,13.9000244-10.7000122,18.9000244-18.7000122,4.4000244-7,7.7000122-15.2999878,9.9000244-24.6000061,1.9000244-8,2.9000244-16.7999878,2.9000244-25.3999939.0999756-9.2999878-1.2000122-18.3000031-3.7999878-26.5l-.0001221.0000153ZM630.1999893,252.6000061c0,14.6000061-2.9000244,26.7999878-8.5,35.3999939-5.9000244,9.1000061-14.5,13.7000122-25.5,13.7000122-15.9000244,0-34.5-11.1000061-34.5-42.5,0-15,1.9000244-26.6000061,5.7000122-35.3999939,5.5-12.6999969,14.7999878-18.8000031,28.2999878-18.8000031,14.4000244,0,24.0999756,5.6000061,29.5,17.3000031,4.4000244,9.6000061,5,21.2999878,5,30.2999878Z"/>
  </g>
</svg>