<?xml version="1.0" encoding="UTF-8"?>
<svg id="Logo" xmlns="http://www.w3.org/2000/svg" version="1.1" viewBox="0 0 2023.8510638 459.5744681">
  <!-- Generator: Adobe Illustrator 29.7.1, SVG Export Plug-In . SVG Version: 2.1.1 Build 8)  -->
  <defs>
    <style>
      .st0, .st1 {
        fill: #fff;
      }

      .st1 {
        fill-rule: evenodd;
      }
    </style>
  </defs>
  <path id="Triangle_1" class="st1" d="M30.8549995,12.1289395l245.1500053,408.9300003L521.1450195,12.1289472H30.855011l-.0000114-.0000076Z"/>
  <path id="Triangle_2" class="st1" d="M528.7600098,16.2589368l-118.7799988,198.1299896h237.5600281l-118.7800293-198.1300049v.0000153Z"/>
  <path id="Triangle_3" class="st1" d="M409.980011,222.9289349l118.7799988,198.1300049,118.7800293-198.1300049h-237.5600281Z"/>
  <path id="Triangle_4" class="st1" d="M599.5300293,117.5289411l55.5960083,92.7380066,55.7540283-92.7380066h-111.3500366Z"/>
  <path id="Triangle_5" class="st1" d="M655.1199951,16.2489346l-55.5999756,92.7419968h111.3599854l-55.7559814-92.7419968h-.0040283Z"/>
  <path id="WebGPU" class="st0" d="M896.0814411,305.912103c.3124925-19.2947687-4.2917985-38.3514656-13.3793627-55.3750538-8.7834487-16.1861112-21.9928777-29.5375007-38.0841491-38.4934635-17.3859688-9.5612956-36.9784581-14.3880076-56.8161994-13.9969431-20.3239821-.4008252-40.402039,4.4983256-58.2572701,14.2150821-16.7916496,9.37975-30.461964,23.480396-39.3169165,40.5546203-9.336182,17.5678697-14.0026275,38.0155249-13.9994114,61.3429283.003291,23.3274033,4.8069849,43.8445055,14.4111566,61.5512691,9.073802,17.1578448,22.8566077,31.3692245,39.7286617,40.9639346,17.5409436,9.7789296,37.3540026,14.7503882,57.4337798,14.4111566,26.8958991,0,49.4030656-6.7930103,67.5215744-20.379031,17.7247891-13.0176552,30.499511-31.6724425,36.2288649-52.9045826h-40.3462421c-4.1425082,12.2931183-12.1600584,22.9112453-22.8495022,30.2609531-10.8475599,7.5503448-24.3658165,11.3238529-40.5546203,11.3205994-18.5890427.440055-36.6393386-6.2640991-50.4341115-18.7320503-13.862163-12.486388-21.4786637-29.8467396-22.8495022-52.0810923h180.3280145c.7967887-7.5218479,1.2057664-15.0797096,1.2254375-22.6436296h0l.0097981-.0146972ZM857.3796368,298.0889069h-142.4497006c1.9166159-21.4043177,9.5331166-38.1470515,22.8495022-50.2282389,13.1958912-12.0340293,30.5209023-18.5214282,48.3753855-18.1144325,12.4697836-.1594998,24.805161,2.5886843,36.0278914,8.0266004,10.6557861,5.1856334,19.5906194,13.333364,25.7341868,23.46712,6.5398301,11.1558639,9.8199546,23.9222461,9.467746,36.8489135h0l-.0050112.0000374ZM982.9501779,243.7432161v-121.0438122h-37.4664191v304.6633575h37.4664939v-41.5815524c7.887557,13.6510173,19.3456665,24.8947651,33.1432068,32.5231208,15.6392118,8.756373,33.3383464,13.1638042,51.2576019,12.7641758,39.2494516.5391207,75.3685926-21.3565238,93.0449895-56.4044542,9.5718603-18.8634647,14.3783217-39.7840472,13.9994114-60.9336513,0-23.0561975-4.6665203-43.2979801-13.9994114-60.7253479-8.7508382-16.8100117-22.0081358-30.8523179-38.2875909-40.5546203-16.594715-9.7121005-35.5317777-14.6951523-54.7574734-14.4086883-17.7128968-.3112023-35.1900404,4.093181-50.6399467,12.7617076-14.0232709,7.7265238-25.690357,19.1090907-33.7607872,32.9372968h0l-.0000748.0024682ZM1136.1053283,313.7328682c.3829492,15.6552179-3.155666,31.1575927-10.2937046,45.0960837-6.3063208,12.1796547-15.943103,22.3170756-27.7880511,29.2315901-11.7029128,6.73482-24.9940925,10.2169278-38.4958943,10.0853638-13.367246.0972332-26.5169888-3.3850242-38.0841491-10.0853638-11.8762871-6.9405804-21.5732791-17.066296-27.9938863-29.2315901-13.9998601-27.9903709-13.9998601-60.9396349,0-88.9300058,6.4227762-12.1637608,16.1191699-22.2889154,27.9938863-29.2315901,11.5680579-6.6980958,24.7172023-10.1802036,38.0841491-10.0853638,13.4756236-.1342192,26.7502737,3.2725328,38.4958943,9.8794912,11.8242299,6.7565479,21.4669209,16.7572066,27.7880511,28.8198449,7.1203122,13.7181456,10.6609469,29.012217,10.2937046,44.4637688h0v-.0122289ZM1486.0559824,223.5626904c-9.7442623-26.2501772-27.7271681-48.6389997-51.2576019-63.8158864-23.4664094-15.090854-50.4332139-22.6387305-80.9008623-22.6436296-25.5166836-.2849681-50.6556536,6.1771128-72.8717937,18.7320316-21.81165,12.3430812-39.8241746,30.4268105-52.0810923,52.2869649-12.9397939,23.0517472-19.5456677,49.1184715-19.1462637,75.5506805-.4173548,26.368222,6.1909125,52.3724179,19.1462637,75.3423396,12.300897,21.7736916,30.307438,39.7801579,52.0810923,52.0810923,22.2147938,12.558191,47.3546613,19.0204963,72.8717937,18.7320503,24.0059789.312156,47.6867501-5.5723597,68.7543417-17.0850321,20.2476914-11.0757587,37.3780865-27.0749578,49.8091264-46.5200639,12.5738979-19.484523,20.2050584-41.7421368,22.231847-64.8427998v-28.8198449h-154.3804383v30.4668257h114.4558891c-3.0211102,28.5477789-13.5884141,51.1914459-31.7020612,67.9308888-18.1136471,16.7394803-41.1689845,25.1108098-69.1661617,25.1141007-18.9498526.2814527-37.6340342-4.4780001-54.139893-13.7910705-16.105258-9.2407439-29.2435572-22.8798689-37.8757709-39.3193847-9.2005043-17.0139771-13.7984378-36.7753529-13.7935014-59.2842023.0047869-22.508812,4.6027204-42.3396722,13.7935014-59.4925431,8.590179-16.5228372,21.7338634-30.2389821,37.8757709-39.5252573,16.5067563-9.3108827,35.1903396-14.0701859,54.139893-13.7910705,18.5066188-.4038169,36.7577387,4.3728948,52.693811,13.7910705,15.1354691,9.2461291,27.1757811,22.7889184,34.5865962,38.9027404h44.875514ZM1735.9642972,224.3861808c0-24.7015515-8.4408887-44.875514-25.3223668-60.5219061-16.8814781-15.6463921-41.5152843-23.4687468-73.9012688-23.46712h-92.6430424v286.9656066h37.4641005v-119.8061084h55.1692186c33.4836726,0,58.3921251-7.8909975,74.7247592-23.6729926,16.3326341-15.781995,24.5021674-35.6128552,24.5087493-59.4925431h0l-.0001496-.0049365ZM1636.7406616,276.6731456h-55.1692186v-105.387622h55.1692186c40.6175975-.0000187,60.9287148,17.7034913,60.9336513,53.1104552,0,16.7443793-4.9401944,29.644158-14.8204335,38.6992987-9.8803887,9.0551781-25.2514613,13.5843752-46.1132178,13.5876662h0v-.0097981ZM1781.6609082,140.4045033v181.1515236c0,23.8780424,4.7342096,43.9833994,14.2027783,60.3160335,8.8977351,15.7960939,22.398041,28.5055573,38.7018043,36.4347001,34.912851,15.9208141,75.0137662,15.9208515,109.9266172,0,16.3332325-7.9620526,29.8902328-20.6581651,38.9052461-36.4347001,9.6042465-16.3277351,14.4078656-36.4330546,14.4111566-60.3160335v-181.1539544h-37.4664939v181.5632688c0,25.5266687-6.2438672,44.4654143-18.7320503,56.816162-12.4881831,12.3507477-29.7113237,18.5261777-51.6694219,18.5261777-22.2309495,0-39.5914133-6.1754299-52.0810923-18.5261777-12.489679-12.3507477-18.7335461-31.2894933-18.7320503-56.8161994v-181.5632314h-37.4664939v.0024308Z"/>
</svg>