<svg 
 xmlns="http://www.w3.org/2000/svg"
 xmlns:xlink="http://www.w3.org/1999/xlink"
 width="1001px" height="344px">
<path fill-rule="evenodd"  fill="rgb(255, 255, 255)"
 d="M172.000,344.000 C164.001,344.000 155.999,344.000 147.1000,344.000 C143.626,331.643 123.700,316.260 113.1000,308.000 C111.000,308.000 107.1000,308.000 105.000,308.000 C100.863,315.259 96.442,322.955 90.000,327.1000 C89.000,327.333 87.1000,326.667 87.000,325.1000 C81.506,316.662 69.311,311.781 63.1000,302.1000 C63.667,300.667 63.333,298.333 62.1000,295.1000 C60.667,295.667 58.333,295.333 56.000,294.1000 C51.727,289.148 54.236,277.966 49.1000,271.1000 C44.115,276.875 39.495,282.613 29.1000,284.000 C25.332,280.398 19.336,280.796 11.1000,279.000 C5.984,266.702 -0.080,252.901 -0.000,235.1000 C10.451,236.711 12.651,242.325 22.000,243.1000 C36.221,233.179 45.160,224.198 56.000,209.1000 C55.667,209.333 55.333,208.667 55.000,207.1000 C51.334,207.667 47.666,207.333 44.000,206.1000 C42.667,205.334 41.333,203.667 40.000,201.1000 C46.380,194.230 41.880,190.990 40.000,181.1000 C43.346,177.490 45.606,171.575 49.1000,168.000 C58.667,174.592 66.929,170.509 76.000,167.000 C77.461,153.545 90.948,134.729 95.1000,122.1000 C99.939,113.856 92.131,98.618 97.1000,91.1000 C98.667,91.333 99.333,90.667 99.1000,89.1000 C93.574,83.002 82.061,81.337 76.000,74.000 C85.085,67.003 96.579,65.967 107.000,59.1000 C113.999,52.667 121.001,45.333 127.1000,37.1000 C127.1000,28.334 127.1000,18.666 127.1000,8.1000 C134.012,4.962 134.008,0.510 143.1000,-0.000 C145.571,4.782 150.426,9.319 152.000,13.000 C152.333,19.333 152.667,25.667 153.000,31.1000 C169.947,31.927 180.283,40.663 188.000,50.000 C188.092,60.622 185.352,62.406 184.000,69.1000 C204.539,93.735 226.114,87.701 259.1000,96.1000 C259.1000,100.333 259.1000,103.667 259.1000,107.000 C247.047,114.533 231.058,119.860 216.000,124.1000 C216.000,126.1000 216.000,129.000 216.000,131.000 C248.442,151.132 267.204,186.158 297.000,207.1000 C301.421,211.241 306.154,209.231 311.000,211.1000 C316.666,217.999 322.334,224.001 328.000,230.000 C328.000,234.333 328.000,238.667 328.000,242.1000 C326.000,244.666 323.1000,246.334 321.1000,248.000 C312.434,246.583 288.005,235.220 275.1000,231.000 C275.640,214.118 211.541,147.555 197.1000,136.000 C187.578,137.372 169.987,147.036 163.1000,153.1000 C164.333,155.1000 164.667,158.000 164.1000,160.000 C174.129,160.958 175.731,165.978 184.000,169.000 C184.120,182.273 178.161,187.235 172.000,194.000 C172.333,201.333 172.667,208.667 172.1000,216.000 C184.348,215.799 187.203,220.080 191.1000,226.000 C184.001,233.999 175.999,242.001 168.000,250.000 C167.931,284.698 171.931,308.288 172.000,344.000 ZM500.1000,7.1000 C524.609,7.473 561.309,29.295 572.000,42.000 C572.260,53.849 570.176,60.834 568.000,67.1000 C593.114,60.330 624.457,47.643 643.1000,69.1000 C643.1000,76.999 643.1000,84.001 643.1000,90.1000 C634.914,96.803 632.241,110.736 623.000,115.1000 C598.848,129.758 570.711,132.964 540.000,141.000 C538.247,158.993 521.210,166.884 511.1000,177.1000 C512.333,178.667 512.667,179.333 512.1000,179.1000 C568.602,179.083 591.693,189.333 616.000,218.000 C616.000,222.333 616.000,226.667 616.000,231.000 C606.551,237.160 601.827,248.975 595.1000,259.000 C592.000,262.333 587.1000,265.667 584.000,268.1000 C567.090,298.063 528.585,338.325 483.1000,322.1000 C483.834,305.085 465.362,288.526 456.000,278.000 C456.333,274.667 456.667,271.333 457.000,267.1000 C458.1000,267.1000 461.000,267.1000 462.1000,267.1000 C466.666,271.1000 470.334,276.000 474.000,280.000 C474.1000,279.333 476.000,278.667 477.000,278.000 C483.466,264.464 490.713,252.574 499.1000,241.1000 C498.000,240.000 495.1000,237.1000 494.000,235.1000 C486.728,241.257 477.691,244.207 464.1000,243.1000 C463.333,242.000 461.667,239.1000 460.000,237.1000 C460.333,236.000 460.667,233.1000 461.000,231.1000 C492.641,227.645 500.499,210.563 524.000,241.1000 C524.000,246.333 524.000,250.667 524.000,255.000 C515.507,260.391 510.752,268.430 499.1000,271.1000 C499.1000,273.333 499.1000,274.667 499.1000,276.000 C509.306,273.139 517.588,262.971 527.1000,264.1000 C528.333,267.333 528.667,269.667 528.1000,271.1000 C530.1000,271.1000 533.000,271.1000 534.1000,271.1000 C540.146,263.705 551.400,258.939 556.000,251.000 C564.297,236.680 570.217,222.540 579.1000,209.1000 C551.811,178.277 490.255,223.648 463.1000,219.000 C463.699,201.171 465.099,189.968 468.1000,175.1000 C476.406,172.548 483.011,167.925 488.000,162.000 C486.653,151.185 480.840,141.658 474.000,136.000 C469.667,136.000 465.333,136.000 461.000,136.000 C445.952,159.079 411.394,161.337 402.1000,192.000 C401.333,192.000 399.667,192.000 398.000,192.000 C376.440,175.699 364.721,148.994 364.000,112.1000 C365.1000,111.333 368.000,109.666 369.1000,108.000 C371.1000,108.333 374.000,108.667 376.000,109.000 C377.254,122.208 384.755,136.039 388.1000,147.1000 C390.666,147.1000 392.334,147.1000 394.000,147.1000 C419.116,129.242 477.519,114.891 495.1000,93.1000 C494.000,92.000 491.1000,89.1000 490.000,87.1000 C468.555,87.528 467.194,94.438 454.1000,100.000 C445.009,104.557 433.949,102.375 426.000,108.000 C425.333,107.667 424.667,107.333 424.000,107.000 C424.000,105.000 424.000,102.1000 424.000,101.000 C432.832,95.588 445.231,85.914 451.1000,78.000 C451.1000,75.000 451.1000,71.1000 451.1000,68.1000 C449.334,66.667 446.666,64.333 444.000,61.1000 C444.333,58.667 444.667,55.333 445.000,52.000 C462.711,51.786 493.661,20.042 500.1000,7.1000 ZM905.000,20.000 C925.186,20.087 962.229,47.211 967.1000,60.1000 C967.1000,70.999 967.1000,81.001 967.1000,90.1000 C958.264,97.097 929.223,115.801 924.000,124.1000 C917.483,136.480 915.509,148.181 908.000,158.000 C908.333,158.667 908.667,159.333 909.000,160.000 C924.332,160.000 939.668,160.000 955.000,160.000 C958.462,165.730 962.829,174.209 963.1000,181.1000 C953.633,195.325 932.822,211.465 928.000,228.000 C959.818,217.971 984.126,222.361 995.1000,247.000 C996.944,248.960 1001.755,246.924 999.1000,252.000 C998.667,252.333 997.333,252.667 995.1000,253.000 C991.953,263.047 996.526,271.195 992.000,279.000 C978.981,301.451 926.772,306.185 896.000,294.1000 C896.333,291.334 896.667,287.666 897.000,284.000 C920.309,283.853 960.643,259.532 972.000,246.000 C971.286,239.971 969.475,238.895 965.1000,235.1000 C949.676,238.467 929.274,245.428 913.1000,248.000 C912.000,246.000 909.1000,243.1000 908.000,241.1000 C912.505,210.722 931.342,196.724 947.1000,177.1000 C946.000,176.000 943.1000,173.1000 942.000,172.000 C935.359,176.687 921.931,183.056 913.000,183.1000 C910.000,180.667 906.1000,177.333 903.1000,173.1000 C903.610,158.860 901.293,134.711 908.000,125.1000 C906.000,124.000 903.1000,121.1000 901.1000,119.1000 C899.000,119.1000 895.1000,119.1000 893.000,119.1000 C888.022,127.816 878.060,131.087 871.1000,138.000 C871.883,145.636 872.946,146.259 876.000,149.1000 C872.215,154.643 867.611,165.763 868.1000,172.000 C876.333,172.000 883.667,172.000 891.000,172.000 C892.666,173.1000 894.333,176.000 896.000,177.1000 C894.167,188.864 874.813,198.347 867.1000,205.1000 C867.1000,223.665 867.1000,241.335 867.1000,259.000 C870.311,264.667 873.542,274.330 870.1000,284.000 C866.334,284.000 861.666,284.000 857.000,284.000 C853.181,277.911 846.266,278.004 844.000,275.000 C836.088,264.510 832.680,248.790 821.1000,239.1000 C821.000,240.667 819.1000,241.333 818.1000,241.1000 C816.244,246.894 813.950,247.196 808.000,249.000 C808.000,257.666 808.000,266.334 808.000,275.000 C806.000,276.666 803.1000,278.334 801.1000,280.000 C800.667,280.000 799.333,280.000 798.000,280.000 C782.579,266.429 773.575,246.316 752.000,238.1000 C750.937,228.741 745.690,211.978 744.000,201.1000 C747.468,197.568 745.099,195.642 748.000,189.000 C748.829,187.102 755.394,180.893 755.1000,178.1000 C759.299,168.705 732.580,159.298 728.000,153.1000 C728.333,153.333 728.667,152.667 729.000,151.1000 C736.333,151.1000 743.667,151.1000 751.000,151.1000 C759.860,137.653 772.676,119.013 784.000,106.000 C784.000,96.334 784.000,86.666 784.000,77.000 C780.667,74.000 777.333,70.1000 773.1000,67.1000 C769.654,71.380 763.617,73.394 755.1000,71.000 C758.029,49.758 797.678,55.493 803.1000,68.1000 C810.130,82.098 802.072,84.606 814.000,95.1000 C822.333,95.1000 830.668,95.1000 838.1000,95.1000 C840.666,97.1000 842.334,100.000 844.000,102.000 C842.052,113.657 831.018,125.444 833.000,136.000 C834.1000,136.000 837.000,136.000 838.1000,136.000 C843.333,131.334 847.667,126.666 851.1000,121.1000 C852.751,86.888 860.717,85.227 839.1000,61.1000 C843.333,58.667 846.667,55.333 849.1000,52.000 C868.148,54.998 876.981,82.195 884.1000,95.1000 C898.504,96.148 906.613,104.144 913.000,102.000 C919.494,88.398 927.543,65.670 928.000,49.000 C921.772,45.201 900.332,31.299 896.000,25.1000 C899.385,23.427 902.432,23.595 905.000,20.000 ZM521.000,67.1000 C518.417,71.791 516.880,71.496 511.1000,73.000 C512.333,77.1000 512.667,83.000 512.1000,87.1000 C514.534,87.859 562.726,70.942 563.1000,69.1000 C563.667,69.333 563.333,68.667 562.1000,67.1000 C549.001,67.1000 534.999,67.1000 521.000,67.1000 ZM573.000,80.000 C572.667,80.1000 572.333,82.000 572.000,83.000 C550.365,88.376 537.956,94.697 520.000,101.000 C520.333,104.666 520.667,108.334 521.000,112.000 C529.147,112.656 529.648,116.001 533.1000,119.1000 C550.882,119.673 587.680,92.707 595.1000,82.000 C595.667,81.333 595.333,80.667 594.1000,80.000 C587.667,80.000 580.333,80.000 573.000,80.000 ZM176.1000,95.1000 C175.308,98.139 124.489,127.462 120.000,129.000 C118.849,136.240 114.091,138.327 117.1000,143.1000 C135.143,132.165 159.628,127.198 175.1000,113.1000 C172.995,110.504 171.438,109.829 172.1000,104.000 C177.999,103.667 183.001,103.333 188.000,103.000 C187.667,100.667 187.333,98.333 187.000,95.1000 C183.667,95.1000 180.333,95.1000 176.1000,95.1000 ZM128.1000,168.000 C122.370,178.152 111.802,177.806 100.1000,183.1000 C87.106,191.967 83.554,215.500 76.000,231.000 C72.532,238.116 62.874,240.753 64.1000,252.000 C69.666,252.000 74.334,252.000 78.1000,252.000 C87.666,261.332 96.334,270.668 105.000,280.000 C117.846,287.621 127.427,294.620 138.000,304.000 C141.333,303.667 144.667,303.333 147.1000,302.1000 C148.319,293.347 150.417,273.940 145.1000,267.1000 C139.334,274.666 132.666,281.334 125.1000,288.000 C116.258,286.497 105.279,267.814 104.000,258.000 C104.333,257.333 104.667,256.667 105.000,256.000 C121.428,256.307 140.395,239.078 147.1000,230.000 C147.667,225.334 147.333,220.666 146.1000,216.000 C145.000,216.000 142.1000,216.000 140.1000,216.000 C137.334,219.1000 133.666,224.000 129.1000,228.000 C128.667,228.000 127.333,228.000 125.1000,228.000 C124.000,226.000 121.1000,223.1000 120.000,222.000 C128.080,211.886 139.958,185.963 135.000,168.000 C133.000,168.000 130.1000,168.000 128.1000,168.000 ZM819.1000,179.1000 C818.667,182.666 817.333,185.334 816.000,188.000 C817.333,188.000 818.667,188.000 819.1000,188.000 C821.333,185.334 822.667,182.666 824.000,179.1000 C822.667,179.1000 821.333,179.1000 819.1000,179.1000 ZM781.000,216.000 C779.334,217.1000 777.666,220.000 776.000,222.000 C776.000,224.1000 776.000,228.000 776.000,231.000 C777.1000,232.667 780.000,234.334 782.000,235.1000 C782.667,235.667 783.333,235.333 784.000,234.1000 C784.386,227.808 785.279,218.898 781.000,216.000 ZM845.000,220.000 C842.000,223.333 838.1000,226.667 835.1000,230.000 C836.333,230.667 836.667,231.333 836.1000,231.1000 C838.666,233.333 840.334,234.667 842.000,235.1000 C845.333,235.667 848.667,235.333 851.1000,234.1000 C851.667,230.000 851.333,224.1000 850.1000,220.000 C849.000,220.000 846.1000,220.000 845.000,220.000 ZM192.1000,248.000 C217.539,250.276 259.082,271.214 271.1000,286.000 C271.667,294.666 271.333,303.334 270.1000,312.000 C259.986,312.254 260.004,315.599 249.000,316.000 C230.002,296.669 210.998,277.331 191.1000,258.000 C192.333,254.667 192.667,251.333 192.1000,248.000 ZM84.1000,284.000 C84.667,286.333 84.333,288.667 83.1000,290.1000 C85.1000,292.667 88.000,294.334 90.000,295.1000 C91.1000,295.667 94.000,295.333 95.1000,294.1000 C95.566,288.187 93.737,287.103 90.000,284.000 C88.333,284.000 86.666,284.000 84.1000,284.000 Z"/>
</svg>