<?xml version="1.0" encoding="UTF-8"?>
<svg id="Layer_1"
  xmlns="http://www.w3.org/2000/svg" version="1.1" viewBox="0 0 100 100">
  <path d="M51.9860504,97.1036673c17.0722757,1.2286024,17.5829559,2.8963327,37.6713929,2.8963327h10.3425568V0h-7.8856331c-27.3774081,0-23.8637434,2.2233098-42.3184385,3.689683-11.3377583,1.5514587-3.3825564,5.2952215-7.0800486,9.1345253-4.0404317,4.0589578-4.5570799,11.6437368-9.3990305,12.5902231-2.292755,2.238993-26.7263253,2.2263743-21.4562866,7.7721655,1.0496437,1.1115197.4263822,1.391022-1.296418,1.5940916-8.9658251,1.2078719-4.815013,2.37933-6.307031,7.6619329-3.6609594,9.3231735,7.6625127,6.4463096-3.3581775,13.244318,1.3780838,6.5056171,17.4418685.9032224,14.2880332,6.5271589,6.561126,10.682649,41.1344051,3.2757924,53.7597681,7.6559841-3.8237224,1.4728628-49.4552196,5.5461517-36.2427016,9.6060108,3.495993.2453419,6.4186196,1.3129669,10.328983,1.7931953-2.4165687,1.5620944-7.7852602.3214142-8.2598317,3.2559632,9.3537554,3.5667417,22.5060014,1.6862976,32.9081922,3.0221583,3.6028906-.2341654,2.9731613,4.295016,2.0784623,6.8259496-4.2921102,1.7488499-12.8245877,1.7109039-17.7737914,2.7303077Z"/>
</svg>