<?xml version="1.0" encoding="UTF-8"?>
<svg id="Layer_1"
  xmlns="http://www.w3.org/2000/svg" version="1.1" viewBox="0 0 100 100">
  <path d="M17.6664381,37.4950038c6.1620343.7178458,1.8311265,5.2449458,3.2965616,7.7031626,2.8933095,6.5695763-10.7451892.5241323-10.3899842,7.7477777-.2396633,4.3784782,3.3897957,4.0187927,6.1214232,4.4230933,10.8088706,1.8242627-.2279375,5.1089078.9228084,11.127373,4.4253813,10.586653-10.1344959,25.6623687,1.3954618,29.6653364,15.0884901.7689435,22.6575039,1.8382764,47.9872786,1.8382764l33.0000125-.0000231V0s-44.5169098.0665414-50.2752154.1266002c-8.1818218.0993354-15.7884136,2.9291542-19.2543792,10.6769319-2.5057872,5.6091119-5.9033048,7.8592202-11.5228079,8.4820205-10.892095,1.1239578-14.7189854,18.098676-1.2811594,18.2094512Z"/>
</svg>