<svg xmlns="http://www.w3.org/2000/svg" style="display:none">
<symbol id="1FAD9-200D-1F7E5" viewBox="0 0 72 72">
  <g id="line-supplement">
    <rect x="19" y="30" rx="5" width="34" height="26" fill="none" stroke="currentColor" stroke-width="2"/>
  </g>
  <g id="line">
    <path fill="none" stroke="currentColor" stroke-linecap="round" stroke-linejoin="round" stroke-width="2" d="M36 60H48C52.9706 60 57 55.9706 57 51C57 51 57 37 57 32.5C57 28 53 28.5 53 22.5"/>
    <path fill="none" stroke="currentColor" stroke-linecap="round" stroke-linejoin="round" stroke-width="2" d="M36 60H24C19.0294 60 15 55.9706 15 51C15 51 15 37 15 32.5C15 28 19 28.5 19 22.5"/>
    <path fill="none" stroke="currentColor" stroke-linecap="round" stroke-linejoin="round" stroke-width="2" d="M54 12H18C17.4477 12 17 12.4477 17 13V19C17 19.5523 17.4477 20 18 20H53.5H54C54.5523 20 55 19.5523 55 19V13C55 12.4477 54.5523 12 54 12Z"/>
  </g>
</symbol>
<symbol id="1FAD9-200D-1F7E6" viewBox="0 0 72 72">
  <g id="line-supplement">
    <rect x="19" y="30" rx="5" width="34" height="26" fill="none" stroke="currentColor" stroke-width="2"/>
  </g>
  <g id="line">
    <path fill="none" stroke="currentColor" stroke-linecap="round" stroke-linejoin="round" stroke-width="2" d="M36 60H48C52.9706 60 57 55.9706 57 51C57 51 57 37 57 32.5C57 28 53 28.5 53 22.5"/>
    <path fill="none" stroke="currentColor" stroke-linecap="round" stroke-linejoin="round" stroke-width="2" d="M36 60H24C19.0294 60 15 55.9706 15 51C15 51 15 37 15 32.5C15 28 19 28.5 19 22.5"/>
    <path fill="none" stroke="currentColor" stroke-linecap="round" stroke-linejoin="round" stroke-width="2" d="M54 12H18C17.4477 12 17 12.4477 17 13V19C17 19.5523 17.4477 20 18 20H53.5H54C54.5523 20 55 19.5523 55 19V13C55 12.4477 54.5523 12 54 12Z"/>
  </g>
</symbol>
<symbol id="1FAD9-200D-1F7E7" viewBox="0 0 72 72">
  <g id="line-supplement">
    <rect x="19" y="30" rx="5" width="34" height="26" fill="none" stroke="currentColor" stroke-width="2"/>
  </g>
  <g id="line">
    <path fill="none" stroke="currentColor" stroke-linecap="round" stroke-linejoin="round" stroke-width="2" d="M36 60H48C52.9706 60 57 55.9706 57 51C57 51 57 37 57 32.5C57 28 53 28.5 53 22.5"/>
    <path fill="none" stroke="currentColor" stroke-linecap="round" stroke-linejoin="round" stroke-width="2" d="M36 60H24C19.0294 60 15 55.9706 15 51C15 51 15 37 15 32.5C15 28 19 28.5 19 22.5"/>
    <path fill="none" stroke="currentColor" stroke-linecap="round" stroke-linejoin="round" stroke-width="2" d="M54 12H18C17.4477 12 17 12.4477 17 13V19C17 19.5523 17.4477 20 18 20H53.5H54C54.5523 20 55 19.5523 55 19V13C55 12.4477 54.5523 12 54 12Z"/>
  </g>
</symbol>
<symbol id="1FAD9-200D-1F7E8" viewBox="0 0 72 72">
  <g id="line-supplement">
    <rect x="19" y="30" rx="5" width="34" height="26" fill="none" stroke="currentColor" stroke-width="2"/>
  </g>
  <g id="line">
    <path fill="none" stroke="currentColor" stroke-linecap="round" stroke-linejoin="round" stroke-width="2" d="M36 60H48C52.9706 60 57 55.9706 57 51C57 51 57 37 57 32.5C57 28 53 28.5 53 22.5"/>
    <path fill="none" stroke="currentColor" stroke-linecap="round" stroke-linejoin="round" stroke-width="2" d="M36 60H24C19.0294 60 15 55.9706 15 51C15 51 15 37 15 32.5C15 28 19 28.5 19 22.5"/>
    <path fill="none" stroke="currentColor" stroke-linecap="round" stroke-linejoin="round" stroke-width="2" d="M54 12H18C17.4477 12 17 12.4477 17 13V19C17 19.5523 17.4477 20 18 20H53.5H54C54.5523 20 55 19.5523 55 19V13C55 12.4477 54.5523 12 54 12Z"/>
  </g>
</symbol>
<symbol id="1FAD9-200D-1F7E9" viewBox="0 0 72 72">
  <g id="line-supplement">
    <rect x="19" y="30" rx="5" width="34" height="26" fill="none" stroke="currentColor" stroke-width="2"/>
  </g>
  <g id="line">
    <path fill="none" stroke="currentColor" stroke-linecap="round" stroke-linejoin="round" stroke-width="2" d="M36 60H48C52.9706 60 57 55.9706 57 51C57 51 57 37 57 32.5C57 28 53 28.5 53 22.5"/>
    <path fill="none" stroke="currentColor" stroke-linecap="round" stroke-linejoin="round" stroke-width="2" d="M36 60H24C19.0294 60 15 55.9706 15 51C15 51 15 37 15 32.5C15 28 19 28.5 19 22.5"/>
    <path fill="none" stroke="currentColor" stroke-linecap="round" stroke-linejoin="round" stroke-width="2" d="M54 12H18C17.4477 12 17 12.4477 17 13V19C17 19.5523 17.4477 20 18 20H53.5H54C54.5523 20 55 19.5523 55 19V13C55 12.4477 54.5523 12 54 12Z"/>
  </g>
</symbol>
<symbol id="1FAD9-200D-1F7EA" viewBox="0 0 72 72">
  <g id="line-supplement">
    <rect x="19" y="30" rx="5" width="34" height="26" fill="none" stroke="currentColor" stroke-width="2"/>
  </g>
  <g id="line">
    <path fill="none" stroke="currentColor" stroke-linecap="round" stroke-linejoin="round" stroke-width="2" d="M36 60H48C52.9706 60 57 55.9706 57 51C57 51 57 37 57 32.5C57 28 53 28.5 53 22.5"/>
    <path fill="none" stroke="currentColor" stroke-linecap="round" stroke-linejoin="round" stroke-width="2" d="M36 60H24C19.0294 60 15 55.9706 15 51C15 51 15 37 15 32.5C15 28 19 28.5 19 22.5"/>
    <path fill="none" stroke="currentColor" stroke-linecap="round" stroke-linejoin="round" stroke-width="2" d="M54 12H18C17.4477 12 17 12.4477 17 13V19C17 19.5523 17.4477 20 18 20H53.5H54C54.5523 20 55 19.5523 55 19V13C55 12.4477 54.5523 12 54 12Z"/>
  </g>
</symbol>
<symbol id="1FAD9-200D-1F7EB" viewBox="0 0 72 72">
  <g id="line-supplement">
    <rect x="19" y="30" rx="5" width="34" height="26" fill="none" stroke="currentColor" stroke-width="2"/>
  </g>
  <g id="line">
    <path fill="none" stroke="currentColor" stroke-linecap="round" stroke-linejoin="round" stroke-width="2" d="M36 60H48C52.9706 60 57 55.9706 57 51C57 51 57 37 57 32.5C57 28 53 28.5 53 22.5"/>
    <path fill="none" stroke="currentColor" stroke-linecap="round" stroke-linejoin="round" stroke-width="2" d="M36 60H24C19.0294 60 15 55.9706 15 51C15 51 15 37 15 32.5C15 28 19 28.5 19 22.5"/>
    <path fill="none" stroke="currentColor" stroke-linecap="round" stroke-linejoin="round" stroke-width="2" d="M54 12H18C17.4477 12 17 12.4477 17 13V19C17 19.5523 17.4477 20 18 20H53.5H54C54.5523 20 55 19.5523 55 19V13C55 12.4477 54.5523 12 54 12Z"/>
  </g>
</symbol>
<symbol id="1F1E6" viewBox="0 0 72 72">
  <g id="line">
    <g id="line-2">
      <circle cx="36" cy="36" r="28" fill="none" stroke="currentColor" stroke-linejoin="round" stroke-width="2"/>
    </g>
    <path fill="none" stroke="currentColor" stroke-linejoin="round" stroke-width="2" d="m36.9189,21.6057c-.1572-.3677-.519-.606-.9189-.606s-.7617.2383-.9189.606l-12,28c-.2178.5078.0176,1.0957.5249,1.313.5083.2188,1.0962-.0176,1.313-.5249l2.6202-6.1138h16.9216l2.6202,6.1138c.1621.3789.5312.6064.9194.6064.1313,0,.2651-.0264.3936-.0815.5073-.2173.7427-.8052.5249-1.313,0,0-12-28-12-28Zm-8.5226,20.6743l7.6037-17.7417,7.6037,17.7417s-15.2074,0-15.2074,0Z"/>
  </g>
</symbol>
<symbol id="1F1E7" viewBox="0 0 72 72">
  <g id="line">
    <g id="line-2">
      <circle cx="36" cy="36" r="28" fill="none" stroke="currentColor" stroke-linejoin="round" stroke-width="2"/>
    </g>
    <path fill="none" stroke="currentColor" stroke-linejoin="round" stroke-width="2" d="m46.8259,29.022c0-4.3979-3.5781-7.9761-7.9761-7.9761h-10.6758c-.5522,0-1,.4478-1,1v27.9082c0,.5522.4478,1,1,1h10.6758c4.3979,0,7.9761-3.5781,7.9761-7.9761,0-2.9995-1.666-5.6177-4.1216-6.978,2.4556-1.3604,4.1216-3.9785,4.1216-6.978Zm-2,13.9561c0,3.2954-2.6807,5.9761-5.9761,5.9761h-9.6758v-11.9482h9.6758c3.2954,0,5.9761,2.6792,5.9761,5.9722h0Zm-5.9761-7.9839c-.0206,0-.0378.0105-.058.0117h-9.6177v-11.96h9.6758c3.2954,0,5.9761,2.6807,5.9761,5.9761,0,3.293-2.6807,5.9722-5.9761,5.9722h-.0001Z"/>
  </g>
</symbol>
<symbol id="1F1E8" viewBox="0 0 72 72">
  <g id="line">
    <g id="line-2">
      <circle cx="36" cy="36" r="28" fill="none" stroke="currentColor" stroke-linejoin="round" stroke-width="2"/>
    </g>
    <path fill="none" stroke="currentColor" stroke-linejoin="round" stroke-width="2" d="m36.6819,23c2.2046,0,4.3257.8042,5.9727,2.2642.4131.3672,1.0464.3281,1.4116-.0845.3667-.4136.3286-1.0454-.0845-1.4121-2.0137-1.7847-4.606-2.7676-7.2998-2.7676-6.0654,0-11,4.9346-11,11v8c0,6.0654,4.9346,11,11,11,2.6943,0,5.2866-.9829,7.2998-2.7676.4131-.3662.4512-.998.0845-1.4116-.3662-.4126-.999-.4521-1.4116-.0845-1.6465,1.4595-3.7676,2.2637-5.9727,2.2637-4.9624,0-9-4.0376-9-9v-8c0-4.9624,4.0376-9,9-9Z"/>
  </g>
</symbol>
<symbol id="1F1E9" viewBox="0 0 72 72">
  <g id="line">
    <g id="line-2">
      <circle cx="36" cy="36" r="28" fill="none" stroke="currentColor" stroke-linejoin="round" stroke-width="2"/>
    </g>
    <path fill="none" stroke="currentColor" stroke-linejoin="round" stroke-width="2" d="m38.6938,21.052h-9.708c-.5522,0-1,.4478-1,1v27.896c0,.5522.4478,1,1,1h9.708c5.1392,0,9.3203-4.1807,9.3203-9.3198v-11.2602c0-5.1367-4.1811-9.3159-9.3203-9.3159h0Zm7.3203,20.5762c0,4.0361-3.2837,7.3198-7.3203,7.3198h-8.708v-25.896h8.708c4.0366,0,7.3203,3.2817,7.3203,7.3159v11.2602h0Z"/>
  </g>
</symbol>
<symbol id="1F1EA" viewBox="0 0 72 72">
  <g id="line">
    <g id="line-2">
      <circle cx="36" cy="36" r="28" fill="none" stroke="currentColor" stroke-linejoin="round" stroke-width="2"/>
    </g>
    <path fill="none" stroke="currentColor" stroke-linejoin="round" stroke-width="2" d="m45,23c.5522,0,1-.4478,1-1s-.4478-1-1-1h-16c-.5522,0-1,.4478-1,1v28c0,.5522.4478,1,1,1h16c.5522,0,1-.4478,1-1s-.4478-1-1-1h-15v-12h11c.5522,0,1-.4478,1-1s-.4478-1-1-1h-11v-12h15Z"/>
  </g>
</symbol>
<symbol id="1F1EB" viewBox="0 0 72 72">
  <g id="line">
    <g id="line-2">
      <circle cx="36" cy="36" r="28" fill="none" stroke="currentColor" stroke-linejoin="round" stroke-width="2"/>
    </g>
    <path fill="none" stroke="currentColor" stroke-linejoin="round" stroke-width="2" d="m46,21h-16c-.5522,0-1,.4478-1,1v28c0,.5522.4478,1,1,1s1-.4478,1-1v-13h11c.5522,0,1-.4478,1-1s-.4478-1-1-1h-11v-12h15c.5522,0,1-.4478,1-1s-.4478-1-1-1Z"/>
  </g>
</symbol>
<symbol id="1F1EC" viewBox="0 0 72 72">
  <g id="line">
    <g id="line-2">
      <circle cx="35.8889" cy="36" r="28" fill="none" stroke="currentColor" stroke-linejoin="round" stroke-width="2"/>
    </g>
    <path fill="none" stroke="currentColor" stroke-linejoin="round" stroke-width="2" d="m45.8889,34.448h-8c-.5522,0-1,.4478-1,1s.4478,1,1,1h7v3.0562c0,4.9624-4.0376,9-9,9s-9-4.0376-9-9v-8c0-4.9624,4.0376-9,9-9,2.209,0,4.3301.8037,5.9717,2.2637.4131.3677,1.0449.3296,1.4121-.083.3667-.4131.3296-1.0449-.083-1.4121-2.0083-1.7852-4.6011-2.7686-7.3008-2.7686-6.0654,0-11,4.9346-11,11v8c0,6.0654,4.9346,11,11,11s11-4.9346,11-11v-4.0562c0-.5522-.4478-1-1-1Z"/>
  </g>
</symbol>
<symbol id="1F1ED" viewBox="0 0 72 72">
  <g id="line">
    <g id="line-2">
      <circle cx="36" cy="36" r="28" fill="none" stroke="currentColor" stroke-linejoin="round" stroke-width="2"/>
    </g>
    <path fill="none" stroke="currentColor" stroke-linejoin="round" stroke-width="2" d="m44,20.5081c-.5527,0-1,.4478-1,1v12.96h-14v-12.96c0-.5522-.4473-1-1-1s-1,.4478-1,1v28c0,.5522.4473,1,1,1s1-.4478,1-1v-13.04h14v13.04c0,.5522.4473,1,1,1s1-.4478,1-1v-28c0-.5522-.4473-1-1-1Z"/>
  </g>
</symbol>
<symbol id="1F1EE" viewBox="0 0 72 72">
  <g id="line">
    <g id="line-2">
      <circle cx="36" cy="36" r="28" fill="none" stroke="currentColor" stroke-linejoin="round" stroke-width="2"/>
    </g>
    <path fill="none" stroke="currentColor" stroke-linejoin="round" stroke-width="2" d="m36,21c-.5527,0-1,.4478-1,1v28c0,.5522.4473,1,1,1s1-.4478,1-1v-28c0-.5522-.4473-1-1-1Z"/>
  </g>
</symbol>
<symbol id="1F1EF" viewBox="0 0 72 72">
  <g id="line">
    <g id="line-2">
      <circle cx="36" cy="36" r="28" fill="none" stroke="currentColor" stroke-linejoin="round" stroke-width="2"/>
    </g>
    <path fill="none" stroke="currentColor" stroke-linejoin="round" stroke-width="2" d="m44.3463,21c-.5527,0-1,.4478-1,1v18c0,4.9624-4.0371,9-9,9-2.2256,0-4.3643-.8208-6.0244-2.312-.4082-.3677-1.043-.3354-1.4121.0757s-.335,1.0435.0762,1.4126c2.0273,1.8208,4.6406,2.8237,7.3604,2.8237,6.0654,0,11-4.9346,11-11v-18c0-.5522-.4473-1-1-1Z"/>
  </g>
</symbol>
<symbol id="1F1F0" viewBox="0 0 72 72">
  <g id="line">
    <g id="line-2">
      <circle cx="36" cy="36" r="28" fill="none" stroke="currentColor" stroke-linejoin="round" stroke-width="2"/>
    </g>
    <path fill="none" stroke="currentColor" stroke-linejoin="round" stroke-width="2" d="m37.3163,31.4598l7.7462-8.7889c.3652-.4141.3252-1.0464-.0889-1.4111-.4141-.3652-1.0449-.3252-1.4111.0889l-14.3281,16.2568v-15.5932c0-.5522-.4473-1-1-1s-1,.4478-1,1v28c0,.5522.4473,1,1,1s1-.4478,1-1v-9.3826l6.6624-7.5591,8.9802,17.412c.1777.3442.5273.5415.8896.5415.1543,0,.3105-.0356.457-.1113.4912-.2529.6836-.856.4307-1.3472l-9.338-18.1057h0Z"/>
  </g>
</symbol>
<symbol id="1F1F1" viewBox="0 0 72 72">
  <g id="line">
    <g id="line-2">
      <circle cx="36" cy="36" r="28" fill="none" stroke="currentColor" stroke-linejoin="round" stroke-width="2"/>
    </g>
    <path fill="none" stroke="currentColor" stroke-linejoin="round" stroke-width="2" d="m43,49.0122h-11v-27c0-.5522-.4473-1-1-1s-1,.4478-1,1v28c0,.5522.4473,1,1,1h12c.5527,0,1-.4478,1-1s-.4473-1-1-1Z"/>
  </g>
</symbol>
<symbol id="1F1F2" viewBox="0 0 72 72">
  <g id="line">
    <g id="line-2">
      <circle cx="36" cy="36" r="28" fill="none" stroke="currentColor" stroke-linejoin="round" stroke-width="2"/>
    </g>
    <path fill="none" stroke="currentColor" stroke-linejoin="round" stroke-width="2" d="m48.2295,21.0391c-.4502-.1064-.917.1108-1.124.5259l-11.1055,22.2114-11.1055-22.2114c-.207-.415-.6758-.6313-1.124-.5259-.4512.1064-.7705.5093-.7705.9731v28c0,.5522.4473,1,1,1s1-.4478,1-1v-23.7642l10.1055,20.2114c.3398.6777,1.4492.6777,1.7891,0l10.1055-20.2114v23.7642c0,.5522.4473,1,1,1s1-.4478,1-1v-28c0-.4639-.3193-.8667-.7705-.9731h0Z"/>
  </g>
</symbol>
<symbol id="1F1F3" viewBox="0 0 72 72">
  <g id="line">
    <g id="line-2">
      <circle cx="36" cy="36" r="28" fill="none" stroke="currentColor" stroke-linejoin="round" stroke-width="2"/>
    </g>
    <path fill="none" stroke="currentColor" stroke-linejoin="round" stroke-width="2" d="m46,21.0122c-.5527,0-1,.4478-1,1v24.8794l-18.1865-25.4604c-.2529-.354-.7041-.5039-1.1191-.3711-.4131.1323-.6943.5176-.6943.9521v28c0,.5522.4473,1,1,1s1-.4478,1-1v-24.8794l18.1865,25.4604c.1914.2681.4971.4189.8135.4189.1016,0,.2051-.0156.3057-.0479.4131-.1323.6943-.5176.6943-.9521v-28c0-.5522-.4473-1-1-1h0Z"/>
  </g>
</symbol>
<symbol id="1F1F4" viewBox="0 0 72 72">
  <g id="line">
    <g id="line-2">
      <circle cx="36" cy="36" r="28" fill="none" stroke="currentColor" stroke-linejoin="round" stroke-width="2"/>
    </g>
    <path fill="none" stroke="currentColor" stroke-linejoin="round" stroke-width="2" d="m36,21.0122c-6.0654,0-11,4.9346-11,11v8c0,6.0654,4.9346,11,11,11s11-4.9346,11-11v-8c0-6.0654-4.9346-11-11-11Zm9,19c0,4.9624-4.0371,9-9,9s-9-4.0376-9-9v-8c0-4.9624,4.0371-9,9-9s9,4.0376,9,9v8Z"/>
  </g>
</symbol>
<symbol id="1F1F5" viewBox="0 0 72 72">
  <g id="line">
    <g id="line-2">
      <circle cx="36" cy="36" r="28" fill="none" stroke="currentColor" stroke-linejoin="round" stroke-width="2"/>
    </g>
    <path fill="none" stroke="currentColor" stroke-linejoin="round" stroke-width="2" d="m40.8496,21.0122h-10.6758c-.5527,0-1,.4478-1,1v28c0,.5522.4473,1,1,1s1-.4478,1-1v-13.0518h9.6758c4.3984,0,7.9766-3.5762,7.9766-7.9722s-3.5781-7.9761-7.9766-7.9761h0Zm0,13.9482h-9.6758v-11.9482h9.6758c3.2959,0,5.9766,2.6807,5.9766,5.9761,0,3.293-2.6807,5.9722-5.9766,5.9722h0Z"/>
  </g>
</symbol>
<symbol id="1F1F6" viewBox="0 0 72 72">
  <g id="line">
    <g id="line-2">
      <circle cx="36" cy="36" r="28" fill="none" stroke="currentColor" stroke-linejoin="round" stroke-width="2"/>
    </g>
    <path fill="none" stroke="currentColor" stroke-linejoin="round" stroke-width="2" d="m36,21.0122c-6.0654,0-11,4.9346-11,11v8c0,6.0654,4.9346,11,11,11,2.6573,0,5.0974-.9475,7.0007-2.522l2.2474,2.2314c.1943.1938.4492.2905.7041.2905.2568,0,.5137-.0986.71-.2954.1934-.1953.29-.4502.29-.7051,0-.2568-.0986-.5137-.2959-.709l-2.239-2.2231c1.6091-1.9133,2.5827-4.3777,2.5827-7.0674v-8c0-6.0654-4.9346-11-11-11h0Zm9,19c0,2.1406-.754,4.1069-2.0068,5.6534l-3.0889-3.067c-.3896-.3887-1.0225-.3867-1.4141.0049-.1934.1953-.29.4502-.29.7051,0,.2568.0986.5137.2959.709l3.0729,3.0511c-1.5338,1.2131-3.4661,1.9435-5.569,1.9435-4.9629,0-9-4.0376-9-9v-8c0-4.9624,4.0371-9,9-9s9,4.0376,9,9c0,0,0,8,0,8Z"/>
  </g>
</symbol>
<symbol id="1F1F7" viewBox="0 0 72 72">
  <g id="line">
    <g id="line-2">
      <circle cx="36" cy="36" r="28" fill="none" stroke="currentColor" stroke-linejoin="round" stroke-width="2"/>
    </g>
    <path fill="none" stroke="currentColor" stroke-linejoin="round" stroke-width="2" d="m47.8262,28.9883c0-4.3979-3.5781-7.9761-7.9756-7.9761h-10.6768c-.5527,0-1,.4478-1,1v28c0,.5522.4473,1,1,1s1-.4478,1-1v-13.0518h9.2615l5.8088,13.4453c.1631.3779.5312.604.9189.604.1318,0,.2666-.0269.3955-.0825.5068-.2192.7402-.8076.5215-1.3145l-5.5452-12.835c3.5908-.7753,6.2913-3.9715,6.2913-7.7896v.0002Zm-7.9756,5.9722h-9.6768v-11.9482h9.6768c3.2949,0,5.9756,2.6807,5.9756,5.9761,0,3.293-2.6807,5.9722-5.9756,5.9722h0Z"/>
  </g>
</symbol>
<symbol id="1F1F8" viewBox="0 0 72 72">
  <g id="line">
    <g id="line-2">
      <circle cx="36" cy="36" r="28" fill="none" stroke="currentColor" stroke-linejoin="round" stroke-width="2"/>
    </g>
    <path fill="none" stroke="currentColor" stroke-linejoin="round" stroke-width="2" d="m35.8999,34.6265c-4.7129-.813-7.6016-1.5205-7.6016-5.6387,0-3.3086,3.4951-6,7.792-6,3.709,0,6.9238,2.0342,7.6426,4.8369.1377.5361.6836.8589,1.2178.7202.5342-.1372.8564-.6826.7197-1.2173-.9434-3.6733-4.9717-6.3398-9.5801-6.3398-5.3994,0-9.792,3.5889-9.792,8,0,6.0117,4.9209,6.8608,9.2617,7.6099,5.0654.874,8.1416,1.7417,8.1416,6.4146,0,3.3086-3.4951,6-7.792,6-3.708,0-6.9229-2.0361-7.6426-4.8408-.1377-.5356-.6816-.8564-1.2178-.7202-.5342.1377-.8564.6826-.7197,1.2173.9434,3.6758,4.9727,6.3438,9.5801,6.3438,5.3994,0,9.792-3.5889,9.792-8,0-6.6943-5.4346-7.6323-9.8018-8.3857Z"/>
  </g>
</symbol>
<symbol id="1F1F9" viewBox="0 0 72 72">
  <g id="line">
    <g id="line-2">
      <circle cx="36" cy="36" r="28" fill="none" stroke="currentColor" stroke-linejoin="round" stroke-width="2"/>
    </g>
    <path fill="none" stroke="currentColor" stroke-linejoin="round" stroke-width="2" d="m44,21h-16c-.5527,0-1,.4478-1,1s.4473,1,1,1h7v27c0,.5522.4473,1,1,1s1-.4478,1-1v-27h7c.5527,0,1-.4478,1-1s-.4473-1-1-1Z"/>
  </g>
</symbol>
<symbol id="1F1FA" viewBox="0 0 72 72">
  <g id="line">
    <g id="line-2">
      <circle cx="36" cy="36" r="28" fill="none" stroke="currentColor" stroke-linejoin="round" stroke-width="2"/>
    </g>
    <path fill="none" stroke="currentColor" stroke-linejoin="round" stroke-width="2" d="m46,21c-.5527,0-1,.4478-1,1v18c0,4.9624-4.0371,9-9,9s-9-4.0376-9-9v-18c0-.5522-.4473-1-1-1s-1,.4478-1,1v18c0,6.0654,4.9346,11,11,11s11-4.9346,11-11v-18c0-.5522-.4473-1-1-1Z"/>
  </g>
</symbol>
<symbol id="1F1FB" viewBox="0 0 72 72">
  <g id="line">
    <g id="line-2">
      <circle cx="36" cy="36" r="28" fill="none" stroke="currentColor" stroke-linejoin="round" stroke-width="2"/>
    </g>
    <path fill="none" stroke="currentColor" stroke-linejoin="round" stroke-width="2" d="m43.2744,21.0385c-.5254-.1509-1.084.1548-1.2363.6865l-7.0381,24.6348-7.0381-24.6348c-.1523-.5317-.709-.8364-1.2363-.6865-.5312.1519-.8389.7051-.6875,1.2363l8,28c.123.4292.5156.7251.9619.7251s.8389-.2959.9619-.7251l8-28c.1514-.5312-.1562-1.0845-.6875-1.2363Z"/>
  </g>
</symbol>
<symbol id="1F1FC" viewBox="0 0 72 72">
  <g id="line">
    <g id="line-2">
      <circle cx="36" cy="36" r="28" fill="none" stroke="currentColor" stroke-linejoin="round" stroke-width="2"/>
    </g>
    <path fill="none" stroke="currentColor" stroke-linejoin="round" stroke-width="2" d="m52.2754,21.0503c-.5254-.1514-1.084.1548-1.2363.6865l-7.0371,24.6348-7.042-24.6353c-.123-.4292-.5156-.7251-.9619-.7251s-.8389.2959-.9619.7251l-7.0371,24.6338-7.0381-24.6328c-.1523-.5312-.708-.8374-1.2363-.6865-.5312.1519-.8389.7051-.6875,1.2363l8,27.998c.123.4292.5156.7251.9619.7251s.8389-.2959.9619-.7251l7.0371-24.6348,7.042,24.6353c.123.4292.5156.7251.9619.7251s.8389-.2959.9619-.7251l7.999-27.999c.1514-.5312-.1562-1.085-.6875-1.2363Z"/>
  </g>
</symbol>
<symbol id="1F1FD" viewBox="0 0 72 72">
  <g id="line">
    <g id="line-2">
      <circle cx="36" cy="36" r="28" fill="none" stroke="currentColor" stroke-linejoin="round" stroke-width="2"/>
    </g>
    <path fill="none" stroke="currentColor" stroke-linejoin="round" stroke-width="2" d="m44.4951,21.122c-.4805-.2759-1.0918-.1074-1.3643.3721l-7.1371,12.4904-7.1246-12.4684c-.2734-.48-.8857-.6475-1.3643-.3721-.4795.2739-.6465.8848-.3721,1.3643l7.7093,13.4917-7.7093,13.4917c-.2744.4795-.1074,1.0903.3721,1.3643.1562.0894.3271.1318.4951.1318.3477,0,.6846-.1807.8691-.5039l7.1246-12.4684,7.1371,12.4904c.1846.3232.5215.5039.8691.5039.168,0,.3389-.0425.4951-.1318.4795-.2739.6465-.8848.3721-1.3643l-7.7218-13.5137,7.7218-13.5137c.2744-.4795.1074-1.0903-.3721-1.3643h.0002Z"/>
  </g>
</symbol>
<symbol id="1F1FE" viewBox="0 0 72 72">
  <g id="line">
    <g id="line-2">
      <circle cx="36" cy="36" r="28" fill="none" stroke="currentColor" stroke-linejoin="round" stroke-width="2"/>
    </g>
    <path fill="none" stroke="currentColor" stroke-linejoin="round" stroke-width="2" d="m44.4475,21.1054c-.4932-.2471-1.0938-.0469-1.3418.4473l-7.1055,14.2114-7.1055-14.2114c-.2471-.4941-.8477-.6943-1.3418-.4473s-.6943.8477-.4473,1.3418l7.8945,15.7886v11.7642c0,.5522.4473,1,1,1s1-.4478,1-1v-11.7642l7.8945-15.7886c.0713-.144.1055-.2964.1055-.4473,0-.3662-.2021-.7192-.5527-.8945h0Z"/>
  </g>
</symbol>
<symbol id="1F1FF" viewBox="0 0 72 72">
  <g id="line">
    <g id="line-2">
      <circle cx="36" cy="36" r="28" fill="none" stroke="currentColor" stroke-linejoin="round" stroke-width="2"/>
    </g>
    <path fill="none" stroke="currentColor" stroke-linejoin="round" stroke-width="2" d="m44,49h-14.2764l15.1445-26.5039c.1768-.3096.1758-.6899-.0029-.998-.1797-.3081-.5088-.498-.8652-.498h-16c-.5527,0-1,.4478-1,1s.4473,1,1,1h14.2764l-15.1445,26.5039c-.1768.3096-.1758.6899.0029.998.1797.3081.5088.498.8652.498h16c.5527,0,1-.4478,1-1s-.4473-1-1-1Z"/>
  </g>
</symbol>
<symbol id="1F3F4-E0061-E0076-E007F" viewBox="0 0 72 72">
  <g id="line">
    <rect x="5" y="17" width="62" height="38" fill="none" stroke="currentColor" stroke-linecap="round" stroke-linejoin="round" stroke-width="2"/>
  </g>
</symbol>
<symbol id="1F3F4-E0063-E0061-E0071-E0063-E007F" viewBox="0 0 72 72">
  <g id="line-supplement">
    <path fill="none" stroke="currentColor" stroke-width="2" stroke-width="1.849" d="m5 40.5v14.5h26v-14.5h-26zm13.521 2.4785a0.68564 0.68564 0 0 1 0.68555 0.68555v4.8242h0.20312c0.064592-0.48327 0.2712-0.91288 0.58398-1.2344 0.36396-0.3741 0.83888-0.61685 1.3594-0.77148a0.51863 0.51863 0 0 1 0.14648-0.021484 0.51863 0.51863 0 0 1 0.49805 0.37109 0.51863 0.51863 0 0 1-0.34961 0.64453c-0.39915 0.11858-0.71132 0.29362-0.91211 0.5-0.14013 0.14403-0.21782 0.31492-0.26562 0.51172h0.20508a0.50285 0.50285 0 0 1 0.50391 0.50195 0.50285 0.50285 0 0 1-0.50391 0.50391h-1.4688v1.2988a0.68564 0.68564 0 0 1-0.68555 0.68555 0.68564 0.68564 0 0 1-0.68555-0.68555v-1.2988h-1.4707a0.50285 0.50285 0 0 1-0.50195-0.50391 0.50285 0.50285 0 0 1 0.50195-0.50195h0.20117c-0.047806-0.1968-0.1255-0.36769-0.26562-0.51172-0.20079-0.20638-0.51296-0.38142-0.91211-0.5a0.51863 0.51863 0 0 1-0.34961-0.64453 0.51863 0.51863 0 0 1 0.46484-0.36914 0.51863 0.51863 0 0 1 0.17969 0.019531c0.5205 0.15463 0.99736 0.39739 1.3613 0.77148 0.31279 0.3215 0.51784 0.7511 0.58203 1.2344h0.20898v-4.8242a0.68564 0.68564 0 0 1 0.68555-0.68555z"/>
    <path fill="none" stroke="currentColor" stroke-width="2" stroke-width="1.849" d="m41 40.5v14.5h26v-14.5h-26zm12.521 2.4785a0.68564 0.68564 0 0 1 0.68555 0.68555v4.8242h0.20312c0.064592-0.48327 0.2712-0.91288 0.58398-1.2344 0.36396-0.3741 0.83888-0.61685 1.3594-0.77148a0.51863 0.51863 0 0 1 0.14648-0.021484 0.51863 0.51863 0 0 1 0.49805 0.37109 0.51863 0.51863 0 0 1-0.34961 0.64453c-0.39915 0.11858-0.71132 0.29362-0.91211 0.5-0.14013 0.14403-0.21782 0.31492-0.26562 0.51172h0.20508a0.50285 0.50285 0 0 1 0.50391 0.50195 0.50285 0.50285 0 0 1-0.50391 0.50391h-1.4688v1.2988a0.68564 0.68564 0 0 1-0.68555 0.68555 0.68564 0.68564 0 0 1-0.68555-0.68555v-1.2988h-1.4707a0.50285 0.50285 0 0 1-0.50195-0.50391 0.50285 0.50285 0 0 1 0.50195-0.50195h0.20117c-0.047806-0.1968-0.1255-0.36769-0.26562-0.51172-0.20079-0.20638-0.51296-0.38142-0.91211-0.5a0.51863 0.51863 0 0 1-0.34961-0.64453 0.51863 0.51863 0 0 1 0.46484-0.36914 0.51863 0.51863 0 0 1 0.17969 0.019531c0.5205 0.15463 0.99736 0.39739 1.3613 0.77148 0.31279 0.3215 0.51784 0.7511 0.58203 1.2344h0.20898v-4.8242a0.68564 0.68564 0 0 1 0.68555-0.68555z"/>
    <path fill="none" stroke="currentColor" stroke-width="2" stroke-width="1.849" d="m5 17v14.5h26v-14.5h-26zm13.521 3.4785a0.68564 0.68564 0 0 1 0.68555 0.68555v4.8223h0.20312c0.064908-0.48248 0.27161-0.91135 0.58398-1.2324 0.36396-0.3741 0.83888-0.61685 1.3594-0.77148a0.51863 0.51863 0 0 1 0.14648-0.021484 0.51863 0.51863 0 0 1 0.49805 0.37109 0.51863 0.51863 0 0 1-0.34961 0.64453c-0.39915 0.11858-0.71132 0.29362-0.91211 0.5-0.1397 0.14359-0.21768 0.31383-0.26562 0.50977h0.20508a0.50285 0.50285 0 0 1 0.50391 0.50391 0.50285 0.50285 0 0 1-0.50391 0.50195h-1.4688v1.3008a0.68564 0.68564 0 0 1-0.68555 0.68555 0.68564 0.68564 0 0 1-0.68555-0.68555v-1.3008h-1.4707a0.50285 0.50285 0 0 1-0.50195-0.50195 0.50285 0.50285 0 0 1 0.50195-0.50391h0.20117c-0.047949-0.19594-0.12593-0.36618-0.26562-0.50977-0.20079-0.20638-0.51296-0.38142-0.91211-0.5a0.51863 0.51863 0 0 1-0.34961-0.64453 0.51863 0.51863 0 0 1 0.46484-0.36914 0.51863 0.51863 0 0 1 0.17969 0.019531c0.5205 0.15463 0.99736 0.39739 1.3613 0.77148 0.31237 0.32107 0.51753 0.74994 0.58203 1.2324h0.20898v-4.8223a0.68564 0.68564 0 0 1 0.68555-0.68555z"/>
    <path fill="none" stroke="currentColor" stroke-width="2" stroke-width="1.849" d="m41 17v14.5h26v-14.5h-26zm12.521 3.4785a0.68564 0.68564 0 0 1 0.68555 0.68555v4.8223h0.20312c0.064908-0.48248 0.27161-0.91135 0.58398-1.2324 0.36396-0.3741 0.83888-0.61685 1.3594-0.77148a0.51863 0.51863 0 0 1 0.14648-0.021484 0.51863 0.51863 0 0 1 0.49805 0.37109 0.51863 0.51863 0 0 1-0.34961 0.64453c-0.39915 0.11858-0.71132 0.29362-0.91211 0.5-0.1397 0.14359-0.21768 0.31383-0.26562 0.50977h0.20508a0.50285 0.50285 0 0 1 0.50391 0.50391 0.50285 0.50285 0 0 1-0.50391 0.50195h-1.4688v1.3008a0.68564 0.68564 0 0 1-0.68555 0.68555 0.68564 0.68564 0 0 1-0.68555-0.68555v-1.3008h-1.4707a0.50285 0.50285 0 0 1-0.50195-0.50195 0.50285 0.50285 0 0 1 0.50195-0.50391h0.20117c-0.047949-0.19594-0.12593-0.36618-0.26562-0.50977-0.20079-0.20638-0.51296-0.38142-0.91211-0.5a0.51863 0.51863 0 0 1-0.34961-0.64453 0.51863 0.51863 0 0 1 0.46484-0.36914 0.51863 0.51863 0 0 1 0.17969 0.019531c0.5205 0.15463 0.99736 0.39739 1.3613 0.77148 0.31237 0.32107 0.51753 0.74994 0.58203 1.2324h0.20898v-4.8223a0.68564 0.68564 0 0 1 0.68555-0.68555z"/>
  </g>
  <g id="line">
    <path fill="none" stroke="currentColor" stroke-linecap="round" stroke-linejoin="round" stroke-width="2" d="m67 17h-62v38h62z"/>
  </g>
</symbol>
<symbol id="1F3F4-E0064-E0065-E0062-E0065-E007F" viewBox="0 0 72 72">
  <g id="line">
    <path fill="none" stroke="currentColor" stroke-linecap="round" stroke-linejoin="round" stroke-width="2" d="M67 17H5V55H67V17Z"/>
    <path fill="none" stroke="currentColor" stroke-linecap="round" stroke-linejoin="bevel" d="m29 29h2.5"/>
    <path fill="none" fill-rule="evenodd" stroke="currentColor" stroke-linecap="round" stroke-linejoin="round" d="m34.45 39.55c-0.1988 1.895-0.0059 2.834 0.5562 4.637-1.005 1.063-1.834 2.039-3.279 2.039l-0.3433-1.028 1.62-0.5105c-0.9113-1.066-2.173-2.228-2.002-2.999-2.507 0.2343-2.746 1.631-3.661 3.763l-3.004-0.9997 0.4613-1.107 1.698 0.8426c-0.4406-2.904 0.9531-4.623 3.004-5.998-0.8301-0.6769-0.949-1.62-0.9503-2.607-2.516 0.6583-4.081 0.8835-5.557-1.391l0.5006-0.9997c1.766 3.186 2.875 1.521 5.084 0.2249-4.49-2.806-3.859-1.68-5.084-4.724l1.001-0.4998c0.5779 2.902 2.239 2.353 4.505 2.999l2.503-1.999c-0.6635-2.516-2.985-0.184-3.004-2.499h1.502c1.595-1.816 3.339-0.361 4.505-0.4998l-0.5006 0.9997c0.1421 1.168 3e-3 1.993-0.5006 2.999 1.237 1.851-0.1047 2.506-0.3807 4.573-0.1109 0.8306 1.116 3.144 1.326 4.786z" clip-rule="evenodd"/>
  </g>
</symbol>
<symbol id="1F3F4-E0064-E0065-E0062-E0079-E007F" viewBox="0 0 72 72">
  <g id="line-supplement">
    <path transform="translate(6,18)" fill="currentColor" d="M 57.81375,0 L 44.5425,0 60,34.2 60,36 47.5425,36 31.27125,0 18,0 34.27125,36 21,36 9,9.45 0,7.155 0,18.9 7.72875,36 21,36 0,30.645 0,18.9 60,34.2 60,22.455 9,9.45 4.72875,0 18,0 60,10.71 60,4.8375 z"/>
  </g>
  <g id="line">
    <path fill="none" stroke="currentColor" stroke-linecap="round" stroke-linejoin="round" stroke-width="2" d="M67 17H5V55H67V17Z"/>
  </g>
</symbol>
<symbol id="1F3F4-E0065-E0073-E0061-E006E-E007F" viewBox="0 0 72 72">
  <g id="line">
    <rect x="5" y="17" width="62" height="38" fill="none" stroke="currentColor" stroke-linecap="round" stroke-linejoin="round" stroke-width="2"/>
  </g>
</symbol>
<symbol id="1F3F4-E0065-E0073-E0061-E0072-E007F" viewBox="0 0 72 72">
  <g id="line">
    <rect x="5" y="17" width="62" height="38" fill="none" stroke="currentColor" stroke-linecap="round" stroke-linejoin="round" stroke-width="2"/>
  </g>
</symbol>
<symbol id="1F3F4-E0065-E0073-E0061-E0073-E007F" viewBox="0 0 72 72">
  <g id="line">
    <rect x="5" y="17" width="62" height="38" fill="none" stroke="currentColor" stroke-linecap="round" stroke-linejoin="round" stroke-width="2"/>
  </g>
</symbol>
<symbol id="1F3F4-E0065-E0073-E0063-E0062-E007F" viewBox="0 0 72 72">
  <g id="line">
    <rect x="5" y="17" width="62" height="38" fill="none" stroke="currentColor" stroke-linecap="round" stroke-linejoin="round" stroke-width="2"/>
  </g>
</symbol>
<symbol id="1F3F4-E0065-E0073-E0063-E0065-E007F" viewBox="0 0 72 72">
  <g id="line">
    <rect x="5" y="17" width="62" height="38" fill="none" stroke="currentColor" stroke-linecap="round" stroke-linejoin="round" stroke-width="2"/>
  </g>
</symbol>
<symbol id="1F3F4-E0065-E0073-E0063-E006C-E007F" viewBox="0 0 72 72">
  <g id="line">
    <rect x="5" y="17" width="62" height="38" fill="none" stroke="currentColor" stroke-linecap="round" stroke-linejoin="round" stroke-width="2"/>
  </g>
</symbol>
<symbol id="1F3F4-E0065-E0073-E0063-E006D-E007F" viewBox="0 0 72 72">
  <g id="line">
    <rect x="5" y="17" width="62" height="38" fill="none" stroke="currentColor" stroke-linecap="round" stroke-linejoin="round" stroke-width="2"/>
  </g>
</symbol>
<symbol id="1F3F4-E0065-E0073-E0063-E006E-E007F" viewBox="0 0 72 72">
  <g id="line">
    <rect x="5" y="17" width="62" height="38" fill="none" stroke="currentColor" stroke-linecap="round" stroke-linejoin="round" stroke-width="2"/>
  </g>
</symbol>
<symbol id="1F3F4-E0065-E0073-E0063-E0074-E007F" viewBox="0 0 72 72">
  <g id="line">
    <rect x="5" y="17" width="62" height="38" fill="none" stroke="currentColor" stroke-linecap="round" stroke-linejoin="round" stroke-width="2"/>
  </g>
</symbol>
<symbol id="1F3F4-E0065-E0073-E0065-E0078-E007F" viewBox="0 0 72 72">
  <g id="line">
    <rect x="5" y="17" width="62" height="38" fill="none" stroke="currentColor" stroke-linecap="round" stroke-linejoin="round" stroke-width="2"/>
  </g>
</symbol>
<symbol id="1F3F4-E0065-E0073-E0067-E0061-E007F" viewBox="0 0 72 72">
  <g id="line">
    <rect x="5" y="17" width="62" height="38" fill="none" stroke="currentColor" stroke-linecap="round" stroke-linejoin="round" stroke-width="2"/>
  </g>
</symbol>
<symbol id="1F3F4-E0065-E0073-E0069-E0062-E007F" viewBox="0 0 72 72">
  <g id="line">
    <rect x="5" y="17" width="62" height="38" fill="none" stroke="currentColor" stroke-linecap="round" stroke-linejoin="round" stroke-width="2"/>
  </g>
</symbol>
<symbol id="1F3F4-E0065-E0073-E006D-E0063-E007F" viewBox="0 0 72 72">
  <g id="line-supplement" fill="none" stroke="currentColor" stroke-linecap="round">
    <g transform="translate(5.2)" stroke-width="0.75">
      <g transform="translate(-.9004)">
        <path fill="none" stroke="currentColor" stroke-width="2" d="m50.89 44.14 0.4246 1.381h3.504l0.336-1.381"/>
        <path fill="none" stroke="currentColor" stroke-width="2" d="m52.99 44.27v1.229"/>
      </g>
      <g transform="translate(-6.169,2.403)">
        <path fill="none" stroke="currentColor" stroke-width="2" d="m50.89 44.14 0.4246 1.381h3.504l0.336-1.381"/>
        <path fill="none" stroke="currentColor" stroke-width="2" d="m52.99 44.27v1.229"/>
      </g>
      <g transform="translate(-.9544 2.403)">
        <path fill="none" stroke="currentColor" stroke-width="2" d="m50.89 44.14 0.4246 1.381h3.504l0.336-1.381"/>
        <path fill="none" stroke="currentColor" stroke-width="2" d="m52.99 44.27v1.229"/>
      </g>
      <g transform="translate(-.8852 7.151)">
        <path fill="none" stroke="currentColor" stroke-width="2" d="m50.89 44.14 0.4246 1.381h3.504l0.336-1.381"/>
        <path fill="none" stroke="currentColor" stroke-width="2" d="m52.99 44.27v1.229"/>
      </g>
      <g transform="translate(-3.792,4.853)">
        <path fill="none" stroke="currentColor" stroke-width="2" d="m50.89 44.14 0.4246 1.381h3.504l0.336-1.381"/>
        <path fill="none" stroke="currentColor" stroke-width="2" d="m52.99 44.27v1.229"/>
      </g>
      <g transform="translate(4.26,2.403)">
        <path fill="none" stroke="currentColor" stroke-width="2" d="m50.89 44.14 0.4246 1.381h3.504l0.336-1.381"/>
        <path fill="none" stroke="currentColor" stroke-width="2" d="m52.99 44.27v1.229"/>
      </g>
      <g transform="translate(1.922,4.853)">
        <path fill="none" stroke="currentColor" stroke-width="2" d="m50.89 44.14 0.4246 1.381h3.504l0.336-1.381"/>
        <path fill="none" stroke="currentColor" stroke-width="2" d="m52.99 44.27v1.229"/>
      </g>
    </g>
    <g transform="translate(0,1)">
      <g>
        <path fill="none" stroke="currentColor" stroke-width="2" stroke-width="1" d="m8.613 25.61s1.511-7.361 3.138 7.6e-5"/>
        <path fill="none" stroke="currentColor" stroke-width="2" stroke-width="0.9992" d="m10.18 18.58 0.0049 2.448"/>
        <path fill="none" stroke="currentColor" stroke-width="2" stroke-width="0.9238" d="m8.909 19.01v2.077"/>
        <path fill="none" stroke="currentColor" stroke-width="2" stroke-width="0.9285" d="m11.46 19v2.099"/>
        <path fill="none" stroke="currentColor" stroke-width="2" stroke-width="1" d="m8.544 21.09h3.286"/>
      </g>
      <g transform="translate(5.509 -.1145)">
        <path fill="none" stroke="currentColor" stroke-width="2" stroke-width="1" d="m8.613 25.61s1.511-7.361 3.138 7.6e-5"/>
        <path fill="none" stroke="currentColor" stroke-width="2" stroke-width="0.9992" d="m10.18 18.58 0.0049 2.448"/>
        <path fill="none" stroke="currentColor" stroke-width="2" stroke-width="0.9238" d="m8.909 19.01v2.077"/>
        <path fill="none" stroke="currentColor" stroke-width="2" stroke-width="0.9285" d="m11.46 19v2.099"/>
        <path fill="none" stroke="currentColor" stroke-width="2" stroke-width="1" d="m8.544 21.09h3.286"/>
      </g>
      <g transform="translate(5.509 -.1145)">
        <path fill="none" stroke="currentColor" stroke-width="2" stroke-width="1" d="m8.613 25.61s1.511-7.361 3.138 7.6e-5"/>
        <path fill="none" stroke="currentColor" stroke-width="2" stroke-width="0.9992" d="m10.18 18.58 0.0049 2.448"/>
        <path fill="none" stroke="currentColor" stroke-width="2" stroke-width="0.9238" d="m8.909 19.01v2.077"/>
        <path fill="none" stroke="currentColor" stroke-width="2" stroke-width="0.9285" d="m11.46 19v2.099"/>
        <path fill="none" stroke="currentColor" stroke-width="2" stroke-width="1" d="m8.544 21.09h3.286"/>
      </g>
      <g transform="translate(.0215 8.033)">
        <path fill="none" stroke="currentColor" stroke-width="2" stroke-width="1" d="m8.613 25.61s1.511-7.361 3.138 7.6e-5"/>
        <path fill="none" stroke="currentColor" stroke-width="2" stroke-width="0.9992" d="m10.18 18.58 0.0049 2.448"/>
        <path fill="none" stroke="currentColor" stroke-width="2" stroke-width="0.9238" d="m8.909 19.01v2.077"/>
        <path fill="none" stroke="currentColor" stroke-width="2" stroke-width="0.9285" d="m11.46 19v2.099"/>
        <path fill="none" stroke="currentColor" stroke-width="2" stroke-width="1" d="m8.544 21.09h3.286"/>
      </g>
      <g transform="translate(5.509,7.919)">
        <path fill="none" stroke="currentColor" stroke-width="2" stroke-width="1" d="m8.613 25.61s1.511-7.361 3.138 7.6e-5"/>
        <path fill="none" stroke="currentColor" stroke-width="2" stroke-width="0.9992" d="m10.18 18.58 0.0049 2.448"/>
        <path fill="none" stroke="currentColor" stroke-width="2" stroke-width="0.9238" d="m8.909 19.01v2.077"/>
        <path fill="none" stroke="currentColor" stroke-width="2" stroke-width="0.9285" d="m11.46 19v2.099"/>
        <path fill="none" stroke="currentColor" stroke-width="2" stroke-width="1" d="m8.544 21.09h3.286"/>
      </g>
    </g>
  </g>
  <g id="line">
    <rect x="5" y="17" width="62" height="38" fill="none" stroke="currentColor" stroke-linecap="round" stroke-linejoin="round" stroke-width="2"/>
  </g>
</symbol>
<symbol id="1F3F4-E0065-E0073-E006D-E0064-E007F" viewBox="0 0 72 72">
  <g id="line-supplement" stroke="currentColor" stroke-linecap="round" stroke-linejoin="round" stroke-width="1.03">
    <path fill="none" stroke="currentColor" stroke-width="2" transform="matrix(.8291 0 0 .8291 16.47 12.14)" d="m36 31.25 1.234 3.551 3.759 0.07667-2.996 2.271 1.089 3.598-3.085-2.148-3.085 2.147 1.089-3.598-2.996-2.272 3.758-0.07657z"/>
    <path fill="none" stroke="currentColor" stroke-width="2" transform="matrix(.8291 0 0 .8291 6.147 12.13)" d="m36 31.25 1.234 3.551 3.759 0.07667-2.996 2.271 1.089 3.598-3.085-2.148-3.085 2.147 1.089-3.598-2.996-2.272 3.758-0.07657z"/>
    <path fill="none" stroke="currentColor" stroke-width="2" transform="matrix(.8291 0 0 .8291 -4.176 12.13)" d="m36 31.25 1.234 3.551 3.759 0.07667-2.996 2.271 1.089 3.598-3.085-2.148-3.085 2.147 1.089-3.598-2.996-2.272 3.758-0.07657z"/>
    <path fill="none" stroke="currentColor" stroke-width="2" transform="matrix(.8291 0 0 .8291 21.64 1.116)" d="m36 31.25 1.234 3.551 3.759 0.07667-2.996 2.271 1.089 3.598-3.085-2.148-3.085 2.147 1.089-3.598-2.996-2.272 3.758-0.07657z"/>
    <path fill="none" stroke="currentColor" stroke-width="2" transform="matrix(.8291 0 0 .8291 11.31 1.113)" d="m36 31.25 1.234 3.551 3.759 0.07667-2.996 2.271 1.089 3.598-3.085-2.148-3.085 2.147 1.089-3.598-2.996-2.272 3.758-0.07657z"/>
    <path fill="none" stroke="currentColor" stroke-width="2" transform="matrix(.8291 0 0 .8291 .9906 1.11)" d="m36 31.25 1.234 3.551 3.759 0.07667-2.996 2.271 1.089 3.598-3.085-2.148-3.085 2.147 1.089-3.598-2.996-2.272 3.758-0.07657z"/>
    <path fill="none" stroke="currentColor" stroke-width="2" transform="matrix(.8291 0 0 .8291 -9.332 1.107)" d="m36 31.25 1.234 3.551 3.759 0.07667-2.996 2.271 1.089 3.598-3.085-2.148-3.085 2.147 1.089-3.598-2.996-2.272 3.758-0.07657z"/>
  </g>
  <g id="line">
    <rect x="5" y="17" width="62" height="38" fill="none" stroke="currentColor" stroke-linecap="round" stroke-linejoin="round" stroke-width="2"/>
  </g>
</symbol>
<symbol id="1F3F4-E0065-E0073-E006D-E006C-E007F" viewBox="0 0 72 72">
  <g id="line">
    <rect x="5" y="17" width="62" height="38" fill="none" stroke="currentColor" stroke-linecap="round" stroke-linejoin="round" stroke-width="2"/>
  </g>
</symbol>
<symbol id="1F3F4-E0065-E0073-E006E-E0063-E007F" viewBox="0 0 72 72">
  <g id="line">
    <rect x="5" y="17" width="62" height="38" fill="none" stroke="currentColor" stroke-linecap="round" stroke-linejoin="round" stroke-width="2"/>
  </g>
</symbol>
<symbol id="1F3F4-E0065-E0073-E0070-E0076-E007F" viewBox="0 0 72 72">
  <g id="line">
    <rect x="5" y="17" width="62" height="38" fill="none" stroke="currentColor" stroke-linecap="round" stroke-linejoin="round" stroke-width="2"/>
  </g>
</symbol>
<symbol id="1F3F4-E0065-E0073-E0072-E0069-E007F" viewBox="0 0 72 72">
  <g id="line">
    <rect x="5" y="17" width="62" height="38" fill="none" stroke="currentColor" stroke-linecap="round" stroke-linejoin="round" stroke-width="2"/>
  </g>
</symbol>
<symbol id="1F3F4-E0065-E0073-E0076-E0063-E007F" viewBox="0 0 72 72">
  <g id="line">
    <rect x="5" y="17" width="62" height="38" fill="none" stroke="currentColor" stroke-linecap="round" stroke-linejoin="round" stroke-width="2"/>
  </g>
</symbol>
<symbol id="1F3F4-E0066-E0072-E0062-E0072-E0065-E007F" viewBox="0 0 72 72">
  <g id="line">
    <rect x="5" y="17" width="62" height="38" fill="none" stroke="currentColor" stroke-linecap="round" stroke-linejoin="round" stroke-width="2"/>
  </g>
</symbol>
<symbol id="1F3F4-E0075-E0073-E0063-E0061-E007F" viewBox="0 0 72 72">
  <g id="line">
    <path fill="none" stroke="currentColor" stroke-linecap="round" stroke-linejoin="round" stroke-width="2" d="M67 17H5V55H67V17Z"/>
  </g>
</symbol>
<symbol id="1F3F4-E0075-E0073-E0063-E006F-E007F" viewBox="0 0 72 72">
  <g id="line">
    <g stroke-width="2">
      <rect x="5" y="17" width="62" height="38" fill="none" stroke="currentColor" stroke-linecap="round" stroke-linejoin="round" stroke-width="2"/>
    </g>
  </g>
</symbol>
<symbol id="1F3F4-E0075-E0073-E0074-E0078-E007F" viewBox="0 0 72 72">
  <g id="line">
    <rect x="5" y="17" width="62" height="38" fill="none" stroke="currentColor" stroke-linecap="round" stroke-linejoin="round" stroke-width="2"/>
  </g>
</symbol>
<symbol id="1F3F4-E0077-E0064-E0063-E007F" viewBox="0 0 72 72">
  <g id="line">
    <rect x="5" y="17" width="62" height="38" fill="none" stroke="currentColor" stroke-linecap="round" stroke-linejoin="round" stroke-width="2"/>
  </g>
</symbol>
<symbol id="002D" viewBox="0 0 72 72">
  <g id="line-supplement">
    <polyline fill="currentColor" stroke="none" points="59,41 13,41 13,31 59,31"/>
  </g>
  <g id="line">
    <rect x="13" y="31" width="46" height="10" fill="none" stroke="currentColor" stroke-linecap="round" stroke-linejoin="round" stroke-miterlimit="10" stroke-width="2"/>
  </g>
</symbol>
<symbol id="1F10D" viewBox="0 0 72 72">
  <g id="line">
    <circle cx="36" cy="36" r="26.68" fill="none" stroke="currentColor" stroke-linecap="round" stroke-linejoin="round" stroke-width="4.74" paint-order="normal"/>
    <path fill="none" stroke="currentColor" stroke-linejoin="round" stroke-width="4.74" d="m43.24 22.41-15.01 26-0.3267-0.1886"/>
    <g transform="matrix(4.347 0 0 4.347 36 20.78)" fill-rule="evenodd" stroke-linecap="round" stroke-linejoin="round" stroke-miterlimit="10" clip-rule="evenodd">
      <path fill="none" stroke="currentColor" stroke-miterlimit="10" stroke-width="1.84" d="m0 7c-1.058 0-1.916-0.857-1.916-1.916v-3.168c0-1.058 0.858-1.916 1.916-1.916s1.916 0.858 1.916 1.916v3.168c0 1.059-0.858 1.916-1.916 1.916z"/>
    </g>
  </g>
</symbol>
<symbol id="1F10E" viewBox="0 0 72 72">
  <g id="line">
    <circle cx="36" cy="36" r="26.68" fill="none" stroke="currentColor" stroke-linecap="round" stroke-linejoin="round" stroke-width="4.74" paint-order="normal"/>
    <path fill="none" stroke="currentColor" stroke-linecap="round" stroke-linejoin="round" stroke-miterlimit="7" stroke-width="7" d="m20.66 30.58 5.421 5.421 5.424-5.424"/>
    <path fill="none" stroke="currentColor" stroke-linecap="round" stroke-linejoin="round" stroke-miterlimit="7" stroke-width="7" d="m25.13 31.65c0-6.003 4.869-10.87 10.87-10.87 5.999 0 10.87 4.865 10.87 10.87v8.693-8.693 8.693c0 6.003-4.869 10.87-10.87 10.87-4.264 0-7.957-2.457-9.739-6.034" clip-rule="evenodd"/>
  </g>
</symbol>
<symbol id="1F10F" viewBox="0 0 72 72">
  <g id="line">
    <circle cx="36" cy="36" r="26.68" fill="none" stroke="currentColor" stroke-linecap="round" stroke-linejoin="round" stroke-width="4.74"/>
    <path fill="none" stroke="currentColor" stroke-linecap="round" stroke-linejoin="round" stroke-width="4.74" d="m 54.49 54.46 l -36.46 -36.46 l .4581 -.4581"/>
    <path fill="none" stroke="currentColor" stroke-linecap="round" stroke-linejoin="round" stroke-width="6.3" d="m 42.88 27.333584 c -.64862 -2.524872 -3.451924 -4.420108 -6.812092 -4.420108 c -3.841096 0 -6.954472 2.477412 -6.954472 5.537 c 0 3.056424 3.024784 6.210932 6.884864 7.54614 c 3.86008 1.3342588 6.963964 4.20812 6.884864 7.54614 c -.07391104 3.0586388 -3.113376 5.537 -6.954472 5.537 c -3.360168 0 -6.163472 -1.8984 -6.812092 -4.423272"/>
    <path fill="none" stroke="currentColor" stroke-linecap="round" stroke-linejoin="round" stroke-width="6.3" d="m36.00,17.6 v5.28"/>
    <path fill="none" stroke="currentColor" stroke-linecap="round" stroke-linejoin="round" stroke-width="6.3" d="m36.00,54.4 v-5.28"/>
  </g>
</symbol>
<symbol id="1F12F" viewBox="0 0 72 72">
  <g id="line">
    <path fill="none" stroke="currentColor" stroke-linecap="round" stroke-linejoin="round" stroke-miterlimit="10" stroke-width="8.693" d="m28.98 48.48c1.917 1.7 4.442 2.734 7.212 2.734 5.999 0 10.87-4.865 10.87-10.87v-8.693 8.693-8.693c0-6.003-4.869-10.87-10.87-10.87-2.769 0-5.295 1.035-7.212 2.734" clip-rule="evenodd"/>
    <circle cx="36" cy="36" r="26.68" fill="none" stroke="currentColor" stroke-linecap="round" stroke-linejoin="round" stroke-width="4.74" paint-order="normal"/>
  </g>
</symbol>
<symbol id="1F16D" viewBox="0 0 72 72">
  <g id="line">
    <path fill="none" stroke="currentColor" stroke-linecap="round" stroke-linejoin="round" stroke-miterlimit="10" stroke-width="5.84" d="m52.34 44.08c-1.288 1.142-2.984 1.837-4.845 1.837-4.03 0-7.301-3.268-7.301-7.301v-5.84 5.84-5.84c0-4.033 3.271-7.301 7.301-7.301 1.86 0 3.557 0.695 4.845 1.837" clip-rule="evenodd"/>
    <path fill="none" stroke="currentColor" stroke-linecap="round" stroke-linejoin="round" stroke-miterlimit="10" stroke-width="5.84" d="m31.78 44.69c-1.288 1.142-2.984 1.837-4.845 1.837-4.03 0-7.301-3.268-7.301-7.301v-5.84 5.84-5.84c0-4.033 3.271-7.301 7.301-7.301 1.86 0 3.557 0.695 4.845 1.837" clip-rule="evenodd"/>
    <circle cx="36" cy="36" r="26.68" fill="none" stroke="currentColor" stroke-linecap="round" stroke-linejoin="round" stroke-width="4.74" paint-order="normal"/>
  </g>
</symbol>
<symbol id="1F16E" viewBox="0 0 72 72">
  <g id="line">
    <path fill="none" stroke="currentColor" stroke-linecap="round" stroke-linejoin="round" stroke-miterlimit="10" stroke-width="8.693" d="m43.02 48.48c-1.917 1.7-4.442 2.734-7.212 2.734-5.999 0-10.87-4.865-10.87-10.87v-8.693 8.693-8.693c0-6.003 4.869-10.87 10.87-10.87 2.769 0 5.295 1.035 7.212 2.734" clip-rule="evenodd"/>
    <circle cx="36" cy="36" r="26.68" fill="none" stroke="currentColor" stroke-linecap="round" stroke-linejoin="round" stroke-width="4.74" paint-order="normal"/>
    <path fill="none" stroke="currentColor" stroke-linejoin="round" stroke-width="4.74" d="m54.49 54.46-36.46-36.46 0.4581-0.4581"/>
  </g>
</symbol>
<symbol id="1F16F" viewBox="0 0 72 72">
  <g id="line">
    <circle cx="36" cy="36" r="26.68" fill="none" stroke="currentColor" stroke-linecap="round" stroke-linejoin="round" stroke-width="4.75"/>
    <circle cx="36" cy="19.355" r="2" fill="currentColor" stroke="currentColor" stroke-linecap="round" stroke-linejoin="round" stroke-width="1.33"/>
    <path fill="currentColor" stroke="currentColor" stroke-linecap="round" stroke-linejoin="round" stroke-width="1.33" d="m 30.027694 39.967258 l 11.9436336 -.00003331 l -.5276304 -12.6578 c -.096599 -1.852036 -1.615535 -3.3103478 -3.4455864 -3.331 l -3.9732168 .00003331 c -1.8540346 .0206522 -3.37337032 1.478964 -3.4695696 3.331 z"/>
    <path fill="currentColor" stroke="currentColor" stroke-linecap="round" stroke-linejoin="round" stroke-width="1.33" d="m 32.6944926 27.975658 l -1.26578 25.3156 c -.036641 .73282 .383065 1.3324 .93268 1.3324 a 1.3830312 1.3830312 0 0 0 1.1518598 -1.3237394 l 1.6914818 -14.676386 c .0839412 -.7281566 .4523498 -1.3237394 .8187598 -1.3237394 s .73282 .5955828 .8187598 1.3237394 l 1.6934804 14.676386 a 1.3830312 1.3830312 0 0 0 1.1518598 1.3237394 c .549615 0 .969321 -.59958 .93268 -1.3324 l -1.26578 -25.3156 z"/>
  </g>
</symbol>
<symbol id="1F260" viewBox="0 0 72 72">
  <g id="line">
    <circle cx="36" cy="36" r="28" fill="none" stroke="currentColor" stroke-linejoin="round" stroke-miterlimit="10" stroke-width="2"/>
    <path fill="none" stroke="currentColor" stroke-linecap="round" stroke-linejoin="round" stroke-width="2" d="M39,13.2 A23,23,0,0,1,53.4,21"/>
    <path fill="none" stroke="currentColor" stroke-linecap="round" stroke-linejoin="round" stroke-width="2" d="M39,58.8 a23,23,0,0,0,19.8,-19.8 H39z M39,47 h17 M45,39 v18"/>
    <path fill="none" stroke="currentColor" stroke-linecap="round" stroke-linejoin="round" stroke-width="2" d="M39,33 H58.8 a23,23,0,0,0,-2.7,-8 H39z"/>
    <path fill="none" stroke="currentColor" stroke-linecap="round" stroke-linejoin="round" stroke-width="2" d="M33,27 V13.2 A23,23,0,0,0,14.7,27"/>
    <path fill="none" stroke="currentColor" stroke-linecap="round" stroke-linejoin="round" stroke-width="2" d="M33,58.8 V33 H13.2 A23,23,0,0,0,15,45"/>
    <path fill="none" stroke="currentColor" stroke-linecap="round" stroke-linejoin="round" stroke-width="2" d="M24,33 V55.5"/>
  </g>
</symbol>
<symbol id="1F261" viewBox="0 0 72 72">
  <g id="line">
    <circle cx="36" cy="36" r="28" fill="none" stroke="currentColor" stroke-linejoin="round" stroke-width="2"/>
    <path fill="none" stroke="currentColor" stroke-linecap="round" stroke-linejoin="round" stroke-miterlimit="10" stroke-width="2" d="M 13.2 33 a23,23,0,0,1,45.6,0 H39 v-14.8 a18,18,0,0,1,13.1,9.8 H45 M 13.2 33 H33 v-14.8 a18,18,0,0,0,-13.1,9.8 H27 M 13.2 39 a23,23,0,0,0,45.6,0 H39 v14.8 a18,18,0,0,0,13.1,-9.8 H45 M 13.2 39 H33 v14.8 a18,18,0,0,1,-13.1,-9.8 H 27 M19.8,19.8 l3.2,3.2 M52.2,52.2 l-3.2,-3.2 M19.8,52.2 l3.2,-3.2 M52.2,19.8 l-3.2,3.2 M 18.1 39 a18,18,0,0,1,0,-6 M 53.9 39 a18,18,0,0,0,0,-6"/>
  </g>
</symbol>
<symbol id="1F262" viewBox="0 0 72 72">
  <g id="line">
    <circle cx="36" cy="36" r="28" fill="none" stroke="currentColor" stroke-linejoin="round" stroke-miterlimit="10" stroke-width="2"/>
    <path fill="none" stroke="currentColor" stroke-linecap="round" stroke-linejoin="round" stroke-width="2" d="M23,36 h26 M24,31 h24 M36,31 v5"/>
    <path fill="none" stroke="currentColor" stroke-linecap="round" stroke-linejoin="round" stroke-width="2" d="M21.5,26 H50.5 A18,18,0,0,1,54,36 H59 A23,23,0,0,0,56.5,26"/>
    <path fill="none" stroke="currentColor" stroke-linecap="round" stroke-linejoin="round" stroke-width="2" d="M21.5,26 A18,18,0,0,0,18,36 H13 A23,23,0,0,1,15.5,26"/>
    <path fill="none" stroke="currentColor" stroke-linecap="round" stroke-linejoin="round" stroke-width="2" d="M14,42 H58 A23,23,0,0,1,39,59"/>
    <path fill="none" stroke="currentColor" stroke-linecap="round" stroke-linejoin="round" stroke-width="2" d="M14,42 A23,23,0,0,0,33,59"/>
    <path fill="none" stroke="currentColor" stroke-linecap="round" stroke-linejoin="round" stroke-width="2" d="M22,47 H50 A23,23,0,0,1,39,53.8"/>
    <path fill="none" stroke="currentColor" stroke-linecap="round" stroke-linejoin="round" stroke-width="2" d="M22,47 A23,23,0,0,0,33,53.8"/>
    <path fill="none" stroke="currentColor" stroke-linecap="round" stroke-linejoin="round" stroke-width="2" d="M36,42 v5"/>
    <path fill="none" stroke="currentColor" stroke-linecap="round" stroke-linejoin="round" stroke-width="2" d="M18.5,21 A23,23,0,0,1,53.5,21"/>
    <path fill="none" stroke="currentColor" stroke-linecap="round" stroke-linejoin="round" stroke-width="2" d="M26,21 A18,18,0,0,1,46,21"/>
    <path fill="none" stroke="currentColor" stroke-linecap="round" stroke-linejoin="round" stroke-width="2" d="M36,13 v8"/>
  </g>
</symbol>
<symbol id="1F263" viewBox="0 0 72 72">
  <g id="line">
    <circle cx="36" cy="36" r="28" fill="none" stroke="currentColor" stroke-linejoin="round" stroke-miterlimit="10" stroke-width="2"/>
    <rect x="33" y="33" width="6" height="6" fill="none" stroke="currentColor" stroke-linecap="round" stroke-linejoin="round" stroke-miterlimit="10" stroke-width="2"/>
    <rect x="33" y="53" width="6" height="6" fill="none" stroke="currentColor" stroke-linecap="round" stroke-linejoin="round" stroke-miterlimit="10" stroke-width="2"/>
    <rect x="33" y="13" width="6" height="6" fill="none" stroke="currentColor" stroke-linecap="round" stroke-linejoin="round" stroke-miterlimit="10" stroke-width="2"/>
    <path fill="none" stroke="currentColor" stroke-linecap="round" stroke-linejoin="round" stroke-miterlimit="10" stroke-width="2" d="M36,19 v14"/>
    <path fill="none" stroke="currentColor" stroke-linecap="round" stroke-linejoin="round" stroke-miterlimit="10" stroke-width="2" d="M36,39 v14"/>
    <path fill="none" stroke="currentColor" stroke-linecap="round" stroke-linejoin="round" stroke-miterlimit="10" stroke-width="2" d="M28,24 h16"/>
    <path fill="none" stroke="currentColor" stroke-linecap="round" stroke-linejoin="round" stroke-miterlimit="10" stroke-width="2" d="M28,28 h16"/>
    <path fill="none" stroke="currentColor" stroke-linecap="round" stroke-linejoin="round" stroke-miterlimit="10" stroke-width="2" d="M28,44 h16"/>
    <path fill="none" stroke="currentColor" stroke-linecap="round" stroke-linejoin="round" stroke-miterlimit="10" stroke-width="2" d="M28,48 h16"/>
    <path fill="none" stroke="currentColor" stroke-linecap="round" stroke-linejoin="round" stroke-miterlimit="10" stroke-width="2" d="M28,14.5 V33 H18.2 a18,18,0,0,1,5.2,-10 v5.6 M28,57.5 V39 H18.2 a18,18,0,0,0,5.2,10 v-5.6 M44,14.5 V33 H53.8 a18,18,0,0,0,-5.2,-10 v5.6 M44,57.5 V39 H53.8 a18,18,0,0,1,-5.2,10 v-5.6"/>
    <path fill="none" stroke="currentColor" stroke-linecap="round" stroke-linejoin="round" stroke-miterlimit="10" stroke-width="2" d="M28,14.5 a23,23,0,0,0,0,43 M44,14.5 a23,23,0,0,1,0,43"/>
    <path fill="none" stroke="currentColor" stroke-linecap="round" stroke-linejoin="round" stroke-miterlimit="10" stroke-width="2" d="M24,33 v6"/>
    <path fill="none" stroke="currentColor" stroke-linecap="round" stroke-linejoin="round" stroke-miterlimit="10" stroke-width="2" d="M48,33 v6"/>
  </g>
</symbol>
<symbol id="1F264" viewBox="0 0 72 72">
  <g id="line">
    <circle cx="36" cy="36" r="28" fill="none" stroke="currentColor" stroke-linejoin="round" stroke-miterlimit="10" stroke-width="2"/>
    <path fill="none" stroke="currentColor" stroke-linecap="round" stroke-linejoin="round" stroke-width="2" d="M39,36 H58.8 a23,23,0,0,0,-1,-6 H39z"/>
    <path fill="none" stroke="currentColor" stroke-linecap="round" stroke-linejoin="round" stroke-width="2" d="M33,36 H13.2 a23,23,0,0,1,1,-6 H33z"/>
    <path fill="none" stroke="currentColor" stroke-linecap="round" stroke-linejoin="round" stroke-width="2" d="M16.5,24 H55.5 M22,18 H50 M31,13.5 V24 M41,13.5 V24"/>
    <path fill="none" stroke="currentColor" stroke-linecap="round" stroke-linejoin="round" stroke-width="2" d="M14,42 H58 M28,36 V48 M44,36 V48"/>
    <path fill="none" stroke="currentColor" stroke-linecap="round" stroke-linejoin="round" stroke-width="2" d="M33,48 H16.5 A23,23,0,0,0,33,58.8z"/>
    <path fill="none" stroke="currentColor" stroke-linecap="round" stroke-linejoin="round" stroke-width="2" d="M39,48 H55.5 A23,23,0,0,1,39,58.8z"/>
  </g>
</symbol>
<symbol id="1F265" viewBox="0 0 72 72">
  <g id="line">
    <circle cx="36" cy="36" r="28" fill="none" stroke="currentColor" stroke-linejoin="round" stroke-miterlimit="10" stroke-width="2"/>
    <rect x="33" y="26" width="6" height="20" fill="none" stroke="currentColor" stroke-linecap="round" stroke-linejoin="round" stroke-miterlimit="10" stroke-width="2"/>
    <path fill="none" stroke="currentColor" stroke-linecap="round" stroke-linejoin="round" stroke-miterlimit="10" stroke-width="2" d="M28,21 h5 v-8 h6 v8 h5"/>
    <path fill="none" stroke="currentColor" stroke-linecap="round" stroke-linejoin="round" stroke-miterlimit="10" stroke-width="2" d="M28,51 h5 v8 h6 v-8 h5"/>
    <path fill="none" stroke="currentColor" stroke-linecap="round" stroke-linejoin="round" stroke-miterlimit="10" stroke-width="2" d="M44,36 h15"/>
    <path fill="none" stroke="currentColor" stroke-linecap="round" stroke-linejoin="round" stroke-miterlimit="10" stroke-width="2" d="M28,36 h-15"/>
    <path fill="none" stroke="currentColor" stroke-linecap="round" stroke-linejoin="round" stroke-miterlimit="10" stroke-width="2" d="M28,14.5 v43 a23,23,0,0,1,-14.5,-16.5 H23 v7.5 a18,18,0,0,1,-2.5,-3"/>
    <path fill="none" stroke="currentColor" stroke-linecap="round" stroke-linejoin="round" stroke-miterlimit="10" stroke-width="2" d="M28,14.5 a23,23,0,0,0,-14.5,16.5 H23 v-7.5 a18,18,0,0,0,-2.5,3"/>
    <path fill="none" stroke="currentColor" stroke-linecap="round" stroke-linejoin="round" stroke-miterlimit="10" stroke-width="2" d="M44,14.5 v43 a23,23,0,0,0,14.5,-16.5 H49 v7.5 a18,18,0,0,0,2.5,-3"/>
    <path fill="none" stroke="currentColor" stroke-linecap="round" stroke-linejoin="round" stroke-miterlimit="10" stroke-width="2" d="M44,14.5 a23,23,0,0,1,14.5,16.5 H49 v-7.5 a18,18,0,0,1,2.5,3"/>
  </g>
</symbol>
<symbol id="1F431-200D-1F4BB" viewBox="0 0 72 72">
  <g id="line">
    <path fill="none" stroke="currentColor" stroke-linecap="round" stroke-linejoin="round" stroke-width="2" d="m36.8723,47.8986c-.3528.0548-.7094.0819-1.0665.0811h.125c-3.0736.0063-5.8081-1.4642-9-3.5921-12,0-9.8856,13.561-9.8856,13.561"/>
    <polyline fill="none" stroke="currentColor" stroke-linecap="round" stroke-linejoin="round" stroke-width="2" points="35.467 52.133 26.929 52.133 26.931 44.888"/>
    <line x1="22.2649" x2="22.2649" y1="45.7569" y2="57.8666" fill="none" stroke="currentColor" stroke-linecap="round" stroke-linejoin="round" stroke-width="2"/>
    <polygon fill="none" stroke="currentColor" stroke-linecap="round" stroke-linejoin="round" stroke-width="2" points="35.147 59.772 60.137 59.772 67.087 43.423 42.097 43.423 35.147 59.772"/>
    <line x1="24.1767" x2="35.1467" y1="59.7725" y2="59.7725" fill="none" stroke="currentColor" stroke-linecap="round" stroke-linejoin="round" stroke-width="2"/>
    <line x1="38.2936" x2="35.8502" y1="35.589" y2="32.5747" fill="none" stroke="currentColor" stroke-linecap="round" stroke-linejoin="round" stroke-width="1.8"/>
    <line x1="33.4068" x2="35.8502" y1="35.589" y2="32.5747" fill="none" stroke="currentColor" stroke-linecap="round" stroke-linejoin="round" stroke-width="1.8"/>
    <line x1="33.4068" x2="38.2936" y1="32.5747" y2="32.5747" fill="none" stroke="currentColor" stroke-linecap="round" stroke-linejoin="round" stroke-width="1.8"/>
    <path fill="none" stroke="currentColor" stroke-linecap="round" stroke-linejoin="round" stroke-width="2" d="m49.7667,23.869l.4387,4.1844c.0021,1.7794-.3434,3.5421-1.0171,5.189"/>
    <path fill="none" stroke="currentColor" stroke-linecap="round" stroke-linejoin="round" stroke-width="2" d="m22.5121,33.2423c-.6737-1.6469-1.0192-3.4095-1.0171-5.1889l2.138-18.99,6.4492,6.2109c1.7311-.72,3.5878-1.0893,5.4626-1.0868h.6108c1.875-.0024,3.7319.367,5.4632,1.0868l6.4485-6.2109.6655,6.399"/>
    <path fill="none" stroke="currentColor" stroke-linecap="round" stroke-linejoin="round" stroke-width="1.8" d="m28.1119,39.9719c2.2346,1.3761,4.8085,2.1022,7.4329,2.0969h.6108c2.6244.0054,5.1983-.7207,7.4329-2.0969"/>
    <ellipse fill="none" stroke="currentColor" stroke-width="2" cx="28.5199" cy="27.752" rx="1.2217" ry="1.2057"/>
    <ellipse fill="none" stroke="currentColor" stroke-width="2" cx="43.1805" cy="27.752" rx="1.2217" ry="1.2057"/>
    <path fill="none" stroke="currentColor" stroke-linecap="round" stroke-linejoin="round" stroke-width="1.6" d="m47.0723,24.9474s-8.1678,3.4075-7.7837,3.84c7.8154,7.0159,8.4286-2.8627,7.7837-3.84Z"/>
    <line x1="50.9216" x2="45.4239" y1="37.1947" y2="34.1804" fill="none" stroke="currentColor" stroke-linecap="round" stroke-linejoin="round" stroke-width="1.6"/>
    <line x1="48.6782" x2="43.1805" y1="39.8089" y2="36.7947" fill="none" stroke="currentColor" stroke-linecap="round" stroke-linejoin="round" stroke-width="1.6"/>
    <path fill="none" stroke="currentColor" stroke-linecap="round" stroke-linejoin="round" stroke-width="1.6" d="m24.6281,24.9474s7.5569,4.01,7.7837,3.84c-7.5445,7.3838-8.5455-2.2369-7.7837-3.84Z"/>
    <line x1="20.7788" x2="26.2765" y1="37.1947" y2="34.1804" fill="none" stroke="currentColor" stroke-linecap="round" stroke-linejoin="round" stroke-width="1.6"/>
    <line x1="23.0222" x2="28.5199" y1="39.8089" y2="36.7947" fill="none" stroke="currentColor" stroke-linecap="round" stroke-linejoin="round" stroke-width="1.6"/>
    <polyline fill="none" stroke="currentColor" stroke-linecap="round" stroke-linejoin="round" stroke-width="1.6" points="46.998 18.284 22.652 17.7 22.165 22.428 47.005 20.926"/>
    <path fill="none" stroke="currentColor" stroke-linecap="round" stroke-linejoin="round" stroke-width="1.6" d="m50.4972,19.6c0,1.1046-.8954,2-2,2s-2-.8954-2-2,.8954-2,2-2c1.1044.0004,1.9996.8956,2,2"/>
  </g>
</symbol>
<symbol id="1FBC5" viewBox="0 0 72 72">
  <g id="line">
    <path fill="none" stroke="currentColor" stroke-linecap="round" stroke-linejoin="round" stroke-width="2" d="m29.5,63.5l3-28.5h3"/>
    <path fill="none" stroke="currentColor" stroke-linecap="round" stroke-linejoin="round" stroke-width="2" d="m41,63.5l-3-28.5h-2.5"/>
    <path fill="none" stroke="currentColor" stroke-width="2" d="m32.5,35l-2.5-17"/>
    <path fill="none" stroke="currentColor" stroke-width="2" d="m38,35l2.5-17"/>
    <path fill="none" stroke="currentColor" stroke-linecap="round" stroke-linejoin="round" stroke-width="2" d="m35,18h5.5l2.5,24"/>
    <path fill="none" stroke="currentColor" stroke-linecap="round" stroke-linejoin="round" stroke-width="2" d="m35,18h-5l-2,24"/>
    <circle cx="35" cy="11" r="3" fill="none" stroke="currentColor" stroke-width="2"/>
  </g>
</symbol>
<symbol id="1FBC6" viewBox="0 0 72 72">
  <g id="line">
    <path fill="none" stroke="currentColor" stroke-linecap="round" stroke-linejoin="round" stroke-width="2" d="M29.5 63.5L32.5 35H35.5"/>
    <path fill="none" stroke="currentColor" stroke-linecap="round" stroke-linejoin="round" stroke-width="2" d="M41 63.5L38 35H35.5"/>
    <path fill="none" stroke="currentColor" stroke-linecap="round" stroke-width="2" d="M32.5 35L30 19.5"/>
    <path fill="none" stroke="currentColor" stroke-linecap="round" stroke-width="2" d="M38 35L40 19.5"/>
    <circle cx="35" cy="11" r="3" fill="none" stroke="currentColor" stroke-width="2"/>
    <path fill="none" stroke="currentColor" stroke-linecap="round" stroke-linejoin="round" stroke-width="2" d="M23 5L22 15.5L30 19.5"/>
    <path fill="none" stroke="currentColor" stroke-width="2" d="M30 19.5H40.5"/>
    <path fill="none" stroke="currentColor" stroke-linecap="round" stroke-linejoin="round" stroke-width="2" d="M47 5L48 15.5L40 19.5"/>
  </g>
</symbol>
<symbol id="1FBC7" viewBox="0 0 72 72">
  <g id="line">
    <path fill="none" stroke="currentColor" stroke-linecap="round" stroke-linejoin="round" stroke-width="2" d="m29.5,63.5l.5-28.5,6,1.5"/>
    <path fill="none" stroke="currentColor" stroke-linecap="round" stroke-linejoin="round" stroke-width="2" d="m43.5,63.5l-7.5-27"/>
    <path fill="none" stroke="currentColor" stroke-width="2" d="m30,35v-16"/>
    <path fill="none" stroke="currentColor" stroke-width="2" d="m36,36.5l3-18.5"/>
    <path fill="none" stroke="currentColor" stroke-linecap="round" stroke-linejoin="round" stroke-width="2" d="m30,19l9.5-2,2,23"/>
    <path fill="none" stroke="currentColor" stroke-linecap="round" stroke-linejoin="round" stroke-width="2" d="m30,19l-5,8,5,7.5"/>
    <circle cx="35" cy="11" r="3" fill="none" stroke="currentColor" stroke-width="2"/>
  </g>
</symbol>
<symbol id="1FBC8" viewBox="0 0 72 72">
  <g id="line">
    <path fill="none" stroke="currentColor" stroke-linecap="round" stroke-linejoin="round" stroke-width="2" d="m42.5,63.5l-.5-28.5-6,1.5"/>
    <path fill="none" stroke="currentColor" stroke-linecap="round" stroke-linejoin="round" stroke-width="2" d="m28.5,63.5l7.5-27"/>
    <path fill="none" stroke="currentColor" stroke-width="2" d="m42,35v-16"/>
    <path fill="none" stroke="currentColor" stroke-width="2" d="m36,36.5l-3-18.5"/>
    <path fill="none" stroke="currentColor" stroke-linecap="round" stroke-linejoin="round" stroke-width="2" d="m42,19l-9.5-2-2,23"/>
    <path fill="none" stroke="currentColor" stroke-linecap="round" stroke-linejoin="round" stroke-width="2" d="m42,19l5,8-5,7.5"/>
    <circle cx="37" cy="11" r="3" fill="none" stroke="currentColor" stroke-width="2"/>
  </g>
</symbol>
<symbol id="1FBC9" viewBox="0 0 72 72">
  <g id="line">
    <path fill="none" stroke="currentColor" stroke-linecap="round" stroke-linejoin="round" stroke-width="2" d="m29.5,63.5l3-28.5"/>
    <path fill="none" stroke="currentColor" stroke-linecap="round" stroke-linejoin="round" stroke-width="2" d="m41,63.5l-3-28.5"/>
    <path fill="none" stroke="currentColor" stroke-width="2" d="m38,35l2.5-17"/>
    <path fill="none" stroke="currentColor" stroke-width="2" d="m32.5,35l-2.5-17"/>
    <path fill="none" stroke="currentColor" stroke-linecap="round" stroke-linejoin="round" stroke-width="2" d="m35,18h5.5l2.5,24"/>
    <path fill="none" stroke="currentColor" stroke-linecap="round" stroke-linejoin="round" stroke-width="2" d="m35,18h-5l-2,24"/>
    <circle cx="35" cy="11" r="3" fill="none" stroke="currentColor" stroke-width="2"/>
    <path fill="none" stroke="currentColor" stroke-width="2" d="m29.5,63.5h11.5"/>
  </g>
</symbol>
<symbol id="2117" viewBox="0 0 72 72">
  <g id="line">
    <circle cx="36" cy="36" r="26.68" fill="none" stroke="currentColor" stroke-linecap="round" stroke-linejoin="round" stroke-width="4.74" paint-order="normal"/>
    <path transform="translate(29.2 21.73) scale(4.079)" fill="none" fill-rule="evenodd" stroke="currentColor" stroke-linecap="round" stroke-linejoin="round" stroke-miterlimit="10" stroke-width="2" d="m0 7v-7h2.669c0.963 0 1.744 0.781 1.744 1.744s-0.781 1.743-1.744 1.743h-2.669" clip-rule="evenodd"/>
  </g>
</symbol>
<symbol id="2120" viewBox="0 0 72 72">
  <g id="line">
    <path fill="none" stroke="currentColor" stroke-linecap="round" stroke-linejoin="round" stroke-width="6.581" d="m57.76,47.52v-23.03l-9.871,19.74-9.871-19.74v23.03"/>
    <path fill="none" stroke="currentColor" stroke-linecap="round" stroke-linejoin="round" stroke-width="6.574" d="m28.54,29.08c-.6739-2.623-3.586-4.592-7.077-4.592-3.991,0-7.225,2.574-7.225,5.753,0,3.175,3.235,5.753,7.225,5.753l-.1479.0197c3.991,0,7.225,2.577,7.225,5.753,0,3.179-3.235,5.753-7.225,5.753-3.491,0-6.403-1.972-7.077-4.596"/>
  </g>
</symbol>
<symbol id="229C" viewBox="0 0 72 72">
  <g id="line">
    <circle cx="36" cy="36" r="26.68" fill="none" stroke="currentColor" stroke-linecap="round" stroke-linejoin="round" stroke-width="4.74" paint-order="normal"/>
    <path fill="none" stroke="currentColor" stroke-linecap="round" stroke-linejoin="round" stroke-width="8.031" d="m28.03 42.18h15.95" clip-rule="evenodd"/>
    <path fill="none" stroke="currentColor" stroke-linecap="round" stroke-linejoin="round" stroke-width="8.031" d="m28.03 29.82h15.95" clip-rule="evenodd"/>
  </g>
</symbol>
<symbol id="23FB" viewBox="0 0 72 72">
  <g id="line">
    <path fill="none" stroke="currentColor" stroke-linecap="round" stroke-linejoin="round" stroke-width="2" d="m29.3333,17c-7.7679,2.7553-13.3333,10.1899-13.3333,18.929,0,11.0849,8.9543,20.071,20,20.071s20-8.9861,20-20.071c0-8.7391-5.5654-16.1737-13.3333-18.929"/>
    <path fill="none" stroke="currentColor" stroke-linecap="round" stroke-width="2" d="m36,11v25"/>
  </g>
</symbol>
<symbol id="23FC" viewBox="0 0 72 72">
  <g id="line">
    <path id="Line_1" fill="none" stroke="currentColor" stroke-linecap="round" stroke-width="2" d="m36,24v24"/>
    <path id="Vector_6-2" fill="none" stroke="currentColor" stroke-linejoin="round" stroke-width="2" d="m36,56c11.0457,0,20-8.9543,20-20s-8.9543-20-20-20-20,8.9543-20,20,8.9543,20,20,20Z"/>
  </g>
</symbol>
<symbol id="23FD" viewBox="0 0 72 72">
  <g id="line">
    <path fill="none" stroke="currentColor" stroke-linecap="round" stroke-width="2" d="M36 16L36 56"/>
  </g>
</symbol>
<symbol id="23FE" viewBox="0 0 72 72">
  <g id="line">
    <path fill="none" stroke="currentColor" stroke-linejoin="round" stroke-width="2" d="m53.5366,45.6237c-7.807,5.5256-18.6871,4.7925-25.6787-2.1991-6.4354-6.4354-7.5684-16.1653-3.399-23.7607-5.1179,3.6223-8.4589,9.589-8.4589,16.3361,0,11.0457,8.9543,20,20,20,7.5571,0,14.1353-4.1914,17.5366-10.3763Z"/>
  </g>
</symbol>
<symbol id="25A1" viewBox="0 0 72 72">
  <g id="line">
    <rect x="16" y="10.9583" width="40" height="50" fill="none" stroke="currentColor" stroke-linecap="round" stroke-linejoin="round" stroke-miterlimit="10" stroke-width="2"/>
    <line x1="56" x2="16" y1="10.9583" y2="60.9583" fill="none" stroke="currentColor" stroke-linecap="round" stroke-linejoin="round" stroke-miterlimit="10" stroke-width="2"/>
    <line x1="16" x2="56" y1="10.9583" y2="60.9583" fill="none" stroke="currentColor" stroke-linecap="round" stroke-linejoin="round" stroke-miterlimit="10" stroke-width="2"/>
  </g>
</symbol>
<symbol id="25AC" viewBox="0 0 72 72">
  <g id="line-supplement">
    <path fill="currentColor" d="M67 17H5V55H67V17Z"/>
  </g>
  <g id="line">
    <path fill="none" stroke="currentColor" stroke-linecap="round" stroke-linejoin="round" stroke-width="2" d="M67 17H5V55H67V17Z"/>
  </g>
</symbol>
<symbol id="25AD" viewBox="0 0 72 72">
  <g id="line">
    <rect x="5" y="17" width="62" height="38" fill="none" stroke="currentColor" stroke-linecap="round" stroke-linejoin="round" stroke-width="2"/>
  </g>
</symbol>
<symbol id="25AE" viewBox="0 0 72 72">
  <g id="line-supplement">
    <path fill="currentColor" d="M55 67L55 5L17 5L17 67L55 67Z"/>
  </g>
  <g id="line">
    <path fill="none" stroke="currentColor" stroke-linecap="round" stroke-linejoin="round" stroke-width="2" d="M55 67L55 5L17 5L17 67L55 67Z"/>
  </g>
</symbol>
<symbol id="25C9" viewBox="0 0 72 72">
  <g id="line">
    <circle cx="36" cy="36" r="7.25" fill="currentColor"/>
    <circle cx="36" cy="36" r="28" fill="none" stroke="currentColor" stroke-width="2"/>
  </g>
</symbol>
<symbol id="25D0" viewBox="0 0 72 72">
  <g id="line">
    <path fill="none" stroke="currentColor" stroke-linejoin="round" stroke-width="2" d="m36,64c15.464,0,28-12.536,28-28s-12.536-28-28-28-28,12.536-28,28,12.536,28,28,28Z"/>
    <path fill="none" stroke="currentColor" stroke-linecap="round" stroke-width="2" d="m36,8v53"/>
  </g>
</symbol>
<symbol id="25D1" viewBox="0 0 72 72">
  <g id="line-supplement">
    <path fill="currentColor" d="M35 44.2857V7C42.9565 7 50.5871 10.0553 56.2132 15.4939C61.8393 20.9325 65 28.3087 65 36C65 43.6913 61.8393 51.0675 56.2132 56.5061C50.5871 61.9447 42.9565 65 35 65V44.2857Z"/>
  </g>
  <g id="line">
    <path fill="none" stroke="currentColor" stroke-linejoin="round" stroke-width="2" d="M36 64C51.464 64 64 51.464 64 36C64 20.536 51.464 8 36 8C20.536 8 8 20.536 8 36C8 51.464 20.536 64 36 64Z"/>
    <path fill="none" stroke="currentColor" stroke-linecap="round" stroke-width="2" d="M36 8V61"/>
  </g>
</symbol>
<symbol id="25E7" viewBox="0 0 72 72">
  <g id="line-supplement">
    <path fill="currentColor" d="M37 12H12V60H37V12Z"/>
  </g>
  <g id="line">
    <path fill="none" stroke="currentColor" stroke-linejoin="round" stroke-width="2" d="M59.0349 60H12.9649C12.7092 59.9992 12.4642 59.8973 12.2834 59.7164C12.1026 59.5356 12.0007 59.2906 12 59.0349V12.9649C12.0008 12.7092 12.1027 12.4642 12.2836 12.2834C12.4644 12.1026 12.7094 12.0007 12.9651 12H59.0351C59.2908 12.0008 59.5358 12.1027 59.7166 12.2836C59.8974 12.4644 59.9993 12.7094 60 12.9651V59.0351C59.9992 59.2908 59.8973 59.5358 59.7164 59.7166C59.5356 59.8974 59.2906 59.9993 59.0349 60V60Z"/>
    <path fill="none" stroke="currentColor" stroke-linecap="round" stroke-width="2" d="M36 13V57"/>
  </g>
</symbol>
<symbol id="25E8" viewBox="0 0 72 72">
  <g id="line-supplement">
    <path fill="currentColor" d="M60 12H35V60H60V12Z"/>
  </g>
  <g id="line">
    <path fill="none" stroke="currentColor" stroke-linejoin="round" stroke-width="2" d="M59.0349 60H12.9649C12.7092 59.9992 12.4642 59.8973 12.2834 59.7164C12.1026 59.5356 12.0007 59.2906 12 59.0349V12.9649C12.0008 12.7092 12.1027 12.4642 12.2836 12.2834C12.4644 12.1026 12.7094 12.0007 12.9651 12H59.0351C59.2908 12.0008 59.5358 12.1027 59.7166 12.2836C59.8974 12.4644 59.9993 12.7094 60 12.9651V59.0351C59.9992 59.2908 59.8973 59.5358 59.7164 59.7166C59.5356 59.8974 59.2906 59.9993 59.0349 60V60Z"/>
    <path fill="none" stroke="currentColor" stroke-linecap="round" stroke-width="2" d="M36 13V57"/>
  </g>
</symbol>
<symbol id="25E9" viewBox="0 0 72 72">
  <g id="line">
    <path fill="none" stroke="currentColor" stroke-linejoin="round" stroke-width="2" d="m59.0349,60H12.9649c-.2557-.0008-.5007-.1027-.6815-.2836-.1808-.1808-.2827-.4258-.2834-.6815V12.9649c.0008-.2557.1027-.5007.2836-.6815.1808-.1808.4258-.2827.6815-.2834h46.07c.2557.0008.5007.1027.6815.2836.1808.1808.2827.4258.2834.6815v46.07c-.0008.2557-.1027.5007-.2836.6815-.1808.1808-.4258.2827-.6815.2834h0Z"/>
    <path fill="none" stroke="currentColor" stroke-linecap="round" stroke-width="2" d="m59,13L15,57"/>
  </g>
</symbol>
<symbol id="25EA" viewBox="0 0 72 72">
  <g id="line-supplement">
    <path fill="currentColor" d="M59 11.5L60 59H11.5L59 11.5Z"/>
  </g>
  <g id="line">
    <path fill="none" stroke="currentColor" stroke-linejoin="round" stroke-width="2" d="M59.0349 60H12.9649C12.7092 59.9992 12.4642 59.8973 12.2834 59.7164C12.1026 59.5356 12.0007 59.2906 12 59.0349V12.9649C12.0008 12.7092 12.1027 12.4642 12.2836 12.2834C12.4644 12.1026 12.7094 12.0007 12.9651 12H59.0351C59.2908 12.0008 59.5358 12.1027 59.7166 12.2836C59.8974 12.4644 59.9993 12.7094 60 12.9651V59.0351C59.9992 59.2908 59.8973 59.5358 59.7164 59.7166C59.5356 59.8974 59.2906 59.9993 59.0349 60V60Z"/>
    <path fill="none" stroke="currentColor" stroke-linecap="round" stroke-width="2" d="M59 13L15 57"/>
  </g>
</symbol>
<symbol id="25ED" viewBox="0 0 72 72">
  <g id="line-supplement">
    <path fill="currentColor" d="M34.9615 14H37V57H11.0385L10 56L34.9615 14Z"/>
  </g>
  <g id="line">
    <path fill="none" stroke="currentColor" stroke-miterlimit="10" stroke-width="2" d="M33.5451 15.2519L11.3194 53.7479C10.2284 55.6377 11.5922 57.9999 13.7743 57.9999H58.2257C60.4078 57.9999 61.7716 55.6377 60.6806 53.7479L38.4549 15.2519C37.3638 13.3621 34.6362 13.3621 33.5451 15.2519Z"/>
    <path fill="none" stroke="currentColor" stroke-linecap="round" stroke-width="2" d="M36 14.5V55"/>
  </g>
</symbol>
<symbol id="25EE" viewBox="0 0 72 72">
  <g id="line-supplement">
    <path fill="currentColor" d="M37.0385 14H35V57H60.9615L62 56L37.0385 14Z"/>
  </g>
  <g id="line">
    <path fill="none" stroke="currentColor" stroke-miterlimit="10" stroke-width="2" d="M33.5451 15.2519L11.3194 53.7479C10.2284 55.6377 11.5922 57.9999 13.7743 57.9999H58.2257C60.4078 57.9999 61.7716 55.6377 60.6806 53.7479L38.4549 15.2519C37.3638 13.3621 34.6362 13.3621 33.5451 15.2519Z"/>
    <path fill="none" stroke="currentColor" stroke-linecap="round" stroke-width="2" d="M36 14.5V55"/>
  </g>
</symbol>
<symbol id="2605" viewBox="0 0 72 72">
  <g id="line-supplement">
    <path fill="currentColor" d="M35.9928 10.7363L27.7913 27.3699L9.43939 30.0436L22.7245 42.9838L19.5962 61.2637L36.0084 52.6276L52.427 61.2515L49.2851 42.9739L62.5606 30.0239L44.2067 27.3638L35.9928 10.7363Z"/>
  </g>
  <g id="line">
    <path fill="none" stroke="currentColor" stroke-linecap="round" stroke-linejoin="round" stroke-miterlimit="10" stroke-width="2" d="M35.9928 10.7363L27.7913 27.3699L9.43939 30.0436L22.7245 42.9838L19.5962 61.2637L36.0084 52.6276L52.427 61.2515L49.2851 42.9739L62.5606 30.0239L44.2067 27.3638L35.9928 10.7363Z"/>
  </g>
</symbol>
<symbol id="2B0C" viewBox="0 0 72 72">
  <g id="line">
    <polygon id="_2" fill="none" stroke="currentColor" stroke-linecap="round" stroke-linejoin="round" stroke-width="2" points="48.341 19.828 44.641 23.928 53.841 32.528 17.54 32.528 26.74 23.928 23.04 19.828 6.34 35.628 23.04 51.428 26.74 47.328 17.54 38.728 53.841 38.728 44.641 47.328 48.341 51.428 65.041 35.628 48.341 19.828"/>
  </g>
</symbol>
<symbol id="2B0D" viewBox="0 0 72 72">
  <g id="line">
    <polygon id="_2" fill="none" stroke="currentColor" stroke-linecap="round" stroke-linejoin="round" stroke-width="2" points="52.509 48.279 48.409 44.579 39.809 53.779 39.809 17.478 48.409 26.678 52.509 22.978 36.709 6.278 20.909 22.978 25.009 26.678 33.609 17.478 33.609 53.779 25.009 44.579 20.909 48.279 36.709 64.979 52.509 48.279"/>
  </g>
</symbol>
<symbol id="2B1F" viewBox="0 0 72 72">
  <g id="line-supplement">
    <path fill="currentColor" d="M34.824 8.45109C35.525 7.94209 36.475 7.94209 37.176 8.45109L62.405 26.7811C63.106 27.2911 63.399 28.1931 63.132 29.0171L53.495 58.6761C53.227 59.5001 52.459 60.0581 51.593 60.0581H20.407C19.541 60.0581 18.773 59.5001 18.505 58.6761L8.868 29.0171C8.601 28.1931 8.894 27.2911 9.595 26.7811L34.824 8.45109Z"/>
  </g>
  <g id="line">
    <path fill="none" stroke="currentColor" stroke-width="2" d="M35.0536 8.38175C35.7546 7.87275 36.7046 7.87275 37.4056 8.38175L62.6346 26.7118C63.3356 27.2218 63.6286 28.1238 63.3616 28.9478L53.7246 58.6067C53.4566 59.4307 52.6886 59.9887 51.8226 59.9887H20.6366C19.7706 59.9887 19.0026 59.4307 18.7346 58.6067L9.09764 28.9478C8.83064 28.1238 9.12364 27.2218 9.82464 26.7118L35.0536 8.38175Z"/>
  </g>
</symbol>
<symbol id="2B20" viewBox="0 0 72 72">
  <g id="line">
    <path fill="none" stroke="currentColor" stroke-width="2" d="M34.824,10.451 C35.525,9.942 36.475,9.942 37.176,10.451 L62.405,28.781 C63.106,29.291 63.399,30.193 63.132,31.017 L53.495,60.676 C53.227,61.5 52.459,62.058 51.593,62.058 L20.407,62.058 C19.541,62.058 18.773,61.5 18.505,60.676 L8.868,31.017 C8.601,30.193 8.894,29.291 9.595,28.781 L34.824,10.451 z"/>
  </g>
</symbol>
<symbol id="2B21" viewBox="0 0 72 72">
  <g id="line">
    <path fill="none" stroke="currentColor" stroke-width="2" d="M35,7.577 C35.619,7.22 36.381,7.22 37,7.577 L60.115,20.923 C60.734,21.28 61.115,21.94 61.115,22.655 L61.115,49.345 C61.115,50.06 60.734,50.72 60.115,51.077 L37,64.423 C36.381,64.78 35.619,64.78 35,64.423 L11.885,51.077 C11.266,50.72 10.885,50.06 10.885,49.345 L10.885,22.655 C10.885,21.94 11.266,21.28 11.885,20.923 L35,7.577 z"/>
  </g>
</symbol>
<symbol id="2B22" viewBox="0 0 72 72">
  <g id="line-supplement">
    <path fill="currentColor" d="M35.0344 8.2613C35.6385 7.9129 36.3822 7.9129 36.9863 8.2613L59.5448 21.286C60.1489 21.6344 60.5207 22.2785 60.5207 22.9763V49.0237C60.5207 49.7215 60.1489 50.3656 59.5448 50.714L36.9863 63.7387C36.3822 64.0871 35.6385 64.0871 35.0344 63.7387L12.4759 50.714C11.8718 50.3656 11.5 49.7215 11.5 49.0237V22.9763C11.5 22.2785 11.8718 21.6344 12.4759 21.286L35.0344 8.2613Z"/>
  </g>
  <g id="line">
    <path fill="none" stroke="currentColor" stroke-width="2" d="M35.0344 8.2613C35.6385 7.9129 36.3822 7.9129 36.9863 8.2613L59.5448 21.286C60.1489 21.6344 60.5207 22.2785 60.5207 22.9763V49.0237C60.5207 49.7215 60.1489 50.3656 59.5448 50.714L36.9863 63.7387C36.3822 64.0871 35.6385 64.0871 35.0344 63.7387L12.4759 50.714C11.8718 50.3656 11.5 49.7215 11.5 49.0237V22.9763C11.5 22.2785 11.8718 21.6344 12.4759 21.286L35.0344 8.2613Z"/>
  </g>
</symbol>
<symbol id="2B23" viewBox="0 0 72 72">
  <g id="line-supplement">
    <path fill="currentColor" d="M8.2613 36.976C7.9129 36.3719 7.9129 35.6283 8.2613 35.0242L21.286 12.4657C21.6344 11.8616 22.2785 11.4897 22.9763 11.4897H49.0237C49.7215 11.4897 50.3656 11.8616 50.714 12.4657L63.7387 35.0242C64.0871 35.6283 64.0871 36.3719 63.7387 36.976L50.714 59.5345C50.3656 60.1386 49.7215 60.5104 49.0237 60.5104H22.9763C22.2785 60.5104 21.6344 60.1386 21.286 59.5345L8.2613 36.976Z"/>
  </g>
  <g id="line">
    <path fill="none" stroke="currentColor" stroke-width="2" d="M8.2613 36.976C7.9129 36.3719 7.9129 35.6283 8.2613 35.0242L21.286 12.4657C21.6344 11.8616 22.2785 11.4897 22.9763 11.4897H49.0237C49.7215 11.4897 50.3656 11.8616 50.714 12.4657L63.7387 35.0242C64.0871 35.6283 64.0871 36.3719 63.7387 36.976L50.714 59.5345C50.3656 60.1386 49.7215 60.5104 49.0237 60.5104H22.9763C22.2785 60.5104 21.6344 60.1386 21.286 59.5345L8.2613 36.976Z"/>
  </g>
</symbol>
<symbol id="2B24" viewBox="0 0 72 72">
  <g id="line-supplement">
    <path fill="currentColor" stroke="currentColor" stroke-linejoin="round" stroke-width="2" d="M36 66.0001C52.5685 66.0001 66 52.5687 66 36.0001C66 19.4316 52.5685 6.00012 36 6.00012C19.4315 6.00012 6 19.4316 6 36.0001C6 52.5687 19.4315 66.0001 36 66.0001Z"/>
  </g>
  <g id="line">
    <path fill="none" stroke="currentColor" stroke-linejoin="round" stroke-width="2" d="M36 66.0001C52.5685 66.0001 66 52.5687 66 36.0001C66 19.4316 52.5685 6.00012 36 6.00012C19.4315 6.00012 6 19.4316 6 36.0001C6 52.5687 19.4315 66.0001 36 66.0001Z"/>
  </g>
</symbol>
<symbol id="2B2E" viewBox="0 0 72 72">
  <g id="line-supplement">
    <path fill="currentColor" d="M55.9999 35.9585C56.0349 51.4217 47.1089 63.9768 36.063 64C25.0171 64.0231 16.0341 51.5057 16.0001 36.0415C15.9651 20.5783 24.8911 8.0232 35.937 8.00003C46.9829 7.97686 55.9659 20.4943 55.9999 35.9585Z"/>
  </g>
  <g id="line">
    <path fill="none" stroke="currentColor" stroke-width="2" d="M56 36C56 51.4637 47.046 64 36 64C24.954 64 16 51.4637 16 36C16 20.5363 24.954 8 36 8C47.046 8 56 20.5363 56 36Z"/>
  </g>
</symbol>
<symbol id="2B2F" viewBox="0 0 72 72">
  <g id="line">
    <path fill="none" stroke="currentColor" stroke-width="2" d="M56,35.957 C56.035,51.973 47.109,64.977 36.063,65.001 C25.017,65.025 16.034,52.06 16,36.043 C15.965,20.027 24.891,7.023 35.937,6.999 C46.983,6.975 55.966,19.94 56,35.957 z"/>
  </g>
</symbol>
<symbol id="2B58" viewBox="0 0 72 72">
  <g id="line">
    <path fill="none" stroke="currentColor" stroke-linejoin="round" stroke-miterlimit="10" stroke-width="2" d="M36 56C47.0457 56 56 47.0457 56 36C56 24.9543 47.0457 16 36 16C24.9543 16 16 24.9543 16 36C16 47.0457 24.9543 56 36 56Z"/>
  </g>
</symbol>
<symbol id="2B8F" viewBox="0 0 72 72">
  <g id="line">
    <path fill="none" stroke="currentColor" stroke-linecap="round" stroke-linejoin="round" stroke-width="2" d="M50.1655,50.5238l9.6-10.4,4.1,3.8-16.5,17.8-16.5-17.8,4.1-3.8,9.6,9.9806L44.5621,35.41c0-9.8053-3.9989-15.24-14.522-15.24C19.3324,20.17,15.83,26.9312,15.83,35.41V58.209H10.45V35.38c0-12.4,6.3149-20.59,19.59-20.59,13.5,0,20.1253,8.09,20.1253,20.59Z"/>
  </g>
</symbol>
<symbol id="2BBA" viewBox="0 0 72 72">
  <g id="line">
    <path fill="none" stroke="currentColor" stroke-linejoin="round" stroke-width="2" d="M60 12H28V44H60V12Z"/>
    <path fill="none" stroke="currentColor" stroke-linecap="round" stroke-linejoin="round" stroke-width="2" d="M23.5 29H11V61H43V49"/>
  </g>
</symbol>
<symbol id="2BBB" viewBox="0 0 72 72">
  <g id="line-supplement">
    <path fill="currentColor" d="M60 12H28V44H60V12Z"/>
  </g>
  <g id="line">
    <path fill="none" stroke="currentColor" stroke-linecap="round" stroke-linejoin="round" stroke-width="2" d="M24.5 28H12V60H44V48"/>
    <path fill="none" stroke="currentColor" stroke-linejoin="round" stroke-width="2" d="M60 12H28V44H60V12Z"/>
  </g>
</symbol>
<symbol id="2BBC" viewBox="0 0 72 72">
  <g id="line-supplement">
    <path fill="currentColor" stroke="currentColor" stroke-width="2" d="M44 28H12V60H44V28Z"/>
    <path fill="currentColor" d="M60 12H28V44H60V12Z"/>
  </g>
  <g id="line">
    <path fill="none" stroke="currentColor" stroke-linecap="round" stroke-linejoin="round" stroke-width="2" d="M24.5 28H12V60H44V48"/>
    <path fill="none" stroke="currentColor" stroke-linejoin="round" stroke-width="2" d="M60 12H28V44H60V12Z"/>
  </g>
</symbol>
<symbol id="2BC3" viewBox="0 0 72 72">
  <g id="line-supplement">
    <path fill="currentColor" d="M24.6621 10.5685C25.0261 10.2045 25.5197 10 26.0344 10H45.9658C46.4805 10 46.9742 10.2045 47.3382 10.5685L61.4318 24.6621C61.7958 25.0261 62.0003 25.5197 62.0003 26.0344V45.9658C62.0003 46.4805 61.7958 46.9742 61.4318 47.3382L47.3382 61.4318C46.9742 61.7958 46.4805 62.0003 45.9658 62.0003H26.0344C25.5197 62.0003 25.0261 61.7958 24.6621 61.4318L10.5685 47.3382C10.2045 46.9742 10 46.4805 10 45.9658V26.0344C10 25.5197 10.2045 25.0261 10.5685 24.6621L24.6621 10.5685Z"/>
  </g>
  <g id="line">
    <path fill="none" stroke="currentColor" stroke-width="2" d="M24.6621 10.5685C25.0261 10.2045 25.5197 10 26.0344 10H45.9658C46.4805 10 46.9742 10.2045 47.3382 10.5685L61.4318 24.6621C61.7958 25.0261 62.0003 25.5197 62.0003 26.0344V45.9658C62.0003 46.4805 61.7958 46.9742 61.4318 47.3382L47.3382 61.4318C46.9742 61.7958 46.4805 62.0003 45.9658 62.0003H26.0344C25.5197 62.0003 25.0261 61.7958 24.6621 61.4318L10.5685 47.3382C10.2045 46.9742 10 46.4805 10 45.9658V26.0344C10 25.5197 10.2045 25.0261 10.5685 24.6621L24.6621 10.5685Z"/>
  </g>
</symbol>
<symbol id="2BC4" viewBox="0 0 72 72">
  <g id="line-supplement">
    <path fill="currentColor" d="M15.7802 16.8308C15.9773 16.355 16.355 15.9773 16.8308 15.7802L35.2572 8.14784C35.733 7.95072 36.2671 7.95072 36.7429 8.14784L55.1693 15.7802C55.6451 15.9773 56.0228 16.355 56.2199 16.8308L63.8522 35.2572C64.0494 35.733 64.0494 36.2671 63.8522 36.7429L56.2199 55.1693C56.0228 55.6451 55.6451 56.0228 55.1693 56.2199L36.7429 63.8522C36.2671 64.0494 35.733 64.0494 35.2572 63.8522L16.8308 56.2199C16.355 56.0228 15.9773 55.6451 15.7802 55.1693L8.14784 36.7429C7.95072 36.2671 7.95072 35.733 8.14784 35.2572L15.7802 16.8308Z"/>
  </g>
  <g id="line">
    <path fill="none" stroke="currentColor" stroke-width="2" d="M15.7802 16.8308C15.9773 16.355 16.355 15.9773 16.8308 15.7802L35.2572 8.14784C35.733 7.95072 36.2671 7.95072 36.7429 8.14784L55.1693 15.7802C55.6451 15.9773 56.0228 16.355 56.2199 16.8308L63.8523 35.2572C64.0494 35.733 64.0494 36.2671 63.8523 36.7429L56.2199 55.1693C56.0228 55.6451 55.6451 56.0228 55.1693 56.2199L36.7429 63.8523C36.2671 64.0494 35.733 64.0494 35.2572 63.8523L16.8308 56.2199C16.355 56.0228 15.9773 55.6451 15.7802 55.1693L8.14784 36.7429C7.95072 36.2671 7.95072 35.733 8.14784 35.2572L15.7802 16.8308Z"/>
  </g>
</symbol>
<symbol id="2BEA" viewBox="0 0 72 72">
  <g id="line-supplement">
    <path fill="currentColor" d="M37.0606 11L27.8519 26.8699L9.5 29.5436L22.7851 42.4838L19.6568 60.7637L37.0606 52.5V11Z"/>
  </g>
  <g id="line">
    <path fill="none" stroke="currentColor" stroke-linecap="round" stroke-linejoin="round" stroke-miterlimit="10" stroke-width="2" d="M35.9928 10.7363L27.7913 27.3699L9.43939 30.0436L22.7245 42.9838L19.5962 61.2637L36.0084 52.6276L52.427 61.2515L49.2851 42.9739L62.5606 30.0239L44.2067 27.3638L35.9928 10.7363Z"/>
    <line x1="36" x2="36" y1="12" y2="49" stroke="currentColor" stroke-linecap="round" stroke-width="2"/>
  </g>
</symbol>
<symbol id="2BEB" viewBox="0 0 72 72">
  <g id="line-supplement">
    <path fill="currentColor" d="M35 11L44.2087 26.8699L62.5606 29.5436L49.2755 42.4838L52.4038 60.7637L35 52.5V11Z"/>
  </g>
  <g id="line">
    <path fill="none" stroke="currentColor" stroke-linecap="round" stroke-linejoin="round" stroke-miterlimit="10" stroke-width="2" d="M35.9928 10.7363L27.7913 27.3699L9.43939 30.0436L22.7245 42.9838L19.5962 61.2637L36.0084 52.6276L52.427 61.2515L49.2851 42.9739L62.5606 30.0239L44.2067 27.3638L35.9928 10.7363Z"/>
    <path fill="none" stroke="currentColor" stroke-linecap="round" stroke-width="2" d="M36 11.5V49"/>
  </g>
</symbol>
</svg>
