<?xml version="1.0" encoding="UTF-8"?>
<svg id="Layer_1" xmlns="http://www.w3.org/2000/svg" version="1.1" viewBox="0 0 119.5 120">
  <!-- Generator: Adobe Illustrator 29.7.1, SVG Export Plug-In . SVG Version: 2.1.1 Build 8)  -->
  <defs>
    <style>
      .st0 {
        stroke: #000;
        stroke-miterlimit: 10;
      }

      .st0, .st1 {
        fill: none;
      }

      .st1 {
        stroke: #f60;
      }
    </style>
  </defs>
  <path class="st1" d="M29.1,100.5s-3.9-45.6-1.1-79.5c.4-4.8,2.8-7.1,6.4-8.1,11.3-3.1,26.8-2.4,36.9,1.9,10.1,4.3,20.8,24.8,3.4,39.5-7.4,6.3-16.2,8.8-27.2,9.6-4.2.3-4.9,2.5-4,6.3,2,8.1,13.8,28.4,47,38.8"/>
  <path class="st0" d="M97.1,109s17.6-20.9,5.9-18.6-33.2-3.6-39.8-9.4-7.9-8.9,0-8.9,39.3-7.9,36.3-35.7S68.3-.7,50.1,19.7,14.7,45.8,14.4,23.8s29.9-26,19.9,20.9,24.5,85.8-14.8,55.7"/>
</svg>